<svg xmlns="http://www.w3.org/2000/svg" viewBox="0 0 38.06 173.97"><defs><style>.cls-1{fill:#fff;}</style></defs><title>concept-text-jp3</title><g id="レイヤー_2" data-name="レイヤー 2"><g id="ナビ"><path class="cls-1" d="M.71,30.08a22.91,22.91,0,0,0,4.12.29H30.66c2.23-2.6,2.73-2.9,3-2.9s.67.25,2.94,2.06c1.13.88,1.3,1.22,1.3,1.47s-.13.42-.55.42H4.83a35.68,35.68,0,0,0-3.7.21ZM4,2.48a23,23,0,0,0,4.07.29H28.23C30.29.29,30.83,0,31.08,0s.71.21,2.81,2c1,.88,1.22,1.18,1.22,1.43s-.13.42-.55.42H8.06A34.73,34.73,0,0,0,4.45,4Zm2.18,13a19.88,19.88,0,0,0,3.78.29H25.54c2-2.39,2.48-2.69,2.77-2.69s.63.17,2.73,1.93c1,.8,1.13,1.13,1.13,1.39s-.13.42-.55.42H10a32.83,32.83,0,0,0-3.4.21Z"/><path class="cls-1" d="M16.93,54.05c-.13,2.35-.25,4.7-.59,7h11.8c1.43-1.43,1.64-1.6,1.89-1.6s.59,0,2.1,1.43c.67.63.8.88.8,1.13s-.21.46-1.3,1.13c-.59,7.44-1.47,12.31-2.56,15a6,6,0,0,1-5.71,4.37c-.46,0-.63-.17-.71-.71-.25-1.39-1.13-2.1-5.08-3.4-.29-.08-.13-.71.17-.67a35,35,0,0,0,6.13.92c1.3,0,1.93-.59,2.65-2.73.8-2.35,1.55-7,2-13.78H16.17a30.39,30.39,0,0,1-2.27,7.94C11.38,75.73,7.1,79.68.46,82.58c-.25.13-.63-.42-.38-.59,5.5-3.65,9.16-7.81,11.3-13.36a47.62,47.62,0,0,0,2.27-14.58H3.7a18.54,18.54,0,0,0-2.94.25l-.46-1.6A20.33,20.33,0,0,0,3.7,53H17.05V48.22a27.07,27.07,0,0,0-.25-3.4c4.41.42,4.92.76,4.92,1.26,0,.29-.29.63-1.43,1.13V53H31.67c2.1-2.31,2.44-2.48,2.69-2.48s.59.17,2.56,1.81c.92.8,1.13,1.09,1.13,1.34s-.13.38-.55.38Z"/><path class="cls-1" d="M17.81,112.35a21.81,21.81,0,0,0,5.5,7.56,36,36,0,0,0,5.8-4.66,11.73,11.73,0,0,0,2.14-2.6c2.52,1.47,3.57,2.31,3.57,2.73s-.5.59-1.89.46a37.9,37.9,0,0,1-9,4.62c.71.55,1.43,1.05,2.18,1.55a32,32,0,0,0,11.68,3.91c.21,0,.17.42,0,.46a2.58,2.58,0,0,0-2.35,2.1c-.17.55-.42.76-.84.76a8.11,8.11,0,0,1-2.1-.59,28.12,28.12,0,0,1-7.39-4.12c-3.57-2.6-6.09-5.92-8.32-12.18h-6.6v12.14a96.64,96.64,0,0,0,9.54-2.69c.25-.08.42.42.21.55a75.91,75.91,0,0,1-15.29,6.39c-.17,1.22-.38,1.6-.92,1.6s-.5-.13-2-4.37c.88-.08,1.68-.17,2.81-.34.84-.13,1.72-.29,2.6-.5V109c0-5.33,0-9.41-.25-13.06a20.91,20.91,0,0,1,3.65,1.72h6.64V94.42c0-.67,0-1.47-.17-2.86,4.2.46,4.7.84,4.7,1.3s-.34.67-1.51,1.18v3.61h7.18c1.3-1.39,1.51-1.55,1.76-1.55s.59.17,1.93,1.26c.67.63.84.88.84,1.13s-.13.46-1.18,1.13v3.23c0,6,.17,8.36.17,9.12,0,.92-.67,1.34-2,1.34-.84,0-1.18-.25-1.22-1ZM27.68,98.7H10.17v5.59H27.68ZM10.17,111.3H27.68v-6H10.17Z"/><path class="cls-1" d="M10.79,167c0-2.65.17-6.64.34-10.71.13-3.32.21-6.59.29-10,0-1.55-.17-2.18-.8-2.6A6.82,6.82,0,0,0,9.16,143c-.34-.13-.5-.17-.5-.38s.17-.42.5-.55a4.23,4.23,0,0,1,1.51-.25,6.84,6.84,0,0,1,3.4,1.6,3.4,3.4,0,0,1,1.51,2.27,1.68,1.68,0,0,1-.59,1.18,2,2,0,0,0-.59,1.34c-.25,2-.5,4.58-.71,7.94-.25,3.91-.42,8-.42,10.21s.34,3.32,1.05,4a5.88,5.88,0,0,0,3.65.88,23,23,0,0,0,9.41-2.73,28.89,28.89,0,0,0,6.6-5c.21-.21.38-.34.55-.34a.46.46,0,0,1,.46.38,1.2,1.2,0,0,1-.34.84A25.23,25.23,0,0,1,27,171.32,19.86,19.86,0,0,1,17.39,174C13.36,174,10.79,172,10.79,167Z"/></g></g></svg>