<svg xmlns="http://www.w3.org/2000/svg" viewBox="0 0 328.15 452.11"><defs><style>.cls-1{fill:#999;fill-rule:evenodd;}</style></defs><title>concept-img1</title><g id="レイヤー_2" data-name="レイヤー 2"><g id="ナビ"><path class="cls-1" d="M245.57.27V.89h.62V1.5a10.66,10.66,0,0,1-2.16.31l-.31.92h-.31v.62l-.62.31-.62,2.77h-.31v.62h-.31v.62l-.62.31-.31,1.54-.92.62-.31.92h-.62l-.31.62-1.85.62v.31H236v.31h-.62v.31h-3.7l-7.39-3.08h-1.85V9.82a5.31,5.31,0,0,0-3.39.62l-.92.31v.31h-.62l-.31.62h-.62l-.62.92-.92.31v.62l-.62.31-.62,1.85h-.31v.62h-.31l-.31,2.47h-.31v.62h-.31v1.85H212v1.23h-.31v1.23h-.31v.92h-.31v.92h-.31l-.62,1.85h-.31V28l-.62.31-.31.92-.92.31-.31.62-1.54.31-.31.62h-.92v.31l-1.23.31V32l-3.08.62v.31l-.62-.31h-4.31v-.31h-1.23V32h-1.23V31.7l-4-.62v-.31l-1.85-.62v-.31H185.8v-.31a9.12,9.12,0,0,0-4,0v.31c-1.42.39-2.18,1.56-3.08,2.47l-1.85,1.54v.62l-.62.62v.62h-.31v.62h-.31v.62h-.31l-1.54,16h-.31v.92h-.31v.62h-.31v.92h-.31L172.24,57l-.62.31v.62h-.31v.62H171l-.31.92h-.62c-.46,1.74-2,2-3.39,2.77v.31h-.62l-.31.62-1.85.62v.92c.92.62.14.28.62.92l1.85,1.54v.62l.92.62.31,1.23.62.31v.62h.31v.62l.62.62v.62l.62.31v.62l.62.31v.62l.92.62v.62h.31v.62l.62.62v.62l.92.62v.62l.62.31.31,1.23a12.75,12.75,0,0,0,1.85,1.23h.92v.31h.62l.31.62h.62l.31.62h.62l1.54,1.85h.62l.31.62,1.85,1.54v.62l1.23.92V89l.62.31.31,1.23.62.31.62,1.85h.31v.62h.31l.62,1.85h.31l.31,2.47h.31v.62h.31v1.54h.31v.31h-.31v.31h.31v.92h.31v1.54h.31l-.31.92.62.31-.31,1.54c.26,1.11.73,4.92.31,6.47h-.31V114h.31v.62H191v1.23a11.86,11.86,0,0,1,.31,5.24c2.85,1.65,4,5,4,9.55v3.7H195v1.85c-.08.43-.32-.13-.31.31H195v2.16a.81.81,0,0,0-.31.92H195v1.54h.31l.31,1.85a29.19,29.19,0,0,1,9.24,1.23l5.24.31v.31l2.77.31v.31h.92v.31h.92V146l4.31.92v.31l3.7.62v.31l1.85.31v.31h.62v.31l2.16.31v.31l1.23.31v.31h.92v.31h.62v.31h.92v.31h.62v.31h.92l.31.62h.62v.31h.62v.31h.92l.31.62H236v.31h.62V154h.62l.62.62h.62l.31.62,1.85.62.31.62h.62v.31h.62l.62.62h.62l.31.62,1.85.62.31.62,1.54.31.31.62,1.23.31.31.62,1.23.31.31.62h.62l.62.92h.62l.62.92h.62l.31.62h.92l.92,1.23h.62l.62.92h.62l1.54,1.85h.62l.31.62H261c.8.56.51,1.17,1.85,1.54v.62a9.93,9.93,0,0,1,2.46,2.16l.62.31.31.92h.62v.62c1,.57,1.24,1.52,2.46,1.85a4.17,4.17,0,0,0,1.23,2.16l.62.31.31,1.23h.31a3.47,3.47,0,0,1,.92,1.54h-.31c-.31.58.26.92.31,1.23l-.92.62-.31.92h-.31v1.23h-.31V187l-.62.31v.62h-.31v.92l-.92.62-.31,1.23-1.23.92-.31,1.23-.62.31v.62l-1.23.92v.92H265l-.31.62h-.92v.31c.78.67.95,1.58,1.54,2.47l.62.31v.62l.92.62v.62l.62.62v.62h.31l.62,1.85.92.62v.62h.31v.62l.62.31V207h.31v.62l.62.62v.62l.62.31.31.92h.31l.31,1.54.62.31v.62h.31v.62h.31v.62l.62.62V215l.62.31V216l.62.31v.62h.31v.62h.31l.62,2.77h.31v.62h.31c.3.46.25.76.31,1.54l8.32,2.46v.31l2.47.92v-.31H289l-.31-.31v-3.08h-.31l.31-8.32H289v-1.23h.31l.31-2.16h.31v-.92h.31v-.92h.31l.31-1.85h.31v-.62l.62-.31v-.92l.62-.31.31-1.23.62-.31v-.62l.62-.31v-.62l.92-.62v-.62l.62-.31v-.62l2.16-1.85v-.62l.92-.31,1.23-1.54h.62l.92-1.23.92-.31.31-.62h.62v-.31l1.23-.31v-.31h1.23l.31-.62a3.73,3.73,0,0,1,1.85-.92,7.34,7.34,0,0,1-.62,2.46h-.31v1.54h-.31v.62h-.31c-.23.71.36.84.31,1.23h-.31v1.85h.31v2.16h.31v1.85h.31v1.54h.31v.92h.31v.92h.31v.92h.31v1.54h.31v2.16s.39,0,.31.62a.54.54,0,0,0-.31.62H309v3.7h-.31c-.19.71.37.85.31,1.23h-.31v.92h-.31v1.23h-.31v.62l-.62.31-.31,1.85-.62.31V223c-.13.27-.39,0-.62.92a8,8,0,0,1,4,2.77l.62.31v.62l.92.62.92,2.77.62.31.31,1.23.62.31v.62h.31v.92h.31l.62,1.85h.31v.62h.31v.92h.31v.62l.62.31.31,1.23h.31l.31.92.62.31v.62l.62.31v.62l.92.62V244l.62.31v.62l.92.62v.62l.62.31,1.23,1.54h.62l.31.62,1.85.62a.69.69,0,0,1,.92-.31v.31a2.83,2.83,0,0,0,1.23.62v.62A53.51,53.51,0,0,0,322.6,252c-1.41.42-5.5,0-6.47-.31h-2.46v-.31h-1.54v-.31h-2.47v-.31h-.92v-.31h-.92v-.31H306l-.31-.62H305v-.31h-.92v-.31h-.92v-.31h-.62l-.62-.92h-.62l-.31-.62-1.85-.62-.62-.92H298l-3.39-4-.62-.31v-.62a3.66,3.66,0,0,0-1.85-1.54v.31h-.31l-.31,1.54h-.31v.62h-.31v.62h-.31v.62l-.62.31-.62,1.85-.62.31-.31,1.23h-.31a2.55,2.55,0,0,0-.62,1.23h-.62l-.62,1.23-.92.31v.62H285l-.62.92c-.81.59-1.61.7-2.16,1.54-.31.41.07,1.09-.31,2.16h-.31v.92h-.31v.92H281v1.23h-.31v.62h-.31l-.31,1.85h-.31l-.31,1.54h-.31l-.31,1.23h-.31v.62h-.31v.92h-.31l-.31,1.23h-.31L277,266.8l-.62.31-.31,1.54-.92.62v.62h-.31l-.31.92-.62.31v.62l-.92.62V273l-.62.31v.62l-2.77,2.46V277l-2.77,2.47-.92,1.23h-.62l-1.23,1.54h-.62l-1.23,1.54h-.62l-.31.62h-.62l-.31.62-.92.31v.31l-1.23.31-.62.92-1.23.31-.31.62-.92.31v.31l-1.54.31V289H253v.31l-1.23.31v.31h-.92v.31h-.62v.31l-1.85.62v.31l-1.85.31v.31h-.92v.31h-.92v.31c-2,.61-5.67-1.43-7.7-1.54-.62,1-1.76,1.26-2.77,1.85v.31h-.62l-.31.62h-.62v.31a2.46,2.46,0,0,1-1.23.62v.62c1.69,1,2.57,2.74,3.7,4.31l1.23.92v.62l.62.31v.62l.92.62v.62l.62.31.31,1.23.62.31v.62h.31v1.23H240l.31,1.23h.31v.92a10.89,10.89,0,0,1,1.23,5.24h-.62c-.75.89-1.8,1.13-2.16,2.47h.62c.36,1.37,1.16,1.09,1.54,2.46h.62l1.23,2.46h.62c.21,1.09.79,1.4,1.23,2.16v.62l.62.31.31,1.23.62.31.62,1.85.62.31v.92l.62.31v.62l.62.62v.62h.31v.62h.31V333l.62.62v.62l.62.31.31,1.54h.31l.31,1.23H252V338h.31v.92h.31v.62H253l.31,1.85h.31v1.54h.31v2.16h.31l-.31.62h.31v1.85h.31v2.16h.31v2.77h.31l.31,3.7c1.23,4.22,0,10.2-1.23,13.56l-.92,4H253l-.31,1.23h-.31v.92H252v.92h-.31v.62h-.31V378l-.62.31v.92h-.31v.62h-.31v.62h-.31l-.31,1.23L249,382l-.31,1.23h-.31l-.31.92-.62.31v.62l-1.23.92v.62l-1.23.92-.31.92H244v.62h-.62V390l-2.46,2.16-.31.62H240l-.62.92h-.62l-.31.62h-.62l-.92,1.23-2.47,2.16c-.32.38,0,.73-.31,1.23l-.62.31v.62l-.62.31c-.53.73.33.55-.92.92v.62l-.92.31-.92,1.23h-.62c-.28,1.09-.89,1.19-1.54,1.85l-1.23,1.54-1.54.31v.31h-.62v.31c-1,.43-4.81,1.12-6.47.62v-.31h-1.23v-.31h-1.23v-.31h-1.23V407h-1.23v-.31l-4-.92c-.05,1.72-.25,4.09.62,4.93.35.35,0,.12.62.31v.92a14.6,14.6,0,0,1,1.85,1.23l.62.92h.62l.92,1.23h.62l1.23,1.54h.62l1.23,1.54h.62v.31l.92.31.31.62h.62v.31c.79.66,1.35,1.54,2.46,1.85v.62h.62V423l1.54.92.31.92.92.62.31,1.23.92.62.31,1.54h.31l.31.92c1.39.38.7.92,1.54,1.54h.62l.62.62.31.62,1.85.31v.31c1.61.79,2.81.92,3.7,2.46.73.71.65,2.23.62,3.7l-.92.31c-.35.35,0,.12-.62.31.08.88.44,2.19,0,3.08l-.92.62a.45.45,0,0,0,.31.62l-.31,1.54h-.62a2.07,2.07,0,0,1-.92.92l.31.62h.31a4.22,4.22,0,0,1-.62,2.46c-1.29,1.59-7.69,3.05-10.78,1.85v-.31h-.62l-.31-.62h-.62c-.8-.56-.51-1.16-1.85-1.54v-.62a2.43,2.43,0,0,1-1.23-.62v-.31h-.62v-.31h-.62V447H216v-.31h-4.62l-5.85-.92v-.31l-1.23-.31v-.31h-.92l-.31-.62-1.23-.31v-.31a2.59,2.59,0,0,0-1.23-.62v-.62L195,437.49l-.92-1.23h-.62l-.62-.92h-.62l-.62-.62H191v-.31h-.62v-.31h-.62l-.31-.62-3.08-.62v-.31h-.92v-.31h-1.54v-.31h-2.16v-.31h-1.23v.31c-2.3.6-6.83-.5-8-1.23l-.31-.62c-1.25-.77-2,0-2.46-1.85-1-.83-1.29-3.39-.92-4.62v-1.54h.31v-.92h.31l.31-1.85h.31v-.62h.31v-.62l.62-.62v-.62l.92-.62.31-1.23.92-.62v-.62l.62-.31v-.62l1.23-.92.31-1.23.62-.31v-.62l.62-.31v-.62l.92-.62.31-1.23.62-.31.31-1.54.62-.31v-1.54h.31l.31-4.31c-1.17-.69-1.42-1.68-2.16-2.77l-.62-.31v-.62l-.62-.31a8.12,8.12,0,0,1-1.23-2.77l-6.16-.62v-.31h-.92l-.31-.62h-.62l-.62-.62-1.23-.31-.31-.62h-.62v-.31l-1.23-.92v-.62l-.92-.62V386l-.62-.62v-.62h-.31v-.62h-.31l-.31-1.23h-.31c-.44-1-1.43-5.37-.92-7.09h.31v-1.54h.31v-2.46h.31v-.92h.31v-.62h.31v-.92h.31v-.62h.31l.31-1.23h.31l1.23-3.7.92-.62.62-1.85.62-.31.62-1.85.62-.31V358h.31l.31-1.23h.31v-.92l.62-.31v-.62h.31v-.62h.31v-.92h.31c.54-1.66-.41-3.21-.62-4.31a4.7,4.7,0,0,0-2.46,0v.31h-2.77v.31h-2.16V350h-1.85v.31h-2.77v.31h-2.16v.31h-1.85v.31a5.86,5.86,0,0,1-2.77-.31c-1.54-.43-6.85.05-8,.31l-2.16-.31c-2.45.61-11.14.68-13.56,0h-6.16v-.31H118v-.31l-4-.31v-.31h-1.54v-.31h-1.85l-.31-.31v.31c-1,.69-.63,1.56-1.23,2.47l-.92.62-.31,1.23-1.54,1.23v.31l-1.23.31-.62.92h-.62l-.31.62-2.77.92a5.09,5.09,0,0,0,0,2.47V362h.31v.62h.31v.92h.31v.92H102l.31,2.77h.31v.62h.31l.31,2.46h.31v.92l.62.31v1.54h.31l.31,2.46h.31v.92h.31v1.23h.31c.68,2.27-.58,8.18-1.23,9.24l-.62.31v.62l-.62.31L101.68,390l-2.16.62V391l-.92.31-.31.62-1.23.31-.31.62-1.54.31v.31l-1.23.31V394H92.74v.31h-.92v.31l-.92.31,1.54,8.32h.31l.31,1.54.62.31v.62H94v.62h.31l.31,1.85h.31l.31,1.23h.31l.31,1.85h.31v.62h.31v1.23h.31v.62h.31v1.54c.26.82,1.26,4.37.92,5.55l-1.23,3.7-1.54.92-.31.62h-.62l-.31.62-1.85.31v.31c-1.48.48-6,0-7.09-.31l-5.24.92v.31H78.57v.31H78v.31l-2.77.92-.31.62-1.23.31-.31.62h-.62l-.31.62h-.62l-.31.62-1.23.31-.62.92H69L68.09,435h-.62l-.31.62-1.85.62-.62.92-1.23.31v.31c-2.29,1-5.29.94-8.63.92l-3.39-.31v.31l-1.85.62v.31a17.26,17.26,0,0,1-8.32,1.85H38.21v-.31h-.62v-.31a13.3,13.3,0,0,0-2.46-.62l-.31-.92h-.92l-1.23-1.54H32l-.31-.62h-.31c-.3-.47.1-.92-.31-1.23-1.43-1.1-2.89.55-3.08-2.46-.35-.35-.12,0-.31-.62l1.23-.92v-.31a11.56,11.56,0,0,1,5.85-1.85v.62c-1.94,0-4.86,1.26-5.24,2.77h-.31v.92a8.65,8.65,0,0,0,2.16.92v.31c.45.09,1.1-.84,1.23-.92h.62l.31-.62,1.54-.31a6.35,6.35,0,0,1,2.77-.92l-.31.92c-1.62.08-1.57.74-3.08.92-.39,1.45-1.32,1.23-1.54,3.08l.92.31v-.31c.53-.35.42-.19.62-.92l2.77-.92v-.31h.62V435l4.93-.92-.31.92-2.46.31-.31.62h-.92v.31l-1.85.31-1.54,1.85c.18.62,0,.27.31.62s.6.52.92.92a19.54,19.54,0,0,0,7.7-.92h.92v-.31h.62v-.31h.92v-.31h.62v-.31l1.85-.62v-.31h4.62v.31c1.06.29,1.73-.32,2.46-.31v.31l4.93-.92V436l1.85-.62V435l1.23-.31.31-.62h.62l.31-.62h.62l.31-.62h.62l.31-.62h.62l.31-.62H69l.31-.62h.62v-.31l.92-.31.31-.62h.62l.62-.92,1.23-.31.31-.62,1.23-.31v-.31l1.23-.31v-.31h.92v-.31h.92v-.31h1.23v-.31h2.77v-.31h3.39v.31h4v-.31h2.77v-.31l1.54-.31a10.48,10.48,0,0,0,.92-8.63l-.31-2.77h-.31v-.62H94L93.67,411h-.31v-.62h-.31v-.92h-.31v-.62h-.31l-.62-3.08h-.31v-.62H91.2v-.92H90.9v-.62h-.31v-.92h-.31v-1.23H90l-.31-5.85c-2.18,0-3.63.84-5.55,1.23v.31h-.31v.92l-.62.31V399h-.31v.62L81,401.14l-.31.92-1.23.62-.31.92-1.23.31-.31.62H77v.31l-2.47.31v.31h-.92v.31H68.4v-.31H66.86v-.31H65.63v-.31a11.9,11.9,0,0,0-2.46-.92c-.06,1.79-.89,2.23-1.23,3.7h-.62c-.37,1.21-.07.39-.92.92v.31h-.62l-.31.62h-.62v.31l-.92.31-.31.62H57l-.92,1.23-1.23.31-.31.62-.92.31v.31l-1.23.31-.31.62h-.62l-1.23,1.54h-.62l-.31.62h-.62l-.62.92-1.23.31-.31.62-.92.31-.62.92h-.62l-.31.92-.62.31L41.9,422.7h-.62l-.31.92-2.47,2.16-.62.92h-.62l-1.23,1.54H34.2v.31l-5.85.31-.31.62h-.92v.31l-1.23.92c.27,1.06.64.79.92,1.85-1.31-.31-1.62-1.15-2.46-1.85v-.62c1.15-.5,2.17-1.43,3.39-1.85l4.31-.31v-.31l3.08-.62.62-.92h.62l.31-.62c1-.91,2.1-1.57,2.46-3.08h.62l2.77-3.7h.62l.62-.92h.62l.62-.92h.62l.62-.92,1.23-.31.62-.92h.62l.92-1.23h.62l.31-.62.92-.31v-.31l1.23-.31.31-.62,1.85-.62v-.31l.92-.31.31-.62,1.23-.31.62-.92h.62l.62-.92h.62c.95-.68,1.89-2.91,2.16-4.31l-2.77.31v.31H57.31v.31H55.46v.31c-2.38.67-6.41-.74-8-1.23l-2.77-.31v-.31h-.62l-.31-.62h-.62l-.31-.62h-.62l-.31-.62h-.62L40.06,399h-.31l-.62-3.7h-.31L38.51,394,37,392.82v-.62L31.12,387v-.62l-1.54-1.23v-.62l-.62-.31L28.66,383l-.62-.31-.31-1.23-.62-.31-.31-1.54H26.5V379h-.31l-.62-1.85h-.31v-1.23H25v-.62h-.31V374h-.31v-.62H24l-.31-3.08h-.31v-1.54h-.31L22.8,366h-.31v-1.23h-.31v-4.62h-.31v-2.77c0-3.08-.08-5.74.62-8v-1.54h.31V346h.31v-1.23h.31V342.9h.31v-.62H24v-1.23h.31v-.62h.31V339.2H25l.31-1.23h.31v-1.23l.62-.31v-.62h.31l.62-2.77h.31l.62-1.85h.31v-.62h.31v-.92H29l.62-1.85h.31v-.62h.31v-.62h.31l.62-1.85.62-.31v-.62l.62-.31v-.62l.62-.31v-.62l.62-.31V321l.62-.31v-.62h.31l.31-.92.62-.31v-.62l.92-.62V317l.62-.31v-.31l.62-.31v-.62c.57-.8,1.16-.51,1.54-1.85h.62c.56-2.11,3.11-2.52,3.7-4.62h.62v-.92c-.76-.44-.86-1-1.85-1.23-.44-2-2.28-2.51-2.77-4.62.75-.47.19-.38.62-.92l.62-.31v-.31l1.23-.31v-.31h.62l.31-.62,1.85-.62v-.31h.62v-.31h.62v-.31h.62l.62-.62h.62l.31-.62h.62l.31-.62.92-.31v-.31a3.4,3.4,0,0,1,1.54-.92c.35-1.33,1-1.06,1.54-1.85v-.62h.31l.31-.92.62-.31v-.62l.62-.31a6.29,6.29,0,0,0,1.85-2.46h.62v-.62h.62A5.21,5.21,0,0,1,59.16,285h.62l.62-.92H61v-.31l1.23-.31.31-.62.92-.31v-.31l1.54-.31.31-.62,5.55-2.16v-.31h-.31l-.31-.92h-.31v-.62h-.31v-.92L69,276l-.31-1.85H68.4L68.09,273h-.31v-1.54h-.31v-.92h-.31v-.92h-.31v-.92h-.31l-.31-2.46h-.31v-.62h-.31v-1.23c-.49-1.47-.79-3.72-1.23-5.24V256h-.31v-3.08h-.31v-1.85h-.31v-1.54h-.31c-.33-1.14.34-2.32,0-2.77s0-.12-.62-.31c-.25.87-.37.75-.92,1.23V248l-.92.31-.31.92h-.62l-1.54,1.85-.62.31V252l-.92.31-.92,1.54h-.31l-.31.62h-.62L53.3,256h-.62l-.62.92-.92.31L49,259.71h-.62l-.31.62-.92.31v.31l-1.23.31-.31.62-.92.31v.31h-.62v.31h-.62l-.62.62h-.62l-.31.62h-.62l-.62.62h-.62v.31h-.62v.31h-.62v.31h-.62v.31h-.62v.31H37v.31h-.62v.31l-1.85.62v.31h-.92V268H33v.31H32v.31h-.92l-.31.62h-.92v.31h-.62v.31l-1.54.31v.31H26.5v.31h-.92v.31h-.92v.31h-.92v.31H22.8V272H21.26v.31H19.72v.31H18.49V273H16.64v.31H14.79v.31H13.25v.31l-1.54-.31a.53.53,0,0,1-.62.31v-.31h-.92v-.31H8s0-.21-.62-.31c-.64-1.19-1.53-1.83-2.16-3.08H4.93v-1.23H4.62v-.92H4.31v-1.54H4V264c-.55-2.08-.62-6.48-.62-10.17v-3.7H3.7a7.84,7.84,0,0,0,.62-3.08c-1.42-.85-1.76-2.94-3.39-3.39l.31-1.54H.92v-.62H.62V240.3H.31v-.62H0l.31-8.32,2.46-7.7h.31l.31-1.23H3.7v-.92H4v-.62h.31L4.93,219h.31v-.92h.31l.62-1.85h.31L6.78,215l.62-.31.31-1.23.62-.31.92-2.77.92-.62v-.62l.62-.31.31-.92h.31l.31-1.23.62-.31v-.62l.92-.62v-.62l.62-.31v-.62l1.54-1.23v-.62l.92-.62v-.62l.62-.31v-.62l.62-.31.31-1.23h.31a3.5,3.5,0,0,0,.92-1.54h.62l.31-3.39h.31v-.62h.31v-.92H21v-.92h.31v-1.54l.62-.31.31-1.85h.31v-.62h.31v-1.23h.31v-.62h.31v-1.23h.31v-.62H24v-.92l.62-.31.62-1.85.62-.31v-.62l.62-.31.31-.92h.31l.31-.92H28c.74-1.25,2.07-1.39,2.77-2.47-1.42-.66-2.06-1.75-3.08-2.77l-1.85-1.54-.62-.92h-.62v-.31l-1.23-.92v-.92c1.81-.34,3-1.6,4.31-2.47h.62l.62-.92h.62l.31-.62h.62l.31-.62h.92v-.31h.62v-.31H33l.31-.62,1.54-.31v-.31h.62v-.31h.62v-.31L37.9,159v-.31l1.54-.31V158h.62v-.31l1.85-.31v-.31l1.23-.31v-.31l1.54-.31v-.31h1.23v-.31h.92v-.31h1.23v-.31H49.3v-.31h1.23v-.31h.62V154h2.47v-.31c1-.84.93-1.66,1.54-2.77h.31v-.62l.62-.31.31-1.23h.31v-.62H57v-.62h.31v-.92l.92-.62v-.62l.62-.31.31-1.23.62-.31.62-1.85.62-.31v-.62l.92-.62v-.62h.31v-.62l.62-.31.31-1.23.62-.31v-.62l.92-.62.31-1.23.62-.31.31-1.54.62-.31.31-.92h.31v-.62h.31v-.62h.31v-.62l.62-.62v-.62l.92-.62.31-1.23.62-.31.31-1.23.62-.31,1.23-3.39.62-.31v-.62l.92-.62.31-1.23.92-.62v-.62l.62-.31v-.62l.62-.31.31-.92H77l.31-1.23.62-.31V113l.62-.31v-.62h.31l.31-1.23,1.54-1.23v-.92l.62-.31v-.62l1.23-.92v-.62l.62-.31v-.62l.92-.62.31-1.23L86,102.26v-.62l.92-.62v-.62l.62-.31v-.31l.62-.31v-.62c.57-.8,1.17-.51,1.54-1.85h.62a2.41,2.41,0,0,1,.62-1.23h.31v-.62h.31l.62-.92.62-.31v-.62h.31l.62-.92.92-.62v-.62l1.23-.92v-.62l1.85-1.54v-.62l3.7-3.39v-.62l.92-.62,2.16-2.47h.62l.62-.92H106v-.62l1.54-1.23,2.77-3.08c.2-.18,1.76-.77,1.54-1.23h-.31l-.31-.92h-.31v-.62h-.31L110,69.91h-.31l-.31-1.85-.62-.31v-.92h-.31v-.62h-.31L106.92,61l-.31-2.46c0-.06.41-.11.31-.62h-.31V57h-.31V52.34h.31V50.8h.31v-.92h.31v-.62h.31v-.92h.31v-.62h.31V46.8l.62-.31v-.62l.62-.31v-.62l.62-.31V44l.62-.31,1.23-1.54h.62l.31-.62h.62l.31-.62h.92v-.31h.62v-.31L117.7,40v-.31h1.54V39.4h3.39c.42-.1-.12-.36.31-.31v.31l2.16.31V40h.62v.31l4.31.31,6.47,1.85v.31l1.23.31v.31h.92v.31l1.85.62v.31l1.23.31.31.62h.62v.31c.45.31.76.25,1.54.31.64-1,1.23-.88,2.16-1.54l1.23-1.54h.62l1.54-1.85.92-.31.62-.92h.62l.31-.62h.62l.62-.92h.62l.31-.62,1.23-.31.31-.62,1.23-.31.31-.62h.62v-.31a4.58,4.58,0,0,1,2.16-1.23v-.62c2.06-.16,3-1.58,4.31-2.46h.62l.31-.62,1.85-.62.62-.92h.62l.31-.62h.62l.31-.62h.62l.31-.62h.62l.31-.62,1.23-.31.31-.62.92-.31v-.31H175v-.31l.92-.31.31-.62,1.85-.62.62-.92h.62l.62-.62h.62v-.31h.62l.31-.62h.62l.62-.62h.62V20h.62l.31-.62,1.54-.31.31-.62,1.85-.62.31-.62h.62v-.31l2.16-.62.31-.62h.92v-.31h.62l.31-.62h.92l.31-.62h.92v-.31H196v-.31l1.85-.62V12.6l1.85-.31.31-.62h.92v-.31l1.23-.31v-.31l2.16-.31v-.31h.62V9.82h.62l.31-.62,1.85-.31V8.59h.62V8.28L210.14,8V7.67h.62V7.36l1.85-.31V6.74h.62V6.43h1.23V6.13h.92V5.82h.92V5.51l3.08-.62V4.59h1.54V4.28h.62V4l3.39-.62V3h.92V2.74h1.23V2.43h1.23V2.12h1.23V1.81h1.23V1.5l3.39-.31A26.38,26.38,0,0,1,245.57.27ZM218.15,9.21a8.7,8.7,0,0,0,3.7-.92V8l2.77-.62V7.05h.92V6.74h.92V6.43h.92V6.13h.92V5.82h.92V5.51h.62V5.2h.92V4.89l3.08-.62c2.89-1.15,6-2.59,9.86-2.77V.89a7.66,7.66,0,0,0-4,.31h-2.46V1.5h-1.54v.31h-1.54v.31h-.92v.31h-1.54v.31L229.24,3v.31h-.92v.31L226.16,4v.31l-2.46.31v.31l-2.16.31v.31h-.62v.31h-1.23l-2.77.92A6.77,6.77,0,0,1,218.15,9.21ZM244.65.89c.35.35,0,.12.62.31C244.91.85,245.26,1.07,244.65.89Zm-2.47,1.23v.31L239.1,3v.31h-1.23v.31L236.64,4v.31l-3.08.62V5.2h-.92v.31H232v.31l-2.16.31v.31h-.92v.31h-.62v.31l-2.16.31-3.7,1.54v.31a9.1,9.1,0,0,1,3.7.92v.31l1.85.31v.31l1.23.31v.31l1.85.31v.31a8.71,8.71,0,0,0,4.62-.62v-.31h.62v-.31h.62l.62-.62h.62l.31-.62h.62V9.52l.62-.31L240,7.36l.62-.31.31-1.23h.31l.31-1.23h.31V3.66h.31V3c.09-.15.43-.27.62-.62Zm-67.79,25h.92a13.33,13.33,0,0,0,2.16,2.47v.31h.92c.84-1.31,1.34-.8,2.46-1.54l.62-.92h.62l.31-.62,1.23-.31.62-.92h.92l.31-.62,1.23-.31L187,24l.92-.31v-.31l1.85-.62.31-.62,1.54-.31v-.31l1.23-.31.31-.62h.62V20.3l1.54-.31.31-.62,1.54-.31.31-.62h.62v-.31h.62l.62-.62H200l.31-.62h.62V16.6h.62v-.31h.92V16h.62v-.31l1.85-.31v-.31h.62v-.31l1.85-.31v-.31l1.23-.31v-.31h.62v-.31h.62V12.9l1.85-.62V12l1.85-.31v-.31l1.23-.31v-.31h.92v-.31c1.21-.5,1.43.22,1.85-1.23h-.31l-.31-.92h-.31V7.67h-.31c-.47-.51-.25-.52-1.23-.62v.31c-.55.42-1.46,0-2.16.31V8l-1.85.62V8.9h-1.23v.31h-.62v.31l-1.85.31v.31l-1.23.31v.31l-1.85.31v.31l-1.23.31V12l-1.54.31-.31.62h-.92v.31h-.92v.31h-.62v.31h-.92l-.31.62h-.92v.31l-1.23.31v.31h-.92v.31l-1.85.62v.31H192v.31h-.62v.31h-.62v.31h-.62v.31h-.62v.31h-.62v.31h-.62l-.62.62H187l-.31.62-1.85.62-.31.62h-.62v.31h-.62v.31h-.62l-.62.62h-.62l-.31.62-1.85.62-.62.92-1.85.62-.31.62h-.62l-.31.62C174.66,26.72,174.83,25.6,174.4,27.08Zm8,.92v.62l1.54-.31v.31l2.47.31v.31h.92v.31H188v.31l1.85.31v.31h1.54v.31h1.23v.31h1.23v.31H195v.31h2.16V32c1.54.43,3.14-.32,4-.62h1.23v-.31l1.23-.31v-.31h.62v-.31h.62v-.31h.92l.62-.92h.62l1.85-1.54v-.62l.62-.31.31-1.54h.31v-.62h.31V23.07h.31v-.62h.31V21.22h.31V20.3h.31l.62-4c.55-1.53,1.78-2.67,2.16-4.31h-.31c-.71.76-.69.22-1.54.62v.31H212v.31h-.62l-.31.62h-.92l-.31.62h-.62v.31h-.62v.31h-.92v.31h-1.23v.31l-1.85.62v.31l-1.85.31v.31h-.62l-.31.62h-.92v.31l-.92.31-.31.62c-.59.32-1.87.25-2.46.62V20l-.92.31-.31.62-2.77.92v.31l-1.85.62v.31l-1.23.31-.31.62-1.85.62-.31.62-1.85.62-.62.92h-.62C183.8,27.22,183.49,27.74,182.41,28Zm-20.34,5.85c-.52,1.75-.49.61-1.54,1.23l-.62.92h-.62l-.31.62-.92.31v.31h-.62l-.31.62-.92.31v.31l-1.23.31-.31.62h-.62v.31l-.92.31-.31.62h-.62l-.31.62h-.31l-.31.62h-.62l-1.23,1.54h-.62l-.31.62h-.62l-1.23,1.54H146v.31c-.93.57-.24-.26-.92.62h-.31v.62c.37.2.45.51.62.62H146V48h.62l.62.92h.62l.62.92h.62c.8.57.51,1.17,1.85,1.54V52c.85.22.69.09.92.92,1.33.36,1.06,1,1.85,1.54h.62l.31.62,3.39,3.08.92,1.23h.62V60c1.29.32,2.79,2.32,3.39,3.39l.92-.31.31-.62h.62l.31-.62h.62v-.31h.62L167,61h.62v-.31a2.57,2.57,0,0,1,1.23-.62c.33-1.32,1-1.07,1.54-1.85v-.62l.62-.31v-.92h.31l.31-.92.62-.31.31-2.16h.31v-.62h.31l-.31-.62h.31V49.57h.31V47.41h.31V44.95h.31v-4h.31V38.17h.31V36.94H175V35.71h.31l.31-1.23h.31v-.62l.62-.31v-.62h.31a2.52,2.52,0,0,0,.62-1.23c-2,.41-2.45,1.89-4.62,2.16v.92h-.31c-.33.39-.54.32-.92.62v.31H171l-.62.92h-.92l-.31.62-1.23.31-.62.92h-.62l-.31.62-1.23.31v.31a4.49,4.49,0,0,1-1.85,1.23c-.38,1.22-.07.38-.92.92v.31h-.62l-.62.92h-.31l-.31.62h-.62l-1.54,1.85h-.62l-1.54,1.85-.92.31v.62c-2,.53-1.86,2.48-4.31,2.77v-.92h.62A11,11,0,0,1,155,47.11l1.54-1.85h.62l2.46-2.77h.62l.31-.62.92-.31.92-1.23H163l.92-1.23h.62l.31-.62,1.23-.31.92-1.23.92-.31.31-.62h.62v-.31h.62V35.4h.62l.31-.62.92-.31v-.62a7.3,7.3,0,0,0,2.16-1.23h.62l.31-.62H175l.31-.62h.62l.31-.62h.62v-.31h-.31c-.49-1.84-2.33-1.87-3.39-3.08l-.92.31V28h-.62l-.31.62h-.62l-.31.62h-.62l-.31.62-1.23.31-.62.92H167l-.31.62-.92.31v.31l-1.23.31-.31.62h-.62v.31C163.16,33.85,162.85,33.8,162.07,33.86Zm-25,49.61v.62l-1.85.31v-.31h-4v.31h-2.46v-.31h-1.54v-.31l-3.39-.31v-.31h-.92v-.31l-1.23-.31v-.31h-4.31l-5.24,1.23v.31l-1.23.31v.31l-1.23.31-.31.62-1.85.62v.31l-.92.31-.31.62-1.23.31-.62.92h-.62l-1.54,1.85-2.16,1.85v.62l-.92.62v.62l-.62.31-.31.92H98v.62l-.62.31-.31,1.23-.62.31v.62h-.31l-.31,1.23h-.31v1.23h-.31L94.9,102h-.31L94,105h-.31v.62h-.31v1.54h-.31l-.31,1.23a6.86,6.86,0,0,0,2.46-.62v-.31h.92v-.31h.62v-.31l3.08-.31v-.31H102c2.61-.76,6.25-.78,8.94-1.54h3.39v-.31h2.46v-.31h21c.43-.07-.12-.22.31-.31l4.62.62c3.41.08,7.92-.5,10.78.31h9.86c2.56.74,6.38.8,8.94,1.54l6.16.31v.31h.92v.31h2.16v.31h1.23v.31h1.23v.31l5.24,1.23a21.38,21.38,0,0,0-.92-5.55V102H188v-1.23h-.31V99.49h-.31V98.25H187v-.92h-.31v-.92h-.31l-.31-1.23h-.31v-.92h-.31L185.18,93h-.31V92.4l-.62-.31v-.62l-.62-.31-.31-1.23H183l-.31-.92-.62-.31v-.62l-1.54-1.23-2.77-3.08-2.16-1.54H175l-.31-.62c-.44-.28-1.21-.21-1.54-.62v-.62l-1.23-.92v-.62l-.62-.31-.31-.92h-.31l-.31-1.23-.92-.62v-.62l-.62-.31-.31-.92h-.31l-.62-1.85-.62-.31v-.62l-1.23-.92V69.6l-.62-.31v-.62L163,66.83v-.62l-1.23-.92v-.62l-.62-.31-1.23-1.54-1.23-.92-.31-.62-.92-.31v-.62C156.17,60,155.78,59,155,58.2l-1.85-1.54-.31-.62h-.62l-1.85-2.16h-.62L148.21,52h-.62l-.62-.92h-.62L146,50.5h-.62l-.62-.92h-.62l-.62-.92H143l-.31-.62H142l-.31-.62-.92-.31V46.8L139,46.18v-.31l-1.85-.62v-.31h-.92v-.31h-.62v-.31H135V44h-.62v-.31l-3.08-.62v-.31h-.62v-.31l-4-.62v-.31H125.4v-.31h-3.7v-.31h-1.23v.31l-2.16.31v.31h-.92v.31c-.83.33-1.77.19-2.46.62l-.31.62H114l-.62.92h-.62l-.31.62-1.23.92v.62l-.62.31v.62l-.62.31L109.69,49l-.62.31-.31,1.54h-.31v.62h-.31l-.31,1.85h-.31v.62h-.31c-.36,1,.25,2.07.31,2.77l.31,3.7h.31V61h.31v.92h.31v1.23h.31v.62h.31l.31,1.85H110l.62,1.85h.31v.62h.31v.62h.31v.62h.31v.62l.62.62v.62h.31l.31.92.92.62v.92l.62.31v.62l.62.31,1.54,1.85h.62l1.23,1.54h.62l1.23,1.54h.62l.31.62,4.93,2.16h1.85v.31h.92v.31Zm-27.42-6.78h-.62c-.3,1.08-.86,1.2-1.54,1.85v.31h.31c.48.75.25.2.92.62v.31h.62v.31a3.32,3.32,0,0,0,1.54.92v.92h.31v.31h.92c1.1-1.08,4.29-1.51,6.16-1.85v-.31c-1.25-.3-1.08-1-1.85-1.54h-.62l-1.54-1.85H114v-.62h-.62c-.19-1.07-.51-1.59-1.54-1.85l-1.23,1.54-.92.31Zm-9.86,9.86C99.54,87.66,98.64,88.23,98,89h-.31v.62h-.31l-.92,1.23-.92.62v.62L94.28,93v.62l-1.23.92v.62l-.92.62v.62L90,98.25l-.31.92-.92.62v.62l-1.23.92V102L86,103.18v.62l-.62.31v.62l-1.23.92v.62l-.92.62v.62l-.92.62v.62H82v.62h-.31l-.31.92c1.23.24,1.94.93,3.08,1.23v.62c.1.2,1,.45.92.92H85c-.35.35,0,.12-.62.31-.75-1.31-2.2-1.86-4.31-1.85L77,117l-.62.31-.31,1.23-.92.62-.31,1.23-.62.31A11,11,0,0,0,73,124.14h-.62a2.21,2.21,0,0,1-.62,1.54h-.31l-.31,1.54-.62.31v.62l-.62.31-.31,1.23L69,130l-.31,1.23-.62.31-.31.92h-.31v.62h-.31v.62l-.62.62v.62l-.62.31v.62l-.62.31v.62l-.62.31-.62,1.85-.62.31-.31.92-.92.62v.62h-.31V142l-.62.31v.62H61v.62l-.62.62v.62l-.62.31a9.58,9.58,0,0,0-1.85,4.62,4.37,4.37,0,0,1,2.46.62v.31c.81.76.06.69,1.54.92a7.45,7.45,0,0,1,1.23-2.46v-.62l.62-.31.62-1.85L65,146l.31-1.23.62-.31v-.92l.62-.31.31-.92h.31v-.92h.31l.31-.92.62-.31v-.62l.62-.31v-.62l.62-.31v-.62l.62-.31v-.62l.62-.31v-.92l.62-.31.62-1.85.62-.31.31-1.23.92-.62v-.62l.62-.31.31-1.23.62-.31.31-1.23L77,126.6c.76-1.07.67-2.08,2.16-2.46-.33-1.73-.59-4.47.31-5.85l.92-.31a3,3,0,0,0,.62-1.54l.92-.31v-.31h.62l.31-.62,3.08-.62,1.85-3.7L89,110v-.62l.62-.31v-.62l.92-.62v-.62l.92-.62V106h.31v-1.54h.31v-1.23h.31v-.62h.31v-.92h.31l.31-1.85h.31L94,98.56h.31v-.62l.62-.31.92-2.77.62-.31v-.62l.92-.62.31-1.23.92-.62v-.62l.62-.31,1.54-1.85h.62l1.54-1.85h.62l.62-.92,1.85-.62.31-.62h.62v-.31h.62v-.31l1.54-.31.31-.62c.58-.36.69,0,1.23-.62h-.31c-.48-1.79-2.1-1.65-3.08-2.77h-.62l-.31.62-.92.31v.62l-.92.62v.31l-.92.31-.31.92-2.16,1.85v.62h-.31C100.33,86.39,100.6,86.33,99.83,86.55Zm89.35,27.73v-4A15.88,15.88,0,0,1,183,109h-1.54v-.31h-1.23v-.31h-.92v-.31h-1.85v-.31h-1.85v-.31h-2.46c-2.59-.76-6.35-.78-8.94-1.54h-3.7v-.31l-2.77.31a65.47,65.47,0,0,0-10.48-.62h-5.55a29.17,29.17,0,0,0-8.63-.31v.31l-.62-.31a16.16,16.16,0,0,0-4.31.31l-9.24-.31c-3.17.91-7.36.63-10.48,1.54h-3.08v.31h-2.16v.31h-1.54v.31H98.91l-6.16,1.85a8.67,8.67,0,0,0-.62,3.39h.31c1-1.08,2-.44,3.39-.92v-.31h.92v-.31h.92v-.31h.92v-.31h1.23v-.31l3.08-.31v-.31h3.39a25.26,25.26,0,0,0,6.47-.62H118v-.31l7.7-.31h3.7a34.73,34.73,0,0,1,11.71,0l13.25.62v.31h1.54v.31h2.47V110h3.08v.31h3.08v.31h3.08v.31h3.7v.31h2.46v.31h3.08v.31H179v.31h2.47v.31l2.46.31V113h.92v.31h.62v.31Zm-98.6-5.55c-.27,1-1,1.41-1.54,2.16h-.31v.92l-.62.31a8.47,8.47,0,0,0-1.23,2.77l1.85.62v.62c1,.31.58.38,1.23.92v.31h.92l.92-4H91.2L90.9,110h.31v-1.23Zm35.13,76.72-.31-.92h-.31v-.92l-.62-.31c-.1-.19-.2-1-.31-1.23l-5.85-.92v-.62a12.35,12.35,0,0,1,3.39.62h4.62v.31h2.16c.83,0,2.52.35,2.77.31v-.31h4v.31h5.55v.62a37.07,37.07,0,0,1-5.85.31,5.18,5.18,0,0,1-.62,2.16h.31c.37.34,5.21.58,6.16.31v-.31h3.08c2.75-.81,6.56-1,9.24-1.85H155v-.31h.92v-.31l2.77-.31c1.37-.45,3.23-1.06,4.62-1.54h1.23v-.31h.62v-.31h1.23v-.31l1.85-.62v-.31h.62v-.31l1.85-.31v-.31h.62v-.31h.92v-.31h.92v-.31l1.85-.62v-.31h.62l.31-.62h.62V175l.92-.31.31-.62h.62l.62-.62v-.62l1.85-1.54v-.62l.62-.31v-.62l.62-.31v-.62h.31l.31-1.23H183l.31-1.54h.31v-.62h.31l.31-6.47h-.31v-1.23l-.62-.31v-.62H183v-1.23h-.31v-.62h-.31V154h-.31v-.62c-.09-.15-.43-.27-.62-.62h.31v-.31l.62.31c.19.35.53.47.62.62V154h.31l.31,1.54h.31v.62h.31v1.23h.31l.31,1.23h.31v.92h.31V162h.31v1.23h-.31v3.08h-.31l-.31,2.16a23.5,23.5,0,0,1,2.77,1.23h1.54c1.13.34,5.62,1.15,7.39.62l3.39-1.23.31-.62,1.85-.62v-.62h.31V167h.62v-.31l1.54-1.23v-.62l.92-.62v-1.85c-.53-.61-.29-1.64-.62-2.47h-.31V159h-.31l-.31-1.23h-.31v-.62l-.62-.31v-.62l-1.23-.92v-.62l-.92-.62v-.62l-.92-.62v-.31l-.62-.31v-.62L197.5,150v-.62l-.92-.62v-.92h-.31l-.31-.92-.62-.31V146H195v-.62h-.31v-.92h-.31v-.62h-.31v-.92h-.31v-1.54h-.31l.31-6.47h.31a.86.86,0,0,0-.31-.92c-.09-.71.58-1.15.31-2.16h-.31l-.31-4.31h-.31v-.92c-1.32-3-3.69-5.49-8-5.55-.52.63-.74.26-1.23.62L180.87,126v.92h-.31v.62h-.31c-.65,1.77.94,2.45-1.54,2.77-.75-.84-1.75-.81-2.47-1.85h-.31c-.31-.72.89-.72,0-1.54h-.62l-.31-.62h-.62l-.31-.62h-.62l-.31-.62c-.75-.54-.56.33-.92-.92a5.65,5.65,0,0,0,2.46-.62l.31-.92-4.31-2.16v-.62c1.05-.21,1.42-.69,2.46-.92-.4-1.86-2-2-2.46-3.7H171l-.31-.92,2.16-.92v-.92l-6.47-.62v-.31H163v-.31h-3.7v-.31h-2.16v-.31L144.82,110v-.31h-7.7c-1-.28-6.29-.7-7.7-.31-1.62.45-4.36.31-6.47.31l-8,.31v.31h-3.7v.31h-6.16v.31l-4.93.31v.31h-.92a14.21,14.21,0,0,1-5.55,1.23,4.82,4.82,0,0,0-.62,3.08c-.93,1.11-.13,3.88-.62,5.55h-.31v1.85h-.31v3.08h-.31v1.23H91.2v5.85s-.35.11-.31.92l.31.31H90.9v.62h-.31v.62l-.62.31v.62l-1.23.92v.62l-1.23.92-.31,1.23-.62.31v.62h-.31V142H86v.92l-.62.31v.92H85l-.31,1.23h-.31v.92h-.31v.62h-.31v.92H83.5v.92h-.31v.92h-.31v2.16h-.31c-.56,1.89.25,6.52.62,7.7v1.85h.31l.31,1.54h.31v.62h.31v.92h.31v.62H85v.62l.62.31.31,1.23.62.31v.92l1.23.92V170L89,171v.31h.62v.31l.92.31.62.92,1.23.31v.31l.92.31.31.62h.62l.31.62h.62l.62.92h.62l.31.62,1.23.31.31.62h.62l.31.62h.62v.31h.62l.62.62h.62l.31.62h.62v.31l1.23.31v.31h.92v.31h.62v.31l1.54.31v.31h1.23v.31h.92v.31H110v.31h1.23V183h.62v.31h1.23v.31h1.23v.31h1.54v.31h1.54v.31h2.16A18.83,18.83,0,0,0,125.71,185.45Zm-43.14-69-.31.92H82V118l-.62.31L81,119.51h-.31v4.62H81v1.54h.31v.92h.31v1.23H82l.31,2.16h.31v1.85h.31c.2.78-.27,1.12-.31,1.54h.31l-.62,3.7H82l-.31,1.85h-.31l-.62,1.85h-.31v.62l-.92.62v.62l-1.85,1.54v.62l-.62.62h-.62l-1.54,2.16h-.62a2.58,2.58,0,0,1-.62,1.23h-.31L73,150l-.92.62v.62h-.31l-.31,1.23h-.31v.92h-.31v1.23h-.31v1.85h-.31l.31,3.08h.31l.62,3.39.62.31L73,164.5c1.1.78,5.17,2.68,7.7,1.85V166h.92v-.31l.92-.31a8.57,8.57,0,0,0-.92-3.08h-.31v-.62H81v-1.23a20.41,20.41,0,0,1-.31-9.55H79.49v.31A4.57,4.57,0,0,0,77,153.1h-.31c-.54.71.33.54-.92.92.51-2.49,3-4.16,5.55-4.62l-.31-.92h.31v-.92l.62-.31.31-1.85h.31v-.62h.31v-.92h.31v-.62h.31v-.62l.62-.31.62-1.85,1.23-.92c.5-.69.59-1.33,1.23-1.85a14.84,14.84,0,0,0-.92-5.24v-.92H86v-.62h-.31L85,128.14h-.31c-.5-.67-1-.91-1.23-1.85h.92l.92,1.23h.31v.62H86l.31,1.23h.31v1.23h.31v.92h.31v.62h.31l.31,4h.92v-.31c1.65-1.36,1-7,.92-9.86.37-.42.63-5.66.62-6.78l-1.85-1.54v-.31h-.62l-.31-.62h-.92v-.31C85.34,116,83.68,116.39,82.58,116.43Zm69.33,5.24c4.07,1.18,9,3.72,10.48,7.39.76.16,1.81.62,2.46,0a3.69,3.69,0,0,0,1.85-4.31h-.31v-.62h-.31v-.92l-.62-.31v-.62h-.31l-.92-1.23h-.62l-.31-.62h-.62v-.31l-1.85-.31v-.31h-.62v-.31H159v-.31h-1.54a9,9,0,0,0-4-.31v.31l-2.16.31v.31h-1.23v.31c-1.12.42-2.39.42-3.08,1.23h-.31V122C148.1,121.9,150.15,121.17,151.9,121.67Zm-47.45-2.16h-1.23v.31l-1.23.31-.31.62-1.85.62-.62.92h-.31v.62l-.62.31v.62l-.62.31v.92h-.31c0,1.22,0,2.19.62,2.77,1,1.51,3.37.87,4.62,0l1.54-1.85h.62l1.23-1.54h.62l1.54-1.85,1.23-.31V122h.92v-.31h.92v-.31h1.54v-.31a5.26,5.26,0,0,1,2.16-.31v-.62C111.3,119.34,107.92,118.4,104.45,119.51ZM78.26,126h-.62a3.88,3.88,0,0,1-.92,1.85h-.31l-.31,1.23-.62.31V130h-.31v.62l-.92.62v.62l-.62.31v.62l-.62.62V134h-.31v.62l-.62.31v.92h-.31l-.31.92-.62.31-.31,1.23-.62.31v.92l-1.23.92v.92l-.92.62-.31,1.54h-.31l-.31.92-.62.31-.31,1.54-.92.62v.92h-.31v.62l-.62.31v.62h-.31V150h-.31l-.31.92h.92c.88-.83,5.14-1.24,7.09-1.23l3.7-4.62h.62v-.31l.92-.62v-.62L78.26,142v-.62l.62-.31v-.62l.62-.31v-.62h.31v-.92h.31v-1.54h.31v-.92h.31v-2.77H81l-.31-3.7h-.31c-.56-1.75-.62-3.35-1.23-4.93l-.62.31Zm110.61,4v-.31c-1.45-.57-3,2.56-3.7,3.08l-.31,4.93h.31l.31,1.23h.31v.92h.31v.62h.31v.92l.62.31v.62h.31l.92,3.08.62.31v.62h.31l.31,1.85h.31l.31,1.54h.31v.62h.31l.31,1.54h.31v.62h.31V154H192c.08,3.13,0,4.59-2.16,5.55v.92c2-.52,2.13-2.56,3.39-3.7a16.74,16.74,0,0,0-.62-5.55h-.31v-.62H192v-.92h-.31l-.62-1.85h-.31v-.62h-.31v-.92h-.31l-.62-1.85h-.31v-.62h-.31v-.62h-.31v-.92h-.31v-.62H188c-.66-1.25-3-6.3-2.16-8.63l1.54-2.47c1.13,0,1.66,0,2.16.62h.31l-.31-1.23ZM143,133.07c-.59.25-1.25.93-1.85,1.23.17.65.65,1.71,1.54,1.54v-.31h.62v-.31l5.24-.31.31.62h.62v.31h.62v.31H151v.31l1.23.31v.31h.62v.31h.92l1.54,1.85,2.16.31v.31h.31c.25-.16,0-.37.62-.31v.31h.31v-.31h1.54v-.31l-4-.62-.31-.62h-.62l-.62-.62v-.62l-.62-.31-.92-1.23h-.62l-.62-.92a14.15,14.15,0,0,0-7.09-1.85C144.1,133.27,144,132.65,143,133.07Zm-24,1.85-3.08-1.85h-1.54v-.31l-3.7.31-.31.62h-.62V134l-1.23.31-.31.62h-.62l-.31.62h-.62l-.62.92h-.62l-1.54,1.85h-.92v.31c-1.32.46-1.83-.21-2.46.31h-.31v.31l2.16.31v-.31h1.23v-.31h1.23v-.31h.62v-.31l1.85-.62.31-.62,1.23-.31.62-.62H110l.31-.62h1.23v-.31c2.12-.64,4.85.61,7.09.62Zm78,9.86a8.49,8.49,0,0,0,2.16,4c.69.76,1.18.58,1.54,1.85h.62l.31.92,2.16,1.85V154l.62.31.31,1.23.62.31v.92l.62.31c.41.79,1.26,4.45.92,5.85h-.31l.31.92h-.31l-.31,2.77-.92.62v.31c-.42.28-1.21.22-1.54.62v.62h-.31l-.62.92h-.62l-.31.62h-.62l-.31.62-4.31,1.54h-2.77a3.32,3.32,0,0,1-1.85.31v-.31h-1.54v-.31h-1.23v-.31h-.92v-.31h-.92v-.31L186.1,171l-.31-.62h-.62V170c-.42-.28-.54-.22-1.23-.31-.5,2.18-2.32,3.58-3.7,4.93l-.62.92-1.23.31-.62.92h-.92v.31h-.62v.31h-.62l-.31.62h-.62l-.31.62h-.62V179h-.62v.31h-.92v.31h-.62v.31H171v.31h-.62v.31h-.92v.31l-1.85,1.54V183h-.31v.31c-.71.6-.56-.33-.92.92h-.62c-.61,1-1.51,1.2-2.47,1.85l-.31.62h-.62l-.31.62-1.85.62-.31.62-1.23.31-.31.62-1.54.31-.31.62h-.62v.31H155V191h-.92v.31h-.92v.31h-.92l-.31.62-6.16,1.23v-.31h-.31v-.31l5.55-1.54V191l1.23-.31v-.31h.92v-.31h.62v-.31h.92v-.31l1.23-.31v-.31l1.23-.31.31-.62h.62v-.31h.62v-.31h.62V187h.62l.62-.62h.62l.31-.62h.62l.31-.62H163l.92-1.23h.62l.31-.62h.62V183a2.56,2.56,0,0,1,1.23-.62v-.31a14.5,14.5,0,0,0-4.31,1.23l-4.62.62v.31h-.62v.31h-1.23v.31h-1.54v.31h-1.54v.31l-4.31.31v.31h-1.85v.31h-1.85v.31h-9.55v-.31h-1.54c-.51.87-1.24,1-1.54,2.16h-.62v.62c-1.19.31-1,.9-2.16,1.23-.42-.77-1.15-1-1.54-1.54v-.62l-.92-.62-.31-.92h-3.39c-1.12-1-3.91.16-5.55-.31v-.31h-1.85v-.31H114v-.31h-1.23v-.31l-4.62-.92v.31h.31l2.16,1.85.62.92h.62l1.23,1.54h.62l.31.62h.62l.92,1.23,1.23.31.62.92H118v.31l5.85,2.16c-.24.31-.38.3-.62.62-5.2-.9-8.74-3.88-12.32-6.47l-.31-.62-3.08-2.77-.62-.92h-.62v-.62c-.32-.16-.54-.58-.62-.62h-.92v-.31h-.62v-.31h-.62l-.31-.62h-.62v-.31h-.92l-.31-.62h-.92v-.31h-.62v-.31h-.62l-.62-.62H98l-.31-.62-.92-.31v-.31a2.53,2.53,0,0,0-1.23-.62v-.62a3.87,3.87,0,0,1-1.85-.92v-.31h-.62l-.31-.62-1.85-.62v-.31c-.72-.59-1.14-1.25-2.16-1.54v-.62l-3.39-3.08v-.62H85v-.62l-.62-.31V167c-.33-.38-.85-.26-1.54-.31-.71.85-4.3,2.25-6.47,1.54v-.31h-.92v-.31h-.92v-.31h-.92V167H73l-.92-1.23c-2.52-1.84-3.38-3.39-3.39-7.7v-3.39c.32-1,1-2,1.23-3.08h-.31v-.31a64.34,64.34,0,0,1-7.39,1.23c-.11,1.4-.76,1.58-1.23,2.46l-.31,1.54h-.31v.62h-.31v.62h-.31v.62h-.31V159h-.31v.62h-.31v1.23l-.62.31V162h-.31v.62l-.62.31v.62H57l-.31,1.23h-.31l.31.62h-.31V166h-.31v.62h-.31v.62h-.31v.62h-.31v.92l-.62.31v1.23l-.62.31v.62h-.31v.92H53.3v.92H53v.62h-.31v.62l-.62.31.31.62-1.23.62v.31h.62a4,4,0,0,1,.92,2.77l1.23.31V179a5.28,5.28,0,0,1,3.39,0l.31.62h.62l.62.92h.31v.92h.31l.31.92-.31.31.62.31c.39.94-.16,2.9-.31,3.39v3.08h-.31L59.16,191h-.31v.62h-.31l-.31.92h.31c.1.46-1.26,2.23-1.54,2.47.18.62,0,.27.31.62a9.7,9.7,0,0,0,3.7,2.77V199a6.26,6.26,0,0,1,2.47,1.85l.31.62h.62l.92,1.23h.62l.62.62v.62l1.85,1.54.31.92,2.16,1.23v-.31c1.19-.82,1.45-2.68,2.16-4h.31v-.62l.62-.62v-.62l.62-.31v-.62l.62-.31.31-1.23h.31l.31-.92.62-.31v-.62l1.54-1.23c.88-.88,1.17-2,2.77-2.16l-.31.92h-.31v.62l-.62.31v.62l-.62.31v.62l-.62.31-.31.92H78l-.31,1.23-.62.31-.62,1.85-.62.31v.62a8.33,8.33,0,0,0-1.23,2.16h-.62a5.56,5.56,0,0,1-.92,2.77l-.62.31v.62l-.62.31v1.23h-.31V211l-.62.31V212h-.31v1.85h-.31L69.94,216h-.31v.62h-.31L69,218.42h-.31v1.85H68.4v.92h-.31l.31.62h-.31V223h-.31v1.85h-.31v.92h-.31v2.46h-.31v.31h.31v2.16h-.31l-.31,1.85a.52.52,0,0,1,.31.62h-.31v1.23h-.31v5.85h-.31v1.85h-.31v.31h.31v4l-.31.92h.31v2.47h.31l-.31.92h.31v6.47h.31v2.46h.31v1.85h.31l.31,2.16h.31v1.23h.31v1.54h.31v.92h.31V268H69V269h.31l.62,4h.31v.62h.31l.31,1.85h.31l.62,1.85h.31v.62h.31l.62,1.85.92.62v.92h.31v.62l.92.62v.62l1.23.92.31.62h.62l.31.62a6.71,6.71,0,0,0,3.08,1.85v.62a3.51,3.51,0,0,1,1.54.62v.31l1.23.31.31.62h.62l.31.62h.62l.31.62h.62v.31l1.54.31.31.62H89v.31h.62v.31h.92V293h.92v.31h.92v.31l1.85.31v.31l1.23.31v.31l1.85.31v.31H98v.31h1.54v.31h.62v.31h1.23v.31h.92V297l2.16.31v.31l2.47.31c8.39,3,17.4,4.62,29,4.62,3.58,0,9.06.55,12-.31h5.24v-.31h2.46v-.31h3.08v-.31h1.85V301h2.16v-.31h1.54v-.31h1.85v-.31h1.23v-.31h1.23v-.31h1.23v-.31H171v-.31c.94-.29,2.11-.06,2.77-.31v-.31l-.92-.31-13.25-4.31-.31-.62h-.62v-.31l-1.23-.31v-.31l-3.08-.92-.31-.62h-.62l-.31-.62-.92-.31v-.31l-1.85-.62-.31-.62-1.85-.62-.31-.62-1.23-.31-.31-.62h-.62l-.31-.62h-.92V285h-.62v-.31h-.62L142,283.13h-1.23v-.31H139v-.31h-1.54v-.31h-.92l-.92-1.23H135l-.31-.92c-.29-.27-1.18-2.34-.92-3.08H134v-.62h.31v-.62l.62-.31-.31-1.85,2.16-1.54v-.62h.31v-1.23h.31v-.92h.31V268H138v-.62h.31l.62-3.08h.31v-.62h.31l.31-1.54h.31l.31-1.54h.31V260h.31v-.92h.31l.62-1.85h.31l.31-1.23.62-.31.62-1.85.62-.31.31-1.23.62-.31v-.62l.92-.62.31-1.23H147l.31-.92.62-.31v-.62l.62-.31v-.62l.92-.62.31-1.23,1.85-1.54v-.62l3.08-2.77c.66-.91.58-1.52,1.85-1.85.35-1.22,1.09-1.12,1.85-1.85l1.23-1.54h.31l.31-.62h.62l1.85-2.16c.69-.69,1.52-.75,1.85-1.85h.62c.64-1.06.95-.89,1.85-1.54l1.23-1.54h.62l.31-.62,1.23-.31.31-.62,1.23-.31.31-.62,1.23-.31.31-.62h.62v-.31H175V223h.92v-.31h.62v-.31h.62l.31-.62h.62v-.31l1.23-.31v-.31h.92v-.31h.62v-.31l1.54-.31v-.31h.92a17.88,17.88,0,0,1,5.55-1.85c-.06-1.4-.44-1.32-.92-2.16h.62l-.31-6.78H188l-.31-2.16c1.17-.44,3.28-.32,4.93-.31v.31h1.23V207a.79.79,0,0,0,.92-.31h1.54l.31-.62c.41-.21,3.53-.91,4.31-.62v.31h.62l1.85,2.16c1.33.86,2.59.36,4.31.31a4.82,4.82,0,0,0,.62-3.08c.72-.87.22-2.45.62-3.7h.31v-1.23h.31V199h.31v-.92h.31v-1.23h.31v-.62h.31V194.7h.31v-.92h.31v-.92h.31v-.92H212V191h.31v-.62h.31v-.62c.67-1.27,1.52-2.63,2.16-4h.31v.92c-.69.64-.22.69-.62,1.54h-.31v.62h-.31l-.62,1.85h-.31v1.23h-.31v.92h-.31v.92H212V195h-.31v.92h-.31v1.23h-.31v1.23h-.31V199h-.31v2.77h-.31v1.54h-.31v2.47h-.31v1.85h-.31v.31h.31l-.62,3.08h.31a11.41,11.41,0,0,1-.31,5.24l.31.92h.31l-.31.62h.31v2.46h.31v2.47h.31v.62h.31v1.23h.31v.31c.62-.18.27,0,.62-.31.64-.52.74-1.15,1.23-1.85h.31a3.29,3.29,0,0,0,.92-1.54h.62c.37-.66.69-.67.92-1.54H216c.4-1.38,1.58-1.89,2.46-2.77l2.77-3.08.92-.31v-.62l.92-.31,1.23-1.54h.62l.92-1.23h.62l1.54-1.85h.62l1.54-1.85h.62l.92-1.23h.62l1.23-1.54h.62l1.23-1.54H236l.62-.92h.62l.92-1.23L240,199v-.31l.92-.31.31-.62h.62v-.31h.62l.62-.62h.62l.62-.92H245v-.31h.62l.62-.62h.62l.92-1.23h.62l.62-.62h.62v-.31h.62v-.31h.62l.31-.62h.62v-.31h.62v-.31h.92V191l1.23-.31v-.31l1.23-.31.31-.62h.62v-.31h.92l.31-.62,1.23-.31v-.31l1.23-.31v-.31h.92V187l2.77-.92v-.31h.62v-.31h.92l.31-.62h.62v-.31h.92v-.31h.62v-.31c1.52-.66,2.59,0,3.08-1.85l-.92-.62v-.62l-2.46-2.16v-.62h-.31l-.92-1.23-1.23-.92v-.31h-.62l-2.46-2.77h-.62l-.62-.92h-.62l-.92-1.23h-.62l-.92-1.23h-.62l-.62-.92H256l-.92-1.23h-.62l-.31-.62-.92-.31V166h-.62l-.62-.92-1.23-.31-.31-.62h-.62v-.31l-1.54-.31L248,163h-.62v-.31h-.62v-.31h-.62V162h-.62v-.31H245l-.62-.62h-.62l-.31-.62-1.23-.31v-.31l-.92-.31-.31-.62-1.23-.31-.31-.62L236,156.8l-.31-.62h-.62l-.62-.62h-.62v-.31h-.62v-.31h-.62v-.31H232v-.31h-.62V154h-.62v-.31h-.62v-.31h-.62v-.31l-1.23-.31v-.31h-.62v-.31h-.92v-.31l-1.23-.31v-.31l-1.85-.31v-.31h-.62v-.31h-1.23V150h-.92v-.31l-2.16-.31v-.31l-2.46-.31v-.31h-.92v-.31h-.92v-.31h-.92v-.31l-2.16-.31v-.31h-1.23v-.31l-4.31-.31V146H204v-.31h-2.16v-.31h-1.23v-.31H199v-.31a.82.82,0,0,0-.92.31Zm-76.72.92v.92h.31v-.31a1.44,1.44,0,0,0,.92-1.23C120.65,145.28,120.72,145.41,120.17,145.7Zm16.95,1.85h.31l-.31.62c-.6.23-1.18.09-1.85.31v.31H134v.31h-.62l-.31.62-1.54.31v.31H131v.31c-1.06.37-4.68-.59-5.24-.92l-.31-.62h-.62v-.31h-1.54l-2.77-.92c-.19-.62,0-.27-.31-.62v-.62h-.31v1.85h.31a3.72,3.72,0,0,0,2.46,1.23h1.85l.62.92H126v.31l1.23.31v.31c1.88.69,4.85-.75,5.85-1.23V150l4.31-.62.92-2.46a4.15,4.15,0,0,1-.92-1.54h-1.23C136.45,146.37,136.9,146.51,137.11,147.55Zm-91.2,25a14.49,14.49,0,0,1,3.39,1.54v.62h.62c.28.12.18.88.92.62V175h.31l.31-1.85.62-.31v-.92h.31v-1.23l.62-.31v-.92l.62-.31v-.62h.31v-.62h.31V167h.31l.31-1.23h.31V164.5l.62-.31.62-1.85h.31l.62-1.85h.31v-.92h.31V159h.31l.92-2.77.62-.31v-.62h.31v-.62h.31c.36-.67.62-1.5.92-2.16a3.4,3.4,0,0,1-1.54-.92v-.31a4.92,4.92,0,0,0-2.77-.62l-1.54,3.08-.62.31-.31,1.23-.62.31-.31,1.23-.62.31v.62l-.62.31-.31,1.54-.62.31v.62h-.31v.62h-.31V162l-.62.31v.92h-.31v.62h-.31v.62l-.62.31-.31,1.54h-.31V167l-.62.31L46.83,170l-.62.31ZM155,167.27h.31v-.62l1.23-.92v-.92h.31v-.92h.31l.31-2.77h-.31v-.31l.31-.62h-.31v-.62h-.31l-.31-1.54-.62-.31v-.62l-.62-.31v-.62l-.92-.31-.31-.62-.92-.31v-.31c-2.31-1.46-8-2.23-11.4-1.54l-.31.92h-.31v.92h-.31c.22,1.56.88,1.14,1.23,2.46l2.77.92v.31h2.46V159h1.54v.31h.92v.31h.92v.31l1.85.62.31.62h.62v.31l.92.62.92,3.39H155v.92h-.31V167h-.31l-.31.92C154.83,167.69,154.56,167.73,155,167.27ZM117.39,154v-.31l-.92.31v-.31l-4.31.62v.31l-2.77.62-.31.62-1.23.31-.31.62h-.62l-.31.62h-.31V158H106v.62h-.31v.62h-.31l-.62,1.85c-.84,1.77-1.35,6.61.31,8v.31h.31l.31-.92c0-.43-.36.12-.31-.31a.58.58,0,0,0,.31-.62c0-.43-.36.12-.31-.31h.31V166H106l.62-1.85h.31l.31-1.54,1.85-1.54h.62l.31-.62h.92v-.31h1.23v-.31h1.23v-.31l3.08-.31V159h.62v-.31l.92-.31.31-.92h.31l.31-3.08Zm-91.2,12.63v.62l4.62,4c.83.86.57,1.63,2.16,1.85,2.27-2.29,7.88-1.29,11.71-1.23v-.31H45V170l.62-.31v-.62h.31v-.62h.31v-.92h.31V167h.31V166l.62-.31.31-.92h.31l.31-1.23L49,163v-.62h.31v-.62h.31v-.62h.31v-.62h.31v-.92h.31l.62-1.85h.31v-.62h.31l.92-1.23H51.46c-.83.77-1.35.19-2.46.62v.31h-.62v.31l-2.16.31v.31l-1.85.62v.31h-.92V159h-.62v.31H41.9v.31h-.62v.31h-.92v.31l-1.23.31v.31h-.92v.31h-.62v.31h-.92v.31l-1.23.31v.31h-.62v.31h-.92V163h-.62v.31h-.62l-.31.62-1.85.62v.31l-1.23.31-.31.62Zm92.74-3.7v.31h.62l.92,1.23h.62l.31.62.92.31v.31h.62l.31.62c1.17.74,6.45,2.27,8.94,1.54v-.31h1.23v-.31h.92V167h.92v-.31h.92v-.31l1.23-.31v-.31h.92l.31-.62h.62l.92-1.23c.91-.65,1.52-.58,1.85-1.85.62-.19.27,0,.62-.31H143v-.92l-1.23.31v-.31h-4.62v.31H135c-.42-.12.12-.24-.31-.31-2.49-.41-5.65.27-7.7-.31h-9.86A4.49,4.49,0,0,0,118.93,163Zm21.88-.31V162l-5.85.31V162h-1.23l-3.08.31V162H125.4v-.31c-.38,0-.78.51-1.54.31v-.31l-5.24-.31v.31l1.23.92V163h.62l.62.92h.62l.31.62h.62v.31h.62v.31l1.85.62V166c.91.36,5.59,1.07,7.09.62v-.31h1.23V166h.92v-.31h1.23v-.31h.62v-.31h.92v-.31h.62v-.31h.62l.31-.62A5.62,5.62,0,0,1,140.81,162.65ZM7.39,247.38H8V248c1.79.48,1.35,1.75,4,1.85l.31-1.54h.31v-1.23h.31v-.92h.31v-.92h.31v-.92h.31v-.62h.31v-1.23h.31v-.62h.31L15.1,240l.62-.31v-.92H16v-.62h.31l.31-1.85h.31v-.62h.31v-1.23h.31l.31-1.23h.31V232h.31v-.62h.31l.31-1.54h.31v-1.23h.31v-.92H20l.31-1.54h.31v-.62H21v-.92h.31V224l.62-.31V223l.62-.31v-.92h.31v-.62h.31v-.62h.31l.62-1.85h.31v-.92h.31l.31-1.23h.31v-.92h.31V215h.31v-.62l.62-.31.31-1.85h.31v-.62h.31l.31-1.54.62-.31v-.62h.31v-.62H29l.31-.92h-.62v.31l-4,.62v-.31c-1.08-.25-1.2-.55-1.23-1.85H24v-.31l.92.31c1.78.1,4.78-.45,5.55-1.23h.31l.31-1.23.62-.31c.24-.49-.12-.49-.31-.62.31-.7.58-.56,1.54-.62.76.77,1.32.26,2.47.62v.31c1,.34,6.15,1.15,7.09.31l.92-.31V203h.62v-.31c.46-.42.42-.15.62-.92H45l.31-2.16H45v-.31c-2.66.05-3.34-.69-4.93-1.54L37,196.54v-.92l1.85.31v.31h.62v.31l1.85.62v.31a13.34,13.34,0,0,0,4.93-.31c1.34-.31,1.3-1.11,1.23-2.77a3.76,3.76,0,0,1-1.23-1.85l-3.7-1.23V191H41.9v-.31l-1.54-.31-.31-.62-1.54-.31-.92-1.23h.31v-.31l4.62,1.54.31.62h.92v.31l1.23.31V191a4.3,4.3,0,0,0,3.39-.31c1.84-.41,2.78-2,2.77-4.31-.35-.35-.12,0-.31-.62-.38-.19-.45-.52-.62-.62h-.62v-.31h-.92l-.31-.62-1.54-.31v-.31h-.62v-.31L44.37,183v-.31l-1.85-.62v-.31H41.29a4,4,0,0,1-1.85-1.23,5.91,5.91,0,0,1,2.16-.31c.67.6,1.8.29,2.77.62v.31H45.6v.31h.62v.31a6.79,6.79,0,0,0,5.55.92,4.85,4.85,0,0,0,.62-2.46c-.78-.7-.21-.8-.62-1.54l-.62-.31v-.62L46.83,175,45,174.67v-.31h-.62v-.31l-1.85-.31v-.31c-1.71-.55-6.36.27-7.39.62H33.89v.31H33v.31l-1.85.62v.31l-1.23.31-1.54,2.16v.62l-.62.31v.62l-1.23.92v.92h-.31v.62l-.62.31-.31,2.16H25l-.31,1.23h-.31L24,187.61h-.31v.62h-.31v1.23h-.31v.92H22.8v1.23h-.31l-.62,1.85h-.31l-.31,3.08H21v.92h-.31v.92l-.62.31-.31.92h-.31l-.62,1.85-.92.62v.62l-.92.62v.92l-.62.31v.62l-1.54,1.23V207l-.62.31-.31.92h-.31l-.31,1.23-1.23.92-.31,1.23-.62.31-.31,1.23-.62.31L9.86,215,8.63,216v1.23H8.32L8,218.42H7.7l-.31,1.23-.62.31v.62H6.47v.92H6.16l-.31,1.23H5.55v.92H5.24v.62H4.93v.62H4.62v.62H4.31v1.23H4v.62H3.7v1.23H3.39v.62H3.08l-.31,2.16H2.46V232H2.16v2.46H1.85l.31.62H1.85c-.72,2.82.76,5.63,1.54,7.09l.31,1.23.92.62.31.92,1.54,1.23v.31l.92.31Zm46.22-66.86a4.35,4.35,0,0,1-2.77,3.39l.31.92.62.31v.62h.31V187h-.31l.31.92-1.23,3.39-.92.62v.31l-2.46.92c.19.37.53.47.62.62v.62h.31v1.54h.31a4.63,4.63,0,0,0,3.7,1.54v-.31H53l.62-.92h.31v-.62l.62-.31V195l1.85-.62v-.62h.31l.31-1.23h.31v-.92h.31v-.92h.31v-.92h.31v-3.08c0-.07.43-.1.31-.62h-.31l-.31-1.23h-.31c-.33-1.22,1-.94.62-2.16h-.31v-.62h-.31a2.62,2.62,0,0,1-.62-1.23Zm161.76,5.24v-.31h.31v-.31h-.62C215.25,185.76,215,185.41,215.38,185.76Zm44.06,4.31v.62c1.31.79.81,1.38,1.54,2.46l.62.31a7,7,0,0,1,1.23,1.85h.92l.31-.92h.31v-.62h.31v-.62l.92-.62v-.62l.62-.31V191l.62-.31v-.62l.62-.31v-.62l.62-.31a12.8,12.8,0,0,0,1.54-3.39,7.91,7.91,0,0,0-2.46,1.23l-1.23.31v.31l-1.23.31v.31h-.92v.31h-.62l-.31.62Zm-131,111.85h.92v-.31h.31v-.31a10.27,10.27,0,0,1-2.77-1.85l-.62-.92h-.62l-5.55-5.24-.31-1.23-.62-.31-.31-1.23-.62-.31v-.62H118l-.31-1.85-.62-.31v-.92h-.31v-.92h-.31v-1.23h-.31v-1.54h-.31v-1.54h-.31V280h-.31V278.2h-.31v-4.62l-.31-.92h.31v-8h.31v-.31h-.31v-1.54l.62-7.09h.31v-1.85h.31v-.92h.31v-1.54h.31v-1.23h.31v-1.23h.31l.31-3.08H118v-1.23h.31v-1.23h.31v-.62h.31v-1.85l.62-.31.31-3.39h.31l.31-1.23h.31l.31-2.77h.31v-.92h.31v-.62H122l.31-1.85h.31v-.92h.31V228h.31V227h.31v-.92h.31v-.62h.31v-.92h.31l.31-1.23h.31v-.92h.31v-.62h.31v-.92H126V220h.31V219h.31V217.8h.31l.31-1.23h.31V216h.31V215h.31v-.92h.31v-.92h.31l.31-2.16.62-.31.31-1.85h.31v-.62l.62-.31.62-2.77.62-.31.62-2.77.62-.31v-.92h.31v-.62H134l.31-1.54h.31c.33-.89-.38-6.12-.62-6.78h-.31V191h-.31v-1.85h-.31v-.62l-.92.31.62,3.7c.42,1.16,1.59,3.45.92,5.55h-.31l-.31,2.16h-.31l-.31,1.23h-.31v.92h-.31l-.31,1.23h-.31v.92H131l-.31,1.23h-.31V207H130v.62h-.31l-.31,1.54-.62.31v.92h-.31v.92h-.31l-.31,1.23h-.31l-.62,3.08h-.31l-.31,1.54H126l-.31,1.23h-.31l-.62,3.08h-.31l-.31,1.54h-.31l-.31,1.23h-.31l-.31,1.85h-.31v.62h-.31v.92H122v.92h-.31v.92h-.31v.92h-.31v.92h-.31V232h-.31v.92h-.31v.62h-.31v.92h-.31v.31h.31v.31h-.31v1.23h-.31v.62h-.31v1.23h-.31v1.23h-.31v1.23H118v1.23h-.31v1.23h-.31V244h-.31v.92h-.31v.92h-.31l-.31,3.08h-.31v1.23h-.31v1.54h-.31v1.23h-.31v1.23h-.31l-.62,5.55h-.31v4.62s-.38-.07-.31.62h.31c0,.13-.53,1.1-.31,1.85h.31v2.46h-.31l.31,3.39V273h-.31v1.23h.31v4H114v2.16l.62.31v2.46h.31v.92h.31l.62,3.08h.31v.62h.31v.92h.31v.62h.31v.92h.31l.31,1.23H118l.31,1.23.62.31v.62l2.77,2.46.31.92h.31l.62.92h.62l.31.62.92.31v.31l.92.31C126.1,300.81,127.65,301,128.49,301.92Zm92.44-85h-.62l-3.08,3.39-.62.31v.62h-.31l-.92,1.23c-1,1-2.23,1.38-2.46,3.08h.31v1.23h.31v.62h.31v.92h.31v1.23h.31l.31,1.23h.31l.31,1.85h.31v.62l.62.31v.92h.31l.31,1.54h.31v.62h.31v.92l.92.62v.62l.62.62V240h.31v.62l.62.31.31,1.54.62.31.31,1.54.62.31.31.92.92.62c.69,1,0,1.44,1.54,1.85v-.31c.54-.43.05-.29.31-.62l.62-.31.92-1.23h.31v-.62h.31a2.42,2.42,0,0,0,.62-1.23h.62c.29-1.11,1.19-1.68,1.85-2.47h.31v-.62l1.85-1.54a36.22,36.22,0,0,1,5.24-4.93l.31-.62h.62l.31-.62h.62v-.31a2.21,2.21,0,0,1,1.54-.62v.31l-1.85,1.54v.31h-.62l-.31.62h-.62l-.92,1.23-.62.31v.62l-.62.31v.31l-3.7,3.39v.62l-1.85,1.54v.62l-.92.62v.62l-.92.62v.62l-.92.62v.62l-.62.31v.62l-.62.31-.31,1.54-.92.62v.62h-.31V252H224v.62l-.62.62v.62l-.92.62v.62l-.62.31V256l-.62.62v.62h-.31v.62h-.31v.62l-.62.31v.92h-.31v.62h-.31v.62l-.62.31-.31,1.23h-.31l-.31,1.23h-.31v.92l-.62.31-.31,1.54-.62.31v.92l-.62.31-.31,1.23a7.84,7.84,0,0,0-1.54,4.62c.4.31.56.94.92,1.23l.92.31V276a5.15,5.15,0,0,1,2.16,1.23l.31.62.92.31.62.92H220l.62.92,1.23.31.92,1.23,1.23.31.31.62.92.31v.31h.62l.62.62h.62v.31h.62v.31h.62v.31h.62V285h.62v.31h.62v.31l1.85.62v.31l3.7,1.23v.31l1.85.62V289h.92v.31h.92v.31h.92v.31h.92v.31h1.23v.31a4.69,4.69,0,0,0,2.47.31v-.31h.92v-.31l1.85-.62v-.31h.62V289l1.23-.31v-.31h.62v-.31h.62v-.31h.62v-.31H252v-.31h.62v-.31l1.23-.31.31-.62h.62l.62-.92H256l.31-.62.92-.31v-.31h.62l.31-.62h.62l.31-.62h.62l.31-.62h.62v-.31c.71-.59,1.15-1.27,2.16-1.54v-.62h.31c.29-.33-.06-.07.31-.31h.31l.31-.62,2.46-2.16v-.62h.62l1.54-1.85H269v-.62l1.23-.92v-.62l.62-.31v-.31l.62-.31v-.62l.62-.31v-.62l.92-.62V268l.92-.62.31-1.23.92-.62v-.62h.31V264l.92-.62v-.92l.62-.31.62-1.85h.31l.62-1.85h.31v-1.23h.31l.31-1.23h.31l.31-1.54h.31v-1.23a10.54,10.54,0,0,0,.31-6.16v-4.93h-.31V240h-.31v-.31h.31v-.31h-.31v-2.16h-.31v-1.54h-.31v-3.08h-.31l-.31-2.16h-.31v-.92h-.31v-.92h-.31v-.92h-.31V227h-.31v-.92l-4.62-10.78-.62-.31v-.62h-.31v-.62h-.31v-.62l-.62-.62V212l-.92-.62v-.62l-.62-.31-.31-1.54h-.31v-.62l-.62-.31v-.62h-.31v-.62l-.62-.62v-.62l-.62-.31-.62-1.85-.62-.31-.31-1.23-.62-.31v-.62h-.31v-.62h-.31l-.31-.92-.62-.31-.31-1.23-.62-.31-.31-1.23-1.23-.92-.62-1.85c-.44-.82-1.12-1.56-1.54-2.46l-3.39,1.23-.31.62h-.92v.31H253v.31h-.62l-.31.62-1.23.31-.31.62-1.85.62-.31.62-1.23.31-.31.62-1.23.31-.31.62-1.85.62-.31.62h-.62v.31h-.62l-.31.62-1.85.62-.31.62-.92.31-1.23,1.54h-.62l-.31.62-.92.31-.92,1.23h-.62l-.92,1.23h-.62l-.92,1.23h-.62l-.62.92h-.62l-.92,1.23H228l-.62.92h-.62l-.92,1.23h-.62L222.77,215C222.08,215.71,221.24,215.78,220.92,216.88Zm79.19-19.1h-.62v.62h-.62c-.21.9-.34,1-1.23,1.23v.92c-1.52.91-1.82,2.5-2.77,4l-.62.31-.31,1.54h-.31l-.31,1.23H293l-.62,2.77h-.31l-.31,1.23h-.31v1.23h-.31v1.54h-.31v2.46h-.31V227h.31c.14.23.74,1.19.62,1.54h-.31v.31h-1.23c-.71-.8-4.73-2.62-6.16-2.77v.31c.82.71.66,2.46.62,4-.92.61-.89,1.51-2.16,1.85v.62c3.2.23,4.73,2.48,4.62,6.16-.72.42-.94,1-1.54,1.54.18.62,0,.27.31.62v.31c1.11.67,1.61-.66,2.16,1.23h.92v-.31a6.66,6.66,0,0,0,1.23-2.16h.31v-.92h.31l1.23-3.39.92.31-.31.31.31.92c1.39.36,1.35,1.27,2.16,2.16l2.47,2.16.92,1.23h.62l.31.62h.62l.62.92H301l.31.62H302v.31l1.23.31v.31h.92v.31h.62l.31.62,1.85.31v.31h.62V248l1.85.31v.31l1.85.31v.31h.62v.31h1.54v.31h1.85c2.7.79,4.86.28,8,.31v-.62l-1.54-.92-.31-.62h-.62l-.62-.92h-.31l-.31-.92L318,244.92v-.62l-.62-.31v-.62l-.92-.62-.31-1.23-.62-.31-.62-1.85-.62-.31-.92-2.77-.62-.31v-.62h-.31v-.62h-.31v-.62l-.62-.62v-.62l-.92-.62-.31-1.54-.62-.31-.31-1.23-.62-.31v-.62l-.62-.31-1.23-1.54h-.62l-.31-.62H305v-.31l-2.46.31-.31-1.23.92-.62v-.62l.62-.62v-.62h.31v-.62h.31v-.62h.31v-.62H305l.62-1.85H306l.31-3.39h.31c.58-2-.23-5.82-.62-7.09V206.4h-.31l-.31-2.77H305v-1.85h-.31c-.89-2.92.17-5.65.62-8a5.52,5.52,0,0,0-2.16.92l-.62.92H302v.31C301,196.5,300.41,196.56,300.11,197.78Zm-261.59,7.7-.92,2.77h-.31L37,209.79h-.31v.62h-.31v.92h-.31l-.31,1.54-.62.31v.62h-.31v.62h-.31v1.23H34.2l-.31,1.54h-.31v.62h-.31L33,219.65h-.31v.62h-.31v.62H32l.31,1.85H32l-.31,3.08h-.31V227h-.31v3.08s-.37-.06-.31.62a.54.54,0,0,1,.31.62h-.31v1.23H30.5v1.85H30.2v.92h-.31v1.54h-.31v2.16l-.62.31v1.85h-.31v2.16h-.31v2.16H28v1.85h-.31c-.26.91.41,2.14.31,2.47l-.62.31v1.23h-.31V252h-.31l-.62,4.62h-.31v.62h-.31v.92h-.31v.62l-.62.31v.62L24,260l-.31,1.23-.62.31v.62H22.8v.62l-.62.62V264l-.62.31v.62l-1.23.92-.62,1.85h-.31c-.59.72-1.25,1.14-1.54,2.16a1.44,1.44,0,0,0-1.23.92h-.31v.31h.92v-.31H18.8v-.31H20v-.31H21v-.31h1.54v-.31h1.23v-.31h.92V269h.92v-.31h.62v-.31h.92V268h.62v-.31h.92v-.31l1.23-.31v-.31h.92l.31-.62h.62v-.31h.92v-.31l1.85-.31v-.31l1.85-.62V264H37l.31-.62,3.39-1.23.62-.92h.92l.31-.62,1.23-.31.31-.62h.62l.31-.62h.62l.31-.62h.62l.31-.62h.92l.62-.92H49l.31-.62,1.23-.31.31-.62h.62l1.85-2.16h.62l1.54-1.85h.31v-.62h.62L58.85,248h.62v-.31c.46-.42.4-.16.62-.92h.62L63.16,244l.62-13.87h.31l.31-3.7h.31l.31-3.08h.31v-2.16h.31V220h.31V219h.31v-.92h.31v-.92h.31v-.62h.31c.4-.77.26-1.63.62-2.47h.31v-.62h.31v-1.23h.31v-.62H69v-.92h.31l.31-.92h-.31a8.28,8.28,0,0,0-3.7-3.7v-.62c-.38-.21-.42-.48-.62-.62H64.4v-.31c-.79-.66-1.35-1.54-2.46-1.85v-.62a10.4,10.4,0,0,1-2.77-2.16l-.31-.62h-.62l-.92-1.23h-.62v-.31h-.62l-.31-.62h-.62v-.31c-.91.42-3.72,2.34-5.24,1.85v-.31H49.3v-.31l-1.54-.31a3.55,3.55,0,0,1-2.16,1.54,6.09,6.09,0,0,1,.31,1.23h.31l-.92,3.08-1.23.92v.31l-1.23.31v.31ZM32,204.25c-.35,1.85-1.78,3.41-2.46,4.93v.92h-.31v.62H29L28.66,212h-.31v.92H28v1.23h-.31L27.11,216h-.31v.92H26.5v.62h-.31v.92l-2.77,4.93a16.09,16.09,0,0,1,4.31.62c.27,1.08.77,1.15.92,2.46h-.31v.31H28v-.31h-.31l-.31-.92c-1-.76-2.83-.64-4.62-.62l-2.16,4.62v1.23h-.31v.62H20l-.62,2.77H19.1v.62H18.8v.92h-.31l-.31,1.54h-.31v.62h-.31v.92h-.31v.62h-.31l-.31,1.85h-.31v.62H16l-.31,1.54h-.31v1.23H15.1v.92h-.31v.62h-.31v1.23h-.31V248h-.31l-4,13.56c1.4-.17,1.47-.41,2.77,0h1.54v.31A3.27,3.27,0,0,1,16.33,264h-.92v-.62l-.92-.31v-.31c-1.19-.59-3.15-.21-4.31,0A3.26,3.26,0,0,0,9.86,264l.92.62v.31c1.4,1,2.82,1.23,5.24,1.23v-.31h.31V264h.31v-.62h.31l-.31-.62h.31l.31-1.85h.31v-.62h.31l.31-1.85h.31v-.62h.31v-.92h.31l.31-1.23h.31l.31-2.16h.31v-.62l.62-.31v-1.23h.31v-.92h.31v-.92h.31v-.92h.31v-.92h.31v-.62h.31L24,240.91h.31V240h.31v-.92H25v-.92h.31v-.92l.62-.31V236h.31v-1.54h.31v-.62h.31v-.92h.31l.31-1.23h.31l.31-1.54h.31l1.23-5.24.62-.31.31-2.16h.31v-.92h.31l.31-1.23h.31l.31-1.85h.31v-.62h.31L33,216h.31v-.62h.31v-.92h.31v-.62l.62-.31.31-1.54h.31v-.62h.31l.31-1.23h.31v-.92h.31l.31-1.54.62-.31v-.92h.31l.31-.92Zm162.38,6.47c.14,1,.41,3.43-.31,4.93h.31V216l3.08-.62.31-.92c.77-.83.42-3.28.31-4.31H199v1.23h.31v.31H199l-.31,3.39,3.08-.31v-.31h.31v-2.16h.92a9.05,9.05,0,0,1-.31,2.16h4.93V210.1a3.91,3.91,0,0,0-1.54-.31c-.42.49-.67.54-1.54.62-.53-.62-.71-.26-1.23-.62l-.31-.62c-1-.91-1.7-2-3.39-2.16v-.31h-.31V207a7.12,7.12,0,0,0-3.08.62v.31h-.62v.31h-1.23v.31l-5.24-1.23v.92c.52.58.26,2,.31,3.08v.92h.31v4.31a3.26,3.26,0,0,0,1.23.31v-.31c.49-.38,1.67,0,2.16-.31V216h.31v-1.85a4.17,4.17,0,0,0,0-3.08h.31C194.16,210.67,193.81,210.9,194.42,210.72Zm104.14,3.08-.62.31v.62l-1.23.92v.62l-.92.62-.31,1.23-.92.62-.31,1.23-.62.31-.31,1.85H293v.31h.92l.31-1.23.62-.31.62-1.85.92-.62v-.62l1.23-.92v-.62l.62-.31,1.54-2.16h.62a4.48,4.48,0,0,1,1.23-1.85H302l.31-.92a3,3,0,0,0-1.23-.31C300.75,211.75,299.28,213,298.57,213.8ZM187,219.65v.62a16,16,0,0,1,8,1.85v.31l1.23.31,1.54,1.85,1.23.92v.62l.62.31V227a4,4,0,0,1,.92,2.47,11.91,11.91,0,0,1,5.85,1.23v.31l1.23.31.31.62h.62l.31.62a3.31,3.31,0,0,0,2.16.62c.83-1,2-1.1,2.16-2.77h-.31v-.92h-.31a4.83,4.83,0,0,1-.31-2.16h-1.85l-.62-.92h-.31v-.62h-.31v-.62h-.31V224h-.31V223h-.31l-.62-7.7H204v.31h-.92V216h-2.77v.31h-2.16v.31h-.92v.31H196v.31l-2.77.31v.31h-.62v.31Zm-22.49,13.56c-1.37.36-1.09,1.16-2.46,1.54v.62l-1.54,1.23v.31h-.62l-.62.92-.92.31v.62l-4.62,4.31v.62l-.62.31v.62l-.92.62v.62l-.92.62v.62l-.62.31a6.07,6.07,0,0,0-.92,2.16h-.62l-.31.92h-.31v.62l-.62.31V252l-.62.31v.62l-.62.31v.62h-.31c-.57,1-.26,1.49-1.54,1.85-.07.7,0,.81-.31,1.23h-.31v.62h-.31l-.31,1.54-.62.31V260h-.31v.92h-.31l-.62,1.85h-.31V264h-.31v.92h-.31v.62h-.31v.92h-.31v1.23a28.4,28.4,0,0,0-1.85,4.62,23,23,0,0,1,9.55,1.54l1.85.31v.31l1.23.31v.31l1.54.31.31.62h.62v.31h.62l3.39,2.16v1.23a2.38,2.38,0,0,0-.62.92l-12.32,2.46v.31h.31v.31h.92l.31.62H147l.31.62h.62v.31h.62l.62.92,1.23.31.31.62,1.23.31.31.62,1.23.31v.31h.62V289l1.85.62v.31h.92v.31h.62v.31h.92v.31l1.23.31v.31h.92v.31l1.23.31v.31h.92v.31h.62V293l3.08.62v.31h.92v.31h.92v.31l2.16.31v.31l9.86,1.54h4.31V297h4.62v-.31h3.7l2.77-.92v-.31H195l-1.23-1.54a14.5,14.5,0,0,0-2.77-1.23V293a7.63,7.63,0,0,0-.62,2.77h-.92a10,10,0,0,1,.92-3.08,8.29,8.29,0,0,0-2.77-.31l-.31,2.77H187a2.49,2.49,0,0,0-.31,1.23h-.62l.31-1.85h.31V293H187l.31-.92a16.42,16.42,0,0,1-6.16-2.16v-.31l-.92-.62v-.62h-.31c-.49-.52-.25-.46-1.23-.62a5.9,5.9,0,0,1,.62-2.16,19.34,19.34,0,0,1,1.85-1.23,6.26,6.26,0,0,1,3.08.31c1.44.4,3.59-.13,4.62-.31a8.29,8.29,0,0,0,.31-2.77c.57-.65.28-2.54.31-3.7v-1.23h.31c.61-2.18-.46-5.07,0-6.47h.31v.31c.62.7.31,3.07.31,4.31v3.7s-.3-.05-.31.62l.31,1.23h-.31l-.31,3.7,3.08-.62a17.58,17.58,0,0,1,.62-4v-4.31h.31l-.31-8h.31v-4.93s-.39,0-.31-.62h.31c.09-.65-.31-.62-.31-.62v-3.39h-.31v-2.46h-.31v-2.47h-.31v-2.16h-.31v-1.54H192v-1.23h-.31l-.62-4.93h-.31v-.62h-.31l-.31-2.46-.62-.31v-.92h-.31v-.92h-.31v-.92h-.31l-.92-4h-.31l-.31-1.23h-.31l-.31-1.85-.62-.31v-.92l-.62-.31-.31-1.23h-.31v-.62h-.31v-.62h-.31v-.62h-.31V224l-.62-.31-.31-1.54h.62a2.52,2.52,0,0,0,.62,1.23h.31l.31,1.54.62.31v.92l.62.31.31,1.23h.31v.62h.31l.62,1.85h.31v.92H188l.31,1.23h.31l.31,1.85h.31v.62h.31V236c.39,1.06,1.05,1.69,1.23,3.08l2.77-.31.31-.62,3.08-.92.31-.62c1.78-1.67,2.84-3.53,2.77-7.09-.76-.71-.22-.69-.62-1.54H199v-.62h-.31v-.62l-1.23-.92v-.62l-1.23-.92V224h-.62l-.31-.62h-.62V223h-.62v-.31h-.62v-.31h-.62v-.31h-.62v-.31h-.62v-.31h-1.54v-.31h-.92v-.31l-4.62-.31v.31l-2.77.62v.31l-1.23.31v.31h-.92l-.31.62h-.62l-.62.62-1.85.62-.31.62H175v.31h-.62l-.31.62-1.23.31-.31.62-1.23.31-.62.92h-.62v.31l-.92.31-.31.62h-.62l-2.16,2.46C165.28,232.39,164.9,231.85,164.54,233.21ZM300.72,221.5h-.31c-.4-.18.13-.35-.31-.31v.31l-1.23.62-.31.62H298l-.62.92-.92.31v.62a4.84,4.84,0,0,1-1.54,1.54c.19.62,0,.27.31.62V227h.31l2.16-2.77h.62a5.73,5.73,0,0,0,1.85-1.85h.62Zm-21.88,2.77,1.23,3.7h.31v.62h.31v2.46H281c.2.54.13.8.31,1.23l.92-.31a18.32,18.32,0,0,0,1.23-1.85v-2.46h-.31v-.92l-.62-.31A5.39,5.39,0,0,0,278.85,224.27Zm-73.64,24h1.23c.54-.6.72-.26,1.23-.62l.31-.62,1.85-1.54.62-1.85h.31v-1.23h.31v-1.85h.31l-.62-4.62h-.31v-.92h-.31l-1.54-1.85H208l-.92-1.23-1.23-.31v-.31h-.62v-.31h-.62a7.26,7.26,0,0,0-3.7-.92v.31h-.31v1.23c.1.42.39-.12.31.31h-.31v.62h-.31v1.23l-2.77,3.7h-.62l-.31.62h-.92v.31H195v.31l-1.54.31v.31H192v.31C197.48,239.59,204.77,243.52,205.21,248.31ZM29,230.75,28,233.52h-.31L27.42,236h-.31v.62h-.31v.92l-.62.31L25.88,240h-.31v.92h-.31v1.85H25l-.62,2.16-1.54,4.62h.31c.35.35,0,.12.62.31l.62-.92H25l.62-.92.92-.31v-.62c.7-.8.26-2.78.62-4,.77-2.66,1.05-6,1.85-8.63l.31-3.7Zm271.15,1.54V232h-.92v-.31h-1.54v-.31c-1,.11-1,0-1.23.92,3.15.63,7.07,2.19,10.48,1.54v-.62Zm-89,2.77a21,21,0,0,0,3.7.31L213.53,232c-.62.18-.27,0-.62.31h-.31v.62l-1.85,1.23Zm71.18,6.47h1.23c1-1.68,2.44-1.79,2.46-4.62-1.63-1.46-1.43-3.26-4.62-3.39v.31H281l.31.92h.31ZM211.68,236l.62,4H212v2.77h-.31v.62h-.31V244h-.31v.62l-.62.62v.62l-.62.31c-1.11,1.19-2.27,2.55-4.31,2.77v1.23h.31v.31a10.54,10.54,0,0,1,4.62,1.54h.62l.62.92.92.31.31.62c.7.62,1.39.59,2.77.62.48-.56.61-.26,1.23-.62v-.31h.62l.31-.62,1.54-1.23,1.54-4.62c-.74-.51-.19-.23-.62-.92H220v-.62l-.92-.62-.31-1.23h-.31v-.62h-.31v-.62h-.31v-.62h-.31v-.92l-.62-.31V240h-.31v-.62h-.31l-.92-2.77h-.62C214.13,236,213,236,211.68,236Zm86.58,1.23v.31h.62l.31.62h.62v.31l1.23.31v.31l1.54.31v.31h.62V240l6.16,1.23c.24-.31.38-.3.62-.62h.31c-.74-.69-1.94-.26-3.08-.62v-.31h-1.54v-.31h-.92v-.31h-1.54v-.31h-.62l-.31-.62H301v-.31l-1.23-.31-.31-.62h-.62v-.31l-1.54-.31C297.68,237.51,297.43,236.69,298.26,237.22ZM191.65,240.3l-.31.31v.31h.31v1.23H192v.92h.31v2.16h.31v1.85h.31v1.54h.31v1.23h.31v1.85h.31v2.46h.31v2.46h.31v2.46h.31v2.46h-.31l.62,2.16,1.85-.62v-.31h1.23l.31-.62H199v-.31h1.23l.92-1.23h.62l.31-.62,1.23-.92.92-2.77h.31v-1.85h.31c.44-1.57-.19-5.19-.62-6.16H204v-.62h-.31v-.62h-.31v-.62l-.62-.62v-.62h-.31l-.92-1.23h-.62l-.62-.92-1.54-.31v-.31h-.62v-.31h-.62l-.31-.62h-.62v-.31Zm-21.88,3.39v.62c.71-.43,2.87-2.61,4.31-1.23a2.71,2.71,0,0,1,1.54.31v.31h.92l.31.62.92.31v.62l.62.31v.62l.62.31v.92h.31v1.54h.31v5.24h-.31v.92H179v1.54h-.31v.62h-.31l-.31,1.85h-.31a5.27,5.27,0,0,1-1.54,1.54h-.62v.31H174.4v.31l-2.46-.31-2.46-2.16v-.62l-.92-.62c-.08-2.86-1.68-9.12.31-11.09v-.62h-.31l-.31.92h-.31v.62h-.31v1.85h-.31c-.64,2.2.43,8.16,1.23,8.94.42,1.57.91.76,1.54,1.54v.62a12.89,12.89,0,0,0,1.85,1.23h1.54v.31a6.85,6.85,0,0,0,5.85-4.31l.31-2.16h.31v-.62h.31l.31-4.62h-.31c-.17-.71.37-.85.31-1.23h-.31l-.62-3.08h-.31v-.62l-.62-.31v-.62h-.31l-.62-.92a27,27,0,0,1-2.77-1.23h-3.08Zm113.7-1.54v.62a3,3,0,0,0-1.23.31v.62h.31l-.31.92v1.23h.31v.31h-.31v1.54h.31l-.31,1.85h.92l1.54-1.85.62-.31v-.62l.62-.31a4.06,4.06,0,0,0,1.54-3.08,2.38,2.38,0,0,1-.62-.92Zm-114.62,3.7h.31l.31-1.23h-.31A3,3,0,0,0,168.85,245.84Zm3.39,1.85h-.31c-.42.75-1.07,5.67-.62,7.09a17.29,17.29,0,0,0,1.85,3.08c2.94-.11,2.77-3.38,2.77-6.47,0-1.54.18-3.26-.62-4-.47-.74-.94-.91-2.16-.92Zm.62-.31c.35.35,0,.12.62.31C173.12,247.34,173.47,247.57,172.86,247.38Zm-.62.92-.31,1.85h.31v.31h1.23a2.31,2.31,0,0,1,.62-.92l-.31-1.23Zm49,0c-.14,3.13-3.71,6.53-6.47,7.09.39,1.83,1.45,2.44,1.54,4.93h.62l.62-1.85.62-.31v-.62h.31l.31-1.23.62-.31.31-1.23.62-.31.31-1.23.62-.31v-.62l.62-.31v-.62c.59-1,.79-.45.92-2.16C222.11,248.86,222.1,248.54,221.23,248.31ZM25.88,251.08H24.65c-.64,1-1.27.63-2.16,1.23l-.62.92h-.31v.62l-.62.31v1.54h-.31v.92h-.31v.92l-.62.31-.31,1.85H19.1v.62H18.8v1.23h-.31v.62h-.31v.92h-.31l-.31,2.77h-.31c-.72.93-1,.51-2.16.92v.31H12.32v.31l1.85.31V268l-3.08-.31-.31-.62-.92-.31c-.49-.62-.6-1.32-1.23-1.85v-4.62h.31v-.62h.31v-1.54h.31l.31-2.77h.31v-.62h.31v-1.23a8.72,8.72,0,0,0,.92-2.46,9.86,9.86,0,0,1-4.62-1.54l-.62-.92c-.59-.16-.42.19-.62.31-1.18,1.24-.25,4.07-.62,6.16-.59,3.37.2,11.77,1.85,15.71l2.16,1.54,2.16-.31.31-.62c.62-.2,1.24.73,2.16.31l.62-.92h.62l.31-.62h.62l1.23-1.54.62-.31v-.62l.92-.62v-.62l.62-.31v-.62l.92-.62v-.62h.31v-.92l.62-.31.31-1.54.92-.62V260l1.23-.92v-1.23h.31v-.62l.92-.62Zm179.94.31c.12,5.92-2.57,10.57-7.39,11.4v.31h.31c1,.9,2,0,2.47,1.85a2.42,2.42,0,0,1-1.54-.62V264h-1.23c-1.32-.43-1.91-.07-3.39,0a10.77,10.77,0,0,0-.31,3.39l4.93-1.23v-.31h.62v-.31h.62v-.31l1.85-.62v-.31l2.77-.62v-.31l4.62-.62v.31H212v.31h.62v.31l.92.31.31.92-.92,2.46h.31v-.31h.31l2.46-5.24h-.62C215.41,256.77,210.66,251.44,205.82,251.39Zm4.93,28.35c.1-.62.31-.62.31-.62v-3.7h.31v-1.23h.31v-.31h-.31V272h.31l.31-2.16h.31v-.62h.31c.29-1.07-.52-1-.62-1.23l.62-2.77H212v-.31h-1.85v-.31l-2.16.31h-2.16v.31h-.92v.31H204v.31h-.92v.31h-.62v.31h-.92v.31l-1.23.31v.31h-.92v.31l-4.93.92c.65,1.72.18,4.71,0,6.47l3.7,1.23v.31h1.23V277l1.85.62v.31h.62v.31l1.85.31v.31h.62v.31l2.46.31v.31A8.07,8.07,0,0,0,210.75,279.74Zm-10.17-11.4v.31h-1.23c-.9.3-2.44.6-3.39.92l.31.62a32.47,32.47,0,0,0,5.24-.92h4V269c1.22-.34,2.9.38,3.7-.31h.31v-.31a35.92,35.92,0,0,0-6.16-.31C202.71,268.61,201.6,268,200.59,268.34Zm-5.24,4,6.78.31V273h2.46v.31c1.18,0,1.29.06,1.54-.92a8.85,8.85,0,0,1-2.46-.62l-8.32-.31Zm-59.16,4a39.88,39.88,0,0,1,10.17,1.54h2.16a25.15,25.15,0,0,0,6.47.62v-.62a7.62,7.62,0,0,1-2.46-.92v-.31l-1.23-.31V276l-1.85-.31c-3.46-1.5-8.07-3-12.94-2.16-.22.48-.68.86-.62,1.54a.55.55,0,0,1,.31.62h-.31v.92h-.31a5.19,5.19,0,0,0,0,3.39,10.54,10.54,0,0,0,2.16,1.23h1.54v.31h1.85v.31h3.39v-.31H147v-.31l2.77-.31v-.31h1.54v-.31h2.16c.89-.26,2.27-.59,3.08-.92v-.31h-2.16a5,5,0,0,1-3.08.31v-.31h-2.77v-.31H146v-.31H144.2v-.31h-1.85v-.31h-1.23v-.31c-1.5-.46-3.64.3-4.62-.62C136.15,276.61,136.37,277,136.19,276.35Zm63.16-.62V276h1.23v.31h.92v.31h1.23V277h3.7l.31-.92a16.49,16.49,0,0,1-6.78-1.23h-.31v.31c-.43-.1.11-.18-.31-.31h-1.23v-.31a11.64,11.64,0,0,0-2.46-.92C196.13,275.38,197.72,275.11,199.35,275.73Zm4.31,4.62a10.82,10.82,0,0,1-3.08-1.54H200v-.31H199v-.31l-1.23-.31v-.31h-.92v-.31a5.51,5.51,0,0,0-2.46-.62c0,2.56-.49,4.25-.62,6.47h.31c.64-.56,5-.93,6.47-.62.07,0,.1.43.62.31v-.31l1.23-.31v-.31l1.23-.92v.62a2.55,2.55,0,0,0-.92,1.54c2,.08,3.42,1,4.93,1.54h1.23l.31.62,1.23-.31c.56-2.11,3.11-2.52,3.7-4.62h.62v-.62h.62l.31-1.54c-1.08-.63-1.43-1.79-2.77-2.16v-.62l-.92-.31v.62h-.31l.31,2.77h.31c.09.48-.52.4-.62.62-.6,1.42.5,1.27-.92,2.16-1.09,1.15-4.31.26-5.55-.31-.46-.21-1.29-.42-1.54,0Zm-7.39,13.25c.22.85.09.69.92.92l.31,1.23h-.31c-.34,1.24-.8,1-1.85,1.54v.31h-1.23v.31h-1.54v.31h-2.16v.31h-2.16v.31l-4.62-.31h-4.93a8.27,8.27,0,0,0-3.08-.62v.62a2.56,2.56,0,0,1,1.23.62v.31h.62l.31.62h.62l.31.62h.62l.31.62,1.23.31.31.62h.62l.31.62.92.31v.31l1.23.31.31.62,1.23.31V305l1.85.62v.31a7.91,7.91,0,0,0,3.7-.31h1.85v-.31h1.54V305h1.85v-.31h1.85v-.31h1.23v-.31l16-2.46v-.31h.92V301h.62v-.31h.62l.31-.62,1.23-.31v-.31H220v-.31h.62v-.31h.62l.62-.62h.62l.31-.62,1.23-.31V297l.92-.31.31-.62,1.23-.31.31-.62h.62v-.31H228l.62-.62h.62l.31-.62,1.23-.31V293h.62v-.31H232l.62-.62h.62l.31-.62c1-.67,1.44,0,1.85-1.54l-5.85-2.16-.31-.62h-.92l-.31-.62h-.92v-.31h-.62v-.31h-.62l-.62-.92-1.85-.62-.31-.62h-.62l-.31-.62-1.23-.31-.31-.62H220v-.31a2.56,2.56,0,0,0-1.23-.62c-.35-1.25-.63-.61-1.23-1.54h-.31V280c-1.06.63-.89,1-1.54,1.85L212.29,285v.62H212l-1.23,1.54h-1.23c-.72-.81-.83-.2-1.85-.62v-.31l-1.23-.31v-.31h-.92v-.31h-.62V285h-1.23v-.31h-1.23v-.31h-1.54v-.31c-.68-.12-1.12.68-1.54.62v-.31h-.62v-.31c-.91-.29-3.15.44-3.7.62L192,285v.31H191v.31l-2.46.31v.31a6.59,6.59,0,0,1-3.08-.31,8.68,8.68,0,0,0-4.93.62l.31.92c.4.21.42.48.62.62h.62l.62.92h.62v.31l1.23.31v.31l1.85.31v.31l5.55.62v.31h.62v.31l1.54.31.31.62H195V293A2.55,2.55,0,0,0,196.27,293.6ZM58.54,288.67h-.62l-1.54,2.16-.92.62v.92l-1.23.92v.62l-1.54,1.23-.31.62h-.62l-.62.92h-.62l-.31.62-1.85.62-.31.62h-.92l-.62.92h-.62v.31H45L44.06,301h-.92v.31c-1,.53-1.5.28-1.85,1.54h.62c.36,1.37,1.16,1.09,1.54,2.46h.62v.62h.62v.62l3.7,3.39.31.62h.62l.92,1.23h.62v.31l.92.62.31.62h.62l.31.62h.62l1.23,1.54h.62L56.69,317h.62l.31.62h.31l.31.62h.62l.31.62h.62l.31.62h.62l.31.62h.62l.31.62,1.23.31.31.62,1.85.31v.62c1.66.32,3,1.45,4.31,2.16l1.23.31.31.62,1.23.31.31.62,1.54.31v.31h.62v.31l1.23.31v.31l2.77.62V329h.62v.31l1.85.31c2.83,1.24,6,2.9,9.86,3.08.1-.64.31-.62.31-.62v-2.77h.31V326h.31v-2.77c1.75-6,2.52-12.92,4.93-18.18-1.09-.23-1.4-.78-2.16-1.23h-.62l-.62-.92-1.23-.31-.62-.92H91.2L90.9,301l-1.23-.31-.31-.62-.92-.31v-.31a3.42,3.42,0,0,0-1.54-.92v-.62c-1.55-.74-2.12-1.75-3.08-3.08L81,292.37v-.62l-1.54-1.23v-.62l-.62-.31V289l-.92-.62v-.62l-.92-.62-.62-1.85-1.23-.92L73,281.89h-.62c-.68-.65.43-.53,0-1.23-.23-.37-.94-.26-1.54-.31v.31L69,281l-.31.62h-.92v.31h-.62v.31h-.92v.31h-.62v.31H65l-.31.62h-.62l-.31.62h-.62l-.31.62h-.62l-.62.92C60.48,286.4,58.94,287.15,58.54,288.67Zm54.23,19.1v-1.23c-.92-.58-.94-1.25-1.54-2.16l-.62-.31v-.62h-.31v-.62H110c-.6-1.14.28-1.39-1.23-1.85v-.31l-1.85-.31v-.31H106v-.31h-1.23v-.31h-1.23v-.31H102.3v-.31h-.92v-.31H99.83v-.31h-.62v-.31l-1.85-.31v-.31L95.52,297v-.31H94.9v-.31H94v-.31h-.92v-.31h-.92v-.31H91.2v-.31L90,294.83v-.31H89v-.31l-1.23-.31v-.31l-1.23-.31-.31-.62h-.92l-.62-.92h-.62l-.31-.62-.92-.31v.62L86,294.22v.62l.92.31,1.23,1.54h.62l.31.62h.31l.31.62h.62l.62.92h.62l.62.92h.62l.62.92H94l.31.62,1.23.31.31.62,1.23.31.31.62,1.23.31v.31l1.23.31v.31h.92v.31L102,305v.31h.92v.31h.62v.31h.92v.31Zm71.79-1.23v-.62c-2-.38-2.36-1.6-4.31-1.85-.71.76-.69.22-1.54.62V305l-1.23.31v.31h-.62l-.31.62h-1.23v.31h-.62v.31l-3.08.62v.31H171v.31h-.92v.31h-.92v.31h-.92V309h-1.85v.31h-.62v.31l-3.08.31v.31h-1.23v.31h-1.23v.31h-1.85v.31h-2.47v.31h-1.85v.31c-1.39.4-3.25-.09-4.31.31l.31.92h-.31c-.37,1.33-.18,2.15-1.23,2.77-1.66,1.71-7,.75-9.24.31.31,1.19.9,1,1.23,2.16.76.22.5.16.92.62h.31v.62l.92.62v.62l1.54,1.23v.62l.62.31v.62l.62.62v.62h.31v.62H146V326h.31v.62l.62.31v.62h.31v.62h.31V329h.31v.62h.31l.62,3.08h.31v.62h.31v.92h.31v.92h.31v.92h.31v4.31a5.91,5.91,0,0,1-2.16.31c-.8-.72-5.31-.64-7.09-.62-.32.74-.34,1-1.23,1.23a23.47,23.47,0,0,0-.92-7.09v-1.85h-.31l-.31-2.46H138V329h-.31v-.92h-.31v-.92h-.31v-.92h-.31v-.62h-.31v-.92h-.31l-.31-1.54-.62-.31v-.92H135v-.62h-.31v-.92l-.62-.31v-.62l-.62-.62v-.62h-.31v-.62h-.31V317h-.31v-.62l-.62-.62v-.62l-.62-.31v-.62c-.12-.18-.41-.25-.62-.62l-1.85.31v.31l-2.77-.31-.62.92h-.31v.62l-.92.62V317l-.62.31-.31,1.23-.62.31v.62h-.31v.62H122v1.54l-.62.31-.92,2.77-.62.31-.62,3.7a39.35,39.35,0,0,0-1.85,12.63,2.69,2.69,0,0,1-2.16.62l-.62-.92H114l-.31-.62h-1.23l-1.23-.31v.31l-3.08.62-1.23-2.47v-1.23h-.31l.31-3.39h.31v-1.54h.31l.31-2.16h.31v-.92h.31v-.92h.31v-.62l.62-.31.31-1.54.62-.31.62-1.85.62-.31.31-.92h.31v-.92l.62-.31.31-1.23.62-.31v-.62l.62-.31c.82-.87,2.76-2.57,3.08-3.7a5.09,5.09,0,0,0,1.85-.92v-.31H118v.31h-1.85c-1.65.4-3.2-.54-4.93-.92a16.1,16.1,0,0,1,.62-4.31,28.08,28.08,0,0,1-9.55-1.85h-1.23v-.31c-.35-.16-3-1.27-3.08-1.23v.31c-.67.62-.27.63-.62,1.54h-.31V309h-.31v.62h-.31L96.13,313h-.31v1.54h-.31v.92h-.31v3.08H94.9v.92l-.62.31v3.39H94v.92h-.31v1.23h-.31c0,.25.51.79.31,1.54h-.31v4.93c-1.18,4.09-.25,8.49.62,13.25l.92.31c.75.65,2.23,0,3.39.31V346h1.54v.31h1.85v.31h2.46v.31h3.39v.31h2.77v.31h2.16v.31h2.46v.31h2.46v.31h2.16v.31h9.55v.31h11.71v.31a.88.88,0,0,0,.92-.31l2.16.31h5.55v.31l6.47-.62v-.31l11.71-.92c0-1.89-.71-2.69-1.23-4l-.62-2.77h-.31l-.31-3.08c-1.55-4.39-2-15.73-.62-20.34v-2.16h.31v-1.85h.31v-.92h.31c.47-1.16.26-2.1,1.23-2.77v-.31H167v.31h.31v1.23H167l-.31,2.16h-.31v1.54h-.31l-.31,3.39h-.31V325h-.31v1.23h.31v3.08s.4,0,.31.62h-.31c-.46,2.07.48,4.8.92,6.16v1.54h.31c.67.61,3.1.34,4.31.31.93-.77,2.66-.21,4-.62V337h2.16v-.31H179v-.31h1.85v-.31l4-.31v-.31h1.54v-.31h1.23v-.31h1.54v-.31l2.77-.31V334h1.23v-.31h.92v-.31H195V333h1.23v-.31l2.46-.31v-.31h.92v-.31h.92v-.31h.92v-.31l3.7-.62v-.31l1.23-.31v-.31h.92v-.31l2.47-.31v-.31h.92v-.31h.92v-.31h.92v-.31h.92v-.31h.92v-.31h1.23v-.31h.62v-.31l2.77-.62v-.31l1.85-.62v-.31h.62v-.31h.92v-.31h.62v-.31l3.7-1.23v-.62a6.16,6.16,0,0,0,3.08-1.23h.62l.31-.62,1.23-.31.31-.62,1.23-.31v-.31l.92-.31.31-.62h.62l.62-.92,1.23-.31v-.31c1.36-.78,3-1.41,3.39-3.08-.85-.78-.49-1.38-.92-2.46h-.31v-.92h-.31l-.31-1.23h-.31l-.31-1.23-.62-.31v-.62l-.62-.31a5,5,0,0,1-.92-2.46h-.62v-.62c-1.22-.76-1.35-1.95-2.16-3.08l-1.85-1.54c-.84-1.16-.46-1.73-2.46-1.85-.71.78-1.62.7-2.47,1.23v.31l-.92.31-.31.62h-.62v.31H224l-.62.62h-.62l-.31.62h-.62l-.62.62h-.62v.31H220v.31h-.62v.31h-.62v.31h-.62v.31l-1.85.62v.31h-1.23v.31h-1.54v.31H212v.31h-3.08v.31l-4,.31v.31h-1.85v.31h-1.54v.31h-1.23v.31h-1.54v.31h-1.85v.31h-2.16v.31h-2.46v.31C189.57,308.23,186.81,306.64,184.56,306.54Zm-37.28-2.16c-.25,1.35-.82,1.83-.92,3.39,1.49.89,1.77,2.63,4,2.77.66-.55,1.76,0,2.77-.31v-.31h1.23v-.31h2.16v-.31h3.08c6.77-2,13.56-3.58,19.72-6.16-.52-.64-1.15-.74-1.85-1.23l-.92-1.23h-.62l-.31-.62h-2.77c-.7.61-1.8.27-2.77.62V301h-.92v.31h-.92v.31h-1.54c-2.8.88-6.66,1-9.55,1.85h-2.46v.31h-3.08v.31h-3.7v.31Zm88.43-3.08h-.62v.31h.31v.31h.31ZM112.46,312.4c1.25.13,4.59.82,6.16.31v-.31l2.77-.62v-.31l1.23-.31v-.31h.92v-.31c.44-.27.53-.21,1.23-.31-.09-3.28.45-3.81,1.54-6.16h-1.85c-.7-.6-2,0-3.08-.31v-.31h-1.85v-.31H117.7v-.31h-1.23v-.31h-1.54v-.31h-1.54v-.31l-1.85-.31-.31.31.62.92h.31l.31,1.23.92.62v.62a17.84,17.84,0,0,0,1.85,1.23v.92C113.77,308.34,112.84,310.44,112.46,312.4Zm19.1-8h-3.08c-.43-.05.13-.32-.31-.31v.31a9.34,9.34,0,0,0-1.23.31c-1.29,2.66-1.35,5.67.62,7.7l.62.92h1.54V313h.92v-.31c.35-.35.12,0,.31-.62h-.31v-1.54h-.31C129.78,308.6,131.24,305.78,131.57,304.39Zm.62,0-.31,2.46,1.85.31.31.62,1.85.31v.31h1.54v.31c1.86.54,3.23-.48,4.62-.62v.31h-.31c-1.18,1.42-6.27,1.1-8,.31v-.31a8.24,8.24,0,0,0-2.16-.92l.31,3.39c1.54.39,2.54,1.73,3.7,2.46l1.23.31v.31h.92c3.59,1.44,6.23,1,10.17.31l.31-.92h-.31v-.92a10,10,0,0,1-.92-2.16h-.62c-.46-1.69-1.19-.76-1.23-3.39a4.7,4.7,0,0,0,1.23-2.46l-8.63.31v-.31ZM118,307.78a16.68,16.68,0,0,0,6.47-.31v-.62l-1.85.31v.31c-1.9.6-3.53-.47-4.93-.62Zm-76.72,5.85-.31.92h-.31l-.31.92-.62.31v.62l-.62.31V317l-.92.62-.31,1.23-.62.31v.62l-1.23.92v.92l-.62.31v.62l-.62.31-.31,1.23H34.2v.62h-.31v.62h-.31V326h-.31v.92l-.62.31-.31,1.23-.62.31v.92h-.31v.62h-.31v.92h-.31v.62l-.62.31-.62,2.77h-.31l-.62,1.85h-.31v.62H28l-.31,1.54h-.31v.62h-.31l-.62,3.08h-.31v.92h-.31v.92h-.31l-.31,2.77H25v1.23h-.31V350h-.31v1.85H24v4.62a41,41,0,0,0,1.23,11.71v2.16h.31v1.85h.31v1.23h.31v.92h.31v.92h.31v.92h.31l.31,1.23h.31V378H28V379h.31v.62h.31v.62l.62.31v.92l.62.31L30.2,383l1.54,1.23v.62l.62.31.92,1.23h.62l1.23,1.54,2.77,2.46V391l1.54,1.23v.62l.62.31v.62h.31l.31,2.46H41l1.85,2.16h.62l.31.62h.62l.31.62,1.23.31v.31l1.23.31v.31h1.23v.31H49v.31l3.08.31v.31H53.3v.31h1.54v.31a.8.8,0,0,0,.92-.31h2.77l2.46-.92v-.31H60.7l-.31-.92h-.31v-.62h-.31V399l-.62-.31v-.62l-.92-.62v-.62l-.92-.62v-.62l-.92-.62c-1.49-1.51-2.49-2.78-5.55-2.77l-.31.92h-.31v2.16l-.31.31h-.31v-2.16h.31l.31-1.54c1.13-.6,1.82-.64,3.7-.62.49.75.25.2.92.62v.31h.62l.62.92h.62l.92,1.23.62.31v.62l.92.62.31,1.23.62.31v.62l.62.31V399l1.23.92.31.92h.62l.92,1.23h.62l.31.62h1.85c1.24,1.16,5.95.48,7.7.31,4.78-.47,6.22-1.81,8.32-4.93l.62-.31.31-1.23.62-.31.31-.92h.31L85,394l.62-.31v-.62l1.23-.92v-.62l1.23-.92V390c.23-.31.93-.55,1.23-.92l2.46.31a8.23,8.23,0,0,0,.62,1.54h-.31v.31a8.67,8.67,0,0,0-3.39-.62l-.92,1.54-.92.31v.62l-.62.31V394H86a2.48,2.48,0,0,0-.62,1.23,7.45,7.45,0,0,0,2.46-.92H89V394h.62v-.31l1.85-.31.31-.62h.62v-.31l1.85-.62.31-.62,1.23-.31.31-.62h.62l.31-.62.92-.31,1.23-1.54h.62l.92-1.23h.31V386l.92-.62,1.23-4-.62-7.09h-.31v-.92H102v-1.85h-.31v-.92h-.31v-1.54h-.31l-.31-2.16h-.31V366h-.31v-.92h-.31l-.31-2.46h-.31v-1.85h-.31l.31-3.08,2.77-1.54.62-.92h.62l.62-.92h.62l.92-1.23.62-.31v-.62l1.54-1.23v-.62h.31v-.62c.11-.17.42-.25.62-.62h-1.54L93.05,346.6c-1.71-3.21-1.84-7-1.85-12l-5.85-.92v-.31h-.62V333h-.92v-.31H82.58v-.31h-.92v-.31h-.92v-.31H79.8v-.31L78,331.19v-.31l-1.23-.31v-.31h-.62V330h-.92v-.31h-.62v-.31h-.92V329l-1.85-.62v-.31h-.62v-.31h-.62v-.31h-.62v-.31h-.62v-.31h-.62v-.31h-.62v-.31h-.62V326h-.62v-.31h-.62v-.31h-.62V325l-1.23-.31-.31-.62-1.85-.62-.31-.62-1.23-.31v-.62h-.92c-.51-.76-1.09-.71-1.85-1.23l-.62-.92h-.62l-1.23-1.54h-.62l-.31-.62h-.62L53,316.4h-.62l-.62-.92h-.62l-.92-1.23L49,313.32V313h-.62v-.31c-.46-.42-.41-.16-.62-.92a5.18,5.18,0,0,1-2.16-1.54l-.31-.62h-.62v.31a17.3,17.3,0,0,0-1.23,1.54l-.62.31v.62l-.62.31C41.67,313.45,42.54,313.26,41.29,313.63Zm78.26,1.23h-.62c-.3.37-1,.61-1.23.92v.62l-.62.31-1.23,1.54-.92.62v.62l-.62.31-.62,1.85-.62.31v.62h-.31v.92l-.92.62v.62h-.31v.62h-.31v.92l-.62.31v.62h-.31v1.54l-.62.31-.31,2.77c-.74,2.39-1.29,4.93-.31,7.39a4.83,4.83,0,0,0,1.85.31c1.51-1.5,4.06.28,4.93-.31.61-.8-.27-2.64.31-4.62h.31v-2.16h.31v-1.54l2.46-7.39.62-.31v-.62h.31v-1.23h.31v-.62l.62-.31v-.92h.31v-.62l.62-.31v-.62l.62-.31.62-1.85h.31a2.57,2.57,0,0,0,.62-1.23h.62a3,3,0,0,1,1.23-1.23V313h-.31a5.44,5.44,0,0,0-.62-1.54c-.62.18-.27,0-.62.31-1,.21-1.41.89-2.16,1.23C120.94,313.64,120,313.13,119.55,314.86Zm12.94-2.46-.31,1.85c.74.51.19.23.62.92h.31v.62l.62.31v.62H134v.62l.62.31v.62l.62.31v.62h.31v.92h.31v.62h.31v.62l.92.62v.92h.31v.92h.31v.92H138v.92h.31v.62h.31l.31,1.54h.31V329h.31v1.23h.31v1.85h.31v1.23h.31l.31,6.16,1.85-.31v-.31h1.85v-.31l4.62.62v-.31h.31L147,331.5v-1.23h-.31v-.62l-.62-.31v-.62h-.31v-.62h-.31v-.62h-.31v-.62h-.31v-.62h-.31v-.92h-.31v-.62h-.31v-.62l-.92-.62v-.62l-.62-.31v-.62l-.92-.62v-.62l-1.23-.92v-.62L137.73,317l-.92-1.23-.62-.31-.31-1.23Zm97.67,9.55v.62a3.5,3.5,0,0,0-1.54.62v.31l-1.85.62v.31l-2.16.62v.31H224l-.31.62h-.92l-.31.62-1.54.31v.31h-.62v.31l-1.23.31v.31l-2.16.31v.31h-.62V329h-.92v.31h-.92v.31h-.92V330h-.92v.31h-.92v.31h-.62v.31l-3.08.62v.31h-.92v.31h-.92v.31h-.92v.31H204V333h-.92v.31h-.92v.31l-2.47.31c-4,1.43-8.58,2.35-12.63,3.7l-4.31.31c-4.72,1.41-9.51,1.81-15.71,1.85a3,3,0,0,0,.31,1.54h.31v2.16h.31v.62h.31v.92h.31v.62h.31v.62l.92.62v1.54l.62.31v.92h.31l.31,1.23a.54.54,0,0,0-.31.62H171v1.54h-.31V354h-.31v.62h-.31l-.62,1.85h-.31V358l-.92.62-.31.92h-.31v1.23h-.31L167,362h-.31l-.31,1.85-.92.62-.62,1.85-.62.31-.31,1.54h-.31L163,370h-.31v1.54h-.31v1.23h-.31v2.16h-.31c-.15.6.18.41.31.62v.31h-.31l.62,4.62h.31v.92H163l.31,1.23h.31v.92h.31v.62h.31v.92l.62.31V386l.92.62.31.92h.62l1.23,1.54,1.23.31.31.62a11.27,11.27,0,0,0,4.93.92,3.82,3.82,0,0,0-.92-2.46v-.62l-.62-.31V387h-.31l-.31-.62H170.7v.31h-.92c.35-1.3,1.23-1,2.77-.92.35.35,0,.12.62.31l.31.92.62.31v.62l.62.31v.62H175v.62l.62.62v.62l.62.31.31.92h.31v.92l1.23.92v.62l.92.62v.62l.92.62v.62h.31l.62.92h.62l.62.92h.62l.31.62,1.23.31.31.62h.62v.31l4,.92v.31h.92v.31H191v.31h1.54v.31h.92V403h.92v.31l7.7.31v-.31l1.54-.31,1.85-2.16,1.23-.31.31-.62h.62v-.31h.92l.31-.62,1.23-.31.31-.62h.62v-.31l1.85-.62v-.31l1.85-.31v-.31h.92v-.31h.62v-.31h.92v-.31h.62V395a11,11,0,0,1,4.31-.62,1.23,1.23,0,0,0,.62.62l-.92,3.08c-.61.72-.8.19-1.54.62l-1.23,1.54-1.23-.31v-.62h1.54a4.44,4.44,0,0,1,2.16-1.85,5.08,5.08,0,0,0,0-2.16l-3.7.62v.31l-1.23.31v.31h-.92v.31h-.62v.31h-1.23v.31l-1.23.31v.31h-.92v.31h-.62V399h-.62l-.31.62-1.23.31-.31.62-1.54.31v.31l-.92.31v.92h-.62V403c6.25.13,12.78,4.69,19.1,2.47l2.77-.62.31-.62h.62v-.31l.92-.62v-.62l.62-.31v-.92l1.23-.92v-.62l.62-.31v-.92l.62-.31v-.62l.92-.62v-.62h.31l.92-1.23h.62l1.23-1.54h.62l.31-.62h.62c.79-.56.51-1.18,1.85-1.54.36-1.33,1-1.06,1.54-1.85v-.62h.31l.92-1.23.62-.31V387l.92-.62v-.62l.62-.31.31-.92h.31v-.62l.62-.31.62-1.85h.31l.31-.92.62-.31v-.92H248V379l.62-.31v-.92l.62-.31.31-1.23h.31l.31-1.23h.31l.31-1.85h.31v-.62h.31v-1.23a31.46,31.46,0,0,0,2.16-11.4l.31-3.08h-.31V354h-.31v-4.31H253v-1.54h-.31v-2.77h-.31v-1.23H252V342.9h-.31v-1.23h-.31v-.62h-.31v-.92h-.31l-.31-1.23h-.31V338h-.31l-.62-1.85H249v-.62h-.31v-.62h-.31v-.62H248v-.62h-.31V333h-.31v-.62h-.31v-.62h-.31v-.62l-.62-.62V330l-.62-.31v-.92l-.62-.31-.31-1.23-.62-.31v-.62h-.31v-.62l-.62-.62v-.62h-.31l-.31-.92-.62-.31-.31-1.23-.62-.31-.31-.92-.92-.62c-.85-1.21-.5-2.22-2.46-2.46-.54.83-1.33,1-2.16,1.54l-.31.62h-.62l-.31.62-1.23.31-.31.62h-.62v.31C231.26,321.94,230.94,321.9,230.17,321.95ZM50.22,395.59h-.31c-.19.62,0,.27-.31.62.23.84.07.7.92.92Zm131.26,5.24a12,12,0,0,1-1.23,5.55h-.31l-.31,1.23-.62.31-.62,1.85-.62.31-.31,1.54-1.85,1.54v.62l-1.23.92-.31,1.23-.92.62-.62,1.85-.62.31-.31,2.16h-.31v.92H171v.62h-.31a9.72,9.72,0,0,0,.62,5.24c2.4,2.75,10.48,2.13,14.48,3.39h1.54v.31h.92v.31h.62v.31h.92v.31l1.85.62v.31l1.23.31v.31l.92.31.31.62h.62l.92,1.23h.62l2.46,2.77h.62l.62.92h.62l.62.92h.62l.31.62h.62l.31.62h.62v.31h.62v.31h.92v.31h.62V443h.92v.31h.92v.31h1.23V444h1.54v.31h3.7v.31H216v.31h1.23v.31h.62l.31.62h.62l1.54,1.85h.62l.62.92h.62l.31.62c2,1.24,7.24,1.22,9.55.31h.92v-.31c.58-.44.69-.38.92-1.23h-.31c-.22-.76-.16-.5-.62-.92v-.31h-.62l-.62-.92-1.23-.31v-.31h-.92v-.31h-.62v-.31c-1.2-.63-2.67-.75-3.39-1.85h.62l.31-.62h1.23c.81.93,1.85.64,2.77,1.23l.31.62.92.31v.31c.82.68,1,1.13,2.46,1.23.24-1,.46-.66.62-1.85h-.31l-.31-.92-.62-.62h-.62l-.31-.62H232v-.31l-1.54-.31v-.62h1.85l.62.92h.62l.92,1.23h1.23l.31-1.54h-.31l-.31-1.54c-1-.41-2-.81-3.08-1.23v-.31a3.91,3.91,0,0,1,1.54-.31,5.47,5.47,0,0,0,3.08,1.54,4.83,4.83,0,0,0,.31-1.85h-.31l-.31-.92-.62-.31V436h-.62l-.31-.62h-.62V435h-.62v-.31h-.62v-.31h-.62v-.31h-.92v-.31h-.62v-.31h-.62l-.62-.92h-.62l-.31-.62L227.7,431v-.62l-.92-.62-.31-1.23-.62-.31v-.62l-.62-.31v-.62l-1.54-1.23v-.62l-.62-.62h-.62l-1.54-1.85h-.62l-.62-.92h-.62l-1.54-1.85h-.62l-1.23-1.54h-.62l-1.54-1.85h-.62l-1.85-2.16h-.62v-.31a3.35,3.35,0,0,0-1.54-.92c-.22-.89-.53-.74-.62-.92v-1.54H208c-.42-1.44-.09-4.15,0-5.24-1.61-.13-3.5-1.21-5.55-.62v.31H201.2v.31l-5.55.62v-.31h-2.77v-.31h-1.54v-.31h-1.23v-.31h-.62v-.31H188v-.31l-1.54-.31v-.31l-1.23-.31v-.31h-.92C183.11,402.14,183.13,401.21,181.48,400.83ZM80.42,427v-.62l-1.54.31V427h-.31v.31h.31V427Zm-4.62.92c.35.35,0,.12.62.31C76.06,427.9,76.41,428.13,75.8,427.94Z"/></g></g></svg>