<svg xmlns="http://www.w3.org/2000/svg" viewBox="0 0 343.42 73.96"><defs><style>.cls-1{fill:gray;}</style></defs><title>concept-text-en3</title><g id="レイヤー_2" data-name="レイヤー 2"><g id="ナビ"><path class="cls-1" d="M18.07,35.73c-2,0-1.9,0-2.58,2.05l-3.12,9.12C10.85,51.39,11.16,51.54,14,52l2.2.38c.53.53.46,1.9-.15,2.2-2.43-.15-4.94-.15-8.06-.23-2.51,0-4.86.08-7.52.23a1.7,1.7,0,0,1-.08-2.2L2.64,52c2.2-.38,3-1,4.18-3.5.91-2,2.13-5.17,3.72-9.27L21,12.17c.91-2.43,1.67-4.26,1.44-5.55C25.06,6.09,27.57,3,27.72,3A1.52,1.52,0,0,1,29,3.58c1.22,3.42,2.2,7,3.42,10.41L43.38,45.84c1.75,5.09,2.13,5.55,6,6.31l1.14.23a1.64,1.64,0,0,1,.08,2.2c-3.12-.15-5.93-.23-9.88-.23-3.27,0-6.61.15-9.27.23a1.73,1.73,0,0,1-.23-2.2l1.67-.23c2.74-.38,3.12-.84,2-4L31.3,37.79c-.68-2.05-1-2.05-3.12-2.05Zm9.12-3.42c2.13,0,2.43-.15,1.82-2l-3.19-9.12c-1.37-4-1.75-5.47-2.13-6h-.15c-.3.53-1,2.43-2.28,6l-3.19,8.89c-.76,2.2-.61,2.2,1.22,2.2Z"/><path class="cls-1" d="M61.92,12.7c0-5.09-.08-5.55-2-6.76l-.84-.53c-.46-.3-.53-1.52,0-1.75,3-.84,6.92-2.43,10-3.65a1,1,0,0,1,1.06.61c-.15,3-.23,7.75-.23,11V45.31c0,5.62.3,6.46,2.89,6.84l1.67.23c.53.53.46,1.9-.15,2.2-3.12-.15-5.7-.23-8.51-.23-2.51,0-5.09.08-8.21.23-.61-.3-.68-1.67-.15-2.2l1.6-.23c2.58-.38,2.89-1.22,2.89-6.84Z"/><path class="cls-1" d="M87.61,12.7c0-5.09-.08-5.55-2-6.76l-.84-.53c-.46-.3-.53-1.52,0-1.75,3-.84,6.92-2.43,10-3.65a1,1,0,0,1,1.06.61c-.15,3-.23,7.75-.23,11V45.31c0,5.62.3,6.46,2.89,6.84l1.67.23c.53.53.46,1.9-.15,2.2-3.12-.15-5.7-.23-8.51-.23-2.51,0-5.09.08-8.21.23-.61-.3-.68-1.67-.15-2.2l1.6-.23c2.58-.38,2.89-1.22,2.89-6.84Z"/><path class="cls-1" d="M145.9,25.7c0,.91.15,1.29.68,1.29a16.4,16.4,0,0,1,9.73-3.65c6.54,0,9.73,4.18,9.73,10.64V45.31c0,5.62.3,6.54,2.89,6.84l1.75.23a1.39,1.39,0,0,1-.15,2.2c-3.19-.15-5.78-.23-8.59-.23q-3.76,0-7.75.23c-.61-.3-.68-1.67-.15-2.2l1.14-.15c2.58-.38,2.89-1.29,2.89-6.92V34.59c0-3.65-1.6-6.69-6.08-6.69a7,7,0,0,0-5.17,2.2c-.84.91-.91,2.05-.91,5V45.31c0,5.62.3,6.54,2.89,6.92l1.14.15c.53.53.46,1.9-.15,2.2-2.66-.15-5.24-.23-8.06-.23-2.43,0-5,.08-8.21.23-.61-.3-.68-1.67-.15-2.2l1.67-.23c2.58-.38,2.89-1.22,2.89-6.84V12.7c0-5.09-.15-5.55-1.75-6.61l-1.06-.68c-.46-.3-.53-1.52,0-1.75,3-.84,6.84-2.43,10-3.65a1,1,0,0,1,1.06.61c-.15,3-.23,7.75-.23,11Z"/><path class="cls-1" d="M203.89,44.7c-.23,4.41.91,6.69,3.65,6.69a7,7,0,0,0,2.58-.84c.38,0,.91.84.68,1.52-1.52,2.13-5.24,3.34-7.6,3.34a7.26,7.26,0,0,1-5.47-2.13c-.53-.53-.84-.91-1.22-.91s-.91.38-2.05,1.06a12.26,12.26,0,0,1-6.46,2c-5.17,0-7.75-3.57-7.75-7.37,0-2.74,1.06-5.24,6.31-7.07,2.66-.91,5.55-2,8.36-3,1.52-.53,1.75-1.22,1.75-2l.08-2c.15-3.88-.91-7.22-4.64-7.22a3.73,3.73,0,0,0-4,3.34,3.25,3.25,0,0,1-1.44,2.74,10.45,10.45,0,0,1-4.86,1.37c-1,0-1.44-.53-1.44-1.22,0-.91.46-2.51,3-4.86,2.36-2.2,7.83-4.79,11.7-4.79,6,0,9.73,2.81,9.42,9.5Zm-7.45-2.58c0-.84-.23-1.29-.61-1.29a12.39,12.39,0,0,0-3.34.91c-2.13.76-4.1,1.82-4.1,5.09a4.26,4.26,0,0,0,4.26,4.41c2.74,0,3.57-1.82,3.65-3.65Z"/><path class="cls-1" d="M221.6,34.14c0-3.42.08-4.1-1.9-5.4l-.91-.61a1.62,1.62,0,0,1,.08-1.75,42,42,0,0,0,9.88-4.48,1.2,1.2,0,0,1,1.22.76,20.81,20.81,0,0,0-.38,3,1,1,0,0,0,.61,1c1-.46,5.47-3.27,9.42-3.27,8.28,0,13.07,6.23,13.07,14.06,0,10.56-7.45,18-18.62,18a21.8,21.8,0,0,1-3.34-.3c-.68.15-1.14.61-1.14,2.13v7.45c0,5.63.3,6.46,3,6.76l2.74.3c.53.53.46,1.9-.15,2.2-4-.15-6.92-.23-9.73-.23-2.51,0-5.47.08-8.51.23-.61-.3-.68-1.67-.15-2.2l2-.23c2.58-.3,2.89-1.22,2.89-6.84Zm8,11.86A5.62,5.62,0,0,0,232,50.86a7.55,7.55,0,0,0,4,1.52c5.24,0,8.13-5.47,8.13-12.46,0-7.22-3.72-12.16-9.65-12.16a5.76,5.76,0,0,0-4.1,1.52c-.61.68-.84,2-.84,5.17Z"/><path class="cls-1" d="M266.89,34.14c0-3.42.08-4.1-1.9-5.4l-.91-.61a1.62,1.62,0,0,1,.08-1.75A42,42,0,0,0,274,21.9a1.2,1.2,0,0,1,1.22.76,20.81,20.81,0,0,0-.38,3,1,1,0,0,0,.61,1c1-.46,5.47-3.27,9.42-3.27,8.28,0,13.07,6.23,13.07,14.06,0,10.56-7.45,18-18.62,18a21.8,21.8,0,0,1-3.34-.3c-.68.15-1.14.61-1.14,2.13v7.45c0,5.63.3,6.46,3,6.76l2.74.3c.53.53.46,1.9-.15,2.2-4-.15-6.92-.23-9.73-.23-2.51,0-5.47.08-8.51.23-.61-.3-.68-1.67-.15-2.2l2-.23c2.58-.3,2.89-1.22,2.89-6.84Zm8,11.86a5.62,5.62,0,0,0,2.43,4.86,7.55,7.55,0,0,0,4,1.52c5.24,0,8.13-5.47,8.13-12.46,0-7.22-3.72-12.16-9.65-12.16a5.76,5.76,0,0,0-4.1,1.52c-.61.68-.84,2-.84,5.17Z"/><path class="cls-1" d="M307.7,69.25c0-2.51,1.75-3.34,3.88-3.42l1.67-.08a4.26,4.26,0,0,0,3.19-1.52c1.6-2.28,3.72-6.31,3.72-9.5a14.58,14.58,0,0,0-1.29-5.62l-6.16-16c-1.82-4.71-2.36-5.85-5.24-6.46l-1.52-.3c-.61-.61-.61-1.9.23-2.2,2.51.15,5.62.23,8.44.23,2.66,0,5.47-.08,8.06-.23.61.3.68,1.67.15,2.2l-2.28.46c-1.75.38-1.82.68-.53,4l3.34,8.74c1.44,3.88,2.36,5.7,2.58,5.78.3-.08,1.44-2.51,2.43-4.71l2.28-5.09a44.75,44.75,0,0,0,2.74-7.37c0-.68-.3-1.06-1.44-1.29l-2.58-.53a1.62,1.62,0,0,1,.15-2.2c2.74.15,5.55.23,7.22.23,2,0,4-.08,6.08-.23.76.23.76,1.67.23,2.2-.91.23-3.27.61-4.33,1.67-.84.84-2.28,3-4.64,7.68l-3.88,7.75c-2.58,5.17-9.35,18.7-12.54,25.69-1.29,2.89-3.27,4.1-5.78,4.1C309,73.28,307.7,71.46,307.7,69.25Z"/></g></g></svg>