<svg xmlns="http://www.w3.org/2000/svg" viewBox="0 0 268.72 470.66"><defs><style>.cls-1{fill:#999;fill-rule:evenodd;}</style></defs><title>concept-img3</title><g id="レイヤー_2" data-name="レイヤー 2"><g id="ナビ"><path class="cls-1" d="M256.63,17.69a9.62,9.62,0,0,0,1.34-.34l.34.34.34-.34.34.34v-.34h2.35v.34h1.34V18h1v.34l1.34.34.67,1h.67l.34.67H267v.67l.67.34v2.69c.82,1.3-1.15,2-1,3H267l1,3,.67.34v2c-1.13.75-1.09,1.92-2.69,2.35v.67c1.42.61,2,1.26,2,3.36v1.34h-.34v.67h-.34l-.34,1h-.67l-.34,1h.34l.34.34-.34,3.36c-.71.41-.73.76-1.68,1v.34l-2.35.34L262,49.93l-1,.34-.34.67H260v.34h-1.34v.34H258v.34h-1v.34a.86.86,0,0,1-1-.34c-.77-.18-.95.41-1.34.34v-.34h-.67v-.34l-1.68.34c-.24.93-.09.75-1,1v.34L248.57,53v-.34l-2-.67v-.34h-.67l-.67-1-1.34-.34-1-1.34h-.67l-2.35-2.69-1-.67v-.67l-1-.67v-.67l-.67-.34-.34-1.34-.67-.34V40.19c-.18-.53-1-2.43-.67-3.36h.34v-.67l1-.67v-1h.34V31.8h.34v-1h.34v-1h.34v-1h.34v-1h.34v-.67h.34v-1h.34l.34-1.34h.34v-.67l.67-.34.67-2h.34a2.55,2.55,0,0,0,.67-1.68h.67l5-9.74V8.63h.34v-1h.34V6.28h.34v-1h.34v-1h.34v-1l.67-.34v-1h.34V1.24l1-.67c.92-1,1.89-.44,3.36-.34l1.34,1.68H257v.67h.34v.67h.34v1H258v1h.34v2h.34L258.31,9a1,1,0,0,1,.34,1h-.34v2.69H258v.67h-.34v1.34A12.52,12.52,0,0,0,256.63,17.69ZM237.49,36.83l-1,3.36c.42.36.35.59.67,1h.34v.67l1,.67v.67l2.69,2.35,1,1.34h.67l1,1.34h1v-.34c-1-.66-1.66-2.28-1.68-4,1.82.52,1.15,1.41,2,2.69h.34l1,1.34h.67l1,1.34,1.34.34.34.67h3v.34l4.37-.34a3.74,3.74,0,0,1,.67-.67v-.34h-3.36v-.34l-2-.34c-1-2.09-1.69-1.28-1.68-4.7.68-.58.28-.75.67-1.34h.34a2.66,2.66,0,0,0,.67-1.34c-1.12-.64-2-3.59-1.34-5l.67-.34v-.67a3.87,3.87,0,0,1-1.68-2.35,17,17,0,0,0-6,5v.67h-.34v.67h-.34v2.69h.34c0,.3-.31.61-.34,1.34-.93-.24-.75-.09-1-1h-.34v-2c.85-.76.23-.87.67-1.68l.67-.34V37.5l1.34-1v-.67l1-.67c1.36-1.85,2.11-2.11,4.37-3V29.78h.34v-.67h.34v-.67h.34c.33-.5.27-.83.34-1.68-1.52-.36-1.73-1.44-1.68-3.36.66-.6.28-.66.67-1.34h.34v-.67l2.69-2V19h.67a9.8,9.8,0,0,1,1.34-2.69v-.67H256l.67-3H257c.84-2.83-.81-8.12-1.68-9.4l-1.68-1.34-.34-.67h-1l-.34,1h-.34v2h-.34V5.6h-.34v1h-.34V9.3h-.34v1h-.34v1h-.34v1h-.34l-.34,1.34h-.34v.67l-.67.34v1l-.67.34v.67h-.34v1l-.67.34v.67l-.67.34v.67l-1,.67-.34,1.34-.67.34-.34,1h-.34v.67h-.34v.67l-.67.34-.34,1.34-.67.34v1l-.67.34v.67h-.34v1.34h-.34v.67h-.34a8.87,8.87,0,0,0,.67,4.7,5.26,5.26,0,0,0,2.35,3v.34h-.34l-.34.67c-.67-.19-.29,0-.67-.34a7.93,7.93,0,0,1-2-1l-.34-1ZM182.76,47.91v-.34h-.67l-.34-.67-2-.67V45.9l-2-.67v-.34h-1.34a11.59,11.59,0,0,1-2.69-1.34l-.34-5.37H173l-.34-1.34h-.34l-.67-3h-.34v-.67H171l-1-3-.67-.34v-.67l-1.34-1-.34-1.34-1.34-1v-.67l-.67-.34-1-1.34H164l-.67-1h-.67l-.34-.67L156.9,19l-5-.67V18l-1.34-.34-1.68-2h-.67l-.34-.67-1.34-.34-.34-.67-2-.34v-.34h-.67l-.67-1h-3.36V12c-1.8-.51-5.51.29-6.72.67h-1.34V13H130l-.34.67h-1l-.34.67h-.67l-.67,1-1,.34v.67l-1.34.34a1,1,0,0,0-1-.34v.34h-3V17l-2.35.34v.34h-.67V18l-2,.34-.34.67h-.67l-.67,1h-.67l-1,1.34h-.67l-.67.67v.67l-1.68,1.34v.67l-1.34,1v.67l-.67.34-.34,1.34-.67.34-.34,1.34h-.34l-.67,2h-.34v1h-.34l-.34,1.34h-.34l-.34,1.68h-.34v1h-.34l-.67,2h-.34l-.34,1.34-3.36,2h-1l-.34.67h-.67v.34h-.67v.34h-1l-.34.67H93.1c-.86.6-.56,1.28-2,1.68-.26.91-.08.76-1,1-.31,1.11-1,1.56-1.68,2.35h-.34l-.34,1.34-.67.34-.34,1h-.34L86,53.29l-.67.34v.67l-.67.34L82.36,61v1.68l-1,.67L81,65h-.34l-.34,2.69h.34v.34h-.34v2.35H80v5h-.34c-.34,1.2.47,2.24.34,3h-.34l-.34,4.7H79v.67h-.34v1h-.34v1.34l-.67.34v.67h-.34v1H77v.67h-.34v.67L75,90.89l-.34.67H74l-.34,1-1,.67L73,95.93c.5,1.12.9.42,1,2.35a9.89,9.89,0,0,1,2,1,8,8,0,0,1,.67,3l5,2.35h1.68c.87.28,2.76,1.23,4.37.67V105h.67v-.34l3-.67v-1h-.34v-.34c-5.59,0-11,1-13.77-2.35H77c-.17-.38.63-1.36,0-2.35l-1-.67v-.34l-.67-.34v-.67l-.67-.34a4,4,0,0,1-1-2.35,4.24,4.24,0,0,0,2-1V91.9h.67l.34-.67h.67l.67-.67v-.67l1-.67v-.67h.34l.67-2h.34V84.85h.34V83.51H81V81.83h.34v-3h.34c.58-2-.19-5.22.34-7.05l.67-8.06H83v-.34h1V63l7.05-.34V63h1.68v.34h1v.34l2,.67v.34h.67l1.34,1.68.67.34v.67l.67.34.67,3h.34v.67h.34c.18.56-.32.6-.34.67v.34h.34v2.35h.34v1h.34v3.36l-4-.34c-.59.66-.78.28-1.34.67l-.34.67-1.68,1.34-.67,2h-.34v1.34h-.34a17,17,0,0,0-.34,6h.34v2h.34l.34,2.69h.34v1h.34v.67h.34L94.44,99l.67.34V100l1,.67v.67l.67.34v.67h.34l1,1.34h.67l.34.67h.67v.34l2,.34v.34a5.48,5.48,0,0,0,3.36-.34c2,.27,1.49,1.07,2.35,2.35l.67.34v.67l.67.34v.67l1.68,1.34V111l.67.34V112l2.35,1.68v.34h-1.34v.34h-.67v.34h-.67l-.34.67-1.34.34-.67.67h-.67l-.34.67-3,1v.34h-.67v.34l-2,.34v.34l-3.36.34c-.89.29-4,.82-5.37.34v-.34h-.67v-.34h-1l-.67-1h-.67v-.34l-1-.67v-.67a5.66,5.66,0,0,0-3.36-3v-.34h-1c.42,1.63.89,1,2,1.68.2.13.24.46.67.67v.67c-2-.26-3.51-1.34-5-2l-2-.34v-.34l-1.68-.34v-.34l-1.34-.34v-.34h-.67V112h-1v-.34H75v-.34H74.3c-1.46-.78-3-2.18-5-2.35l.34-1.68h.34v-3l-2-2.69c-.67-.2-.29,0-.67-.34-2.42,0-3.95,1-4.7,2.69l-1.68-.34-.34-.67-1.34-.34-.34-.67h-.67l-.34-.67h-.67l-.67-1h-.67l-.67-1L53.81,99l-.34-.67-2-.67-2-10.07h-.34v-.67l-.67-.34v-.67h-.34v-1h-.34v-.67h-.34v-1H47.1l-.67-2h-.34v-.67h-.34v-.67h-.34v-.67h-.34v-.67h-.34v-1l-1-.67v-1h-.34v-.67l-.67-.34v-1H42.4l-.34-1.34h-.34v-1h-.34v-.67l-.67-.34-.67-2-.67-.34L39,66l-.67-.34v-1H38l-.34-1.34h-.34V62a6.19,6.19,0,0,0-2-3,3.77,3.77,0,0,1,1-1.68h.34v-.67l.67-.34,1-3H39l.34-1.34c.88-.82-1.88-3.86-2.35-4.7a18.41,18.41,0,0,0-5-.67l.34-6.72H32V38.51h-.34v-1h-.34V35.83l-.67-.34-.34-2-.67-.34v-.67H29.3l-.34-1-.67-.34v-.67l-3.36-3v-.67l-.67-.34v-.34l-1.34-1-.34-1.34-1-.67V21.72h-.34v-1h-.34V20h-.34V19h-.34l-.34-2.35-.67-.34-.34-1.68h-.34L17.21,13h-1v-.34c-2.16,0-2.42.63-3.69,1.34l-1,3v2.69c0,2.49-.1,5.27.67,7.05h.34c.42.87.64,1.56,1,2.35h-.34v.34l-3.36-.67v-.34H6.13V28.1c-.57-.09-.57.31-.67.34-2.3.55-4.13.49-4.7,2.69a5.81,5.81,0,0,0-.67,3.69H.43v1.34l1.34,1a3.09,3.09,0,0,1-.67,1.34H.76v1.34H.43V41.2H.09v3H.43v.67H.76l.34,1H.76v.67H.43v1H.09v4c1.06.93,1,2.26,2.69,2.69-.08.76,0,.88-.34,1.34H2.1v1H1.77v2.69l.67.34v1l.67.34v.34h.67l.67,1,1.68.34V63h3l.34.67L13.19,65c0,1.08-.17,2.83-.67,3.36.1,3.06,3,4.15,6.38,4,.13,2,1.14,3.35,1.68,5l.34,3.69h.34v1.68h.34v1.68h.34v1h.34v1h.34v2h.34l1.34,4h-.34v2.69h-.34v2h-.34v.67h-.34l-.67,4h-.34v1h-.34v1h-.34l-.67,4-.67.34-.34,1.34-.67.34-1.34,3.69v7.39h.34v.34h-.34v2.35h.34v1.68h.34v2h.34v2.35h.34v1.34h.34v1.34h.34v.67h.34v1.68h.34v1.68h.34v.67h.34l.34,2.35h.34c-.25,2.08-.47,1.46-1.68,2.35l-1,1.34-.67.34v.67l-.67.34v.67h-.34a2.67,2.67,0,0,0-.67,1.34c-.53.57-.37,2.26-.34,3.36a4.47,4.47,0,0,1,1,1.34c2.09.86,3.3.39,6,.34a25.26,25.26,0,0,0,1,4.37v3h.34l.34,2.69h.34v1h.34v1h.34v1.34h.34l.34,1.68H27l.34,1.34h.34v1H28v1h.34l.34,1.34H29v.67l.67.34.67,2,.67.34v.67l.67.34v.67l1.34,1,.34,1c.83.66,1.75.73,2.35,1.68l7.05.34v-.34h1v-.34h1.34v-.34l2.35-.34v-.34h1v-.34h1v-.34l2-.34v-.34h.67v-.34l1.68-.34v-.34h1.34v-.34h1v-.34h.67v-.34h1.34v-.34l2-.34v-.34c2.07.15,1.92,1.29,3.69,1.68.75.51,1.6-.41,2.69-.67a10.79,10.79,0,0,1-1,3.36v1.68h-.34v1H64.9v1h-.34v1.34h-.34l-.34,1.34h-.34l-.34,2h-.34v.67h-.34v1.34h-.34v1h-.34v1.34h-.34v.67H61.2v1.34h-.34V195h-.34v1h-.34v1.68h-.34V199h-.34l-.34,3.69h-.34c-.23.78.37,1.46.34,1.68h-.34l-.34,6.38h-.34v4.37h.34v3c.9,3.16,1.54,7.93,4.7,8.73v.67c1.8.19,2.81,1.23,4.37,1.68h2v-.34H73v-.34h1v-.34l1.34-.34v-.34h1v-.34l1.34-.34v-.34h.67v-.34h1l.34-.67h.67l.34-.67h.67l.34-.67h.67l.34-.67,1.34-.34,1-1.34h.67l.67-1h.67l1.34-1.68h.67l.34-.67c.42-.39,1-.56,1.34-1,2.19,1.95,1,5.16,5.37,5.37a17.6,17.6,0,0,1-1,4c-.49,1.71,1,3.83,1.68,4.37h.67c.5.4.27.89,1,1.34-1.25,2.37-.86,3.09-.34,5.71l1,.34V239h.67v.34h1v.34h.34v2.69h.34c.39,1.28-.15,1.82.67,2.69v.67l-1,.34-1,1.68h-.67a2.54,2.54,0,0,1-.67,1.68h-.34l-.34,1.34-.67.34v.67h-.34v.67h-.34v1l-.67.34-.34,1.34h-.34v.67h-.34v.67h-.34v.67h-.34v.67h-.34v1l-.67.34L89.74,270.2a4.47,4.47,0,0,1,1,1.34h4.37a15.28,15.28,0,0,0,0,5.37l-.34,3h.34l-.34,3.36c0,3.57.12,7.4-.67,10.07v3.69h-.34v2.69h-.34v2H93.1v1.34h-.34v1.68h-.34l-.34,4.7h-.34v1h-.34v2h-.34v1.68h-.34l-.34,3h-.34v1.34h-.34v2.35c-1.63,5.09-2.35,11.38-4,16.45V339h-.34v1.34H85v2.35h-.34v1.34h-.34v1.34H84v1.68H83.7v1h-.34v1H83v2h-.34l.34.67h-.34v1h-.34v1.68H82v1.68h-.34v1h-.34v1.34H81l-.67,6.72H80v1h-.34v2c-.63,2-.72,5-1.34,7.05v3H78l-.34,4.7H76.31v.67H77V384h.34v1h.34v.34h1v.34l1,.34.34.67,2.69.34v.34h1v.34h.67v.34H86v.34h1.34v.34h2.69v.34a5,5,0,0,0,4-1c1.22.35,1.82,1.29,2.69,2v.34h.67l1,1.34h.67l.34.67h.67l.67.67h.67v.34h.67v.34h.67l.34.67h1v.34h.67v.34l1.34.34v.34l8.06,2.35a24.73,24.73,0,0,0,1.34,6v3.36h.34v2h.34v1.34h.34v2.69c.1.59.84,4.43.34,5.37l-1.34.67-.34,2.35h-.34c0,1.89.29,2.86,2,3l-.34,1-.67.34V427l-1,.67v.67l-1.34,1V430l-.67.67h-.67V431l-1.34,1-2.69,3h-.67l-1,1.34h-.67l-.34.67h-.34l-.34.67c-1,.68-1.73.66-2.35,1.68h-.67v.67a4.37,4.37,0,0,0-3,2.69c-1.19.3-4.41,3.51-4.7,4.7-1.39.32-2.14,1.14-3.36,1.68a9.08,9.08,0,0,0-1,3.69l-1,.34c-.64,2.46-1.55,5.58-1,8.39a2.61,2.61,0,0,1,1.68.67v.34h1v.34h1.34v.34H93.1v.34h1.68v.34h1.34v.34h.67v.34h2.35V465h2.69v.34h3.36v.34h4V466l2-.34V466l2.35-.34V466c1.86.47,5.3-.23,5.71-.34h4.37v-.34h1V465h2v-.34h2v-.34h1v-.34h1v-.34h1.34v-.34l2-.67.34-.67h.67v-.34a4.26,4.26,0,0,1,2-1v-.67h1.34l1-1.34h.67v-.34l1-.67.67-6.38a2.81,2.81,0,0,0-.67-2h-.34v-.34l1-.67v-1h.34l.34-5c0-.05-.37-.11-.34-1,0-.7.76-1.68.34-2.69l-.67-.34v-.34h.34v-.34h-.34v-1.68h-.34V434.4h-.34v-.67h-.34v-1.34h-.34v-2h-.34v-1h-.34V428h-.34l-.67-2h-.34a3.64,3.64,0,0,1-1-1.68c.95-.25,1-.6,1.68-1a13.31,13.31,0,0,1,.34-2.69c-.45-.36-.6-1-1-1.34s-.66-.23-1-.67.31-4.47.34-5.71a13.14,13.14,0,0,1,.67-3.69l1-11.42,3.69-1.68v-.34c.35-.12,2.36,1.16,2.69,1.34a6.07,6.07,0,0,1-1,1l.34,6.38c.68,2.55.59,8.56,1.68,11.75v1.34h.34c.47,1.25,0,1.93,1,2.69-.26.91-.08.76-1,1l-.34,1.68h-.34v2.35l.67.34c.58.86-.35.66,1,1a23.48,23.48,0,0,1-1.68,7.72v1.34h-.34v1.34h-.34v1h-.34v1.34h-.34v1.34h-.34v3h-.34v1.68h-.34v.34h.34v2.69h.34c-.14.59-.91.82-1,1l-.34,3h.34c0,1.55-.21,3.39.67,4l1.34.34.34.67,1.34.34c.84.57.57,1.34,2,1.68v.34h1.68v.67l1,.34v.34h.67l.34.67,1.68.34.67,1,2,.34.34.67h.67v.34h1V465l1.68.34.34.67,2.35.34v.34h.67V467l2.35.34v.34h1V468h1v.34l2.35.34V469l4,.34v.34h1.34V470h1.68v.34h4v.34h4.7v-.34h2.69V470h1.34v-.34h1v-.34h1V469h1v-.34h.67v-.34l3-1,.67-1h.67l.34-.67h.67c.2-.13.27-.45.67-.67v-1.34a3.64,3.64,0,0,0-1.68,1V465h-.67l-.34.67h-.67V466h-.67v.34h-1v.34h-.67V467h-1.34v.34h-.67v.34h-1.68V468h-2v.34h-2.69v.34c-1.53.43-7.32,0-8.39-.34H176V468h-1.68v-.34H173v-.34h-1.34V467h-1v-.34h-1.34v-.34h-1V466h-1.68v-.34H166v-.34h-1.34V465H164v-.34h-1v-.34h-1v-.34l-1.34-.34v-.34h-.67l-.34-.67-2.35-.34v-.34h-.67v-.34h-.67v-.34h-.67v-.34c-.46-.3-.59-.24-1.34-.34v-.67c-3.76-.22-5.48-2.65-8.06-4v-1h-.67l-.67-4.37h.34v-.34c.52,0,.79.9,1,1h.67v.67l1,.34.34.67h.67l.67,1h.67l.67.67h.67l.67,1h1v.34l1.34.34v.34l2,.34.34.67,1.68.34v.34h.67v.34h1v.34l1.68.34v.34a5.21,5.21,0,0,0,2.35.34v.67l2.35.34v.34H167v.34l2.35.34v.34H170v.34h2v.34h1v.34h1.68v.34h1.68v.34h2.69v.34h1.34v.34h3V465l5.37.34V465h2v-.34h2l5.37-2.35v-.34l1.68-1.34.34-1h.34v-1c-.94.56-.91,1.18-2.35,1.34v.67l-1,.34v.34h-.67l-.34.67h-1v.34h-1v.34h-1v.34h-1.34v.34h-2v.34h-5.37v-.34h-4.37v-.34l-4-.34v-.34H174.7v-.34H172v-.34l-4.37-1v-.67c-3.18-.15-5.72-1.65-8.06-2.69h-1v-.34h-.67v-.34h-1v-.34l-1.34-.34v-.34l-1.68-.34v-.34h-1v-.34l-3.69-1.34v-.67h4.7a19.37,19.37,0,0,1,4-1c.36.45.92.62,1.34,1l.34.67h.67l1,1.34h.67l.34.67,1.34.34v.34l1.34.34v.34h1v.34h.67v.34c1.07.46,3.56,0,4.37.67,2.3,0,2.06.26,3.36,1v.67l1,.34v.67l.67.34v.34h.67v.34h.67v.34h1l.34.67,6-.34.67-1h2.69v-.34l2.35-.34v-.67h3v-.34h.67l.34-.67h3.36v-.34c.88-.61,1-1.16,2.35-1.34v.67l1,.67v.34h-.34c0,.59.34.67.34.67v1.34h-.34a.58.58,0,0,0,.34.67c.13.77-.17.89-.34,1.34h.34c.38.38,0,.14.67.34v-.34h.34c0-2.31-.32-3.58,0-5.37a4.62,4.62,0,0,1-1.34-1l-.34-.34,1-.67.67-2c.38-.38.14,0,.34-.67-.76-.5-1-1.51-1.68-2h-.67l-.34-.67-2.35-.67-.34-1.34-.67-.34-.34-1.34-1-.67v-.67l-.67-.34-.34-1-2.35-2-1-1.34h-.67l-2-2.35h-.67l-1-1.34h-.67l-.67-1h-.67l-.34-.67-2-.67-1.34-1.68h-.67L178.73,431h-.67l-.67-1h-.67l-.34-.67h-.67l-2-2.35H173l-.34-1a3.23,3.23,0,0,0-1.68-.67,5.55,5.55,0,0,0,1-2h.34V423H172v-.67h-.34v1.34L171,424l-.34,1c-2.25,0-1.47-.13-2.35-1.34H168l-.67-1H167v-.34l4-.67.34.67h.34v-1h-.34c-.32-1.13-.61-1-2-1l.34-1H170v-4h.34l-.34-1.68h.34l-.34-.67h.34v-3.36l.34-7.39H171l.34-8.06,1.68-1.34v-1.34l.67-.34c.44-.84-.17-.91.67-1.68v-.34l1.68.34v-.34h1.34v-.34h1.34v-.34h1.68v-.34h1.34v-.34h1.34v-.34h.67v-.34h1v-.34h1v-.34h.67V386h1v-.34l2-.67v-.34h.67l.34-.67h1v-.34l1.34-.34V383l1.34-.34c1.32-.85,2.22-2.26,3.69-3a33.17,33.17,0,0,0-1.34-5.71v-2h-.34V370.6c-.51-1.52-1.17-3.54-1.68-5l-.34-3h-.34v-1h-.34v-1h-.34v-1.68h-.34v-1h-.34v-1.68c-.63-2-1.07-4.63-1.68-6.72v-4h-.34v-1.68h-.34l-.34-4h-.34v-2h-.34v-4s-.47-.12-.34-1h.34v-.34h-.34v-1.68h.34c.09-.61-.34-.67-.34-.67l.34-2.69h-.34v-7.72c0-.09-.43-.1-.34-.67h.34v-3.36h-.34l-.67-11.08v-6h-.34V288h-.34v-5h-.34v-2.35h-.34l-.34-4h.34v-.34h-.34l-.34-2c1.49-.35,1.8-1.17,3.36-1.34a10,10,0,0,0-.67-6v-1h-.34v-.67h-.34l-.67-3.69h-.34l-.67-2h-.34v-.67h-.34v-.67h-.34l-.67-2-.67-.34-.34-1.34-.67-.34v-.67h-.34v-.67l-.67-.67v-.67l-.67-.34-.34-1-1-.67c-1.3-1.84-2.41-3.88-4.37-5v-1h.34v-4H176V238h.34v-3.36h.34v-4.7H177c.4-1.39-.09-4.48.67-5.37v-8.06a7,7,0,0,1,2.35,3.36,11.49,11.49,0,0,0,2.69.34c.7-.83,1.66-.77,2-2h.67a12.06,12.06,0,0,1,.67-2.69c1.74.21,2.49,1,3.69,1.68h.67v.34h.67v.34h.67v.34l2,.67v.34h1v.34h.67v.34l3,.34c3.4,1,10.37,1.1,13.77,0h1.34v-.34l2-.67.67-1a14,14,0,0,1,2-1.34l.34-1.68a.58.58,0,0,1-.34-.67h.34l.34-2.69h.34v-1h.34v-3H220l-.34-1c.26-2.3.52-6.22-.34-9.07V196H219v-2.35h-.34l-.34-2.69H218v-1.34h-.34l-.34-2.35H217v-1h-.34l-.67-3.69h-.34v-1h-.34v-.67H215v-1h-.34v-1.34h-.34v-1H214v-.67h-.34l-.67-4.7a38.88,38.88,0,0,1,5.37,1.68l3,.34v.34h1v.34l4.7.34a8.54,8.54,0,0,0,5.71,0h1.34a34.43,34.43,0,0,0,4.37-2.69v-1l.67-.34v-.67l1.34-1v-1l1-.67.67-2,.67-.34v-.67h.34l.34-1.34h.34v-1h.34v-1.34h.34v-2.35h.34V157h.34v-1h.34v-2h.34v-2h.34v-1.34h.34V149h.34v-2.35h.34l.34-4.7c.08-.47.42.13.34-.34l-.34-.34,2-.67v-1.34h1.34l1-1.34h.67l.34-.67h.34v-.67h.34c.46-.74-.14-.46.67-1a12.25,12.25,0,0,1,.67-3v-1.34h-.34v-1.68c-.71-1.89-2-4.08-3.69-5a33.12,33.12,0,0,1,1.34-6,.9.9,0,0,0-.34-1v-1.68h.34v-2h-.34l.34-1h-.34c-.16-.86.34-1,.34-1v-5.37h-.34v-5h-.34V100h-.34v-2h-.34v-1h-.34v-1h-.34V94.25h-.34v-.67h-.34v-1h-.34l-.34-1.34h-.34v-.67h-.34v-.67h-.34l-.67-2h-.34l-.34-2h-.34v-1h-.34a12,12,0,0,1,.67-3V79.48h.34v-.67h.34v-4h.34V73.43h.34V70.75h.34V68.06h.34V63c0-.09.43-.11.34-.67h-.34L248.23,57a10.27,10.27,0,0,1,3,1.34c2.8-.26,2.14-1.32,3.69-2.35a11.63,11.63,0,0,1,.34-2.35h-.34V53h-.34V55.3a5.45,5.45,0,0,0-1,1,9.79,9.79,0,0,1-5-1V55l-1.34-.34-.34-.67h-.67l-.34-.67h-.67l-.67-1h-.67l-.34-.67-1.34-.34-.67-1h-.67l-1.34-1.68h-.67l-3.36-3.69-1.34-1-.34-1.34-.67-.34v-.67h-.34v-1l-.67-.34V38.85h-.34c.17-1.53.77-1.69,1.34-2.69h1.68v-.67c-1.53,0-1.6.41-2.69.67l-.34,1h-.34v.67h-.34l.34.67.34,3.36.67.34v.67h.34v.67h.34c.3.46.24.59.34,1.34h-.67l-.34,1.34h-.34l-.34,2.35h-.34v.67h-.34l-.67,3.36h-.34v.67h-.34l-.34,2.35h-.34v1h-.34v.67h-.34v1h-.34l-.34,1.34h-.34L226.74,63h-.34l-.34,1.68h-.34L225.4,66h-.34l-.67,3h-.34v.67h-.34v1h-.34v.67H223l-.34,2h-.34L222,75.11h-.34v.67h-.34l-.34,2h-.34v.67h-.34v1H220v1h-.34v1h-.34v1H219l-.34,1.34h-.34v1.34H218v1h-.34v1h-.34v1H217v1l-.67.34L216,91.23l-2,1.68-.34.67H213l-.67,1h-.67l-.34.67-1.34.34-.34.67h-.67l-.67,1h-.67l-.67,1h-.67l-1,1.34c-1,.69-1.37.53-2,1.68h-.67c-.26.91-.08.76-1,1-.38.38,0,.14-.67.34a1.34,1.34,0,0,0-.67-.67v-.67l-2.69-.34c-.88,1-2.28,1.46-2.69,3-.68.77-.09,1.84,0,3-5.34-.19-8.15-3.46-11.75-5.37V101c4.37,0,11.89.13,13.77-2,.38-.38.14,0,.34-.67h-.34c-.28-.19,0-.42-.67-.34v.34h-1v.34l-3.69.34v.34l-10.41.34a3.52,3.52,0,0,0,1,1.68h.34V102l1,.67,2.35,2.69,1.34.34.34.67,3,1a2.49,2.49,0,0,1-.67,1.68h-.34v.67l-.67.34v.67h-.34l-.67,3h-.34v.67h-.34v.67c-.38.72-1,1.51-1.34,2.35-1.1.44-2.11.56-3.36,1v.34h-7.05v-.34H174v-.34h-1v-.34l-.34.34-2-.34v-.34h-1.34v-.34l-1.34-.34v-.34l-1.68-.34v-.34h-.67v-.34h-1v-.34l-1.34-.34v-.34h-1v-.34l-1-.34v-.67c1.71-.43,1.83-1.75,2.69-3l.67-.34.34-1h.34l.34-1.68.67-.34v-1.34h.34v-.67H167l.34-1.68h.34l.34-2,4.7-1.68,3.69-3.36.34-1.34,1-.67v-.67l.67-.67V91.9h.34v-.67h.34l.34-1.34h.34V86.19c0-4.64-2.58-8.68-6.72-9.07l.34-1.68h.34l-.34-1H173v-3h-.34v-.67h-.34V68.4H172V66.72h-.34V64.37h-.34a7.92,7.92,0,0,1-.67-2.69A8.48,8.48,0,0,1,174,63l.34,1a18.87,18.87,0,0,0,2,1.34l-1.68,5c-.43,1.39.24,2.07-.67,3-.09,1.77-.47,3,1,3.36v-3h.34v-1h.34V70.41H176v-.67h.34l-.34-1,.67-.34L177,66h.34v-.67l.67-.34.34-1.34,1-.67,1.34-1.68,1.34-.34v-.34A15.55,15.55,0,0,1,188.46,59l.34,1h.34l.34,1,.67.34V62h.34l.67,2h.34l.34,2.35h.34v.67h.34v1h.34v.67h.34v1h.34v1h.34v1.34h.34v1.68a25.43,25.43,0,0,1,.67,7.05c0,1.43-.18,3.78.34,4.7l.67.34,1.34,1.68h.67v.34h.67c.18.11.28.46.67.67a11,11,0,0,1-3,4.7c0,1.1-.2,2.79.34,3.36l.34,1h1v-.34h.34l-.67-3.36h.34v-.67l.67-.34v-.67l.67-.34v-.67l.67-.34v-1l.67-.34V87.87c0-.06.21.07.34-.67h-1.68v-.34c-1.62-.42-1-.87-1.68-2l-.67-.34-.34-2.69h-.34a.87.87,0,0,1,.34-1V78.13h-.34V74.78h-.34v-2h-.34V70.07h-.34V68.73h-.34v-1h-.34v-1h-.34V66h-.34V65h-.34l-.67-2h-.34l-.34-1.34-1-.67v-.67L189.47,59V57.32h-.34V56h-.34v-.34h.34V55.3l-1-.67-.34-1.34-.67-.34v-.67h-.34v-.67c-.57-.84-1.34-.57-1.68-2A6.06,6.06,0,0,1,182.76,47.91ZM128.69,37.84l8.73-.34v-.34c1.32-.34,5.09.49,7.05.67.62-5.92,1.72-11.36-.34-17.12V19.37h-.34v-1h-.34v-1L142.8,17v-.67l-.67-.34c-.63-.86.36-.61-1-1-1.6-1.52-5.83-.72-8.39-.67L131.38,16H131l-.67,2-.67.34v1.34l-1,.67-.34,2.35H128v1.34h-.34v6a.89.89,0,0,0-.34,1h.34v2.35H128v2.69h.34ZM16.54,44.22l1.34-.34,3,1,1,1.34h.34v.67l.67.34v.67l1,.67v.67l1,.67.34,2.35h-.34v.34l-.67-.34c-1.37-3.45-4-6.67-8.39-7.05v.34h.34c.75.84,1.29.32,1.68,1.68.94.92.39,3.05.34,5l-2,1.34v.67c.78.47.94,1.2,1.68,1.68l-.67,3.69-1,.34v.34h-.67l-.67,1-2.69,1v.34h2c.71.65,4,1,5,.34l.67-1,2-.34.67-1,2.35-2,.34-1.34.67-.34v-.67h.34v-.67h.34v-1H27l.67-5H28l.34-1.34h.34v-1l.67-.34v-.67h.34v-1H30v-1h.34v-.67h.34l-.34-1h.34V39.18h-.34c-.15-.79.6-1.6,0-2.69l-1-.67v-.67l-.67-.34-.34-1.34-1.34-1V31.8l-3-2.69v-.67l-1-.67v-.67l-.67-.34v-.67h-.34v-.67h-.34l-.34-1.68-.67-.34v-1h-.34v-1H19.9v-1h-.34v-1h-.34v-1h-.34L18.56,17l-.67-.34-.34-1.34L14.86,15v.34l-1.34.34V16h-.34l-.67,5.37h.34v3.36h.34v.67h.34v.67l.67.34v1.34h.34v.67h.34v1h.34v.67h.34v.67h.34l.34.67h.67c1,.74,1,2,1,3.69a7,7,0,0,0-1.68,2h-.34v1c.83.51.23.27.67,1h.34v.67l.67.34c.17.57-.32.59-.34.67v1.68h-.34ZM128.69,18.36l1-.34.34-2h.67v-.67a8.27,8.27,0,0,0-3.36,1.34l-1,1.34h-.67L125,19l-2.35,2v.67l-.67.34v.67l-.67.34L121,24.41h-.34v.67h-.34l-.67,2h-.34v1H119v.67h-.34l-.34,2.35h-.34v.67h-.34l-.34,3a.61.61,0,0,1,.34.67,12.28,12.28,0,0,0,.34,6l1-.34v-.34l1.68-.34.34-.67h.67v-.34l6-1.68c-1.08-2.62-2-8.57-1-12.09v-2H127v-.67h.34V21.39h.34Zm16.45,19.81a5.38,5.38,0,0,1,2.69.67h1.68v.34h.67v.34h1l.34.67h1l.34.67h.67v.34l2.69,1v-.34h.34V41.2h.34l-.34-2h.34l-.67-6.38h-.34V31.12h-.34v-1h-.34v-1h-.34V27.77h-.34v-.67h-.34V25.75h-.34v-.67h-.34l-.67-2-1.34-1v-.67l-1-.67c-2-2-3.86-3.89-6.72-5v1c.84.72.58,1.22,1,2.35h.34v1.34h.34v1h.34c.46,1.33,1.23,8.79.67,10.75A36.25,36.25,0,0,0,145.15,38.18ZM90.75,61.34a8.51,8.51,0,0,1,1-3.69h.34v-1h.34V56h.34V55l1.34-1v-.67l2.35-2,.34-.67h.67l1-1.34h.67l.34-.67h1l.34-.67h.67v-.34h.67v-.34h.67v-.34l6-1.68c.32.6.46.53.67,1.34l-5.37,1.34v.34h-.67v.34l-3,1-.34.67-1.34.34v.34a5,5,0,0,1-2,1.34V53h-.67a6.79,6.79,0,0,1-2,2.69l-.67.34-.34,1.68h-.34v.67l-.67.34v1h-.34v1l-.67.34v.34h.34c.66.58,1.79.32,2.69.67v.34h1v.34h.67l.67,1h.67V64a10.86,10.86,0,0,1,2.69,4h.34v-.34h.34V65.37h.34V63.7h.34V62.35c.84-2.33,2-4.57,3-6.72h-1L99.48,59v.67l-.67.34v.67h-.34l-.34,1h-.67L97.8,60l.67-.34L98.81,58h.34a3.87,3.87,0,0,0,1-1.68,2.61,2.61,0,0,0,1.34-.67V55.3h.67l.34-.67,3.36-1,1-1.68c2.23-1.67,4.91-3.71,8.06-4.37-.09-1.38-.74-2.85,0-4l1.34-1-.34-2c-.09-1.78-.92-6.08-.34-8.06l1.68-6h.34l.34-1.34h.34v-.67l.67-.34v-1l.67-.34.34-1.34,3-2.69v-.34h-1.68v.34H120V19l-1.34.34v.34l-1.34.34-.34.67h-.67l-.34.67h-.67l-1,1.34-2.69,2.35v.67l-1.68,1.34-.34,1.34-.67.34v.67l-1,.67v.67l-.67.34v.67h-.34v1l-.67.34-.34,1.68h-.34l-.34,1.34h-.34v1h-.34l-.34,2h-.34l-.34,1.34h-.34v.67l-2.35,1.68h-.67v.34h-.67v.34h-.67v.34h-.67v.34h-.67v.34h-.67v.34h-.67l-.34.67h-.67l-.34.67h-.67l-.67,1h-.67l-.67,1-2,1.68-5.37,8.39v1h-.34V60H84v1H83.7v.67h-.34V62h.34v.34A20.43,20.43,0,0,1,90.75,61.34ZM264.69,21.05v-.67L263,20v-.34H256a8.16,8.16,0,0,0-3,2.35c-1,1-1.6,1.08-1.68,3l2.35,1.68.34,1h3c.82-.71,2.43,0,3.69-.34v-.34h2v-.34l1.68-.34c.75-1.32,1.8-2.09,2-4C265.36,21.73,266,21.44,264.69,21.05ZM159.25,48.25a4.82,4.82,0,0,1,2.35,1.34v.34h.67l.34.67h.67l.67,1,3.36-.34v.34l1.68.34v.34h.67v.34h1V53h.67l.34.67h.67l.34.67h1L174,55h.67l.67,1H176l.34.67H177V57h.34c.64.76-.35.59,1,1,.31,1.18.82,1,1,2.35-1.37-.35-1.16-1.06-2-1.68h-.67v-.34l-1.34-1-.34-.67h-.67L174,56l-2-.67c-2.21-1.18-3.67-2.6-7.05-2.69V53h.67c.41.25.4,1.28.67,1.68l1.34,1L168,57h.34l.34,1.34.67.34v1h.34l.34,1a19.61,19.61,0,0,1,2.69.67L173,62h.67v.34h.67l.34,1c.55.63,1.52.62,2.69.67,1.95-3.39,6.25-4.88,10.75-5.71L187.46,56l-1-.67v-.67h-.34a3.73,3.73,0,0,1-1-1.68h-.67v-.67l-2-1.68v-.34l-9.4-5-1-6.38h-.34v-.67h-.34v-1H171v-1h-.34v-.67h-.34v-.67l-.67-.34-.34-1.68-.67-.34V31.8h-.34l-.34-1-.67-.34v-.67l-1-.67v-.67l-3-2.69-.67-1h-.67l-.34-.67-2-.67-.34-.67h-1l-.34-.67h-.67v-.34h-.67v-.34h-1l-.34-.67-2-.34v.34c1.58,1,1.32,2.2,2,4h.34v1.34h.34v1h.34v.67h.34l1.68,9.74v.34h-.34v2.69h-.34l-.34,1.68.67.34v.67l1,.67C159.85,45.31,159.4,46.53,159.25,48.25Zm94.69-13.77h1v.34h3.69v.34H259v-.34h2.35L265,33.47l.67-1H266a6.49,6.49,0,0,0,.67-3.69h-1.34v-.34c-1.6-.45-5.93,0-7.05.34-1.76.49-4-.21-5.37-.34a7,7,0,0,0-1.34,3.69c.38.29.72,1.16,1,1.34C253.61,34.13,253.46,32.87,253.94,34.48ZM3.45,29.78v.34h-1v.34H2.1v1l-.67.34v2.69l2,1.68H5.13a30.4,30.4,0,0,0,10.41.67l1.68-2.69h-.34V32.8A28.41,28.41,0,0,0,3.45,29.78ZM265.36,40.19c.32-1.49,1.14-1.68,1.34-3.36-1.74-1-.9-1.37-4-1.34-.57.47-5.79.58-7.05.34-.06,0-.12-.47-.67-.34v.34h-.67v.34h-1v.34c-.82.69-.64.54-.67,2,1.65,1.13,1.11,3,4,3v.34H259v-.34l4,.34v-.34C264.13,41,264.22,40.52,265.36,40.19ZM3.11,36.83l.34,1-1.34.67-.67,4h.34v.67l.67.67,1,.34.34.67H5.13c.59.55,2.25.34,3.36.34,3.5,0,6.47-.14,7.72-2.35h.34v-1c.43-1.21.17-1.16-.67-2l-.34-.67a10.43,10.43,0,0,0-5.37-.67v.34H8.82v-.34H7.48v-.34l-3-.34V37.5H3.78C3.64,37.42,3.49,37,3.11,36.83ZM115.93,46.91a8,8,0,0,0,2.69-.67V45.9l4-.67v-.34l2.35-.34v-.34h1v-.34h1v-.34h1.34v-.34l5.37-.34a17.52,17.52,0,0,0,2.69.67v-.34h6c.09,0,.11-.42.67-.34v.34l5,.34v.34l3.36.67v.34l2.35.34v.34h.67v.34l4,1.34v-1h-.34a2.59,2.59,0,0,0-.67-1.34h-.34v-.67h-.34l-.67-1-1.68-.34v-.34h-.67V42.2h-.67l-.34-.67h-.67V41.2h-.67v-.34l-2.35-.34c-6.67-2.21-17.82-2.27-24.51,0h-1.34v.34l-2,.34v.34h-.67v.34h-1v.34H119l-.34.67h-.67v.34h-.67l-.67,1h-.34v1.34h-.34Zm137,0,1,.34v.34h1v.34a.87.87,0,0,0,1-.34l1.68.34v-.34H261v-.34l1.68-.34c.87-1.49,2.24-2,2.69-4H258v-.34c-1.5-.42-3.65.15-4.7.34-.32.6-.47.53-.67,1.34C251.82,45.08,252.69,45.93,252.93,46.91Zm-129.28-.34c-.06,2.38-.56,5.76.34,8.06h.34v.67h.34l.34,2.35h.34v.67h.34v1l.67.34v.67l1,.67v1.34l8.73-.34c-.11-.63-.34-.67-.34-.67v-4h-.34V53.62h-.34l-.34-9.07-5.71.67A18.18,18.18,0,0,1,123.66,46.57Zm31.23,13.77,1-3h.34v-.67h.34c.69-1.76.64-4.67.67-7.05l-3.36-2h-.67v-.34l-3.36-.67v-.34l-3-.67c.29,2.55,1,4.34,1,7.39v2h-.34l-.34,2.35h-.34v1h-.34v1l-.67.34v.67h-.34c-.57.91.32.62-1,1l.34-1.68.67-.34.67-4h.34v-1h.34V52.61h-.34l-.34-7.39h-.34v-.34c-2.36-.1-9-.92-10.07,0h-.34v1h.34v1.34h-.34c-.09.57.31.57.34.67v3.69h.34c.08.47-.06-.05-.34.34v.34h.34v2.35h.34L136.08,56h.34v3h.34c.15.65-.22.46-.34.67V60h.34a3.33,3.33,0,0,1-.34,2h4.7c1.15-1,4,.15,5.71-.34A49.21,49.21,0,0,1,154.89,60.34Zm78.91-14.1c.06,3.09-1.19,5.81-2,8.06v1.34h-.34v1h-.34v1h-.34V59h-.34l-.34,1.34h-.34v1h-.34V62h-.34l-.34,2.35h-.34V65h-.34l-.67,3h-.34v.67h-.34l-.34,1.68h-.34v1h-.34v1.34h-.34v.67h-.34l-.67,3h-.34v.67h-.34v1h-.34v1H223v1h-.34v1h-.34L222,82.83h-.34v.67h-.34v1H221v.67h-.34v1.34h-.34L220,87.87h-.34v1l-.67.34v.67l-.67.34v.67l-1.34,1v1h-.34l-.34.67h-.67l-1.34,1.68h-.67v.34l-1,.67-.34.67h-.67l-.34.67h-.67v.34l-1,.34-.34.67h-.67l-1.34,1.68-1,.34-.67,1h-.34l-.34.67h-.67l-.34.67-1,.34V104a2.66,2.66,0,0,1-1.34.67v.67a19,19,0,0,0-2.69,1.34l1.34,3v1h.34v.67h.34V112l.67.34.34,1.68h.34l.34,1,.67.34.34,1.34.67.34v.67l.67.34a6.89,6.89,0,0,1,2,2.69h.67l.34.67h1.34c.74-1.16,1.87-1.26,3-2l.34-.67h.67v-.34l1.34-.34.34-.67h.67l.34-.67h.67l.34-.67h.67l.34-.67h.67l.34-.67h1v-.34l1-.34.34-.67,1.34-.34.67-1h.67v-.34c1.22-.72,2.28-.81,2.69-2.35a4.28,4.28,0,0,1-1-3.36h.34v-1.68h.34l.67-2h.34c.31-1.16-.46-1-.67-1.34v-.67h-.34l-.34-3c1.33-1.2,1.19-2.89,3.69-3,.71-.62,1.91,0,3-.34a24,24,0,0,1,6.38-1l-.34-1.68-.67-.34V87.54h-.34c-.2-.78.4-.92.34-1.34h-.34l1.34-5.71,1-.67v-.67h.34c.58-.9-.33-.63,1-1V77.8h1.68a4.1,4.1,0,0,0,2,1.34,112.45,112.45,0,0,0,1.34-16.79c0-1.6.34-6,.34-6C246,55.2,244.4,54.8,243.2,54l-.67-1h-.67l-.34-.67h-.67l-.67-1h-.67l-.34-.67-1.68-1.34-1.34-1.68-.67-.34-.34-1Zm-231,5.37a3,3,0,0,1,1.34.67v.34c.86.47,6.37,1.5,8.06,1v-.34h1.68V53h1v-.34h1v-.34a3,3,0,0,1,1.34-.67,9.39,9.39,0,0,0,0-4l-2.35-.67v-.34l-3.69.34L2.1,46.57a2.94,2.94,0,0,0-.67,2.35h.34v1H2.1v.67h.34ZM126.34,62v-.67h-.67c-.45-1.87-1.74-3.67-2.35-5.37V54.63H123c-.73-2.29-.09-5.14,0-7.39a16,16,0,0,0-6.72,1.68l-2,.34-.34.67h-.67v.34h-.67v.34c-.35.32,0,0-.34.34h-.34v2.35h.34l.34,2.35h.34v.67h.34v1l.67.34.34,1.34,1,.67v.67l.67.34.34,1Zm-102.75,6v-.67h.67c.58-.92,1.47-1,2.35-1.68v-.34c.85-.71,1.48-1.69,2.69-2v-.67l1-.34.34-.67,1.34-1,.67-1H33V59l1-.67v-.67l1.34-1V56l.67-.34V55l1-.67a5,5,0,0,0,.67-2.69C37,51,37.41,50.8,37,50.26l-.67-.34v-.34a18.9,18.9,0,0,0-4-1.68v.67c2,1.19,1.73,3.66.67,5.71h-.34V55a15,15,0,0,1-2.35,3l-.67.34V59H29.3l-.67,1H28l-1.34,1.68h-.67l-.67.67H24.6v.34h-.67l-.34.67h-.67v.34L21.58,64v.34L18.22,65V64.7h-2V65H14.86l-.34,1h-.34V68.4c1.15.68,1,1.3,3,1.34C18.77,71.2,22.41,68.4,23.59,68.06Zm223-19.14c.57.72.67.67.67.67C247.47,49.27,246.64,49,246.55,48.92ZM32,50.26h.67l-.34-1h-.67v.34C32,50,31.79,49.59,32,50.26ZM28.3,58.66A2.57,2.57,0,0,1,29,57.32h.34v-.67l.67-.34V56l.67-.34V55c.37-.64,1-1.34,1.34-2-.8-.68-1.12-2.13-1.34-3.36l-1,.34L29,56l-1,.67v1h-.34L27.29,59h.34C28,58.61,27.62,58.86,28.3,58.66Zm129.61-8.39c.06,2.2.63,4.32-.34,6.72h-.34v.67h-.34v.67h-.34V59h-.34c-.31.46-.23.59-.34,1.34,3.05.29,4.08,3,6.72,3.36,1.18-2.06,3.36-3.45,3.69-6.38-.94-.54-1.32-1.57-2-2.35l-.67-.34V54C161.4,53.36,160.85,50.62,157.91,50.26ZM108.21,53a2.77,2.77,0,0,1-.67,1.34h-.34l-.67,2-1,.67v.67l-.67.34v.67c-.3.54-1.31,1.28-1,2.35h.34v.67h.34v.67l.67.34v.67l.67.67v.67h.34a2.77,2.77,0,0,1,.67,1.34l1,.34v-.67l1-.67v-.67l.67-.67h.67l.67-1h.67l.67-1.34h2.35A8.46,8.46,0,0,0,113.25,59v-.67l-.67-.34c-.93-1.49-1.31-4-1.34-6.38.38-.38.13,0,.34-.67C109.07,51.2,110.1,52.4,108.21,53Zm142.37-1.68-.34.67h1.68v-.34A3.27,3.27,0,0,1,250.58,51.27Zm-237.06,3C12,56,7,55,4.45,55c-.68,1.15-1.3,1-1.34,3,1,.69.14.62.67,1.34h.34c.57.69.75.28,1.34.67v.34a2.62,2.62,0,0,0,2,.67c1.18,1.13,5.07-.67,6-1H15.2v-.34c1.58-1.24,1.16-2.18,1-4.37a2.26,2.26,0,0,1-1-1ZM26.62,60,27,59h-.34c-.35.44-.69.5-1,1h-.34v.34h.67C26.33,60,25.95,60.2,26.62,60Zm136,4a3.56,3.56,0,0,0,1,2.35H164v.67l.67.34v.67H165c.25.44.67,2.17,1,2.35h1c1.14-1.28,3.17-1.7,3.69-3.69-1.07-1-.11-1.41-.67-2.69l-.67-.34v-1H169l-.67-2-.67-.34L167.31,59c-1.6.51-.36.28-1,1.34l-1,.67v.67H165C164.29,62.8,164,63.65,162.61,64ZM24.6,88.88l1.68-.34v-.34H27v-.34c1.13-.24,3.49,1.73,4.7,2,.27,1.18,1,1.71,1.34,2.69l-.34,4.7-.67.34v1h-.34v.67h-.34V101H31v.34a.55.55,0,0,1,.34.67,11,11,0,0,0-.67,2.69c2.72,0,9.32,2.09,10.07,3.69v2.35h-.34V112h-.67v.67h-.34v.34h.34L40,114.4h.34v2.35A3.52,3.52,0,0,0,39,118.09h.34v.34l1.68.34v-.67a5.75,5.75,0,0,1,3.36,1.68l.34.67h.67l.67,1h.67l1,1.34h.67l.34.67h.67l.34.67h.67v.34l1.68.34.34.67h1l.34.34v-.34c1.71-1,2.56-2.75,3.69-4.37l1-.67v-1l1-.67.34-1.34.67-.34v-1c1.44-2.68,3.31-5.33,3.69-9.07-.83-.35-1.63-1-2.35-1.34H61.2v-.34L59.86,105v-.34l-1-.34-.34-.67-1.34-.34-.34-.67h-.67l-.34-.67h-.67l-.34-.67h-.67l-.34-.67-1.34-.34-1-1.34-1-.34v-.67h-.34v-1h-.34v-1h-.34V93.24l-2-6H47.1l-.34-1.34h-.34v-1l-.67-.34v-1h-.34v-.67h-.34v-1l-.67-.34v-.67h-.34v-.67h-.34v-1l-.67-.34-.34-1.68-.67-.34v-.67h-.34v-.67h-.34l-1-3-.67-.34v-1L39,70.75l-.34-2L38,68.4v-1H37.7v-1h-.34L37,65h-.34V64h-.34v-.67H36v-1L35.35,62V60L35,59.67h-.34V60l-2.35,2-.34.67L31,63l-.34,1H30l-2,2.35h-.67l-.34.67h-.67l-.34.67-1.34.34-.67,1-2,.67v.34l-.67.34c-.49.64.34.34-.67,1,.85,2.35,1.28,5.36,2,7.72v1.68A40.58,40.58,0,0,1,24.6,88.88Zm78.24-5.37V81.83h-.34v-.34l-2-.34v-.34c-1.4-.42-3.42.54-4.7.67l-1,1.34h-.34v.67h-.34c-.32.42-.24.65-.67,1l-.34,4h.34v1.68h.34v1.34h.34l.34,2.69h.34l.34,1.34h.34v1l.67.34v.67l1,.67.34,1.34,1.34,1c1.76,1.77,3.1,3.38,6.72,3.36l.34-1h-.34l-.34-2h-.34v-1h-.34V98.62a31.34,31.34,0,0,1-1-13.77h.34v1.34h.34c.21.41-.1,5.25.34,6.72h.34v2.69l2.69,8.06.67.34.34,1.34,1,.67.34,1.34,2,1.68c1,1,1.76,2.61,3.36,3v.67c.42.23.46.53.67.67h.67l.67,1h.67l.34.67H119l1,1.34h.67v.34h.67v.34h1l.34.67h.67v.34H124v.34h1.34v.34H126l.34.67h1v.34h1v.34H130v.34h3c1.07.3,5.87.82,7.39.34v-.34h1v-.34h2v-.34h1.34v-.34h1.34v-.34h.67v-.34h1.34v-.34h.67v-.34l2.35-.34v-.34l2-.67v-.34h.67v-.34h1v-.34h.67v-.34h.67l.34-.67h1l.67-1h.67l.34-.67h.67l.34-.67,1.68-1.34v-.67l.67-.34.34-1h.34v-1h.34v-.67H164l.67-2H165v-1h.34v-.67h.34v-1H166V102h.34v-2h.34v-4H167V94.25h.34c.06-.2.34-3,.34-3h-.34v-.34h.34V84.18H168v-2h.34v-.34H168v-2h-.34V78.47h-.34v-1H167v-1h-.34v-.67h-.34V74.44l-.67-.34v-.67h-.34L165,71.75l-.67-.34-.67-2-1-.67v-.67l-.67-.34-.34-1.34-2-1.68V64l-1.34-1v-.34c-.56-.39-.76,0-1.34-.67a18.69,18.69,0,0,0-6,1H147.5v.34H143.8v.34h-4.7c-3.5,1-9.91.34-14.1.34a22,22,0,0,1-6-.67H115.6V63a5.37,5.37,0,0,0-3.69.34l-.67,1h-.67l-.34,1h-.34v1l-1,.67-.34,1.34h-.34l-.67,2h-.34v1h-.34v1h-.34v1h-.34v1h-.34v1h-.34v1.68h-.34v1.34h-.34l-.34,4.37a1.34,1.34,0,0,0-.67.67Zm-.67-10.75c1.18.31,1,.82,2.35,1v-.34h.34c.06-2.67,1.46-4.14,2.35-6-1.43-.83-3-3.48-3.69-5h-.34v.34c-.82.87-1.26,5.23-1.34,7.05l-.34,2,.67.34ZM20.91,62.69c-.53.59-.63.3-1.34.67v.34h-1l-.34.67h.34V64H19.9V63.7l2-.67v-.34Zm160.5,8.73v-.34l1.34-.34.34-.67h.67v-.34h1V69.4l3.36-.67V68.4h.34v-.34h-.34v-.34a13.85,13.85,0,0,0-6.38,1.68l-.34.67h-.67v.34a2.63,2.63,0,0,1-1.34.67l-.34,1.34A5.07,5.07,0,0,0,181.41,71.42Zm-25.18-.67c-.52-1.06-5.28-2.85-7.72-2v.34h-.67v.34h-1.68v.34l-1.68.34v1a3.22,3.22,0,0,0,1.68-.34v-.34h1.34v-.34h1.68v-.34h1.68v.34l3,.34.34.67,2,.67Zm10.07.34.34,1H167l.34,1.68h.34v1H168v.67h.34v1.68h.34v1.34H169v3.69h.34a1,1,0,0,1-.34,1l.34,1.68H170l-.34,1.68h-.34c-.06.42.48.57.34,1.34h-.34v.34h.34l-.34,2.35h.34v.34h-.34l-.67,9.07H169c.7-.75.76-.24,1.68-.67V99h.67l.34-.67h.67l1-1.34.67-.34v-.67l1.34-1,.34-1.34H176l.67-2H177l1-6h-.34c-.07-.47.26.13.34-.34a11.82,11.82,0,0,0-.67-2.69c-.46-1.85-3.38-3.94-5.71-4a3.06,3.06,0,0,1-2,1.68c.35-1.3.76-1,1.68-1.68l.67-1h.34v-.67c-.71-.82,0-2.44-.34-3.69s-.76-3-1-4.37a2.62,2.62,0,0,0-1.34.67v.34A9.24,9.24,0,0,1,166.3,71.08Zm-40.29,0a9.83,9.83,0,0,0-8.73.67c-.69.37-.83.06-1.34.67h-.34l.34.67a10.7,10.7,0,0,0,2.69-.67v-.34h.67v-.34h2c.47-.08-.12-.22.34-.34l4.7.67Zm-38.61,1v.34h.67v.34l1.68.34v.34l1.34,1V74.1h.34c-.41-1.58-1.49-1.57-2.69-2.35l-.34-.67h-1v-.34c-1.77-.09-3-.47-3.36,1Zm14.44,2.35a20,20,0,0,0,.67,3l-.34,2.69h1c0-2.14.79-3.09,1-5A17.38,17.38,0,0,0,101.83,74.44Zm85.62,2.69,2.69,2.35.34,1.68h.34v.34h.34v-.34h.34V79.48l-.67-.34v-1h-.34v-.67h-.34c-.8-1-.75-.82-2-1.34-.13-.05-.22-.55-1-.34v.34h-.67v.34h-.67v.34l-1.34.34c-.43.32-.77,1.81-1.34,2.35v.67h.34a8.38,8.38,0,0,0,1-2C185.78,77.82,185.81,77.2,187.46,77.13ZM83,80.82h.34v-.67h.34c.48-.61,1.75-1.6,2.69-.67,1.41.37,1.44,1.18,2,2.35h.34v1.68h.34c.38.38,0,.14.67.34v-.34h.34l-.34-1.68-.67-.34v-.67h-.34v-1H88.4v-.67l-1-1c-1.6-1-3.31.42-4,1.34H83v1h-.34l-.34,1.34H83Zm62.79,1.34v-.34h.67l.34-.67c.31-.19,3.57-1.13,4.37-.67v.34a3.27,3.27,0,0,1,3,2h.67V82.5h.34v-1l-1-.67v-.67l-.67-.34v-.34h-.67v-.34h-1v-.34a5.11,5.11,0,0,0-3-.34v.34c-.92.32-1.94.21-2.69.67v.34a2.93,2.93,0,0,1-1.34.67l-.34,1.68ZM248.23,94.92a6.53,6.53,0,0,0-1-3h-.34l-.34-1.34h-.34v-1h-.34v-1h-.34v-.67h-.34l-.34-3.36h-.34v-2h-.34v-.67h-.34V80.48h-.34v-.67l-1-.67v-.34h-1.34l-.34,1-.67.34-.34,2.35h-.34v7.39h.34l.67,3c.71.25,2,0,3,.34v.34h1.68v.34l2,.34v.34ZM126.34,79.81,125,79.48v-.34c-2.35-.84-5.72.94-6.72,1.68v.34l-.67.34-.34,1h-.34v.34h.34c.23.14,0,.5.67.34v-.34l1-.34v-.34h1v-.34h1v-.34h1v-.34h1.34v-.34c1.27-.28,3.91,1.73,5,2-.12-1.22-.26-1.43-1.34-1.68C126.81,80.34,126.66,80.42,126.34,79.81Zm50,5H176a3.32,3.32,0,0,0-4.37-2v.34H171v.34l-1,.67v.67a4.62,4.62,0,0,0,1.34-1c1.44,0,2.9.06,3.69.67v.34h.34c.7,1-.59.84,1,1.34Zm-79.58.67h.34v-.34h2.35c1,.37,1.81,1.55,2.69,2v-.34h.34c-.29-1.08-.86-1.19-1.34-2a11.68,11.68,0,0,0-3.69-.67C97.28,84.58,96.56,84.85,96.79,85.52Zm-.67,1.68h.34c-.2-.67,0-.29-.34-.67Zm-.34,2.35h.34l.34-1.68h-.67Zm-70.18,0c0,1-.39,2.65-.34,3h.34v2.69l-.67.34v2H24.6V99h-.34l-.34,2.69-.67.34v2.35h-.34l-.67,2a3,3,0,0,0,1.68-.34v-.34h1v-.34l4.7-.67.34-4h.34V100h.34V99H31a15,15,0,0,0,.67-3.69c.08-.47.36.14.34-.34h-.34v-1h-.34v-1l-.67-.34V91.9l-3-2.69Zm70.51,1.34h.34c-.2-.67,0-.29-.34-.67Zm42,1.68h-.34v-.34h-.34a4,4,0,0,0-.34,1.68h1Zm102.41,8.73c-.22.83-.14.58-.67,1v.34a14.87,14.87,0,0,1-6.38.34v-.34l-5.37-.34c-.2.36-.59.54-.67.67v.67h-.34a7.66,7.66,0,0,0,0,3.36c1.13.75,1.09,1.92,2.69,2.35v.34h.34v-.34h3.69V109l7.72-.34v.67c-1.21.21-2.9.68-4,1H234.8c-2.48,0-4.76,0-6.38.67a4.26,4.26,0,0,0-.34,1.68c.72.59,2.12,2.86,3,3l1.68-.67v.34h3.69v.34h3.36v.34c.58.21.89.15,1.34.34-.19.67,0,.29-.34.67v.34a60.06,60.06,0,0,0-9.74-.67,4.62,4.62,0,0,0-1,2.35l1.34,1v.34h.67l.34.67,3,1v.34h.67v.34l2,.34v-.34h1.68v.34h-.34v.34h-1v.34a5.27,5.27,0,0,1-2.35.34v.67l4,3.36c1.31.83,3.49.76,5,1.34l-.34.67a10.38,10.38,0,0,1-3.36.34c-.75-.85-1.53-.47-2.35-1l-.67-1-1-.34c-.86-.62-.56-1.28-2-1.68v.34c.67.59.28.66.67,1.34h.34v.67l1,.67v.67l1.68,1.34c2.37,2.37,3.15,4.06,8.06,4l-.34-3h.34l.34-2h.34v-.67h.34v-1h.34v-.67h.34l.34-3h.34V123.8h.34v-1.34h.34v-4.7h.34V106.68h-.34V102h-.34v-1l-.67-.34-.34-2h-.34a2.91,2.91,0,0,1-.67-1.34,4,4,0,0,1-1.68-1v-.34l-2.35-.34v-.34h-3.36v-.34h-7.05a19.57,19.57,0,0,1-5,1,4.28,4.28,0,0,1-1.34,1.68c.55,1.34,1.15,3,2.69,3.36.65.58,2.51.33,3.69.34h2.35v.34ZM126.34,103v.67h.34l2,2.35,2,.67.34.67h.67v.34l1.34.34v.34h1.34v.34c1.86.57,4.33-.28,5.37-.67h1v-.34h.67v-.34h1V107h.67l.34-.67,1.34-.34,1-1.34h.67l.34-.67,1.34-1,1-3c.38-.38.14,0,.34-.67h-.34c-.27-.2,0-.44-.67-.34v.34h-2.69v.34h-4c-3.68,1-11.26,0-16.45,0A10.26,10.26,0,0,0,126.34,103Zm-.34-2.35v.67l1.68,2.35h.67l.34.67,1,.34V105l2,.67.34.67,2,.34V107l2.35.34v.34l4-.67v-.34c3.62-1.46,5.62-2.74,7.39-6h-3.69c-.81.71-3.62.34-5,.34ZM197.19,112h.67c.09,1.79.7,1.89,1.34,3v.67l.67.34.34,1.68,1.34,1v.67l.67.34.67,1h.34v.67h.34a3.72,3.72,0,0,1,1,1.68,2.78,2.78,0,0,1,1.34.67v.34h.67v.34c1.37.75,2.14.61,3.69.34a4.63,4.63,0,0,1,.34-2h-.34v-.34h-.67c-.29.13-.08,1-1.34.67v-.34h-1l-.34-.67h-.67l-1-1.68-1.68-1.34v-.67l-.67-.34-.34-1.34-.67-.34-3.36-7.72v-4l1.68-.34v-1h-.67l-.34-.67h-1.34c-.38.38,0,.13-.67.34-.19.35-.6.54-.67.67v.67h-.34C195.35,106.58,197.07,110.19,197.19,112ZM63.89,103a9,9,0,0,1-.67,1.68h.34a2.83,2.83,0,0,0,1,.67V105c.38-.38.13,0,.34-.67h-.67a3.27,3.27,0,0,1,.34-1.34Zm-9.4,22.5v.67l-2.35,1.68v.34h.34c.55.89,1.22,1,2.69,1,.83-.93,1.6-.49,2-2h.67l1-1.34,1-.34v-.67l1-.67c.75-1.07.92-2.32,2-3v-1.34h.67l.34-1h.34v-.67l.67-.34v-.67h.34v-1h.34l.34-1.34h.34v-1l.67-.34v-.67h.34v-1.34h.34v-1h.34l.67-2h-.34V108h.34v-2h.34v-.34h-.34l-.67-2c-1.13-.13-1.89-.66-2.35-.34h-.34c.56,1.44,0,1.76,0,3.36l.34.34-.67.34V108h-.34l-.34,2.69h-.34v.67h-.34v1h-.34l-.67,2h-.34v.67h-.34v.67h-.34v.67H61.2l-.67,2-1,.67-.34,1.34-.67.34v.67l-.67.34v.67l-2,1.68v.67h-.34l-.34.67ZM84.71,112l.34.67a3.45,3.45,0,0,0,2.35-.67l.34-.67,1.34-.34.67-1h.34v-.67l.67-.34a15.67,15.67,0,0,0,1.34-5h-.67C91,108.27,88,110.64,84.71,112ZM29.64,144.28v-1h.67c.58-.7,1.23-.81,2-1.34l.34-.67h.67v-.34l1-.67v-.67l.67-.34v-.67l1-.67.34-1.34.67-.34a6.35,6.35,0,0,0,1-3c-2.28.22-2.77,1.73-5,2v-.67a6.14,6.14,0,0,0,2.35-1l.67-1h.67l.34-.67,1.34-.34v-.34l1-.67v-4.7c-3.67.05-7.26,1.78-10.41,1.34v-.67c3-.54,6.46-1.81,9.74-2a7.35,7.35,0,0,1,1-1v-3.36c-1-.65-.79-1.46-2.35-1.68-.83.74-7.76,1-9.74,1v-.67l11.08-2,.34-1.68H38.7l-.34-2c-2.09-.2-4.83-.34-7.39-.34H28.63v.34H27l-.34-.67a21,21,0,0,1,7.05-1l3.69.34v-.34H38V111l1-.34.34-1.68c-.81-.35-1.08-.38-1.34-1.34l-2.35-.34V107h-2v-.34l-1,.34v-.34a16.45,16.45,0,0,0-7.72.67l-1.68.34-.34.67h-.67l-.34,1-.67.34v.67h-.34V111l-.67.34-.67,3.36h-.34c-.11.57.31.58.34.67v3.69c0,3.26,0,6.33.67,8.73l.34,4h.34v1h.34v1h.34v2h.34v1h.34v1.68h.34l.34,1.34h.34l.34,2h.34a12.79,12.79,0,0,1,1,2.69,2.26,2.26,0,0,0-1,1h1v-.34Zm127.93-17.12a8.6,8.6,0,0,0,.67,2.69c.24-.1,1.19-.25,1.34-.34l.67-1,1.68-.34c.47,0-.13.41.34.34v-.34H168v.34h.67l.34.67h.67l1.34,1.68h.67v.34l3.36-.34v.34c1.66.61,2.9.57,3.36,2.35a2.65,2.65,0,0,1,1.34.67v.34l2,.67v.34h2.69c1.13.34,2.74.76,4,1,.67-1,.3-.15,1-.67l1-1.34h.67l.34-.67h.34l.34-.67h.67l1.34-1.68h.67l.67-1h.67l.34-.67h.67l1-1.34h.67l.34-.67h.67l1-1.34h.67l.34-.67h.67v-.34a3.68,3.68,0,0,1,1.68-1v-.67c-1.15-.69-1-1-1.68-2l-1-.67v-.67l-1.68-1.34-.34-1.34-1-.67v-1l-.67-.34V114.4l-.67-.34-1.68-5.37a2.28,2.28,0,0,0-1.34.34v.34h-1l-.34.67h-.67v.34h-1.34v.34c-.75.66-.58,1.4-1,2.35h-.34v1.34h-.34v.67h-.34v1h-.34c-.53,1.24.44.33-.67,1.34v.34h-.67l-.34.67h-.67l-.34.67h-.67v.34h-1.34v.34l-2,.67v.34l-8.06-.34-.34.67h-1l-.34.67-2,.67v.34h-.67v.34h-.67v.34l-2,.67v.34h-1v.34l-1.34.34v.34h-1v.34h-1.34v.34h-.67v.34A10.18,10.18,0,0,1,157.57,127.16Zm-89-16.79V111h-.34v1.68l-.67.34v1l-.67.34v1l-.67.34-.34,2-1,.67-.34,1h-.34v.67h-.34v.67h-.34v1l-.67.34v.67l-1,.67v.34l-.67.34v.67l-.67.34c-.77.81-2,1.86-2.35,3h.34c.87,1,2.26,1,3.36,1.68l.34.67h1l.34.67h1v.34l1.34.34v.34l4,1.34v.34l1.34.34v.34h1v.34H73v.34l1.68.34v.34h1v.34h.67v.34l2,.34c1.32.53,1.83,1.21,3.69,1.34.71-1.14,1-.68,2-1.34l.34-.67H85v-.34l1.34-.34v-.34l2-.34v-.34h1.34v-.34h3.69v-.34h1.34v-.34h3.36v-.34h2v-.34h4.37v-.34h1.34v-.34h2.35v-.34h1a16.76,16.76,0,0,1,5.71-1.34v1.34h.67v1l2,1.68.34.67h.67l.67.67H120v.34h.67v.34h.67l.34.67,2,.34v.34l2,.67v.34h1.68v.34h1v.34h2.35v.34h1.68v.34h2.35v.34l.67-.34v.34h2a11.16,11.16,0,0,0,7.72-.34h1.34v-.34h.67v-.34h1v-.34l3-.67.34-.67,1.34-.34.34-.67,1.34-.34,1-1.34h.67l1-1.34h.34v-.67l.67-.34v-1l.67-.34.34-1.34c-2.22.46-3.36,1.71-4.7,3l-.67,1h-.67l-.34.67-1.34.34-.34.67-1.34.34-.34.67h-1.34v.34h-.67v.34l-3,.34v.34H142.8v.34l-4,.34s0-.28-.67-.34h-3v-.34h-4v-.34H129.7v-.34h-1.34v-.34h-1.68v-.34l-1.34-.34v-.34l-2.35-.34v-.34h-.67v-.34h-.67l-.34-.67-1.34-.34-.34-.67a5.2,5.2,0,0,1-2-2.69h.34l1.68,2h.67l.34.67h.67l.34.67h.67v.34l1.34.34v.34l2,.34v.34l2.35.34v.34l3,.34v.34h4.37l3.69.34v-.34l4,.34v-.34h1.34v-.34h1v-.34h1v-.34h1v-.34h1.34l.34-.67h1l.34-.67,1.34-.34.34-.67,1.34-.34.67-1h.34v-.67a5.66,5.66,0,0,1,2-1.34,26.93,26.93,0,0,1-1.68-11.42l-1.68.34v.34l-3.36.67v.34h-1.34v.34h-1.34v.34h-1.34v.34h-1.34v.34h-1.34v.34h-2c-1.38.4-4.25,1.27-6.38.67v-.34h-2.35v-.34h-2v-.34H129v-.34h-1v-.34l-2.35-.34-.34-.67h-1v-.34h-.67c-1.19-.62-1.48-1.24-3.36-1.34l-.34,7.72h-.34v.67l-.67.34-.34,1.34h-.34a3.8,3.8,0,0,0-1,1.68l-1-.34v-.34h-.67v-.34l-1.68.34c.25-1.08.46-1.22,1.68-1.34.19.22.79.9,1.34.67v-.34a4.12,4.12,0,0,0,1-2.35,28.47,28.47,0,0,1-3.69-1h-1.34v-.34h-.67v-.34h-1v-.34h-1.34v-.34h-.67v-.34l-3-.67v-.34h-.67v-.34l-4.37-.34v.34l-2,.34v.34l-1-.34-2.35.34v-.34l-4-.34c-.66-1-.36-.18-1-.67l-.67-.67v-.67h-.34a3.6,3.6,0,0,1-1-1.68L82,116.75v-.34h-.67v-.34h-1v-.34h-.67v-.34h-1v-.34H78v-.34l-2-.34v-.34H75.3v-.34h-1v-.34h-.67v-.34H73l-.34-.67L71.28,112l-.34-.67h-.67V111A2.52,2.52,0,0,0,68.59,110.37Zm133.64,17.8v.67h-.67c-.65,1.12-4.58,4-6,4.37-.44,1.66-.89.93-2,1.68l-.67,1h-.67v.34l-1,.34c.38.38,0,.13.67.34v.34l2,.34v.34h1v.34l1.34.34v.34h.67v.34h.67l.34.67h1l.67,1h.67l.34.67h.67l.34.67,2.69.34v.34l4.7,1V142.6c.91-.56.86-1.34,2-1.68,1.61-1.49,3.31,1.39,4,2l.34,3H217v.67c2.54,0,3.81.61,5.71,1l.34,1c.67-.19.29,0,.67-.34.54-.45.69-1,1.34-1.34v-1h.67a8.42,8.42,0,0,1,1.34-2.35v-.67l.67-.34.34-1.34.67-.34v-.67h.34l.67-2h.34l1-3.69h.34v-1h.34v-1.34h.34v-1l.67-.34c.16-.66-.2-.45-.34-.67l-.34-1h-.34v-.67h-.34l-.34-3.69a2.78,2.78,0,0,0,1-1.68,4.48,4.48,0,0,1-2.69-2h-.34v-1.34c-.75-.9.16-1.79.34-2.69l-1.34-1v-.67h-.34v-.67h-.34c-.4-1-.1-1.19,0-2a5.16,5.16,0,0,0-2.69,1l-.34.67h-.67l-.34.67h-.67l-.34.67-1.34.34-.34.67H220v.34l-1.34.34-.67,1-1.34.34-.34.67h-1v.34h-.67v.34H214l-.34.67c-1,.65-1.33.19-2,1.34h-.34c-.12.24.54.68.34,1.34h-.34v1.34l-.67.34c-.62.94-.4,1.36-1.68,1.68-1.54,1.35-3.08-1-4-.67v.34C203.43,126.88,203.73,127.75,202.23,128.17ZM159.92,114.4c-.21.84-.18.55-.67,1v.34h-.67v.34a4.75,4.75,0,0,1-2.35,1.34c0,3.27.93,5.41,1,8.73l4.37-1.34.34-.67h1v-.34h.67v-.34l2-.34v-.34l2-.67v-.34h.67v-.34h1l.34-.67,2-.67v-.34a13.56,13.56,0,0,1-2.69-.67v-.34h-.67v-.34H167v-.34l-1.34-.34v-.34l-1.34-.34C162.85,116.18,161.86,114.85,159.92,114.4Zm-47,1.68a4.11,4.11,0,0,0-2.69,1.34v.34h-.67l-.34.67-1.34.34c-.9.49-1.71,1.21-2.69,1.68.38.38,0,.13.67.34v.34l3.36.67v.34h1v.34h1v.34h1v.34h.67v.34h1.68v.34a8.69,8.69,0,0,0,3.36.67v-.34h.34c-.35-1.09,0-5.12.34-6.72-.33-.17-.6-.63-.67-.67l-1.68-.34v-.34c-.82-.65-1-1.16-2.35-1.34-.38.38,0,.13-.67.34Zm-71.52,4.37v2.69h-.34v.67c-.17.32-1,.24-.67,1.34l.67.34v.67h.34c1,2.32-.1,4.88-2,5.37l.34,2.69h-.34v1H39v.34h.34c.44.48,2.19,1.07,2.35,1.34v.67c2.61,2.23-1.58,6.17-2,7.72.76.69.24.76.67,1.68h.34v.67l.67.34.34,1.34.67.34.67,2h.34l.34,1.34c.49.9,1,1.06,1.34,2.35l3.36-1V154l2-.34v-.34h.67V153l1.68-.34v-.34l1-.34-.34-2.69h.34l.34-2h.34v1.34h-.34v2.69l1,5.71,2.69,8.06h.34l.34,1.34h.34v1h.34l.34,1.34h.34v1h.34v.67h.34v.67l.67.34.34,1.34.67.34v.67h.34v.34l1,.34v.34c1.13.58,2,.08,3-.34l.67-2c-2.16.42-1.62.11-3.36-.34a9,9,0,0,0-1.34-2.69v-.67h-.34l-.34-2-.67-.34v-1h-.34v-.67h-.34l-.34-2h-.34v-.67h-.34v-1.34h-.34v-.67h-.34v-1h-.34v-1h-.34v-1.68h-.34v-1.68h-.34v-1h-.34v-4h.34c.42.64.34.56,1.34.67l.67-1h1.34V149h.67v-.34l5-2V146a5,5,0,0,0,2.35-.34l.34-.67,1.34-.34v-.34h1v-.34h.67v-.34l1.34-.34v-.34l5-1.34c.39-1.49,1.26-1.19,1.68-2.69-3.59,0-5.94-1.29-8.39-2.35l-3.36-.67v-.34l-2-.67v-.34H65.9v-.34h-.67v-.34h-.67v-.34h-.67v-.34h-.67v-.34h-.67l-.67-.67H61.2l-.34-.67h-.67l-.34-.67h-1v-.34h-.67v-.34c-1.24-.41-2.59.88-4,1v-.34h-1v-.34h-.67l-.34-.67c-1.35-.93-1.36-.29-1.34-2.69.58-.38.46-.21.67-1l-5.71-2.35-.34-.67h-.67l-.67-1h-.67C42.53,121.5,42.85,120.86,41.39,120.44Zm191.73,3.36v.67h-.67l.34,3.36.67.34v1l.67.34v1l.67.34.34,1.34.67.34v.67l1,.67v.67h.34l.67,1h.67v.34c.5.46.43.18.67,1l2,.67v.34h.67v.34h1v.34h.67v.34l5,.67c.75-1.23,2.27-1.42,3-2.69h.34l.34-2h.34V133.2h.34c.51-1.82-.8-5.15-1.34-6l-.34-1h-.67v-.34h-.34v.67h-.34c-.52,1.07.54,1.44.67,1.68v.67h.34v4h-.34v.67h-.34v1h-.34c-.21.53-.16.91-.34,1.34a4.46,4.46,0,0,0-1.34,1l-2,.34v-.34l-3.36-.34c-.56-.85-1.64-1-2.35-1.68l-1.68-2-1-.67v-.67l-1-.67v-.67l-.67-.34-.34-1.34h-.34v-.67h-.34v-1h-.34v-1h-.34l.34-2Zm14.77,11.42h.67l1.68-3v-1h-.34l.34-1h-.34l-.34-1h-.34v.34C248.28,130.46,247.9,133.27,247.9,135.22Zm-87.64-4.7-.67,3h-.34v1h-.34v.67h-.34l-.67,2h-.34l-.67,3h-.34l-.34,1.34h-.34v1h-.34l-.67,2h-.34v.67h-.34V146h-.34v1l-1,.67v.67h-.34V149h-.34v1l-.67.34-.34,1.34-1.34,1v.67l-.67.34-.34,1.34-1,.67L147.5,157l-.67.34-.34,1.34-.67.34v.67h-.34v.67l-.67.67v.67l-.67.34v.67l-1,.67-.34,1.34-.67.34v.67l-1,.67v.67l-1.34,1v.67l-1,.67v.67l-.67.34-.34,1.34-1,.67v.67l-.67.34v.67l-1,.67v.67l-.67.34v.67l-1.34,1v.67l-1.34,1v.67L130,181.22v.67l-1.68,1.34v.67H128l-.34.67H127c-.38,1.51-1.75,2.06-2.69,3-1.69,1.75-3,5.12-5.71,5.71a1.9,1.9,0,0,1-1.68,1.68,13.47,13.47,0,0,0,1,2.69h.34c.52,1.46-.39,3.72-.67,4.7,0,.13-.48.07-.34.67h.34v.67l.67.34.34,2H119c.22.95-.84,2.44-1,3l.34,3h.34v.34h-.34v2.69h-.34l-.34,1.34-1,.67v.34l-2,.67v.34l-4.7,1v.34h-.67v.34l-3,.34v.34h-1v.34a.85.85,0,0,1-1-.34l-3.69-.34a5.18,5.18,0,0,1-2.69,2l.34,2.69H97.8v1h-.34a9,9,0,0,0-.67,3.69l1.34,1v.34h.67c.79.61.71,1.92.67,3.36-.53.57-.37,2.26-.34,3.36.7.37.59.54,1.68.67v-.34l2-.34v-.34l1.34-.34V237l1.34-.34.34-.67h.67l.34-.67h.67l1-1.34h.67l.34-.67,1-.34v-.34h.67l.67-1,1.34-.34v-.34l1-.34.34-.67h.67l.67-1h.67v-.34h.67l.34-.67,1.34-.34.34-.67,1-.34.67-1h.67l.67-1H123l2-2.35h.67l1.34-1.68,1-.34v-.67h.67c.37-1.4,1.48-1.81,2.35-2.69l.67-1h.34v-.67l1-.67v-.67l.67-.34c.76-.81,2-1.87,2.35-3h.67c.63-2.36,3.67-3.07,4.37-5.71h.67a6.21,6.21,0,0,1,1.68-2.69l.67-.34V201l1.34-1v-.67l1.34-1v-.67l1-.67v-.67l1.34-1v-.67l.67-.34v-.67l1.68-1.34.34-1,.67-.34.34-1.34,1-.67.67-2,1.34-1v-.67l.67-.34v-.67l1-.67v-.67l1.34-.67v-1h.34v-.67l.67-.34.34-1.34.67-.34v-.67l.67-.34.34-1h.34l.34-1.34.67-.34v-.67h.34c-.05-.73-.7-2.47-.34-3.69h.34l.34-2,1-.67v-.34l1.68-.34v-.34h.67v-.34H169v-.34a19.28,19.28,0,0,0,2.35-4.37l.34-1.68H172v-.67l.67-.67v-.67l.67-.34v-1h.34v-1H174l.34-1.34h.34l.34-3h.34l.34-2H176v-.67h.34V147h.34v-1H177v-1h.34v-1.68h.34v-1.34a24,24,0,0,0,1-5.71l-1.34-.67-.34-1c-.71-.57-1.45-.65-2-1.34l-5.37-.34L168,138.24l-.67.34v1l-.67.34v.67h-.34v1H166v.67h-.34v.67l-.67.34v.67h-.34v.67h-.34v.67l-.67.67v.67h-.34l-.34,1-.67.34-.67,2-.67.34v1l-1,.67-.67,2-.67.34-.34,1.34-.67.34v.67h-.34v.67h-.34l-.34,1-.67.34-.34,1.34-1,.67v.67l-.67.34-.34,1.34h-.34l-.34,1-.67.34v.67l-1.34,1-.34,1.34-1,.67v.67l-.67.34v.67l-1,.67-.34,1.34h-.34l-.34,1-.67.34v.67l-.67.34v.67l-1,.67v.67l-1,.67v.67l-.67.34v.67l-.67.34-.34,1-1.68,1.34v.67l-.67.34v.67l-.67.34c-1,1.48-1.78,3.13-3.36,4v-.67c.81-.55.21-.26.67-1h.34v-.67l1.68-1.34.34-1.34.67-.34v-.67l1.68-1.34v-.67l.67-.34.34-1h.34v-.67l1-.67v-.67h.34l.34-1,.67-.34v-.67l1-.67v-.67c.49-.83,1.07-1.17,1.34-2.35h.67l.34-1h.34v-.67h.34v-.67l.67-.34v-.67l1-.67v-.67l.67-.34.34-1h.34l.34-1.34.67-.34v-.67l1.34-1v-.67l.67-.34v-1h.34l.34-1,.67-.34.34-1.34,1-.67v-1h.34v-.67l.67-.34.34-1.34.67-.34.34-1.34.67-.34.34-1.34c.59-1.06,1.13-1,1.34-2.69h.67a25.22,25.22,0,0,1,1.34-2.35v-.67l.67-.34v-1l.67-.34v-1l.67-.34v-.67h.34v-.67h.34l.67-3,.67-.34v-1.34h.34a8.15,8.15,0,0,0,.67-2.69c-.39-.22-.48-.55-.67-.67h-.67l-.34-.67h-5v.34Zm-43,.34h.34c-.2-.67,0-.29-.34-.67ZM77,146a5.14,5.14,0,0,1-1,2.69l-.67.34L75,150.33l-.67.34-.34,2h-.34v.67h-.34v1H73v1h-.34v1h-.34l-.34,3.69h-.34v1.34c-.81,2.43-.9,6-1.68,8.39v1.68H69.6v1h-.34l-.67,5h-.34v1.34h-.34l-.34,2.35h-.34v1h-.34v1.34h-.34v.67h-.34v1H65.9v.67h-.34v1h-.34v.67H64.9v1h-.34v.67h-.34l-.34,2h-.34v1h-.34v1h-.34v1h-.34v1h-.34v1h-.34v1.34h-.34V199H61.2v1.34h-.34v1.34h-.34l.34,3.69h-.34v3.69h-.34l.34,1s-.42.07-.34.67h.34c.09.61-.62,1.54-.34,2.69,0,0,.42,0,.34.67a.59.59,0,0,0-.34.67h.34v2.35h.34v2h.34v1.34h.34v1h.34v1.34h.34v.67h.34v.67l.67.34a4,4,0,0,0,2.69,1.68v.67l3.69.34v-.34l2.35-.34v-.34h.67v-.34l2-.67v-.34h.67v-.34h1.34v-.34l2-.67v-.34l1.68-.34.34-.67,2-.67.34-.67,1.34-.34v-.34l1-.34.34-.67,1.34-.34.67-1h.67v-.34c1.43-.86,2-.69,2-3-1.26-1.29-.45-3.75-1-5.71h-.34V205.4h-.34V200H88.4l.34-3.69L78,197v.34h-.67v.34l-1.68.34-.34.67h-.67l-.67,1h-.67l-.67,1-1,.34-.34.67A5.09,5.09,0,0,1,67.58,203l-.34-.67c2.13-.43,3.71-2.06,5-3.36l.67-1h.67l1-1.34h.67l.34-.67h1v-.34h1v-.34h1.68V195c1.8-.53,4.27.2,5.71-.34.09-2.14,1.33-3.48,2-5l.67-3h.34v-.67h.34l.34-2h.34l.34-3h.34v-1h.34c.12-.58-.31-.57-.34-.67v-1.68h-.34v-2.69h-.34c-.28-1,.37-3.12.34-3.36h-.34a17.27,17.27,0,0,1,.67-7.05v-1.34h-.34l.34-.67h.34v.34c.56.67.33,2.49.34,3.69l.34,8.39.67.34.34,2.35h.34v1h.34v1h.34v1.34h.34v1.68h.34l.34,2h.34v1h.34v1h.34v1h.34c.24.69.09,1.38.34,2h.67l.67-1h.34v-.67l1-.67.34-1.34.67-.34v-.67h.34l.34-1.34h.34v-1h.34v-.67h.34v-1h.34v-1h.34v-1.34h.34v-1.34h.34v-1.68h.34c.3-.66.51-2,1-2.35h.67v-.34c.41-.32.65-.25,1-.67l3.36,1,1.68,2.35c0,1.87.17,4.66-.34,6h-.34v1h-.34l-.67,2h-.34v1.68s-.2,0-.34.67h2c.66-.2,1.42-1,2.69-.67v.34c1.18.32,2.61-.33,3.36.34a4.58,4.58,0,0,1,3,4h1.34c.44-1.8,1.9-3.18,3-4.37l.67-.34v-.67c.69-.86,1.19,0,1.68-1.68h.67a7.28,7.28,0,0,1,1.34-2l.67-.34.34-1,1.34-1,.34-1.34,1.34-1,.34-1.34.67-.34.34-1,1.34-1v-.67l.67-.34.34-1h.34v-.67l.67-.34v-.67l1-.67v-.67l.67-.34v-.67l1.34-1v-.67l1-.67v-.67l.67-.34.67-2,.67-.34v-.67l.67-.34v-.67l.67-.34v-1l.67-.34v-.67l.67-.34v-.67l1.34-1,.34-1.68,1-.67v-.67l.67-.34.34-1h.34l.34-1.34.67-.34.34-1.34.67-.34.34-1h.34v-1l.67-.34V145h.34v-.67h.34v-1l.67-.34v-.67l.67-.67v-.67l.67-.34v-1.68h.34l.34-2h-.34a10.88,10.88,0,0,1-3,2,15.48,15.48,0,0,1,.67,3.36h-.34v-.34c-1.48-1.41.35-2-3-2a4.62,4.62,0,0,1-1.34,1,3.56,3.56,0,0,1,.34,1.34c1.08.27,1.16.62,2.69.67v.67a11.62,11.62,0,0,1-2.35.34l-.67-1h-.34v-.67h-.34v-.34h.34l-.34-1a31.87,31.87,0,0,0-3.36,1h-4v.67l.67.34a5.13,5.13,0,0,1,0,2.69h-.34c-.15-1.85-1-2-1.34-3.36l-3.36-.34a.57.57,0,0,1-.67.34v-.34h-1v-.34l-5.37-.67v2h-.34v-.67c-1.2-1.1-.16-1.65-2.69-1.68-.19-.14,0-.55-.67-.34v.34c-.92.52-1,.87-1,2.35h1.34l.34.67h1.34v.34h.34v-.34l1-.34v.67h-.34c-.57.53-2.26.37-3.36.34-.38-.38,0-.13-.67-.34a9,9,0,0,1-.34-3,1.57,1.57,0,0,0,1-1.34l-1-.34v-.34h-.67v-.34h-1v-.34h-.67v-.34H121v-.34h-.67l-.34-.67h-.67v-.34l-1-.34v1h.34v1.34h-.34v-.34h-.34c-.29-.41-.09-1.57-.67-2h-.67v-.34l-1.68-.34v-.34h1.68v-.67c-1.42-.89-.93-2.2-2.69-2.69-.93,1.3-1.45.48-3,1v.34h-1v.34h-1.68v.34h-2.35v.34h-2.69v.34h-2v.34H97.47v.34H95.12v.34H93.77v.34H91.42v.34H89.74v.34h-1v.34h-1l-.34.67h-1l-.34.67-1,.34v.34H84l-1.68,2h-.67l-.34.67-1.34,1L77.66,146Zm150.77,0h-.67c-.21,1.88-.81,1.08-1.34,2v1h-.34v.67h-.34v1h-.34l-.34,1.34h-.34v1.34h-.34V154h-.34v1.34H223v1.34h-.34c-.32,1-.06,2.3-.34,3H222v-.34c-.5-.54-.43-2.29-.34-3.36.22-2.56,1.39-4.4,1.68-6.72L219,149a9.48,9.48,0,0,0-3.36-1,34.54,34.54,0,0,1-1.34,11.08l-.34,3.36h-.34v.67h-.34l-1.68,6H212l.34,1a25,25,0,0,1,6.38,1.34l4.7.67v.34l3.69.34c1.24.37,4.75,1.25,6.72.67.84-.25,1.73-.81,2.69-1l.34-1h.34v-.67l1.34-1v-.67l1-.67.67-2,.67-.34.34-1.68.67-.34,1.34-8.39h.34V154h.34v-1.68h.34V151h.34v-1.34h.34l.34-4h.34l1-4.37-4.7-1v-.34h-.67l-.34-.67h-.67c-1.32-.88-4-3.33-4.37-5h-.67v-.67l-1.68-1.34a21.8,21.8,0,0,1-3,9.4l-.67.34-.67,2h-.34v.67h-.34A2.86,2.86,0,0,0,227.75,146Zm-44.66,39.62,3-17.46c.7-2.49-.88-4.69,0-7.05.67.19.29,0,.67.34h.34v1.34h.34l-.34,11.08h.34v1h.34v1h.34v1h.34v1h.34v1h.34v1.34h.34v.67h.34v1.34h.34v1h.34l.34,1.34h.34v.67h.34v1l.67.34v.67h.34v1l.67.34v1h.34v.67h.34v1h.34V192l.67.34c.27.52-.21,1.36.34,1.68h2c1.59,1.34,4.25-.64,6.38,0,3.43,1,6.4,2.16,7.72,5.37h-.67c-1.06-1.84-3.63-2.87-5.71-3.69h-1v-.34h-.67V195c-1.91-.67-4,.55-5.37.67-1.85.16-6.07-.56-6.38-.34-.95,1.14.19,3.74-.34,5.37h-.34v1h-.34l-.34,4.37h-.34v1h-.34v1h-.34v1.68l-.67.34v1l-1.34,2.69a9.21,9.21,0,0,1,2.69,1.34h.67v.34h.67v.34h1v.34h.67v.34l1.34.34v.34h1v.34l3.69.34v.34h2.35v.34l8.73.34c1.58-.45,3.79-1,5.37-1.34a7.7,7.7,0,0,1,1-1l.34-2,.67-.34.34-2H218v-3.69c0-3.19,0-6.33-.67-8.73V197H217v-1.34h-.34v-2h-.34v-1H216V191h-.34v-1h-.34v-1.34H215v-.67h-.34v-1h-.34v-.67H214v-1.68h-.34v-1h-.34v-1H213v-1h-.34v-1h-.34V179.2H212v-1.34h-.34v-1.34h-.34v-1.34H211v-1h-.34v-1.34h-.34v-.67H210v-1h-.34v-1.68h-.34v-1.34h-.34v-1.34h-.34V165.1h-.34v-1.34h-.34v-1.68h-.34v-2c-.46-1.51-.84-3.87-1.34-5.37v-1.34h-.34v-.67h-.34v-1.34l-.67-.34-.34-2h-.34v-.67l-.67-.34v-.67l-1-.67V146l-1-.67V145l-1-.34-1-1.34h-.67l-.34-.67-2-.67v-.34l-1-.34-.34-.67h-1v-.34h-.67v-.34l-2-.67v-.34l-2-.34v-.34l-3.36-.34v-.34h-2v-.34h-1.34v-.34a2,2,0,0,0-2.35.34c-.64.78,0,2.17-.34,3.36h-.34v1.68h-.34v1.34h-.34v1.68h-.34V147h-.34l-.34,2h-.34v.67h-.34v1H177v1h-.34v1h-.34v1H176v1h-.34v.67h-.34l-.34,2-.67.34-.34,1h-.34v1h-.34v.67H173v1h-.34l-.34,1.34-.67.34v1l-.67.34-.34,1.34-.67.34-.34,1.68c1.34.85,1.08,1.81,1.68,3.36h.34v1.34H172v.67h.34v1l.67.34v.67l1.34,1,.34,1.34H175l.34.67H176l1.34,1.68,3,2.69.34,1,1,.67v.67h.34C182.54,185.41,182.25,185.36,183.09,185.58ZM38.7,137.23v2h-.34c-.51,1.9-2.24,2.39-3.69,3.36l-.34.67-1,.34v.34h-1v.34l-1.34.34V145H29.64v.34h-1v.34H27.29V146H21.58a6.44,6.44,0,0,1-.34-2.35h1v-.34h.34v-1c-1.64.08-1.68.69-3,1-.48,1.93-1.85,2.1-2,4.7l2,1.68L28,150v-.34l2-.34V149l1.34-.34v-.34h1V148h1l.34-.67h.67V147c.91-.57.63.32,1-1h1.34l1.68-2,.67-.34.34-1.34.67-.34a8.89,8.89,0,0,0,.67-2.69h.34a7.07,7.07,0,0,1-.34-1.34l-1-.34v-.34Zm75.89,1.68v.34h.34l-.34-2h-.67C114,138.18,114.06,138.46,114.59,138.91Zm-78.24,0c-.22.92-.44.76-.67,1.68l-1,.34v.34h.67c.62-1.06,1.65-1.35,2-2.69H37C36.64,139,37,138.71,36.35,138.91Zm81.93-.34h-.34v.67a7.67,7.67,0,0,1-3,0l.34,1a15.45,15.45,0,0,0,3-.34ZM212,144.28l1,3v.34h-.34V150h-.34l.34,2.35h-.34V153H212l-.34,3.69h-.34v1.34H211v1.34h-.34v2l-.67.34,1,4.7h.67l.67-2.35h.34v-1.34H213v-1h.34v-2h.34v-1.68H214v-1h.34l.34-6,.34-1h-.34v-4h-.34l-.34-2h-.34v-.67h-.34l-.34-1a17.39,17.39,0,0,0-2.35-.67c-.42.74-.95,1.18-1.34,2A9.63,9.63,0,0,1,212,144.28Zm-76.56,1a6.12,6.12,0,0,1-.34-2.35h-.34v1h-.34c0,1.39-.13,1.72,1,2v.67c1,.22,3.52,1.13,4.37.34.91-.26.76-.08,1-1h-1v.67h-2.35V146A4.91,4.91,0,0,1,135.41,145.29ZM70.27,146v.67l-2,.67-.34.67h-1v.34h-.67v.34h-.67l-.67.67h-.67l-.34.67-2,.34-.34.67-3.69.67.67,3.69h.34V157h.34v1.34h.34v.67h.34v1h.34l.34,1.34h.34l.34,2.35.67.34v.67h.34v1h.34v.67l2,3.36h1.68v-.34l1.68-.34c.09-.61.34-.67.34-.67v-1.68h.34l-.34-.67h.34v-2h.34v-1.68h.34v-2.35h.34v-1.34h.34V157h.34v-1h.34v-1h.34l.67-2h.34v-.67h.34v-.67h.34V151H73l.34-1.34h.34v-1H74l.34-1.34h.34L75,146l.67-.34V145H76l.67-1H75.3v.34l-1.68.34-.34.67Zm101.07-2L169,149.32l-.67.34-.34,1.68-1,.67v.67h-.34v.67h-.34v1l-.67.34v.67l-1,.67v.67L164,157l-.34,1.68-.67.34v.67l-1,.67-.34,1.34-1,.67v.67h-.34l-.34,1-.67.34v.67l-1.34,1v.67l-.67.34v.67l-1.34,1v.67l-.67.34v1l-1,.67-.34,1.34-1,.67v.67l-.67.34-.34,1.34-.67.34-.34,1h-.34v1l-1.34,1v.67l-.67.34v.67l-.67.67v.67h-.34v.67h-.34l-.34,1-.67.34v.67l-1,.67-.34,1-.67.34-.34,1.34-.67.34v.67l-1,.67-.34,1-.67.34-.34,1.34-1.34,1v.67l-1,.67v.67l-.67.34v.67l-2,1.68V199l-1.34,1v.67l-1.34,1v.67l-.67.34v.67l-1.34,1v.67l-.67.34v.34l-.67.34v.67l-.67.34-.34,1h-.34v.67l-1.34,1v.67l-1.34,1v.67L123,214.46v.67h-.34l-1,1.34c-1.42,1.43-5.2,3.74-5.71,5.71-1.16.31-3.18,2.22-4,3l-.34.67h-.67l-.67,1h-.67l-.67,1c-1.06.75-2.66,1.28-3.36,2.35h-.34v.34c1.65-.42,6.3-3.73,7.05-5h.67v-.67a2.65,2.65,0,0,0,1.34-.67v-.34h.67l.34-.67h.34l.34-.67,1-.34.34-1,7.05-6.38v-.67l.67-.34c.75-.8,2-1.88,2.35-3H128a2.76,2.76,0,0,1,.67-1.34H129v-.67l.67-.34v-.67l1-.67v-.67l1-.67v-.67l1.34-1v-.67l1-.67V202l1-.67v-.67l1.34-1V199l1.68-1.34.34-1,.67-.34v-.67l.67-.34v-.67l1.34-1,.34-1,.67-.34.34-1.34,1-.67v-.67l.67-.34.34-1h.34v-.67l1-.67v-.67l1-.67v-.67l1-.67v-.67l.67-.67v-.67h.34v-.67l.67-.34a6.41,6.41,0,0,0,1-2.35h.67l.34-1h.34v-.67h.34v-.67l.67-.34v-1l1-.67v-.67l.67-.34v-.67l.67-.34.34-1h.34l.67-2,1-.67v-.67l.67-.34v-.67l1-.67v-.67l1.34-1v-.67l.67-.34.34-1h.34v-.67l1-.67v-.67l.67-.34.34-1.34.67-.34.34-1.34,1-.67V156l.67-.67v-.67H167V154l.67-.34.67-2,.67-.34.34-1.34.67-.34V149h.34l.34-1.34H171v-1c.49-1.06,1.18-1,1.34-2.69Zm-149.09.34.34,1h.34v-1Zm181.66.67.34,1h.34v1l.67.34v1.34l.67.34v1l.67.34v1h.34l.34,1.34h.34v1.68h.34v1h.34c.69,1.93-.56,3.77,1.68,4.37l.34-2.35h.34v-2H211v-2h.34V151h.34a11.15,11.15,0,0,0,0-4.37h-2.35V146C206.94,146,206,145.18,203.91,145ZM37.7,146v.67A8.49,8.49,0,0,0,35.35,148l-1.34.34v.34l-1.34.34v.34h-1v.34h-1V150H30v.34H28.63v.34c-1.38.44-2.8-.16-3.69.67H24.6v2c.84,1,.24,2,.67,3.36h.34v1.34h.34v1.34h.34v1h.34v1.34H27v.67h.34v1.34l.67.34v.67h.34v1.34h.34v.67H29v1h.34v.67h.34v1H30l.67,2H31l.34,1.34.67.34v.67l.67.34v.67l1,.67v.67l3,2.35v.34h4c.79-.69,1.64-.25,2.69-.67v-.34h.67v-.34h1v-.34h1.34v-.34h1v-.34h.67v-.34h1.34l.34-.67,2.35-.34v-.34h.67v-.34h1v-.34h1.34v-.34l4.37-.67v-.34h.34v-1c-.75-.69-.25-.74-.67-1.68h-.34v-.67h-.34v-.67h-.34v-1h-.34v-.67h-.34v-1h-.34v-.67h-.34v-1H56.5v-.67h-.34l-.34-2.35c-.79-2.3-1.93-5.37-1.68-7.72-1.91.07-1.24.5-2.35,1h-1V155h-.67v.34l-4,1.34.67,2h.34v1h.34v1l.67.34.34,2.69h-.34v.34h-1a6.22,6.22,0,0,0-.34-2.69h-.34l-.34-1.68h-.34v-.67l-.67-.34-.67-2-1-.67v-.67l-.67-.34-.34-1.68-.67-.34-.34-1.34-.67-.34v-.67h-.34V150H40a9.69,9.69,0,0,1-1-4Zm17.46.67h-.67v.67h.34c0-.67,1.14-.24,1.68-.34v-.34h.34V147c1.41.32,1.23-.41,2,.67h.67c-.41-.71-.77-.73-1-1.68H55.16ZM57.84,149h.34c.22-.25.13-.27.34,0h.67v-.34l-1-.67ZM164,177.19h-.67c-.45,1.85-2.17,2.75-2.69,4.7l3.36-.34v-.34h4.37v.34h2.35v.34l2,.34v.34l2,.67v.34h.67v.34H176v.34h.67l.34.67h.67l.34,1,.67.34v1h-.34c-.8-.93-1.9-.76-3-1.34v-.34l-2-.67v-.34h-1v-.34h-.67v-.34l-2.35-.34v-.34h-2v-.34h-5v.34h-4l-.34,1h-.34a3.64,3.64,0,0,0-1,2.35h.34v1.34h.34c.91,1.85.15,1.74,3,1.68,1.06-1,7.5,0,9.4,0v.67h-1.34v.34h-8.06c-.78,0-1-.34-1.34-.34v.34a10.35,10.35,0,0,0-1.34.34l.34.34c.24.85-.52,1.75,0,3h.34V195l.67.34.34,1,4-.34v.34l7.05.67v.67c-3.29.14-7.06-.33-11.08-.34a2.51,2.51,0,0,1-.67,1c.31,2.12.89,4.77,2.35,5.71,1.5,1.51,8.75.43,11.08.34v.34h-.34c-1.63,1.9-7.55,1.18-10.41,1,.33,2,2.1,4.62,4.37,4.7.72.65,3,.3,4,.67v.34h1v.34h1.68v.34c2.44.72,5.55-.86,7.05-1.34h2v-.34h1.34v-.34l1,.34v-.34c1.23-.85.84-2.14,1.34-3.69h.34l.34-3h.34v-4.7h.34v-5h-.34l-.34-1.68-.34-.34h-1.68v-.34c-1.18-.93-.11-.35-.67-1.34l-.67-.34-.34-1.34-1.34-1v-.67l-1-.67v-.67l-1.34-1v-.67l-3.69-3.36v-.67L173,178.2v-.67l-.67-.34-.34-1.34-.67-.34v-.67H171v-.67h-.34v-1h-.34v-1.34l-.67-.34v-1l-.67-.34c-.92-1-1.21-1.82-3-2l-.34.67c-2,1.93.4,9.17.67,11.42H166v.34c-.67-.19-.29,0-.67-.34A10.28,10.28,0,0,1,164,177.19Zm-59.77-3.69-.34,1.34h-.34l-.67,4.7h-.34l-.34,1.34h-.34l-.34,2h-.34l-.34,1.34h-.34v.67h-.34v1l-1,.67v1l-1.34,1v.67l-.67.34v.67l-1,.67v.67h-.34v1l-.67.34c-.61,1.07.58.88-1,1.34-.21,5-.63,11.06.67,15.45v2h.34c.35,1.07,0,2,.67,2.69v.34l2,.34,1,1.34h.67l.67,1h.67v.34l1,.34.34.67h1.34v.34h1.68v.34h.34v-.34l3.36-.67v-.34h1.68c1.89-.62,5.55-2.13,6-4a5,5,0,0,0,.67-3h-.34v-.34c-2.9.51-5,1.31-8.73,1.34.24-.93.09-.75,1-1,.86-.73,2.13-.27,3.36-.67,2.9-.94,5.07-2.17,5.37-5.71-.92-.62-.29-.6-.67-1s-1.75-.35-2.69-.34c-1,.9-4.73.42-6,.34V203l7.05-1c.88-1.54,1.95-2.2,2-4.7-.38-.38-.13,0-.34-.67l-1-.67v-.34h-.67v-.34l-3,.34a40.22,40.22,0,0,0-5.71-.34V195h.34c.68-.61,1.9-.09,3-.34,1.32-.29,3.38,0,6,0a2.48,2.48,0,0,1,.34-1.34h.34l.34-3-2.35-1.68h-3.69a12.6,12.6,0,0,0-7.39.67v-.67l1-.34c.45-.53.73-.58,1.68-.67.13-.7.33-.66.34-.67v-1.68h.34l.67-2h.34v-1h.34v-2l.34-2-1-3.36C106.38,173.95,106.87,173.48,104.18,173.5Zm-55.07,4.37v-.67c-2,0-3.82,1-5.37,1.68v.34h.67v-.34l2-.34v-.34h1v-.34h.67v-.34Zm137,1.34a15.48,15.48,0,0,1-.67,4.37v4h-.34c-.63.78-.62.07-1,1.34h.34v.34c1.45-.8,1.26-1,3.69-1l2.35,1.68.67,3,1,.34v.34c.67-.19.29,0,.67-.34h.34V193c-.8-.56-.21-.25-.67-1h-.34v-.67l-.67-.34v-.67h-.34v-.67h-.34v-1l-.67-.34-.34-1.68h-.34v-.67h-.34l-.34-1.68h-.34V182.9h-.34v-.67h-.34v-1.34h-.34l-.34-2h-.34C186.4,179.25,186.78,179,186.11,179.2Zm-95.36,5.37-.34,1.34h-.34v1.34l-.67.34v.67h-.34v.67h-.34l-.34,1.68-.67.34v1.34l-.67.34v.67h-.34L86.39,195a11.49,11.49,0,0,0,2.69-.34c.59-1.58,1.16-3.44,2.69-4h2.35v-.34c-.75-.67-2.1-4.1-2.35-5.37ZM145.82,202h-.67l-.34,1-1,.67v.67l-1.34,1v.67l-1.68,1.34v.67l-1.68,1.34v.67l-1,.67v.67h-.34c-.46.5-.17.44-1,.67v.67h-.67c-.24.93-.09.75-1,1-.26,1.06-.75,1.23-1,2.35h-.67l-5.37,6h-.67l-.67.67v.67l-.67.67h-.67l-1,1.34h-.67l-.67.67h-.67l-.34.67h-.67l-.34.67h-.67l-.34.67h-.67l-.67,1h-.67l-.34.67h-.67v.34h-.67v.34l-1,.34.34,1h-.34a2.23,2.23,0,0,1-2.69,1v.34h.34l-.34.67h-.34c-.06-.05.19-1.14-.34-.67v.34l-1.34.67c.29.58,0,.11.67.34v.34h-.67v.34l-1.68.34V236h-.67v.34h-.67v.34l-1.34.34v.34h-.67l-.34.67-2.69,1c.44,2.41,1.57,4.35,1.68,7.05a29.76,29.76,0,0,1,6,1h2.69v.34h3v.34h5.71V248H134.4v-.34h1l20.48-.34V247h3v-.34h2.35v-.34h2V246h1.34v-.34H166v-.34l4-.34v-.34h2v-.34l1.68-.34a10.62,10.62,0,0,1,.67-3.36v-3.36h.34v-2H175v-4c1.49-5.23.64-11.75.67-17.8l-4,.34c-.46-.13.13-.26-.34-.34h-2v-.34l-1.34-.34v-.34H166.3v-.34h-2.69v-.34h-1l-.34-.67h-.67l-.34-1-.67-.34c-.54-.85-.37-1.56-.67-2.69h-.34l.34-1.68-1.68-1.34-.34-1.34h-.34a10.11,10.11,0,0,1,0-4.37h.34l.34-1-1.34-1a7.74,7.74,0,0,1-.67-4h.34l.34-1c-.37-.82-1.09-1.31-1.34-2.35-1.36.41-.43.2-1,1l-.67.34V191h-.34v.67L151.86,193l-.34,1.34-.67.34-.34,1.34-1.68,1.34-.34,1.34-1,.67V200C146.88,200.89,146.22,200.58,145.82,202Zm38.62-12.09v.67h1.34l1.68,2,.34,4.37h-.34v4.37h-.34c-.16.66.16.44.34.67l-.67,3.69h-.34v1h-.34l-.34,2.35-.67.34v1h-.34v.67h-.34v1h-.34v.67h-.34c-.59,1.3.28,1.55-1.34,2v.34h-2v-.34h-.34l-.34-2h-1c0,2.25,1,5.26,2.69,5.71v.34a2.34,2.34,0,0,0,2.35-.34v-.67l.67-.34v-1l1-.67.34-1.34.67-.34v-1.68h.34l.34-1.34h.34v-1l.67-.34v-1.68h.34v-1.34h.34v-1h.34l.34-4.37h.34V200h.34l-.34-1h.34v-.34h-.34l.34-.67h-.34v-.34h.34V194c-.18-.6-.53-2-.67-2.69l-2-1.68-2-.34-.34.67Zm-94,4c-.11.76,0,.87-.34,1.34h-.34V196h-.34v4.7h.34l.34,7.39h.34v2h.34v1.68h.34v1.34h.34v1.34h.34v1.34h.34l.34,2,.67.34c.71,1.09.56,2,2,2.35.63.69.17,0,1,.34,1.74.69,3.24.37,4-1a4.47,4.47,0,0,1-1.34-1H97.47v.34l-1.68-.34-.34-1h-.34v-1h-.34l-.34-1.34h-.34l-.67-4H93.1l-.34-9.07h-.34v-4.7h.34v-3h.34v-1.34h.34l.34-.67,1-.34v-.67a9,9,0,0,0-3-.34,9.48,9.48,0,0,1-2,2.35C90.13,194,89.74,193.78,90.42,194Zm92.34,17.13v1h-2.69l.34,2h.34v.34h1.34l1.68-3.36Zm-5.37,2-.34.67h.34v.34h.34C178.28,213.5,177.86,213.52,177.38,213.12Zm-72.19,17.8v-.34h-.67C104.9,231,104.51,230.72,105.19,230.91Zm6,36.94c1.76.38,4.58,2.24,7.39,1.34v-.34h1v-.34l1.34-.34v-.34h.67l.34-.67h.67a9,9,0,0,1,5.37-1.34h2.35v.34l2.35.34v.34h.67v.34h1v.34l2,.67v.34h.67v.34h.67v.34l2,.67v.34l1.34.34v.34h1v.34c1,.46,3.64,1.56,5.37,1v-.34h1v-.34l2-.67v-.34h.67v-.34l1.34-.34.34-.67,2.35-.34v-.34h.67v-.34h1.68v-.34c2.4-.7,7.55.55,9.07,1l3.69.34v.34h1c.86.3,3.29,1.07,4.7.67v-.34h2v-.34l2-.67v-.34h.67v-.34l1.34-.34.34-.67h.67v-.34h.67v-.34c1.16-.66,2-.88,2.69-2-.8-.56-.22-.23-.67-1h-.34v-.67h-.34v-1.34l-.67-.34v-.67h-.34v-.67h-.34v-.67h-.34v-.67h-.34v-.67h-.34v-.67l-.67-.67v-.67l-1-.67-.34-1.34-.67-.34v-.67h-.34v-.67l-1.34-1c-1-1.46-1.28-2.91-3.36-3.36V247h.34l-1-1.68h-.67V245l-3,1v.34l-4,.34V247l-3,.34v.34h-1.34V248h-2.35v.34l-15.11,1h-4.37a.89.89,0,0,0-1-.34c-1.77.38-4.62-.07-6.72.34v.34c-.41,0-.85-.55-1.68-.34v.34c-1.62.44-5.91,0-7.05-.34-1.84-.52-4.75.12-6.38-.34h-4v-.34h-2.35v-.34h-3V248h-1v-.34l-3.36-.34v.34l-1.68-.34v.34c-.6.53-.29.66-.67,1.34h-.34v.67l-.67.34-.34,1.68h-.34v.67h-.34v.67l-.67.67v.67l-.67.34v1H97.8l-.34,1.34h-.34l-.34,1.34-.67.34-.34,2h-.34v.67h-.34v.34h.34c1,1.06,2.92.45,4.37,1v.34h1v.34h1v.34h1v.34l1.34.34v.34h.67v.34h1v.34l1.34.34v.34h1c.89.4.94.84,2.35,1,1.31-3.11,2.7-6.62,4-9.74l1,.34c-.17.35-.63.59-.67.67l-.34,1.68h-.34l-.34,2h-.34l-.34,1.34h-.34v1h-.34v.67h-.34v1l-.67.34Zm55.07-9.4c-.38-1.34.41-3.15-.34-4-.38-.38,0-.14-.67-.34v.34H165a29.91,29.91,0,0,0,1.34,8.06v1.68a17.39,17.39,0,0,1,1,2.69h1Zm-22.83,8.73a14.28,14.28,0,0,1,.67,4.37h1l-1-13.43h-1Zm44.32,4.37a12.25,12.25,0,0,0-1-5.37h-.67c-.76,1.27-2.12,1.54-3.36,2.35l-.34.67-2,.67-.34.67h-.67v.34h-.67v.34h-1.34v.34a7.19,7.19,0,0,1-3.36-.34h-2v-.34h-1.34v-.34h-1v-.34l-3.36-.34v-.34H164c-.7-.2-2.62-.89-3.69-.67v.34c-.58.09-.67-.34-.67-.34l-3,.34v.34h-1v.34h-1v.34h-1v.34h-1v.34l-1.34.34-.67,1-1.34.34-.34.67h-1v.34c-1.53.49-5.21-.9-6-1.34v-.34l-1.34-.34v-.34h-.67v-.34h-.67v-.34h-.67v-.34h-.67v-.34h-.67v-.34h-.67v-.34l-2-.67v-.34h-1.34v-.34h-1.34v-.34h-1.34v-.34a7.2,7.2,0,0,0-3.36.34l-3,.34v.34h-.67v.34h-.67l-.34.67-2,.67v.34H119c-.55.18-1.71.92-2.69.67v-.34h-1.68v-.34h-.67v-.34l-1.68-.34v-.34l-1.34-.34v-.34h-1v-.34h-.67v-.34l-2-.67v-.34h-1v-.34h-.67v-.34h-1v-.34l-1.34-.34v-.34h-1v-.34h-1a22.36,22.36,0,0,0-6.38-1.34c-.24.42-.95.9-1,1l-.34,2.35H93.1l-.34,2h-.34c-.12.46.1,0,.34.34,1.13.94,1.51-.26,2.69,0v.34h3v.34h1.68v.34h1.68v.34l1.34.34v.34l2,.67v.34l1.34.34v.34h1v.34h.67v.34h1v.34l4.37.34v.34h3.69v-.34l3-.34v-.34h1.34v-.34c1.24-.41,7.24-1.22,9.07-.67v.34h1.34v.34h1v.34h.67v.34h1v.34l1.34.34v.34h1.34v.34h1v.34h1v.34h1v.34h.67v.34h1.34c1.2.41,5.33,1.33,7.39.67v-.34l2-.34v-.34h.67v-.34h1v-.34h.67v-.34h.67v-.34l1.34-.34v-.34h1.34v-.34h1.68v-.34c2.39-.69,8.42.54,10.07,1H172v.34h4.37v-.34h2.69v-.34h1.34v-.34h1.34v-.34h1.34v-.34h1v-.34h1v-.34h1v-.34h.67v-.34Zm-91.33,0v1.34h.34v4.7h.34v.34h-.34l.34,1v.34h-.34v2.35h.34l-.34,1V290h-.34v4h-.34v2.69h-.34v3.69h-.34v1h-.34l-.34,3.69h-.34v1.34h-.34v2.35h-.34l-.34,3.36H93.1v1.68h-.34v.67h-.34v2.35h-.34v1.34h-.34v1.34h-.34v1.68h-.34v1.34h-.34l-.34,3.36h-.34l-.34,3.69h-.34v.67h-.34v1.34h-.34v2H88.4V335h-.34v1.34h-.34l-.34,4h-.34v1.68h-.34l-.34,3H86v2h-.34v1.34h-.34v1H85v1.68h-.34v1h-.34v2H84v1.34H83.7v1.68h-.34l-.34,4.7h-.34l-.34,2.69H82l.34,1H82v2h-.34v1.34h-.34v3H81l.34,1H81v1.68h-.34v1h-.34v2.69h.34v.34c4.16.33,7.44,1.62,12.09,1.68,0-1.17-.37-2.33-.34-3l.34-1h-.34l.34-3h-.34l.34-3.36h-.34v-7.72a23.22,23.22,0,0,1-.67-6v-3.69c-.57-2-.33-5.46-.34-8.06L91.09,338h.34l.34-6.38-.34-.34.67-.34v-1h.34l-.34,11.42h.34v5.37h.34v.34h-.34v1.34h.34l-.34,2.69h.34v5.71h.34v3.36h.34v4h.34v4.37c0,4.24-.56,9.92.67,13.1l3,.67v.34h.67V383h1v.34h.67v.34h.67V384h.67v.34h1v.34h.67V385l1.68.34v.34h1V386h.67v.34l2,.34v.34h.67v.34l4.7,1v.34l2.69.34v.34h1v.34h1v.34H120v.34h1.34v.34h1.34v.34h2v.34h4c.46.07.83.54,1.68.34v-.34h3.36v-.34l1.34.34v-.34h2.69v-.34h.67v-.34h.67v-.34l3.69-1v-.34h.67v-.34l1-.34.34-7.05h-.34v-1.34l-.67-.34v-.67h-.34V378h-.34a19.7,19.7,0,0,1-1-6.38c-.82-.47-1.1-1.27-1.68-1.68h-.67l-.34-.67h-.67l-.34-.67h-.67l-.34-.67-2-1.68v-.67h-.34c-.32-.41-.25-.65-.67-1v-2h-.34v-.34h.34l.34-2.35h.34a6,6,0,0,0,.67-2.69h1l.34-2.35h-.67a4.08,4.08,0,0,1,0-2.35h.34v-2.69h.34V347.1h.34l.34-3.69h.34v-2h.34V338.7h.34l1-18.13h.34v-2.69h.34v-5.37c.4-1.58.34-8,.34-12.09v-5h.34v-9.07h.34l.34-7.39s-.23-.05-.34-.67c-4.58-1.87-10.71-4.85-16.79-3H123v.34h-1v.34h-2l-.34.34c.5,1.52-.12,9.52-.67,11.42l-.34,4.7c-.74,2.39-1.27,5.6-2,8.06v2h-.34v1h-.34v1.34h-.34l-.34,3h-.34v1h-.34v1h-.34v1.68h-.34l-.67,5h-.34v1h-.34l-.34,1.34h-.34v1h-.34c-.38.38,0,.13-.67.34v-.67c.09-.22.81-.17.67-.67,0-.18-.87-.06-.67-1h.34v-.67h.34l.67-4h.34l.67-3.69h.34v-1h.34v-1h.34l.34-3h.34v-1.34h.34v-1h.34v-2h.34v-1.68c1.94-6.2,2.88-14.25,3-22.16a14.46,14.46,0,0,1-7.05-.34h-1.68v-.34l-2-.67v-.34h-1v-.34h-.67v-.34h-1l-.34-.67h-.67v-.34h-.67v-.34Zm56.08,45.67h.67a20.11,20.11,0,0,1,1-5.71v-1.68h.34v-1.34h.34V306.8h.34v-1.34h.34v-1.34h.34v-1h.34l.34-1.34h.34l.34-2h.34l.34-1.68h.34v-.67h.34v-1h.34v-.67h.34l.34-1.34h.34v-1h.34v-.67h.34v-1l.67-.34v-.67h.34v-1h.34l.67-2h.34l.34-1.34L164,286v-.67l.67-.34v-.67l.67-.34v-.67l1-.67.34-1h1L168,284h-.34v1.68s.4.14.34,1h-.34V287H168V295c.86,3,.81,7.12,1.68,10.07v2H170l-.34,1H170v1.68h.34l.67,4.37h.34v.67h.34l.67,3.36H171l-1-4.37h-.34l-.34-3H169l-.67-7.05H168v-2.69h-.34V297.4c-1.1-3.87-.61-9.61-.67-14.44h-.67a2.42,2.42,0,0,1-.67,1.68h-.34v1l-1,.67-.34,1.34-.67.67V289h-.34v.67h-.34l-.34,1.68h-.34V292h-.34v.67h-.34l-.67,2h-.34l-.67,3h-.34v.67h-.34l-.34,2-.67.34v1h-.34v1h-.34v1h-.34v1h-.34v1.34h-.34v1h-.34l.34,1h-.34v.67h-.34l-.34,3h-.34v1.68h-.34l.34,1h-.34l-.34,5.37h.34l.67,2h.34l.34,7.05h-.34v2.35h-.34v1.34h-.34v.67h-.34v1h-.34l-.67,2h-.34l-.34,1.34-.67.34-.34,1.34-1.34,1v1h-.34a3.93,3.93,0,0,0-1,1.68h-.67l-.34,1-.67.34v.67l-1,.67v.67h-.67c-.34,1.3-1,1.06-1.34,2.35h-.67a2.69,2.69,0,0,1-.67,1.34h-.34v.67h-.34l-.67,1-.67.34v.67l-.67.34-.34,1.34-1,.67v.67l-.67.67v.67h-.34v.67l-.67.34v.67h-.34v1h-.34v.67h-.34l-.34,3.69h.34v1h.34v.67l.67.34,2,2.35h.67l.34.67a6.54,6.54,0,0,0,2.35,1l-.34-3.36h-.34v-4.37h.34v-4.7h.34v-1.68h.34v-2h.34V352.8h.34v-1.68h.34l.34-1.68.67-.34.34-1h.34v1c-.69.74-.3,1.62-.67,2.69h-.34v1h-.34v1.34h-.34v2h-.34v4.37h-.34l-.34,4.37h.34v3.69h.34v1.34h.34a.53.53,0,0,1-.34.67v.34h.34v2l3,9.07c.67,2.29-.37,6-.67,7.72l3.69.34v.34c1.7.47,6.5,0,7.72-.34h3.36v-.34h2.35v-.34h3v-.34H168v-.34h1v-.34h1.34v-.34c1.78-.68,3.49-.36,4-2.35,1-1,1.08-3.54,1.68-5h.34v-1h.34v-1H177l.67-3.36h.34v-.67h.34v-1h.34v-1h.34v-1h.34v-1.68h.34l.34-3h.34v-1.34h.34v-1h.34v-2h.34V361.2c.54-1.65.68-3.9,1.34-5.37h.34v.34h.34v.34h-.34v2.35h-.34v2.69h-.34v1.34h-.34v1.68h-.34v1h-.34v1.34h-.34v1.68h-.34v1.68h-.34v1h-.34v1h-.34v1h-.34V374h-.34l-1.34,5.71a12.7,12.7,0,0,0,5.37-1.34l2-.34v-.34h1.34v-.34h1V377l2-.67V376h.67c1.29-.82,2.33-2.22,4-2.69l-.67-3.36h-.34l-.67-4.37c-.9-2.62-1.82-5.76-2.69-8.39v-2h-.34v-2h-.34v-3.36c-.77-2.61-.92-6.45-1.68-9.07l-.34-9.4h-.34V331h.34v-3.36c-1.19-4.19.12-8.45-1-12.42v-4.7h-.34v-8.06c0-5.42.58-12.4-.67-16.79v-3.36h-.34c-.66-2.31.37-5.47-.34-7.39a20.83,20.83,0,0,0-3.36,1.34H179.4a19.21,19.21,0,0,1-6.38.67l-3.69-.67v-.34H167v-.34l-6.72-.34v.34h-1.34v.34l-2.69.34v.34l-1.34.34v.34h-.67v.34h-.67v.34h-.67l-.34.67c-.87.62-.61-.36-1,1l-2.69,5.71v1h-.34V287h-.34l-.34,2h-.34v1h-.34v1h-.34v3.36h-.34v2.69h-.34c-.11.68.34.67.34.67l.34,7.05h.34v1.68h.34v1.34h.34v.67h.34l.34,2,.67.34.34,1.68.67.34.34,1.34,1,.67v.67h.34v.67h.34Zm-2-39.62c.38.38,0,.13.67.34C150.81,277.54,151.19,277.79,150.52,277.59Zm-8.06,1v8.73h-.34l.34,1.34a57.12,57.12,0,0,0-.34,6.38,8.45,8.45,0,0,0,.34,1.68h-.34l.34,1.68h-.34l.34,1.68h-.34l.34.67a22.23,22.23,0,0,1-.34,7.05v6.72h-.34l.34,1.68h-.34v3.36h-.34v3.36h-.34v3.36h-.34v7.39h-.34l.34,1.34h-.34l-.34,5h-.34v2h-.34l-.34,3h-.34l.34,1h-.34l-.34,4h-.34v1.68h-.34l.34,1.34-.67.34c0,.47.06-.05.34.34l-.34,1h.34c.23-.42.53-.46.67-.67v-.67c.61-.86,1.28-.56,1.68-2h.67c.4-1.56,1.71-2.66,2.69-3.69l.67-.34.34-1,1.34-1v-.67l.67-.34v-.67l1.68-1.34v-.67l.67-.34.34-1h.34v-.67l.67-.34v-.67l1-.67.34-1.34.67-.34v-.67h.34V335h.34v-1h.34v-.67h.34V332h.34v-1.34h.34v-2h.34l-.34-5h-.34v-.67h-.34v-1h-.34v-1h-.34v-1h-.34v-.67h-.34v-.67h-.34l-.34-1-.67-.34v-.67l-.67-.67v-.67h-.34v-.67h-.34v-.67l-.67-.34-.34-1.34-.67-.34-.34-1.34h-.34l-2-8.73v-5.71h.34v-2.69h.34v-2h.34V290h.34v-1h.34v-.67h.34V287h.34v-.67h.34l.34-2,.67-.34v-.67h.34l1.34-4-4,.34v-.34h-2.35v-.34Zm-42,68.16-.67-3h-.34v-.67h-.34l-.34-2.69h-.34v-1h-.34v-1.68c-.8-2.57-.9-6.42-1.68-9.07l-.34-7.05h-.34v-2.35h-.34v-4.37h-.34c-.87,2.45-.32,10.15.34,12.42v2.35h.34V332h.34v3h.34l.34,3h.34v1.68h.34v1.34h.34v1h.34v1.68h.34l.34,1.68h.34v.67h.34v1l.67.34v1a15.45,15.45,0,0,1,1.34,3.36h1C102.26,349.83,101.14,348.26,100.49,346.76ZM177,381c-.16,2.4-1.22,4.18-2,6h2.35v-.34c.6-.45,1.55-.05,2.35-.34V386h1v-.34h.67v-.34h1V385h.67v-.34l1.34-.34V384l3-.67V383l3-1v-.34l1.34-.34V381h1l.67-1c1.28-.85,2.07.11,2.35-2-.8-.72-.93-2.6-1.34-3.69h-.67c-.6.9-1.44,1.07-2.35,1.68l-.34.67h-.67l-.34.67-1,.34V378l-3,1v.34l-1.34.34V380h-1C181.61,380.86,180.19,381,177,381Zm-96.71-1c-.22,1-.58.8-.67,1v2a6.26,6.26,0,0,0-1,1c2.24.08,3.9,1.1,5.71,1.68l9.07,1v-.34H93.1V384h-.34c-.07-.47.29.14.34-.34.06-.75-.34-.67-.34-.67v-1.68a22.93,22.93,0,0,1-7.39-1h-4V380Zm13.77,7.39c1.53,0,1.61.39,2.69.67v.67c.67.36,1.37,1,2,1.34h.67l.34.67h.67l.67.67h.67v.34h.67v.34l1.68.34.34.67h.67v.34l4,.67v.34h.67v.34h1v.34l3,.34v.34h1.34v.34h1.34v.34h1.34v.34h1.34v.34h2v.34c1.68.48,6.52,0,7.72-.34h4v-.34h1.68v-.34h1v-.34h1.34v-.34h1.34v-.34h1.34v-.34h.67v-.34l3-.67.34.67h1v.34h1v.34h1.34v.34h2.69v.34l6,.34v-.34h4v-.34h1v-.34l5-.67v-.34h.67v-.34h1.68v-.34H169v-.34c1.35-.58,2.27-.22,3-1.34a10.56,10.56,0,0,0,1.34-4c-1.41.14-1.47.62-2.35,1h-1v.34h-.67v.34H168v.34h-1.34v.34h-3v.34h-1.68v.34h-2.69v.34l-1.68-.34c-1.31.3-5.94.83-7.72.34a17.42,17.42,0,0,0-3.69-.67c-.59,1.78-.16,2.7-2.69,2.69l.67-3.36a1.34,1.34,0,0,1-.67-.67c-.65.3-1.67.75-2.35,1h-1v.34l-2,.67v.34l-7.72.34v.34c-2.54.7-8.13-.48-9.74-1h-1.34v-.34h-2v-.34h-.67v-.34h-1.34v-.34h-1v-.34l-3-.34v-.34h-.67v-.34h-1.34v-.34h-1v-.34h-1.34v-.34h-1v-.34l-1.34-.34v-.34h-.67v-.34l-3-.67-.34-.67h-1v-.34h-.67v-.34L97.47,384v-.34h-1c-.63-.25-1.65-.72-2.35-1v1a6.91,6.91,0,0,1,.67,2.69l-.67.34ZM148.84,421a17.83,17.83,0,0,1,5,1h2v.34h3.69c1.23.36,3,.74,4.37,1v1l2,1.68.34,1.34,1,.67.34,1.34.67.34v.67l.67.34.34,1h.34l.34,1.34.67.34v.67l.67.34.34,1.68H172v.67h.34v.67h.34v.67H173v.67h.34v.67h.34l.34,1.34.67.34.34,1.34h.34l.67,2h.34v1h.34l.34,1.34h.34l.34,1.68h.34l.34,2.35.67.34v.67h.34c.31.46.23.59.34,1.34,2.77.42,6.8,2.13,7.05,5h-.34v.34h-.67c-.77-1.26-2.11-1.55-3.36-2.35l-.34-.67h-1v-.34h-.67v-.34h-1.34v-.34l-2-.67.34-1h1.34v-.34c-1.09-.8-.77-1.75-1.34-3H177l-.34-1.34h-.34v-1H176l-.34-1.34h-.34v-1l-.67-.34v-1l-.67-.34v-.67h-.34v-.67l-.67-.67v-.67l-.67-.34-.34-1.68-.67-.34v-.67H171v-1h-.34v-.67h-.34v-.67l-.67-.34-.34-1.34-.67-.34-.34-1.34-.67-.34-.34-1.34-.67-.34V429h-.34v-.67c-.12-.18-.46-.28-.67-.67-4.29.78-8.21,1-12.09-.34H152.2V427c-.29-.11-2.69-.67-2.69-.67v.34h-.34V429h-.34v1.34h-.34V432h-.34l.34,1.34-.67.34v1.34h-.34v1.34h-.34v2.69h-.34v1.68h-.34l.34,7.39c1.4.95.94,2.21,3.36,2.35a9,9,0,0,0,5.37.67v-.34c.78-.34,2.34-1.17,3.69-.67v.34h.67l.34.67h.67l.34.67h.67l.34.67h.67l.34.67,1.34.34v.34l2,.67v.34h1v.34h1v.34H170v.34h1.68v.34H174v.34l1,.34v.34h.34v.67l1.34,1v.34h.67l.34.67h1v.67l3.69.34v-.34h2v-.67a2.7,2.7,0,0,0,1.68-.67v-.34l3,.34v-.34h1.34v-.34c.89-.6.83-.61,2.35-.67v-.67l-2-2.35h-.67l-.34-.67-3-1v-.67a7.79,7.79,0,0,1,6.38,3.69h.34v.67h.34l-.34,1h1.34a4.28,4.28,0,0,1,1.34-1.68v-1.34c-1.36-.31-1.18-1.08-2-1.68h-.67l-.34-.67h-.67l-.67-1h-.67l.34-.34v-.34h1.34c.65,1,2.06,1.31,3,2,.7.51.91,1.52,1.68,2a9.06,9.06,0,0,0-1.34,2.69,6,6,0,0,0,3-1l.34-1.68c-1.79-1-2.73-3.17-5-3.69v-1h1.34v-.67c-.84-.55-.77-1.2-1.34-2l-1.68-1.34v-.67l-1.34-1-2.69-3h-.67l-2.69-3-1.34-.34-1-1.34-1.34-.34-.67-1h-.67l-.67-1h-.67l-1-1.34h-.67l-.67-1-4.37-4-1.68-2H170a8,8,0,0,0,1.34,2.35V429l1.34,1,.34,1.68,1,.67.67,2,.67.34.67,2,.67.34.34,1.68h.34v.67h.34l.67,2h.34l.34,2,.67.34.34,2h.34v.67h.34a22.16,22.16,0,0,1,1.34,6h-.34v.34h-.34v-.34h-.34l-.34-2.35h-.34v-1.34h-.34l-.34-1.68h-.34v-.67h-.34v-1h-.34v-.67h-.34v-1h-.34l-.34-1.34h-.34v-.67H177v-1l-.67-.34-.67-2-.67-.34v-.67h-.34v-.67h-.34v-.67l-.67-.67v-.67l-.67-.34v-.67h-.34v-.67l-.67-.67v-.67l-.67-.34L171,429.7l-.67-.34-.34-1h-.34l-.34-1.34-1-.67v-.67l-.67-.34v-.67l-1-.67c-.3-.45-.24-1.34-.67-1.68h-.67l-.34-.67h-2V422h-1l.34-1c.87-.06,2.45-.76,2.69-.67v.34h.67c.36.18.42,1.25,1.34,1l.34-.67,1-.34-.34-1a.63.63,0,0,0,.34-.67.58.58,0,0,1-.34-.67h.34v-2l-.34-.67h.34v-1.68h.34c.59-2-.24-5.43.34-7.39v-3.36h.34l.67-8.06h-.34v.34h-1v.34H168v.34h-.67v.34h-.67v.34h-1v.34h-1v.34h-1.68v.34h-1.68v.34h-1.34v.34h-2.69l-7.39-.34a13.89,13.89,0,0,0-3.69-.67v.34c1.29,1.45,0,4.14.67,6.38h.34v3.36h.34l-.34.67h.34v2.69h.34v2.69h.34v2h.34v1.34h.34v1.34h.34c.12.46-.26-.13-.34.34V419h.34Zm-32.91-22.16a34.93,34.93,0,0,0,1.34,5l.34,4.37h.34c.44,1-.1,1,0,1.34h.34v3h.34c.57,2-.44,5.8.67,7.05V420h1c.58-1.37,1-1.73,3-1.68,1.24,3.08,1.9,2.49,6,2.35.72-.65,4.51-.69,6-.67a15.78,15.78,0,0,0,.34-4.7c.66-.76,0-2.17.34-3.36h.34v-3.69h.34v-3h.34V402.5h.34a5.31,5.31,0,0,0-.34-4c-1.47.56-3.5.88-5,1.34h-2.69v.34h-5v-.34l-1,.34v-.34h-2v-.34h-2A8.5,8.5,0,0,0,115.93,398.81Zm5,20.48a3.3,3.3,0,0,1-.34,1.68h-.34l.34,1h-.34l-.34,2a15.45,15.45,0,0,1,3-.34v-1h.34l.34-1.34h-.34c-.19-1.05-.33-1.41-1.34-1.68v-.34Zm2.69,4.37,1,.34v-.34l1.34-.34,1,.34v-.34h2.69V423l2-.34v.67l-4.37.67v.34h1c.4-.29,2,0,3.36,0,2.52,0,3.75-.63,6-.67a2.26,2.26,0,0,1,1-1,3.56,3.56,0,0,1-.34-1.34,3.32,3.32,0,0,1-1.34-1.34l-1,.67V421h-.67v.34h-2.69v.34c-2,.57-6.78-.79-8.06.34A2.78,2.78,0,0,0,123.66,423.65Zm-7.39-3.36-.34,2h.34c.24.93.09.75,1,1,.45.53.73.58,1.68.67a7.9,7.9,0,0,1,1-2.69h-.34C119,420.72,117.25,420.47,116.27,420.3Zm48.35,6.38V426c-1.18-.71-1.12-1.57-3-1.68-.88-.75-2.69.05-4-.34v-.34h-1.68v-.34h-1.68a22.79,22.79,0,0,0-6.38-1.68V422h-.34l-.34,2a44.54,44.54,0,0,0,6.38,2.35l3,.34V427ZM126.34,424c.38.38,0,.13.67.34C126.63,423.94,127,424.19,126.34,424Zm-11.42,26.53c-1.27-.29-1.37-.78-1.34-2.35-.64-.79.56-3.42.67-4.7a33.69,33.69,0,0,1,1.34-7.39V434.4h.34l.67-5h-.67c-.49,1.83-2.2,2.22-3.36,3.36l-2.69,3.36h-.67l-.34.67-1,.34v.34h-.67l-.34.67c-1.23,1.16-2.47,2.55-4.37,3-.37,1.38-1,1.3-2,2l-1,1.34h-1l-2,2.35-1,.34-.34,1h-.67a23.53,23.53,0,0,1-2.35,1.34c-.12,1.08-.67,2.91-.34,3.36.45.69.55.63,1.68.67v.34h1c-.4-1.56-.67-1.16-.34-3,2.19-1.16,3.69-3,6.72-3.36v.67c-2.39.43-5.48,2.09-5.71,4.7a2.27,2.27,0,0,1,1.34,1.68,17.39,17.39,0,0,0,2.35.67,5,5,0,0,1,.67-3c.59-2.29,3.05-3.12,4.37-4.7h1c-.41,1.5-1,1.26-2,2v.34a6.31,6.31,0,0,0-2.35,5c.36.2.54.59.67.67h.67v.34h2.69a2.53,2.53,0,0,1,1.34-1l-.34-2c1.84-1.08,2.59-3.18,5.37-3.36v.67h-.67c-1.05,1.71-3.08,1.77-3.36,4.37h.34c.25.31.29,1.46.67,1.68h1.68v.34h1.34v.34c1,.19.87-.27,1-.34h.67c.44-.34.34-1.23.34-2h-.34v-1c1-.7,1-2,2.35-2.35v-.67a4.11,4.11,0,0,0,1.68-1v-.34h1v-.34c.63-.22.85-.12,1.34-.34v.34h.34v.34H119c-.6.66-.74.28-1.34.67l-.34.67h-.67l-1,1.34h-.34v.67l-.67.34v.67h-.34v.67h-.34l-.34,1h.34c.59,1,1.66,1.19,2.35,2,1.27,0,3.68.29,4.37-.34l1-.34v-.34h.67l.34-.67h.67v-.34a6.52,6.52,0,0,0,2-2.69c.67.19.29,0,.67.34s.06-.05.34.34H126v.34h2c.53-.85,1.21-.77,2-1.34l1-1.34h.34c.92-1.36.38-2.82,2.35-3.36v.34h.34l-.34,1h.34c.61.7,2.52.92,3.69,1l.67-1c1.08-.68,1.15.58,1.68-1.34.59-.57,1.11-4.21.67-5.71h-.34V439.1h-.34v-1.68h-.34v-1.68c-1.13-3.49-2-7.19-3.36-10.41-4,1.62-8.87.43-13.77.34-.15,2.14-1.08,3.53-1.68,5l-.67,3.36H120v2h-.34v1h-.34l-1,4.7h-.34v2.35h-.34v1h-.34l-.67,4h-.34v-.34h-.34v-1.34h.34v-1h.34v-1.68h.34v-3h.34v-1h.34l.34-3h.34v-1h.34v-2H119v-.67h.34l.67-3.69a20.35,20.35,0,0,0,1.68-5.71l-1.68-.34v.34c-1.92,1.31-1.23,4-2,6.38h-.34v1.68h-.34v1h-.34v1.68h-.34l-.34,3.69h-.34v1.68h-.34l-.34,3.69h-.34v1h-.34Zm9.74,6a10.64,10.64,0,0,0-2.35,1.34h-.67v.34l-6.72-.34-.34-.67h-2l-.34.67H110.9v-.34h-2.35v-.34l-2-.67v-.34l-5.37.34v-.34h-.67v-.34a.52.52,0,0,0-.67.34c-.47.08.13-.26-.34-.34l-1.68.34v-.34h-.67v-.34H95.79v-.34l-4.37-.34v-.34l-2-.67v1h.34c1.32,1.59,6.1,2.32,8.39,3h1.68c4.54,1.38,10.07,1.33,16.12,1.34l3.69.34s.11-.28.67-.34H122l.34-.67h1.34v-.34h1.68v-.34h2.35v-.34h1v-.34h1v-.34l1.34-.34v-.34l2-.34v-.34l1-.34.34-.67,1.34-.34.34-.67h.67v-.34a2.73,2.73,0,0,1,1.34-.67v-.67c.93-.24.75-.09,1-1l-1.68.34v.34l-3.69-.34-.34-.67h-.67l-2,2.35-1.34.34-.34.67h-.67v.34h-.67v.34h-1.34l-.34.67h-.67v.34C124.83,456,124.89,455.72,124.66,456.56Zm73.2-5.71v1c1.39.83,1.74,2.43,3.69,2.69v-.67C200.28,452.8,199.85,451.29,197.87,450.85ZM121,459.92v.67h-13.1v-.67a31.36,31.36,0,0,1-10.41-1.34l-3.36-.34v-.34h-.67v-.34h-1a7.1,7.1,0,0,0-3-1c0,1.28-.27,3,0,3.36l.34,1,2,.34.34.67h1.34v.34h.67v.34h1.68v.34h1.68v.34h2.35v.34h2v.34h3.69v.34h3.36v.34h2v-.34h.34v.34h3.69v-.34h2.35v.34c.57.1.58-.31.67-.34h3.36v-.34h3.36v-.34l3-.34v-.34H129c1.64-.65,3.16-1.93,5-2.35v-.67l3-1v-.34h.67l.67-1h.67v-.34h.67v-.34h.34v-.34h.34V452.2h-.34c-.7,1.13-1.64,1.28-2.69,2l-.67,1-1.34.34-.34.67h-.67v.34l-1.34.34v.34h-1.68v.34h-1v.34h-1v.34h-1v.34h-2v.34c-1,.3-1.62-.08-2.35.34l-.34.67Z"/></g></g></svg>