<svg xmlns="http://www.w3.org/2000/svg" viewBox="0 0 270.73 125.42"><defs><style>.cls-1{fill:gray;}</style></defs><title>concept-text-en1</title><g id="レイヤー_2" data-name="レイヤー 2"><g id="ナビ"><path class="cls-1" d="M77.19,6.47c-3.5.76-4.64,2.36-7.45,8.59C64,27.91,59,38.32,54.77,49c-1.14,2.81-1.75,4.86-2.43,6.31a2.69,2.69,0,0,1-1.29.3,2.44,2.44,0,0,1-1.37-.3c-1.6-4.71-6.38-14.52-9.42-21.05-3.42,6.92-6.76,13.91-9.65,21.05a2.68,2.68,0,0,1-1.29.3,2.44,2.44,0,0,1-1.37-.3c-1.22-3.42-3.12-7.52-5.32-12.16L7.95,12C6.35,8.6,5.59,7.38,2.48,6.62L.35,6.09A1.48,1.48,0,0,1,.58,4c2.74.15,5.93.23,9.2.23,2.74,0,5.62-.08,9.27-.23a1.63,1.63,0,0,1,.23,2.13l-1.9.46c-1,.23-1.75.53-1.75,1.22s.53,2.2,1.82,5.09l9,19.61c2.66,5.78,4.56,9.73,5.32,10.94,1.6-3,3.27-6.61,5.09-10.56A11.61,11.61,0,0,0,38,30a6.89,6.89,0,0,0-.68-2.28l-8-16.87C27.86,7.76,27,7,24.9,6.55l-2.2-.46A1.48,1.48,0,0,1,22.92,4c3.12.15,5.63.23,8.21.23,3,0,6-.08,9-.23a1.54,1.54,0,0,1,.15,2.13l-2.05.46C37.44,6.7,37,7.08,37,7.61a6.8,6.8,0,0,0,.68,2.51c1.67,3.8,3.42,7.68,5.17,11.1,1.29-2.58,2.51-5.4,3.72-8.21a19,19,0,0,0,1.67-5.24c0-.53-.46-.91-1.52-1.14l-2.13-.53A1.52,1.52,0,0,1,44.81,4c2.05.15,4.18.23,7.07.23,2.66,0,4.48-.08,6.92-.23a1.45,1.45,0,0,1,.15,2.2L57,6.55c-2.81.53-3.57,1.44-6,5.93-1.67,3-3.57,7.14-5.25,10.56A10.53,10.53,0,0,0,45,25.17,7.83,7.83,0,0,0,45.65,27l3.27,7.07c1.6,3.42,3.57,8.06,4.26,9.35,3.88-9,8-19.08,12-28.73,1.29-3.12,2.36-6.08,2.36-7.07,0-.53-1.37-.76-2.58-1.14l-1.29-.38A1.31,1.31,0,0,1,63.74,4c2.81.15,5.17.23,7.75.23s4.94-.08,7.3-.23A1.52,1.52,0,0,1,79,6.09Z"/><path class="cls-1" d="M95.27,25.7c0,.91.15,1.29.68,1.29a16.4,16.4,0,0,1,9.73-3.65c6.54,0,9.73,4.18,9.73,10.64V45.31c0,5.62.3,6.54,2.89,6.84l1.75.23a1.39,1.39,0,0,1-.15,2.2c-3.19-.15-5.78-.23-8.59-.23q-3.76,0-7.75.23c-.61-.3-.68-1.67-.15-2.2l1.14-.15c2.58-.38,2.89-1.29,2.89-6.92V34.59c0-3.65-1.6-6.69-6.08-6.69a7,7,0,0,0-5.17,2.2c-.84.91-.91,2.05-.91,5V45.31c0,5.62.3,6.54,2.89,6.92l1.14.15c.53.53.46,1.9-.15,2.2-2.66-.15-5.24-.23-8.06-.23-2.43,0-5,.08-8.21.23-.61-.3-.68-1.67-.15-2.2l1.67-.23c2.58-.38,2.89-1.22,2.89-6.84V12.7c0-5.09-.15-5.55-1.75-6.61l-1.06-.68c-.46-.3-.53-1.52,0-1.75,3-.84,6.84-2.43,10-3.65A1,1,0,0,1,95.5.62c-.15,3-.23,7.75-.23,11Z"/><path class="cls-1" d="M153.26,44.7c-.23,4.41.91,6.69,3.65,6.69a7,7,0,0,0,2.58-.84c.38,0,.91.84.68,1.52-1.52,2.13-5.24,3.34-7.6,3.34a7.26,7.26,0,0,1-5.47-2.13c-.53-.53-.84-.91-1.22-.91s-.91.38-2.05,1.06a12.26,12.26,0,0,1-6.46,2c-5.17,0-7.75-3.57-7.75-7.37,0-2.74,1.06-5.24,6.31-7.07,2.66-.91,5.55-2,8.36-3,1.52-.53,1.75-1.22,1.75-2l.08-2c.15-3.88-.91-7.22-4.64-7.22a3.73,3.73,0,0,0-4,3.34A3.25,3.25,0,0,1,136,32.85a10.46,10.46,0,0,1-4.86,1.37c-1,0-1.44-.53-1.44-1.22,0-.91.46-2.51,3-4.86,2.36-2.2,7.83-4.79,11.7-4.79,6,0,9.73,2.81,9.42,9.5Zm-7.45-2.58c0-.84-.23-1.29-.61-1.29a12.39,12.39,0,0,0-3.34.91c-2.13.76-4.1,1.82-4.1,5.09A4.26,4.26,0,0,0,142,51.24c2.74,0,3.57-1.82,3.65-3.65Z"/><path class="cls-1" d="M181,27.75c-1.37,0-1.44.15-1.44,2.58V42c0,4.79.68,9,5.55,9a5.86,5.86,0,0,0,3.65-1.37,1.19,1.19,0,0,1,1,1.52c-1.52,2.13-5,4.18-9.65,4.18-7.22,0-8.51-4.18-8.51-9.5V30.49c0-2.66-.15-2.74-1.37-2.74h-2.66a1.25,1.25,0,0,1-.23-2.05,24.48,24.48,0,0,0,6-3.19,14.2,14.2,0,0,0,4.18-4.71,1.62,1.62,0,0,1,2.13.38v4.56c0,1.22,0,1.44,1.44,1.44h7.52c.46.23.61.84.61,1.6a2.4,2.4,0,0,1-1,2Z"/><path class="cls-1" d="M210.72,9c0,5.78-5.17,10-10.41,11.32a1.81,1.81,0,0,1-.53-2c3.27-1.37,6.16-3.57,6.16-6.92,0-2.51-2.28-3.72-4.1-4a2.68,2.68,0,0,1-2.36-2.74c0-1.29.91-3.57,4.33-3.57C207.52,1.15,210.72,4.8,210.72,9Z"/><path class="cls-1" d="M216.72,53c-.76-1.44-1.22-5.32-1.06-8.59a1.54,1.54,0,0,1,2.13-.15c1.37,4.26,4.18,8.28,8.21,8.28a4.07,4.07,0,0,0,4.26-4.26c0-2.81-2.51-4.64-5.17-5.93-4-1.9-8.06-4.71-8.06-9.58-.08-5.93,5-9.42,11.32-9.42a16.55,16.55,0,0,1,7.07,1.52c.76,1.6,1.14,4,1.14,7.37a1.52,1.52,0,0,1-2.05.38c-1.14-3.5-3.57-6.38-6.54-6.38a4,4,0,0,0-4.26,4c0,2.2,2.2,3.8,5.09,5.17,4.1,2,8.44,4.56,8.44,10.56,0,6.61-5.85,9.5-11.86,9.5A14.27,14.27,0,0,1,216.72,53Z"/><path class="cls-1" d="M10.84,85.14c0-8.06-.68-8.36-4.26-8.82l-1.22-.15c-.53-.53-.46-1.9.15-2.2,2.89.15,6.46.23,9.8.23H29.84c4.86,0,9.27-.08,10.26-.23.3,1.29.76,7.3,1.22,10.56-.3.61-1.82.76-2.43.3-1.22-4.41-2.36-6.23-4.79-6.92A25.68,25.68,0,0,0,28,77.23H22.92c-3.27,0-3.27.15-3.27,4.48V94.56c0,2,.08,2.05,1.82,2.05h3.65c6.61,0,7.75-.08,8.44-3.34l.53-2.58c.61-.53,2.05-.53,2.43.08-.08,2.05-.23,4.79-.23,7.6s.15,5.55.23,8a2.16,2.16,0,0,1-2.43.08l-.53-3C33,100.19,31.74,100,25.13,100H21.48c-1.75,0-1.82.15-1.82,2.05v9.65c0,3.88.15,6.61,1.29,7.9.91,1.06,2.2,1.6,8.59,1.67,9.65.08,11.33-2.05,14-8.21a1.8,1.8,0,0,1,2.43.46,48.67,48.67,0,0,1-3.19,11c-3.34-.15-9.88-.23-18.77-.23H15.32c-3.34,0-8,.08-11.4.23-.61-.3-.68-1.67-.15-2.2l2.81-.3c3.57-.38,4.26-.61,4.26-8.66Z"/><path class="cls-1" d="M74,116.07c-1.22,2.74-2.66,6.31-3.57,8.89a1.79,1.79,0,0,1-1.29.46,2.12,2.12,0,0,1-1.37-.46c-.76-2.13-2-5.09-2.89-7.07-1.67-3.72-5.85-13.3-7.3-16.49s-2.36-4.26-4.64-4.71l-1.44-.3a1.63,1.63,0,0,1,.15-2.2q4,.23,8,.23c3.42,0,5.7-.08,8.36-.23a1.39,1.39,0,0,1,.15,2.2l-1.37.23c-1.06.15-1.9.38-1.9.84a7.22,7.22,0,0,0,.61,2.43c1.06,2.81,4.94,12.24,6.08,14.52,1.82-3.8,3.65-8.44,5.62-13.22a12.11,12.11,0,0,0,1.06-3.42c0-.53-.68-.84-1.6-1l-1.82-.38a1.4,1.4,0,0,1,.3-2.2c2.28.15,4.18.23,6.38.23,2,0,3.88-.08,5.55-.23a1.49,1.49,0,0,1,.15,2.2l-1.52.3c-2.28.46-3.34,1-5.7,6.16Z"/><path class="cls-1" d="M102,106.34c-1.44,0-1.6.08-1.6,1,0,6.84,4.71,12.31,11.48,12.31a7.88,7.88,0,0,0,7.3-3.8,1.46,1.46,0,0,1,1.67,1.22A13.7,13.7,0,0,1,108,125.42c-8.82,0-14.67-6.54-14.67-15.2s5.85-16.87,16-16.87c5.63,0,11.4,3.65,11.4,10.26a3.46,3.46,0,0,1-.38,1.75c-.46.68-2.2,1-5.24,1Zm7-3c2.2,0,3.19-.23,3.72-.53a1.91,1.91,0,0,0,.76-1.6,4.69,4.69,0,0,0-5-4.94c-5.09,0-7.45,4.94-7.45,6.54,0,.3.15.53,1.06.53Z"/><path class="cls-1" d="M131.9,123c-.76-1.44-1.22-5.32-1.06-8.59a1.54,1.54,0,0,1,2.13-.15c1.37,4.26,4.18,8.28,8.21,8.28a4.07,4.07,0,0,0,4.26-4.26c0-2.81-2.51-4.64-5.17-5.93-4-1.9-8.06-4.71-8.06-9.58-.08-5.93,5-9.42,11.32-9.42a16.55,16.55,0,0,1,7.07,1.52c.76,1.6,1.14,4,1.14,7.37a1.52,1.52,0,0,1-2.05.38c-1.14-3.5-3.57-6.38-6.54-6.38a4,4,0,0,0-4.26,4c0,2.2,2.2,3.8,5.09,5.17,4.1,2,8.44,4.56,8.44,10.56,0,6.61-5.85,9.5-11.86,9.5A14.27,14.27,0,0,1,131.9,123Z"/><path class="cls-1" d="M164.28,123c-.76-1.44-1.22-5.32-1.06-8.59a1.54,1.54,0,0,1,2.13-.15c1.37,4.26,4.18,8.28,8.21,8.28a4.07,4.07,0,0,0,4.26-4.26c0-2.81-2.51-4.64-5.17-5.93-4-1.9-8.06-4.71-8.06-9.58-.08-5.93,5-9.42,11.32-9.42A16.55,16.55,0,0,1,183,94.86c.76,1.6,1.14,4,1.14,7.37a1.52,1.52,0,0,1-2.05.38c-1.14-3.5-3.57-6.38-6.54-6.38a4,4,0,0,0-4.26,4c0,2.2,2.2,3.8,5.09,5.17,4.1,2,8.44,4.56,8.44,10.56,0,6.61-5.85,9.5-11.86,9.5A14.27,14.27,0,0,1,164.28,123Z"/><path class="cls-1" d="M219,114.7c-.23,4.41.91,6.69,3.65,6.69a7,7,0,0,0,2.58-.84c.38,0,.91.84.68,1.52-1.52,2.13-5.24,3.34-7.6,3.34a7.26,7.26,0,0,1-5.47-2.13c-.53-.53-.84-.91-1.22-.91s-.91.38-2.05,1.06a12.26,12.26,0,0,1-6.46,2c-5.17,0-7.75-3.57-7.75-7.37,0-2.74,1.06-5.24,6.31-7.07,2.66-.91,5.55-2,8.36-3,1.52-.53,1.75-1.22,1.75-2l.08-2c.15-3.88-.91-7.22-4.64-7.22a3.73,3.73,0,0,0-4,3.34,3.25,3.25,0,0,1-1.44,2.74,10.46,10.46,0,0,1-4.86,1.37c-1,0-1.44-.53-1.44-1.22,0-.91.46-2.51,3-4.86,2.36-2.2,7.83-4.79,11.7-4.79,6,0,9.73,2.81,9.42,9.5Zm-7.45-2.58c0-.84-.23-1.29-.61-1.29a12.39,12.39,0,0,0-3.34.91c-2.13.76-4.1,1.82-4.1,5.09a4.26,4.26,0,0,0,4.26,4.41c2.74,0,3.57-1.82,3.65-3.65Z"/><path class="cls-1" d="M245.6,115.31c0,5.62.3,6.54,2.89,6.92l1.14.15c.53.53.46,1.9-.15,2.2-2.66-.15-5.24-.23-8.06-.23-2.43,0-5,.08-8.21.23-.61-.3-.68-1.67-.15-2.2l1.67-.23c2.58-.38,2.89-1.22,2.89-6.84V104.14c0-3.42,0-4.33-1.9-5.47l-.91-.53a2,2,0,0,1,.08-1.75,51.49,51.49,0,0,0,9.88-4.1,1.05,1.05,0,0,1,1,.61,34.35,34.35,0,0,0-.15,3.5c0,.53.23.68.68.76,3.57-2,5.7-3.8,10.41-3.8,6.16,0,9,4.26,9,10.18v11.78c0,5.62.3,6.54,2.89,6.84l1.75.23c.53.53.46,1.9-.15,2.2-3.19-.15-5.78-.23-8.59-.23q-3.76,0-7.75.23c-.61-.3-.68-1.67-.15-2.2l1.14-.15c2.58-.38,2.89-1.29,2.89-6.92V104.82c0-3.88-1.52-6.92-6.08-6.92a6.22,6.22,0,0,0-5,2.36c-1,1.37-1.06,2.05-1.06,4.86Z"/></g></g></svg>