<svg xmlns="http://www.w3.org/2000/svg" viewBox="0 0 267.32 125.42"><defs><style>.cls-1{fill:#404040;}</style></defs><title>concept-text-en2</title><g id="レイヤー_2" data-name="レイヤー 2"><g id="ナビ"><path class="cls-1" d="M16.24,41.81c0,3.8.15,6.54,1.29,7.83.91,1.06,2.13,1.67,8.21,1.67,8.44,0,9.65-.38,13.15-8.21a2,2,0,0,1,2.36.46,71.84,71.84,0,0,1-3.19,11c-3.19-.15-9.73-.23-18.24-.23H11.91c-3.88,0-7.68.08-10.87.23-.61-.3-.84-1.82-.15-2.2L3.17,52c3.57-.61,4.26-.68,4.26-8.59V15.14c0-7.9-.68-8.13-4.26-8.67L1,6.17C.51,5.79.51,4.27,1.19,4c3.8.15,7.22.23,10.72.23,3.34,0,6.76-.08,10.11-.23a1.5,1.5,0,0,1,.15,2.2l-1.67.3c-3.57.61-4.26.76-4.26,8.67Z"/><path class="cls-1" d="M61.69,45.31c0,5.63.3,6.38,2.89,6.84l1.37.23c.53.53.46,1.9-.15,2.2-2.81-.15-5.4-.23-8.21-.23-2.51,0-5.09.08-8,.23-.61-.3-.68-1.67-.15-2.2l1.37-.23c2.58-.46,2.89-1.22,2.89-6.84V34.14c0-3.42,0-4.33-1.9-5.47l-.91-.53A2,2,0,0,1,51,26.38a45,45,0,0,0,9.88-4.1,1.39,1.39,0,0,1,1.06.61c-.15,2.51-.23,6.16-.23,9.27ZM53,11.79a4.64,4.64,0,0,1,9.27,0,4.64,4.64,0,0,1-9.27,0Z"/><path class="cls-1" d="M79.24,12.7c0-5.09-.08-5.55-2-6.76l-.84-.53c-.46-.3-.53-1.52,0-1.75,2.89-.84,6.84-2.43,10-3.65a1,1,0,0,1,1.06.61c-.15,3-.23,7.75-.23,11V35.73c0,.91.23,1.06,1.67,1.06,1.29,0,2.74-.53,4.94-2.89l3-3.27c1.6-1.75,2.2-2.58,2.2-3s-.3-.68-1.22-.76l-2.05-.23a1.43,1.43,0,0,1,.15-2.28h2.2a111.59,111.59,0,0,0,11.86-.61c.68.3.68,1.67.15,2.28l-1.37.23a9.94,9.94,0,0,0-5.55,2.58c-2.66,2.36-5.24,4.56-6.46,5.85a1.08,1.08,0,0,0,0,1.52c3,4.26,8.13,11.4,10.87,14a7.33,7.33,0,0,0,4.33,2.05l.76.08c.46.61.46,1.9-.23,2.2q-3.76-.23-8.44-.23c-3,0-5.09.08-8.21.23a1.39,1.39,0,0,1-.15-2.2l.76-.08c.76-.15,1.44-.53,1.44-.91A3.49,3.49,0,0,0,97,49.57l-6.23-8.74a3,3,0,0,0-2.36-1.52c-.91,0-1.14.3-1.14,2.36v3.65c0,5.63.3,6.46,2.89,6.84l1.67.23c.53.53.46,1.9-.15,2.2-3.19-.15-5.78-.23-8.59-.23-2.43,0-5,.08-8.13.23-.61-.3-.68-1.67-.15-2.2l1.6-.23c2.58-.38,2.89-1.22,2.89-6.84Z"/><path class="cls-1" d="M127.35,36.34c-1.44,0-1.6.08-1.6,1,0,6.84,4.71,12.31,11.48,12.31a7.88,7.88,0,0,0,7.3-3.8,1.46,1.46,0,0,1,1.67,1.22,13.7,13.7,0,0,1-12.84,8.36c-8.82,0-14.67-6.54-14.67-15.2s5.85-16.87,16-16.87c5.63,0,11.4,3.65,11.4,10.26a3.46,3.46,0,0,1-.38,1.75c-.46.68-2.2,1-5.24,1Zm7-3c2.2,0,3.19-.23,3.72-.53a1.91,1.91,0,0,0,.76-1.6,4.68,4.68,0,0,0-5-4.94c-5.09,0-7.45,4.94-7.45,6.54,0,.3.15.53,1.06.53Z"/><path class="cls-1" d="M204.26,44.7c-.23,4.41.91,6.69,3.65,6.69a7,7,0,0,0,2.58-.84c.38,0,.91.84.68,1.52-1.52,2.13-5.24,3.34-7.6,3.34a7.26,7.26,0,0,1-5.47-2.13c-.53-.53-.84-.91-1.22-.91s-.91.38-2.05,1.06a12.26,12.26,0,0,1-6.46,2c-5.17,0-7.75-3.57-7.75-7.37,0-2.74,1.06-5.24,6.31-7.07,2.66-.91,5.55-2,8.36-3,1.52-.53,1.75-1.22,1.75-2l.08-2c.15-3.88-.91-7.22-4.64-7.22a3.73,3.73,0,0,0-4,3.34A3.25,3.25,0,0,1,187,32.85a10.47,10.47,0,0,1-4.86,1.37c-1,0-1.44-.53-1.44-1.22,0-.91.46-2.51,3-4.86,2.36-2.2,7.83-4.79,11.7-4.79,6,0,9.73,2.81,9.42,9.5Zm-7.45-2.58c0-.84-.23-1.29-.61-1.29a12.39,12.39,0,0,0-3.34.91c-2.13.76-4.1,1.82-4.1,5.09A4.26,4.26,0,0,0,193,51.24c2.74,0,3.57-1.82,3.65-3.65Z"/><path class="cls-1" d="M7.42,85.14c0-8.06-.68-8.36-4.26-8.82L2,76.17c-.53-.53-.46-1.9.15-2.2,2.89.15,6.46.23,9.8.23H26.43c4.86,0,9.27-.08,10.26-.23.3,1.29.76,7.3,1.22,10.56-.3.61-1.82.76-2.43.3-1.22-4.41-2.36-6.23-4.79-6.92a25.68,25.68,0,0,0-6.08-.68H19.51c-3.27,0-3.27.15-3.27,4.48V94.56c0,2,.08,2.05,1.82,2.05h3.65c6.61,0,7.75-.08,8.44-3.34l.53-2.58c.61-.53,2.05-.53,2.43.08-.08,2.05-.23,4.79-.23,7.6s.15,5.55.23,8a2.16,2.16,0,0,1-2.43.08l-.53-3c-.53-3.19-1.82-3.34-8.44-3.34H18.06c-1.75,0-1.82.15-1.82,2.05v9.65c0,3.88.15,6.61,1.29,7.9.91,1.06,2.2,1.6,8.59,1.67,9.65.08,11.33-2.05,14-8.21a1.8,1.8,0,0,1,2.43.46,48.65,48.65,0,0,1-3.19,11c-3.34-.15-9.88-.23-18.77-.23H11.91c-3.34,0-8,.08-11.4.23-.61-.3-.68-1.67-.15-2.2l2.81-.3c3.57-.38,4.26-.61,4.26-8.66Z"/><path class="cls-1" d="M70.58,116.07c-1.22,2.74-2.66,6.31-3.57,8.89a1.79,1.79,0,0,1-1.29.46,2.12,2.12,0,0,1-1.37-.46c-.76-2.13-2-5.09-2.89-7.07-1.67-3.72-5.85-13.3-7.3-16.49s-2.36-4.26-4.64-4.71l-1.44-.3a1.63,1.63,0,0,1,.15-2.2q4,.23,8,.23c3.42,0,5.7-.08,8.36-.23a1.39,1.39,0,0,1,.15,2.2l-1.37.23c-1.06.15-1.9.38-1.9.84a7.22,7.22,0,0,0,.61,2.43c1.06,2.81,4.94,12.24,6.08,14.52,1.82-3.8,3.65-8.44,5.62-13.23a12.1,12.1,0,0,0,1.06-3.42c0-.53-.68-.84-1.6-1l-1.82-.38a1.4,1.4,0,0,1,.3-2.2c2.28.15,4.18.23,6.38.23,2,0,3.88-.08,5.55-.23a1.49,1.49,0,0,1,.15,2.2l-1.52.3c-2.28.46-3.34,1-5.7,6.16Z"/><path class="cls-1" d="M98.62,106.34c-1.44,0-1.6.08-1.6,1,0,6.84,4.71,12.31,11.48,12.31a7.88,7.88,0,0,0,7.3-3.8,1.46,1.46,0,0,1,1.67,1.22,13.7,13.7,0,0,1-12.84,8.36c-8.82,0-14.67-6.54-14.67-15.2s5.85-16.87,16-16.87c5.63,0,11.4,3.65,11.4,10.26a3.46,3.46,0,0,1-.38,1.75c-.46.68-2.2,1-5.24,1Zm7-3c2.2,0,3.19-.23,3.72-.53a1.91,1.91,0,0,0,.76-1.6,4.68,4.68,0,0,0-5-4.94c-5.09,0-7.45,4.94-7.45,6.54,0,.3.15.53,1.06.53Z"/><path class="cls-1" d="M128.49,123c-.76-1.44-1.22-5.32-1.06-8.59a1.54,1.54,0,0,1,2.13-.15c1.37,4.26,4.18,8.28,8.21,8.28a4.07,4.07,0,0,0,4.26-4.26c0-2.81-2.51-4.64-5.17-5.93-4-1.9-8.06-4.71-8.06-9.58-.08-5.93,5-9.42,11.32-9.42a16.54,16.54,0,0,1,7.07,1.52c.76,1.6,1.14,4,1.14,7.37a1.52,1.52,0,0,1-2.05.38c-1.14-3.5-3.57-6.38-6.54-6.38a4,4,0,0,0-4.26,4c0,2.2,2.2,3.8,5.09,5.17,4.1,2,8.44,4.56,8.44,10.56,0,6.61-5.85,9.5-11.86,9.5A14.27,14.27,0,0,1,128.49,123Z"/><path class="cls-1" d="M160.87,123c-.76-1.44-1.22-5.32-1.06-8.59a1.54,1.54,0,0,1,2.13-.15c1.37,4.26,4.18,8.28,8.21,8.28a4.07,4.07,0,0,0,4.26-4.26c0-2.81-2.51-4.64-5.17-5.93-4-1.9-8.06-4.71-8.06-9.58-.08-5.93,5-9.42,11.32-9.42a16.54,16.54,0,0,1,7.07,1.52c.76,1.6,1.14,4,1.14,7.37a1.52,1.52,0,0,1-2.05.38c-1.14-3.5-3.57-6.38-6.54-6.38a4,4,0,0,0-4.26,4c0,2.2,2.2,3.8,5.09,5.17,4.1,2,8.44,4.56,8.44,10.56,0,6.61-5.85,9.5-11.86,9.5A14.27,14.27,0,0,1,160.87,123Z"/><path class="cls-1" d="M215.59,114.7c-.23,4.41.91,6.69,3.65,6.69a7,7,0,0,0,2.58-.84c.38,0,.91.84.68,1.52-1.52,2.13-5.24,3.34-7.6,3.34a7.26,7.26,0,0,1-5.47-2.13c-.53-.53-.84-.91-1.22-.91s-.91.38-2.05,1.06a12.26,12.26,0,0,1-6.46,2c-5.17,0-7.75-3.57-7.75-7.37,0-2.74,1.06-5.24,6.31-7.07,2.66-.91,5.55-2,8.36-3,1.52-.53,1.75-1.22,1.75-2l.08-2c.15-3.88-.91-7.22-4.64-7.22a3.73,3.73,0,0,0-4,3.34,3.25,3.25,0,0,1-1.44,2.74,10.47,10.47,0,0,1-4.86,1.37c-1,0-1.44-.53-1.44-1.22,0-.91.46-2.51,3-4.86,2.36-2.2,7.83-4.79,11.7-4.79,6,0,9.73,2.81,9.42,9.5Zm-7.45-2.58c0-.84-.23-1.29-.61-1.29a12.39,12.39,0,0,0-3.34.91c-2.13.76-4.1,1.82-4.1,5.09a4.26,4.26,0,0,0,4.26,4.41c2.74,0,3.57-1.82,3.65-3.65Z"/><path class="cls-1" d="M242.19,115.31c0,5.63.3,6.54,2.89,6.92l1.14.15c.53.53.46,1.9-.15,2.2-2.66-.15-5.24-.23-8.06-.23-2.43,0-5,.08-8.21.23-.61-.3-.68-1.67-.15-2.2l1.67-.23c2.58-.38,2.89-1.22,2.89-6.84V104.14c0-3.42,0-4.33-1.9-5.47l-.91-.53a2,2,0,0,1,.08-1.75,51.55,51.55,0,0,0,9.88-4.1,1.05,1.05,0,0,1,1,.61,34.35,34.35,0,0,0-.15,3.5c0,.53.23.68.68.76,3.57-2,5.7-3.8,10.41-3.8,6.16,0,9,4.26,9,10.18v11.78c0,5.63.3,6.54,2.89,6.84l1.75.23c.53.53.46,1.9-.15,2.2-3.19-.15-5.78-.23-8.59-.23q-3.76,0-7.75.23c-.61-.3-.68-1.67-.15-2.2l1.14-.15c2.58-.38,2.89-1.29,2.89-6.92V104.82c0-3.88-1.52-6.92-6.08-6.92a6.22,6.22,0,0,0-5,2.36c-1,1.37-1.06,2.05-1.06,4.86Z"/></g></g></svg>