<svg xmlns="http://www.w3.org/2000/svg" viewBox="0 0 239.5 247.21"><defs><style>.cls-1{fill:#1a1a1a;}</style></defs><title>concept-text-jp2</title><g id="レイヤー_2" data-name="レイヤー 2"><g id="ナビ"><path class="cls-1" d="M218.79,30c0,3.07,1.68,5,5.21,5a6.73,6.73,0,0,0,4.87-1.81,7.2,7.2,0,0,0,1.81-5.12,12.07,12.07,0,0,0-1.89-6,18.07,18.07,0,0,0-3.4-4.16.87.87,0,0,1-.38-.59.78.78,0,0,1,.55-.46.92.92,0,0,1,.55.17,19.26,19.26,0,0,1,5,4.45,11.34,11.34,0,0,1,2.6,6.72,8.07,8.07,0,0,1-2.44,6,9.82,9.82,0,0,1-6.72,2.48c-4.79,0-7.69-2.39-7.69-7.44a30,30,0,0,1,.25-3.49,11.51,11.51,0,0,1-3.95-1.93,5,5,0,0,1-1.72-4c0-2.1,1.64-4.41,3.74-5.8a7.27,7.27,0,0,1-2.94-1.85,5.06,5.06,0,0,1-1.39-2.06,6,6,0,0,1-.21-1c0-.34.13-.5.29-.5s.29.08.5.46A6.49,6.49,0,0,0,215,11.72a9.6,9.6,0,0,0,2.39.5c.84.08,1.51.25,1.85.88.34-2,.59-3.61.84-5.38a14.19,14.19,0,0,0,.21-2.06,1.58,1.58,0,0,0-.38-1.3,3.68,3.68,0,0,0-1.68-.88c-.29-.08-.42-.25-.42-.38s.17-.29.46-.46a2.91,2.91,0,0,1,1.47-.34,6,6,0,0,1,3.19,1.6,2.81,2.81,0,0,1,1.3,2.18,1.22,1.22,0,0,1-.67,1.09c-.38.21-.63,1-.88,1.85-1,3.65-2,8.4-3.19,14.62a27.87,27.87,0,0,0,3.11.08,3,3,0,0,1,1.47.34,1.14,1.14,0,0,1,.59,1.09c0,.55-.46,1-1.18,1.13a9.76,9.76,0,0,1-2,.13,18,18,0,0,1-2.48-.21A28.53,28.53,0,0,0,218.79,30Zm.13-15.21a1.67,1.67,0,0,1-.84.17,4.31,4.31,0,0,0-1.51.34,8.58,8.58,0,0,0-2.73,1.89,3.71,3.71,0,0,0-1.13,2.48,2.79,2.79,0,0,0,1.43,2.48,10.19,10.19,0,0,0,3.36,1.22C218,20.21,218.45,17.6,218.91,14.79Z"/><path class="cls-1" d="M212.36,61.15a5.3,5.3,0,0,1-5.08-2.9.89.89,0,0,1-.17-.42.45.45,0,0,1,.42-.42,1,1,0,0,1,.5.25,5.3,5.3,0,0,0,3.66,1.51,21.91,21.91,0,0,0,4.66-.63c.25-1.47.34-2.39.5-3.74.08-.8.17-1.55.17-2,0-1.18-.34-1.39-1.26-1.64A11.42,11.42,0,0,0,214.5,51c-.21,0-.38-.13-.38-.29s.21-.46.55-.67a4.44,4.44,0,0,1,2-.42,5.91,5.91,0,0,1,3,1.09c.55.34,1.18.92,1.18,1.55a1.38,1.38,0,0,1-.59,1.09,2.26,2.26,0,0,0-.67,1.26c-.29,1.05-.59,2.27-.84,3.4A12.29,12.29,0,0,0,223,56.24a2.54,2.54,0,0,1,1.81-.67,5.38,5.38,0,0,1,1.47.25c.46.17,1,.5,1,1.05,0,.76-.5,1.09-1.72,1.51a56.32,56.32,0,0,1-7.35,2c-.63,3.11-1.34,6.72-1.93,9.91,3.74-2.6,7.6-4.41,11.26-4.41a9.53,9.53,0,0,1,6.13,1.85,5.94,5.94,0,0,1,2.27,4.83c0,3.7-2.56,6.26-6.22,8.15-4,2.1-9.66,3.11-13.86,3.32-.55,0-.84-.21-.84-.59s.34-.5.71-.55c3.78-.5,9.07-2.06,12-3.91,3.15-2,5-4.16,5-7.18a4,4,0,0,0-1.26-3.23,5.77,5.77,0,0,0-4.16-1.34,10.67,10.67,0,0,0-4.83,1.34,17.77,17.77,0,0,0-4.24,3.28,7.81,7.81,0,0,0-2,2.69c-.25.63-.59,1-1.18,1s-1-.34-1.3-1.05a5.49,5.49,0,0,1-.5-2,1.75,1.75,0,0,1,.25-1,3,3,0,0,0,.34-.76c.13-.38.21-.71.34-1.22.63-2.56,1.18-5.5,1.76-8.7A30.85,30.85,0,0,1,212.36,61.15Z"/><path class="cls-1" d="M214.84,115.63c4.66-3.82,8.65-4.83,11.8-4.83a11.72,11.72,0,0,1,5.92,1.51,7.72,7.72,0,0,1,4.08,6.72c0,4.07-2.39,6.85-6.13,8.86-3.91,2.1-9.87,3-13.15,3a10.76,10.76,0,0,1-1.39,0c-.46,0-.63-.25-.63-.55s.25-.59.84-.67a31.57,31.57,0,0,0,11.72-3.36c3-1.64,5.38-4.29,5.38-7.9a5.53,5.53,0,0,0-2.14-4.58,8.32,8.32,0,0,0-5.12-1.43c-4.79,0-8.91,2.86-12.6,6.26a20.66,20.66,0,0,0-2.48,2.86,1.62,1.62,0,0,1-1.3.88c-.8,0-1.34-.92-1.34-1.89a2.75,2.75,0,0,1,1.05-2.06c.25-.25.92-.76,1.6-1.43,2.27-2.35,4.87-5,7.6-8s4.54-5.21,7.31-8.74a.93.93,0,0,0,.25-.63.34.34,0,0,0-.38-.29,2.1,2.1,0,0,0-.67.13c-.71.21-3.32,1.26-5.33,2.1a10.19,10.19,0,0,0-2.1,1.05,2.3,2.3,0,0,1-1.34.63,2.44,2.44,0,0,1-1.81-1,5.47,5.47,0,0,1-1.51-3,3.37,3.37,0,0,1,.13-1.09c.08-.29.29-.46.42-.46s.34.13.55.46c1.05,1.55,1.68,1.93,2.44,1.93a20.28,20.28,0,0,0,3.49-.8l3.61-1.13a2.64,2.64,0,0,0,1.13-.71,1.39,1.39,0,0,1,1.05-.42,2.08,2.08,0,0,1,1.13.29,13.84,13.84,0,0,1,2.73,2,1.61,1.61,0,0,1,.55,1.22c0,.42-.21.67-.71.92a6.48,6.48,0,0,0-1.89,1.13c-2,2.06-3.78,3.82-6.43,6.55-1.93,2-4.07,4.12-6.38,6.34Z"/><path class="cls-1" d="M213.07,164.56a7.16,7.16,0,0,1,5.21-2.65,4.52,4.52,0,0,1,3.74,1.68,8.93,8.93,0,0,1,1.51,4.75,10.38,10.38,0,0,0,.88,4.12,2.55,2.55,0,0,0,2.44,1.22c2.14,0,4.92-1.43,7.1-4a25.69,25.69,0,0,0,4.49-8.44c.13-.38.25-.59.59-.59a.49.49,0,0,1,.46.55c0,.13,0,.38-.08.67a23,23,0,0,1-4.33,10.29,10.65,10.65,0,0,1-8.4,4.45,4.87,4.87,0,0,1-4.24-1.93c-.84-1.13-1.26-2.73-1.39-5.63a10.69,10.69,0,0,0-.8-4.49,2.24,2.24,0,0,0-2.23-1.3c-1.6,0-3.23.84-4.71,2.86a41.9,41.9,0,0,0-4.07,8.19,2,2,0,0,1-1.89,1.51c-.71,0-1.34-.46-1.34-1.6a2.69,2.69,0,0,1,.42-1.43c2.6-5.08,5.59-10.5,8-15.12,2-3.78,3.57-6.93,4.24-8.57a5.69,5.69,0,0,0,.55-1.93c0-.71-.42-1.3-1.68-2.06-.34-.21-.5-.29-.5-.5s.59-.5,1.34-.5a5.6,5.6,0,0,1,3.36,1.72c1.18,1.05,1.51,1.68,1.51,2.27a1.3,1.3,0,0,1-.8,1.26,4.22,4.22,0,0,0-1.68,1.89c-2,3.36-4.37,7.48-7.81,13.27Z"/><path class="cls-1" d="M146.63,16.76c4.54,1.22,6.8,3,6.8,5.13A1.63,1.63,0,0,1,152,23.65c-.67,0-1-.34-1.6-1.68a11.05,11.05,0,0,0-3.74-4.41v5c0,10.71.08,13.69.08,14.7s-.59,1.43-1.93,1.43c-.92,0-1.34-.34-1.34-1.09,0-1.34.29-6.93.46-18.19a32.66,32.66,0,0,1-8.61,11c-.21.17-.55-.29-.38-.5a45.83,45.83,0,0,0,8.19-16h-4.66a15.55,15.55,0,0,0-2.65.25l-.42-1.6a12.94,12.94,0,0,0,3,.29h5.29V6.22a69.32,69.32,0,0,1-7.52.92c-.29,0-.38-.63-.08-.67a46.19,46.19,0,0,0,11.76-4A14,14,0,0,0,150.7.63c2.86,2.1,3.11,2.44,3.11,2.94s-.63.55-2,.25a42.12,42.12,0,0,1-5.21,1.72v7.31H150c1.55-1.85,1.85-2.06,2.1-2.06s.59.21,2.31,1.6c.67.59.88.88.88,1.13s-.17.38-.55.38h-8.11Zm17.81,3.7c-.13-.21.29-.55.46-.38,5.59,5.25,8.78,10.88,8.78,14.28,0,1.51-.71,2.52-1.72,2.52s-1.43-.55-2-3.19c-.13-.63-.29-1.22-.46-1.81a107,107,0,0,1-17.18,4.2c-.29,1.22-.46,1.47-1,1.47s-.71-.76-1.89-4.79a31.08,31.08,0,0,0,4.07,0,140.35,140.35,0,0,0,6.72-25.71,36.8,36.8,0,0,0,.46-5.59c4.24.88,5.21,1.22,5.21,1.85s-.29.8-1.55,1.18a118.27,118.27,0,0,1-9.41,28.19,116.4,116.4,0,0,0,14.28-1.76A41.39,41.39,0,0,0,164.44,20.46Z"/><path class="cls-1" d="M155.79,56.24a5.23,5.23,0,0,1,1.51-.46c.67,0,1.51.42,1.51,1.22s-.42,1.13-1.34,1.47a69.65,69.65,0,0,1-6.89,2.27c-2.52,6.89-5,13.82-7.77,20.58-.42,1.05-1,1.43-1.72,1.43a1.5,1.5,0,0,1-1-.46,2,2,0,0,1-.42-1.13,4,4,0,0,1,.55-1.6c2.94-6,5.42-11.89,7.86-18.27a21.76,21.76,0,0,1-4.45.63,6.72,6.72,0,0,1-4.08-1.39c-.67-.55-1.13-1-1.13-1.47a.45.45,0,0,1,.38-.42,1.11,1.11,0,0,1,.63.21,6,6,0,0,0,3.57,1,29.16,29.16,0,0,0,6-1.13c.5-1.64.88-2.86,1.18-4a7.51,7.51,0,0,0,.34-2.06,1.19,1.19,0,0,0-.76-1.13,7.11,7.11,0,0,0-1.68-.55c-.29-.08-.38-.21-.38-.38s.21-.34.38-.42a3.12,3.12,0,0,1,1.6-.46,8,8,0,0,1,3.78,1.6c.71.55.8.92.8,1.3a1.26,1.26,0,0,1-.55,1.05,3.73,3.73,0,0,0-1.22,1.85,23,23,0,0,0-1,2.52A42.18,42.18,0,0,0,155.79,56.24Zm-2.06,17.39c.25-.46.5-.76.76-.76a.32.32,0,0,1,.34.29,3.79,3.79,0,0,1-.13.67,7.57,7.57,0,0,0-.21,1.93,3.6,3.6,0,0,0,1.39,2.94,9.37,9.37,0,0,0,5.46,1.43,16.81,16.81,0,0,0,4.37-.42,5.06,5.06,0,0,1,1.76-.34,4.28,4.28,0,0,1,1.89.42,1.51,1.51,0,0,1,.88,1.43c0,.8-.8,1.18-2.23,1.39-1.13.13-3.11.25-4.54.25-2.81,0-6-.38-8.19-2a5,5,0,0,1-2.23-4.37A5.9,5.9,0,0,1,153.73,73.63Zm6.72-9.12a16.1,16.1,0,0,0-5.33,1.43,1.89,1.89,0,0,1-.46.13.42.42,0,0,1-.42-.34.66.66,0,0,1,.29-.55,9.68,9.68,0,0,1,2.81-1.72,13.86,13.86,0,0,1,5.13-1,12.74,12.74,0,0,1,4.91.84c1,.42,1.51.8,1.51,1.72a1.05,1.05,0,0,1-1.18,1.05,2.54,2.54,0,0,1-1-.21,4.09,4.09,0,0,0-1.34-.29,3.42,3.42,0,0,0-1.72.59c-1,.63-2.69,1.76-4.12,2.65a1.11,1.11,0,0,1-.63.25c-.13,0-.38-.29-.38-.46a.74.74,0,0,1,.29-.46c1-.88,2.39-2.18,4-3.4.17-.13.13-.25-.13-.25A21.81,21.81,0,0,0,160.45,64.52Z"/><path class="cls-1" d="M144.36,108.19a5.3,5.3,0,0,1-5.08-2.9.89.89,0,0,1-.17-.42.45.45,0,0,1,.42-.42,1,1,0,0,1,.5.25,5.3,5.3,0,0,0,3.66,1.51,21.91,21.91,0,0,0,4.66-.63c.25-1.47.34-2.39.5-3.74.08-.8.17-1.55.17-2,0-1.18-.34-1.39-1.26-1.64a11.42,11.42,0,0,0-1.26-.17c-.21,0-.38-.13-.38-.29s.21-.46.55-.67a4.44,4.44,0,0,1,2-.42,5.91,5.91,0,0,1,3,1.09c.55.34,1.18.92,1.18,1.55a1.38,1.38,0,0,1-.59,1.09,2.26,2.26,0,0,0-.67,1.26c-.29,1.05-.59,2.27-.84,3.4a12.29,12.29,0,0,0,4.33-1.81,2.54,2.54,0,0,1,1.81-.67,5.38,5.38,0,0,1,1.47.25c.46.17,1,.5,1,1.05,0,.76-.5,1.09-1.72,1.51a56.32,56.32,0,0,1-7.35,2c-.63,3.11-1.34,6.72-1.93,9.91,3.74-2.6,7.6-4.41,11.26-4.41a9.53,9.53,0,0,1,6.13,1.85,5.94,5.94,0,0,1,2.27,4.83c0,3.7-2.56,6.26-6.22,8.15-4,2.1-9.66,3.11-13.86,3.32-.55,0-.84-.21-.84-.59s.34-.5.71-.55c3.78-.5,9.07-2.06,12-3.91,3.15-2,5-4.16,5-7.18a4,4,0,0,0-1.26-3.23,5.77,5.77,0,0,0-4.16-1.34,10.67,10.67,0,0,0-4.83,1.34,17.77,17.77,0,0,0-4.24,3.28,7.81,7.81,0,0,0-2,2.69c-.25.63-.59,1-1.18,1s-1-.34-1.3-1.05a5.49,5.49,0,0,1-.5-2,1.75,1.75,0,0,1,.25-1,3,3,0,0,0,.34-.76c.13-.38.21-.71.34-1.22.63-2.56,1.18-5.5,1.76-8.7A30.85,30.85,0,0,1,144.36,108.19Z"/><path class="cls-1" d="M142.43,169.64c.08.46.21.63.38.63s.25-.17.42-.55c1-2.14,2.1-5,3.11-7.35.13-.34.34-.5.55-.5a.5.5,0,0,1,.46.46,2.93,2.93,0,0,1-.13.5c-1,3.28-1.81,6.09-2.44,8.36a8,8,0,0,0-.34,2,10,10,0,0,0,.13,1.64,6.74,6.74,0,0,1,.13,1.26,1.06,1.06,0,0,1-1.09,1.18,2.14,2.14,0,0,1-1.81-1.43c-1.13-2.31-1.55-6-1.55-9.28a61.73,61.73,0,0,1,2.1-14A13.35,13.35,0,0,0,143,149a5.39,5.39,0,0,0-.92-3,1.21,1.21,0,0,1-.29-.63c0-.21.17-.34.42-.34a1,1,0,0,1,.46.13,8.9,8.9,0,0,1,2.14,1.93,5,5,0,0,1,1.43,3.28,1.79,1.79,0,0,1-.46,1.34,4.77,4.77,0,0,0-.92,1.81,38.25,38.25,0,0,0-2.6,12.22A23.06,23.06,0,0,0,142.43,169.64Zm28.06,2.81a1.92,1.92,0,0,1,.8,1.39,1.34,1.34,0,0,1-1.39,1.51,2.39,2.39,0,0,1-1.6-.76,21.36,21.36,0,0,0-4.24-3.07c0,3.07-2.48,4.79-6.55,4.79-3.36,0-5.75-1.81-5.75-4.16s2.18-4.24,6-4.24a18.89,18.89,0,0,1,3.95.42c0-3.82-.13-7.6-.17-11.47a47.7,47.7,0,0,1-6,.38c-2.14,0-3.87-.59-4.83-2.94a1.88,1.88,0,0,1-.17-.71.46.46,0,0,1,.34-.34c.17,0,.34.13.55.38a4.33,4.33,0,0,0,3.66,1.6,36.55,36.55,0,0,0,6.47-.63c0-2.6-.08-4.28-.13-5.92-.08-1.13-.17-1.64-.76-1.93a5.16,5.16,0,0,0-1.22-.34,4.52,4.52,0,0,0-.92-.08c-.21,0-.29-.08-.29-.21s.38-.5.67-.67a4,4,0,0,1,1.6-.46,6,6,0,0,1,2.77.76c.88.46,1.81,1,1.81,1.89a1.19,1.19,0,0,1-.46,1,2.53,2.53,0,0,0-.59,1.68c-.08,1.26-.21,2.27-.21,3.82.8-.17,1.39-.34,2-.5a5.64,5.64,0,0,0,1.13-.55,3,3,0,0,1,1.85-.5c1.39,0,1.89.46,1.89,1.18s-.38,1.05-1.22,1.34a32.71,32.71,0,0,1-5.67,1.43c0,4.54.17,8.82.38,12.52A24.31,24.31,0,0,1,170.49,172.46Zm-13.69-2.9c-1.72,0-3.7.76-3.7,2.52,0,1.18,1.18,2.18,3.95,2.18a5.39,5.39,0,0,0,3.49-1,2.78,2.78,0,0,0,1-1.93,2.45,2.45,0,0,0,0-.8A11.73,11.73,0,0,0,156.79,169.56Z"/><path class="cls-1" d="M75.94,18.23C79.76,19.49,82,21.55,82,23.31A1.54,1.54,0,0,1,80.64,25c-.63,0-.92-.34-1.47-1.51a11,11,0,0,0-3.23-4.41v7.77c0,6.47.13,9.24.13,10.59,0,1-.67,1.43-1.81,1.43s-1.43-.38-1.43-1.26.17-3.49.25-11.26c0-1.89,0-3.74.08-5.67A32.38,32.38,0,0,1,66.78,25c-.25.13-.63-.38-.38-.55A38.28,38.28,0,0,0,78,9.41H70.73a11.06,11.06,0,0,0-3,.29l-.42-1.64a17.71,17.71,0,0,0,3.4.29h2.35V3.78A25.51,25.51,0,0,0,72.79,0c4,.46,4.66.8,4.66,1.26S77.07,2,76,2.44V8.36h1.89C79,7.18,79.17,7,79.43,7s.5.17,1.89,1.51c.63.67.8.92.8,1.22s-.38.59-1.47.88a31,31,0,0,1-4.7,7.23ZM92,8.15c0-4.66,0-5.88-.21-8.15,4,.46,4.58.63,4.58,1.26,0,.42-.25.71-1.43,1.18V8.15h5.84c1.3-1.47,1.51-1.6,1.81-1.6s.5.13,1.85,1.26c.59.55.71.8.71,1.09s-.21.63-1.13,1.18v4.24c0,7.39.21,11.3.21,12.48,0,.92-.59,1.34-1.81,1.34-1,0-1.3-.34-1.3-1.18V25.88H95c0,6.68.13,10,.13,11.43,0,1.05-.55,1.55-1.85,1.55-1.09,0-1.47-.29-1.47-1.34,0-1.26.08-4.37.17-11.64H86.27v.8c0,1-.55,1.34-1.68,1.34-1,0-1.39-.34-1.39-1.05,0-1.43.21-3.91.21-11.8,0-4.24,0-6.43-.21-8.82,1.43.71,2.06,1,3.45,1.81ZM86.27,9.2v7H92v-7ZM92,24.83c0-2.94,0-6.68,0-7.6H86.27v7.6Zm3-8.65h6.17v-7H95Zm6.17,8.65v-7.6H95c0,2.52,0,5.08,0,7.6Z"/><path class="cls-1" d="M75.9,61.66c2.86,1.3,4.41,3.19,4.41,4.87a1.6,1.6,0,0,1-1.47,1.76c-.63,0-1-.38-1.09-1.3a8.31,8.31,0,0,0-1.85-4.41v.59c0,12.27.17,19.37.17,21.59,0,.84-.67,1.22-1.81,1.22-.92,0-1.3-.29-1.3-1.05,0-1.43.21-7.27.34-20A32,32,0,0,1,67,75.81c-.17.17-.59-.13-.46-.34A57.38,57.38,0,0,0,72.7,58.09H70.27a16.19,16.19,0,0,0-2.65.21l-.42-1.55a15.15,15.15,0,0,0,2.94.29h3V52.5a33.93,33.93,0,0,0-.29-5.38c4,.42,4.58.63,4.58,1.18,0,.38-.34.67-1.51,1.18V57h1.43c1.18-1.81,1.47-2,1.72-2s.5.21,2,1.64c.5.46.71.8.71,1s-.13.42-.59.42H75.9Zm17-1.55h5c1.51-1.76,1.81-2,2.06-2s.59.21,2.06,1.47c.67.63.88.88.88,1.13s-.13.42-.59.42H92.91v4.79h7.86c1.51-1.89,1.93-2.14,2.18-2.14s.55.21,2.18,1.64c.76.59.92.88.92,1.13s-.17.42-.55.42H93.25a24.34,24.34,0,0,0,3.36,6.68A19.24,19.24,0,0,0,99.55,70a9.6,9.6,0,0,0,.88-1.85c2.86,1.51,3.53,2,3.53,2.44s-.42.59-1.76.46a30,30,0,0,1-5.13,3.28,17.54,17.54,0,0,0,1.18,1.3,21,21,0,0,0,8.23,5.13c.21.08.13.42-.08.5a2.81,2.81,0,0,0-1.93,1.89c-.21.63-.34.76-.59.76a2.41,2.41,0,0,1-1.39-.67,28.63,28.63,0,0,1-5.75-5.92,28.37,28.37,0,0,1-4.07-9.49C93,77.75,93,81,93,82.54A2.9,2.9,0,0,1,91.86,85a4.54,4.54,0,0,1-2.69.8c-.38,0-.5-.13-.63-.8-.21-1.09-.84-1.64-4.28-2.39-.25,0-.21-.59,0-.55,2.14.21,3.91.25,5.17.25.5,0,.67-.21.67-.84V75.56a52.91,52.91,0,0,1-9.28,5.33c-.13,1.3-.29,1.6-.67,1.6s-.76-.59-2.23-3.95A19,19,0,0,0,81,78a61.25,61.25,0,0,0,9.16-3.19V67H84.47a21.59,21.59,0,0,0-3.15.21l-.42-1.55a21.3,21.3,0,0,0,3.49.29h5.75V61.15h-5a16.34,16.34,0,0,0-2.69.21L82,59.77a15.92,15.92,0,0,0,3.07.34h5V55.44H84a19.66,19.66,0,0,0-2.56.21L81,54.1a15.25,15.25,0,0,0,3,.29H93.2a30.57,30.57,0,0,0,2-4.33,13.5,13.5,0,0,0,.8-2.81c3.32,1.34,4,1.68,4,2.18s-.25.63-1.64.76a24.06,24.06,0,0,1-4,4.2h6.09c1.39-1.64,1.68-1.85,1.93-1.85s.67.17,2.14,1.39c.67.55.84.84.84,1.09s-.13.42-.55.42h-12ZM83.92,73a8.94,8.94,0,0,0-2.77-4.24c-.17-.13.13-.42.34-.38,3.32,1,5.38,2.77,5.38,4.54a1.66,1.66,0,0,1-1.6,1.76C84.59,74.64,84.42,74.51,83.92,73Zm2.56-21a8.47,8.47,0,0,0-2.27-4.07c-.13-.13.13-.34.29-.29,3.19,1,5,2.6,5,4.2a1.83,1.83,0,0,1-1.64,1.93C87,53.76,86.78,53.42,86.48,52Z"/><path class="cls-1" d="M78.88,113.57a.54.54,0,0,1,.5.46,1.85,1.85,0,0,1-.08.42c-1,3.36-1.81,6-2.18,7.65a12.71,12.71,0,0,0-.42,2.69c0,.76.13,2.14.13,2.73,0,.84-.46,1.18-1,1.18-.76,0-1.3-.46-1.93-2a23,23,0,0,1-1.39-7.94,55.77,55.77,0,0,1,1.89-12.35A17.89,17.89,0,0,0,75,103a4.28,4.28,0,0,0-1.26-3,.57.57,0,0,1-.21-.42.34.34,0,0,1,.38-.29c1,0,2.27,1.09,3.07,2.23a5.38,5.38,0,0,1,1.13,2.9,1.85,1.85,0,0,1-.59,1.39,6.55,6.55,0,0,0-1,1.85,34.45,34.45,0,0,0-2.1,10.84,14.08,14.08,0,0,0,.29,3.4c0,.21.17.29.29.29s.21-.08.29-.29c1-2.48,2-5.21,3-7.81C78.46,113.7,78.67,113.57,78.88,113.57Zm4.79,1.72c.17-.29.29-.42.5-.42s.46.13.46.38a14.09,14.09,0,0,0-.42,2.77A4.75,4.75,0,0,0,85.77,122c1.72,1.47,4.75,1.72,7.18,1.72a19.73,19.73,0,0,0,3-.17,12.16,12.16,0,0,0,1.55-.34,6.65,6.65,0,0,1,1.6-.21,6.15,6.15,0,0,1,1.72.34,1.65,1.65,0,0,1,1.13,1.43,1.26,1.26,0,0,1-1,1.26,23.39,23.39,0,0,1-5.84.55c-3.49,0-7.6-.25-10.12-2.52a6.41,6.41,0,0,1-2.1-4.92A9.41,9.41,0,0,1,83.67,115.29Zm6.89-10.21a28.68,28.68,0,0,0-5.88,1.85,1.8,1.8,0,0,1-.63.21.48.48,0,0,1-.5-.46c0-.29.17-.46.5-.67a22.27,22.27,0,0,1,5.67-2.52,24.07,24.07,0,0,1,6.34-.8c2.9,0,3.49.92,3.49,1.85s-.59,1.26-1.68,1.26c-.59,0-1.72-.13-2.39-.13a7.17,7.17,0,0,0-2.69.46c-1.13.42-2.48,1.55-4.45,3.36a.64.64,0,0,1-.5.25.49.49,0,0,1-.42-.38.77.77,0,0,1,.25-.55,34.4,34.4,0,0,1,3.19-3.53C91,105.17,90.94,105,90.56,105.09Z"/><path class="cls-1" d="M74.43,169.64c.08.46.21.63.38.63s.25-.17.42-.55c1-2.14,2.1-5,3.11-7.35.13-.34.34-.5.55-.5a.5.5,0,0,1,.46.46,2.93,2.93,0,0,1-.13.5c-1,3.28-1.81,6.09-2.44,8.36a8,8,0,0,0-.34,2,10,10,0,0,0,.13,1.64,6.74,6.74,0,0,1,.13,1.26,1.06,1.06,0,0,1-1.09,1.18,2.14,2.14,0,0,1-1.81-1.43c-1.13-2.31-1.55-6-1.55-9.28a61.73,61.73,0,0,1,2.1-14A13.35,13.35,0,0,0,75,149a5.39,5.39,0,0,0-.92-3,1.21,1.21,0,0,1-.29-.63c0-.21.17-.34.42-.34a1,1,0,0,1,.46.13A8.9,8.9,0,0,1,76.78,147a5,5,0,0,1,1.43,3.28,1.79,1.79,0,0,1-.46,1.34,4.77,4.77,0,0,0-.92,1.81,38.25,38.25,0,0,0-2.6,12.22A23.06,23.06,0,0,0,74.43,169.64Zm28.06,2.81a1.92,1.92,0,0,1,.8,1.39,1.34,1.34,0,0,1-1.39,1.51,2.39,2.39,0,0,1-1.6-.76,21.36,21.36,0,0,0-4.24-3.07c0,3.07-2.48,4.79-6.55,4.79-3.36,0-5.75-1.81-5.75-4.16s2.18-4.24,6-4.24a18.89,18.89,0,0,1,3.95.42c0-3.82-.13-7.6-.17-11.47a47.7,47.7,0,0,1-6,.38c-2.14,0-3.87-.59-4.83-2.94a1.88,1.88,0,0,1-.17-.71.46.46,0,0,1,.34-.34c.17,0,.34.13.55.38a4.33,4.33,0,0,0,3.66,1.6,36.55,36.55,0,0,0,6.47-.63c0-2.6-.08-4.28-.13-5.92-.08-1.13-.17-1.64-.76-1.93a5.16,5.16,0,0,0-1.22-.34,4.52,4.52,0,0,0-.92-.08c-.21,0-.29-.08-.29-.21s.38-.5.67-.67a4,4,0,0,1,1.6-.46,6,6,0,0,1,2.77.76c.88.46,1.81,1,1.81,1.89a1.19,1.19,0,0,1-.46,1,2.53,2.53,0,0,0-.59,1.68c-.08,1.26-.21,2.27-.21,3.82.8-.17,1.39-.34,2-.5a5.64,5.64,0,0,0,1.13-.55,3,3,0,0,1,1.85-.5c1.39,0,1.89.46,1.89,1.18s-.38,1.05-1.22,1.34a32.71,32.71,0,0,1-5.67,1.43c0,4.54.17,8.82.38,12.52A24.31,24.31,0,0,1,102.49,172.46Zm-13.69-2.9c-1.72,0-3.7.76-3.7,2.52,0,1.18,1.18,2.18,3.95,2.18a5.39,5.39,0,0,0,3.49-1,2.78,2.78,0,0,0,1-1.93,2.45,2.45,0,0,0,0-.8A11.73,11.73,0,0,0,88.79,169.56Z"/><path class="cls-1" d="M8.23,13.36a6.25,6.25,0,0,1-2.94-.59,4.6,4.6,0,0,1-2.1-2,.83.83,0,0,1-.08-.42A.4.4,0,0,1,3.44,10a.64.64,0,0,1,.5.25,5.39,5.39,0,0,0,3.53,1.13,26.75,26.75,0,0,0,5.5-.71,37.65,37.65,0,0,0,1.43-4.41,5.93,5.93,0,0,0,.25-1.47,1.1,1.1,0,0,0-.8-1,8.87,8.87,0,0,0-1.72-.55c-.17,0-.25-.08-.25-.21s.17-.34.34-.46a2.52,2.52,0,0,1,1.55-.38,9,9,0,0,1,3.57,1.18c.63.42,1,.71,1,1.34a1.28,1.28,0,0,1-.67,1.09,4.66,4.66,0,0,0-1.13,1.85c-.29.63-.67,1.51-1,2.35a26.58,26.58,0,0,0,3.4-1.3,5.71,5.71,0,0,1,2-.63c1.09,0,1.68.55,1.68,1.26s-.42,1-1.55,1.43c-1.47.5-4,1.22-6.6,1.81-2.44,5.92-5,11.22-7.73,16.85a1.68,1.68,0,0,1-1.51,1.13A1.43,1.43,0,0,1,3.74,29a2.34,2.34,0,0,1,.55-1.39A113,113,0,0,0,12,13,36.14,36.14,0,0,1,8.23,13.36ZM27.3,15.84a8.31,8.31,0,0,0-3.7-.71,13.76,13.76,0,0,0-2,.13,3,3,0,0,1-.55,0,.43.43,0,0,1-.38-.46c0-.17.17-.34.42-.42A11.18,11.18,0,0,1,25,13.69a14.15,14.15,0,0,1,7.23,2,3.43,3.43,0,0,1,1.89,2.48,1.27,1.27,0,0,1-1.26,1.3,2,2,0,0,1-1.26-.55,5.72,5.72,0,0,0-3.49-1.81c-2,0-4.07.59-4.07,3.91A48.05,48.05,0,0,0,25.5,28.9c3.32,1.13,6.3,2.44,7.65,3.57A2,2,0,0,1,34,34.11a1.33,1.33,0,0,1-1.39,1.43A2.44,2.44,0,0,1,31,34.82a22.47,22.47,0,0,0-5.46-3.44,4.87,4.87,0,0,1-1.6,4c-1.09,1-2.48,1.47-4.92,1.47-3.45,0-5.88-1.76-5.88-4.41s2.77-4.33,6.38-4.33a18.61,18.61,0,0,1,3.28.25c-.17-2.18-.55-4.45-.55-6.51,0-3.91,2-5.21,5-5.88ZM19,29.87c-2.35,0-4.41.92-4.41,2.65,0,1.26,1.18,2.31,4.08,2.31A4.7,4.7,0,0,0,22,33.77a3.28,3.28,0,0,0,1.13-2.56,3.63,3.63,0,0,0,0-.63A13,13,0,0,0,19,29.87Z"/><path class="cls-1" d="M11.8,65.86a84.5,84.5,0,0,1,6.76-6.64c2-1.68,4.16-3.19,5.84-3.19a4.17,4.17,0,0,1,4.24,4.45c0,1.64-.5,4.33-.84,6.85-.38,3.15-.71,6.39-.71,8,0,2.14.67,2.77,2.39,2.77,2.48,0,5.8-2.52,7.81-6.18.17-.29.38-.63.76-.63a.54.54,0,0,1,.46.5,1.91,1.91,0,0,1-.17.76,14.86,14.86,0,0,1-3.61,5.63,7.88,7.88,0,0,1-5.25,2.44c-3.15,0-4.83-1.76-4.83-5.21,0-2.1.21-5,.5-8.4.25-2.73.46-4.71.46-6.34,0-2.35-.42-3-1.47-3-1.34,0-3.15,1.22-5.25,3.07A68.81,68.81,0,0,0,11.72,68c0,2.35,0,4.71,0,6.51q0,.57.13,2.9c0,.59.08,1.26.13,1.81a12.86,12.86,0,0,1,.08,1.51c0,1.81-.59,3.11-1.55,3.11-.5,0-.88-.34-1.05-1.09a7.8,7.8,0,0,0-1.18-2.86A32,32,0,0,0,5.13,76c-.92,1.26-1.3,1.85-1.68,2.31A1.47,1.47,0,0,1,2.23,79c-.67,0-1-.5-1-1.43a3.11,3.11,0,0,1,1-2.06c.21-.21.55-.5.88-.84a49.83,49.83,0,0,0,6.72-9.07c.08-1.34.13-2.44.17-3.4a18.23,18.23,0,0,0-3.78,1.93A1.51,1.51,0,0,1,5,64.68a2.33,2.33,0,0,1-1.64-1,4.8,4.8,0,0,1-1.26-2.52c0-.5.13-.92.29-.92s.34.13.5.38C3.78,61.78,4.24,62,4.87,62a4.42,4.42,0,0,0,1.51-.34c1.22-.46,2.52-1,3.61-1.47.08-2.52.21-5.38.21-6.72,0-1.81-.34-2.31-2.27-2.94-.55-.17-.63-.25-.63-.42s0-.29.38-.5a2.37,2.37,0,0,1,1.22-.29,6,6,0,0,1,3.15,1.18c.92.63,1.55,1.13,1.55,2a1.24,1.24,0,0,1-.46,1A2.52,2.52,0,0,0,12.52,55c-.08.88-.25,2.35-.34,4.45a1.9,1.9,0,0,1,.67-.13c.21,0,.46.13.84.5a1.31,1.31,0,0,1,.46.84,1.25,1.25,0,0,1-.42.8,18.21,18.21,0,0,0-1.85,3.15ZM9.28,78.17c.29.21.42.13.42-.21,0-2.9,0-5.84,0-8.28-1.43,1.89-3,4.07-4,5.54C6.85,76.23,8.28,77.37,9.28,78.17Z"/><path class="cls-1" d="M20.63,125.71A4.56,4.56,0,0,1,19,129.53c-1.05.88-2.56,1.34-5,1.34-3.53,0-7-1.39-7-4.41,0-3.19,3.78-4.33,6.81-4.33a33.23,33.23,0,0,1,4.28.29c0-2.39,0-4.92-.08-7-1,.08-2.56.13-3.7.13-3.95,0-5.5-1.09-5.5-2.9a3.74,3.74,0,0,1,.71-2.27c.21-.29.42-.46.63-.46s.38.13.38.29a1.58,1.58,0,0,1-.17.55,2.59,2.59,0,0,0-.21,1.13c0,1.05.8,1.55,3.36,1.55,1.34,0,3.11-.08,4.45-.21,0-2.27,0-4.16-.08-6.43a62,62,0,0,1-7.94.55c-2.39,0-4.37-.59-5.84-2.86a1,1,0,0,1-.17-.55.36.36,0,0,1,.34-.29.73.73,0,0,1,.5.21,7.56,7.56,0,0,0,4.87,1.43,65.12,65.12,0,0,0,8.15-.76c0-1.47,0-3.57,0-4.87,0-1-.08-1.43-.42-1.76a2,2,0,0,0-1.13-.5,9.15,9.15,0,0,0-1.05,0,.3.3,0,0,1-.29-.34c0-.25.21-.42.59-.67a3,3,0,0,1,1.55-.46,5.88,5.88,0,0,1,2.81.92c1.26.71,1.68,1.47,1.68,1.93a1.24,1.24,0,0,1-.5,1,1.93,1.93,0,0,0-.67,1.43c-.13,1.34-.17,2.18-.17,3a43.69,43.69,0,0,0,4.58-1,7.24,7.24,0,0,0,2-.8,3.39,3.39,0,0,1,1.89-.46c1.05,0,2.6.46,2.6,1.43,0,.76-.46,1.09-2.31,1.51a87.15,87.15,0,0,1-8.78,1.6c0,2.18,0,4.16,0,6.43a24.13,24.13,0,0,0,3.74-.84,4.93,4.93,0,0,0,1.34-.76,3.08,3.08,0,0,1,1.81-.5c1.26,0,2,.42,2,1.09s-.46,1.05-1.43,1.43a34.62,34.62,0,0,1-7.39,1.81c0,2.39.21,5.46.34,7.77A33,33,0,0,1,30,127.06a2.46,2.46,0,0,1,1.39,2.06,1.48,1.48,0,0,1-1.3,1.6,2.15,2.15,0,0,1-1.47-.55,28.66,28.66,0,0,0-8-4.83Zm-7.81-1.85c-2,0-4.41.63-4.41,2.44s2.48,2.44,4.92,2.44c1.89,0,3-.34,3.78-1a3.9,3.9,0,0,0,.92-3.07A20.79,20.79,0,0,0,12.81,123.86Z"/><path class="cls-1" d="M23.27,152.34c0-1.64,0-2.86-.13-4.16-.08-.88-.42-1.22-.8-1.34a9,9,0,0,0-1.85-.42.29.29,0,0,1-.29-.29c0-.17.17-.38.59-.63a3.06,3.06,0,0,1,1.51-.42,7.06,7.06,0,0,1,3.7,1.81,1.72,1.72,0,0,1,.63,1.26,1.67,1.67,0,0,1-.38,1,3.36,3.36,0,0,0-.42,1.81c-.08,1.26-.17,2.69-.21,4.58l2.69-.5c.63-.13,1.09-.34,1.22-.92.17-.42.29-.5.46-.5a5,5,0,0,1,1.22.38,13,13,0,0,0,2.86.34c1.34.08,2.1.59,2.1,1.64s-.76,1.22-1.64,1.22c-.71,0-3-.25-3.95-.25a34.07,34.07,0,0,0-5,.5,62.61,62.61,0,0,1-.34,6.3c-.29,2.23-.84,3.4-1.55,4.16a3.5,3.5,0,0,1-2,1c-.55,0-.76-.17-1-.84a1.54,1.54,0,0,0-1-1.09c-.46-.21-1.43-.59-2.23-.88-.42-.17-.5-.29-.5-.55a.36.36,0,0,1,.34-.34c.13,0,.46.08.71.13a26.87,26.87,0,0,0,3.07.34c.84,0,1.26-.13,1.47-1a31.32,31.32,0,0,0,.67-6.72,82.4,82.4,0,0,0-9.75,2.65c0,2.65,0,5.46,0,7.65a5.86,5.86,0,0,0,.84,3.65c.84.92,2.35,1.3,4.16,1.3a32.85,32.85,0,0,0,6.93-.59,9.56,9.56,0,0,1,1.93-.46,5.17,5.17,0,0,1,2.31.42,1.47,1.47,0,0,1,1,1.22c0,.84-.46,1.3-1.64,1.51a56.28,56.28,0,0,1-7.77.46,21.33,21.33,0,0,1-6-.76,5.82,5.82,0,0,1-3-2.06,7.47,7.47,0,0,1-1-4.28c0-2.48,0-4.75-.08-7.23-2.18.88-3.49,1.43-5.17,2.27a6.89,6.89,0,0,0-1,.59,1.79,1.79,0,0,1-1.09.42,3.39,3.39,0,0,1-2.39-1.26A4,4,0,0,1,0,160.86c0-.8.17-.92.34-.92s.34.13.76.55a2.66,2.66,0,0,0,1.85,1,6.12,6.12,0,0,0,1.47-.21c2.06-.55,4.41-1.3,6.72-2,0-1.81,0-3.44-.08-5.25a2,2,0,0,0-.38-1.22,3.64,3.64,0,0,0-1.85-.88c-.46-.08-.55-.21-.55-.38s.25-.34.46-.46a2.69,2.69,0,0,1,1.26-.34A6.21,6.21,0,0,1,13.36,152a2,2,0,0,1,1,1.39,1.75,1.75,0,0,1-.38,1c-.21.29-.34.5-.38,1.55,0,.84-.08,1.55-.13,2.6,3.23-.92,6.47-1.72,9.75-2.52Z"/><path class="cls-1" d="M9.07,211.6A7.16,7.16,0,0,1,14.28,209,4.52,4.52,0,0,1,18,210.63a8.93,8.93,0,0,1,1.51,4.75,10.38,10.38,0,0,0,.88,4.12,2.55,2.55,0,0,0,2.44,1.22c2.14,0,4.92-1.43,7.1-4a25.69,25.69,0,0,0,4.49-8.44c.13-.38.25-.59.59-.59a.49.49,0,0,1,.46.55c0,.13,0,.38-.08.67a23,23,0,0,1-4.33,10.29,10.65,10.65,0,0,1-8.4,4.45,4.87,4.87,0,0,1-4.24-1.93c-.84-1.13-1.26-2.73-1.39-5.63a10.69,10.69,0,0,0-.8-4.49A2.24,2.24,0,0,0,14,210.3c-1.6,0-3.23.84-4.71,2.86a41.9,41.9,0,0,0-4.07,8.19,2,2,0,0,1-1.89,1.51c-.71,0-1.34-.46-1.34-1.6a2.69,2.69,0,0,1,.42-1.43c2.6-5.08,5.59-10.5,8-15.12,2-3.78,3.57-6.93,4.24-8.57a5.69,5.69,0,0,0,.55-1.93c0-.71-.42-1.3-1.68-2.06-.34-.21-.5-.29-.5-.5s.59-.5,1.34-.5a5.6,5.6,0,0,1,3.36,1.72c1.18,1.05,1.51,1.68,1.51,2.27a1.3,1.3,0,0,1-.8,1.26,4.22,4.22,0,0,0-1.68,1.89c-2,3.36-4.37,7.48-7.81,13.27Z"/><path class="cls-1" d="M37.89,241.67a5.54,5.54,0,1,1-5.54-5.55A5.65,5.65,0,0,1,37.89,241.67Zm-9.62,0a4.07,4.07,0,1,0,4.08-4.08A4.16,4.16,0,0,0,28.27,241.67Z"/></g></g></svg>