<svg xmlns="http://www.w3.org/2000/svg" viewBox="0 0 569.6 32.41"><defs><style>.cls-1{fill:#fff;}</style></defs><title>concept-title</title><g id="レイヤー_2" data-name="レイヤー 2"><g id="ナビ"><path class="cls-1" d="M14.7,4.74c0,.58.65,1.9,1.11,1.9.9,0,1.47.32,1.47.75s-.65,1.76-6.11,2.3A17.57,17.57,0,0,0,10.56,14a12.08,12.08,0,0,1,2.7-.29c.5,0,1,0,1.4.07a1.44,1.44,0,0,0,.11-.54c0-.4-.22-.65-.83-.65s-.61-.22-.61-.29.25-.54,1-.54a1.58,1.58,0,0,1,1.54,1.73,2.74,2.74,0,0,1,0,.54,7.85,7.85,0,0,1,6.18,7.47c0,4.67-4.49,9.67-15.52,9.67-.22,0-6-.11-6-.75,0-.18.54-.32,1.58-.32.25,0,.47,0,.75,0,.65,0,1.26,0,1.87,0,10.85,0,15.2-4.92,15.2-9.23A6.19,6.19,0,0,0,15.56,15a23.4,23.4,0,0,1-4,4.92,1.75,1.75,0,0,1,.68,1.69c0,.54-.14,1.44-.83,1.44-.47,0-1-.58-1.44-1.69-4.89,4.06-8.19,4.13-8.62,4.13-1,0-1.33-.43-1.33-1a2.73,2.73,0,0,1,.68-1.62,8.59,8.59,0,0,0,1.4-2.62A6.31,6.31,0,0,1,5.35,16a19.42,19.42,0,0,1,4-1.73A30.77,30.77,0,0,1,10,9.81c-.4,0-.79,0-1.15,0H8.7C5.82,9.85,1.47,8.48,1.47,5c0-.07,0-1.69.47-1.69.14,0,.32.22.5.58A6.65,6.65,0,0,0,8.7,8.19h1.65C11.46,3.88,13,2.12,13.87,2.12s1,.5,1,1.19a9.84,9.84,0,0,1-.14,1.37ZM9.24,15.38c-4.31,1.65-4.92,3.09-5.43,5a6.64,6.64,0,0,1-.47,1.44,1.61,1.61,0,0,0-.18.68c0,.29.14.47.54.47,1,0,3.45-1.19,5.86-3.13A21.92,21.92,0,0,1,9.24,16Zm3.88-.75a11,11,0,0,0-2.55.32,21.54,21.54,0,0,0,.4,3.59,22.72,22.72,0,0,0,2.69-3,9,9,0,0,0,.54-.86A10.8,10.8,0,0,0,13.12,14.63Zm1.29-7.83c0-.68-.25-1.87-.47-1.87-.4,0-1.44,1.47-2.23,3.2C14.19,7.91,14.41,7.47,14.41,6.79Z"/><path class="cls-1" d="M52.11,23.5a51.42,51.42,0,0,1-.61-5.21,7.54,7.54,0,0,1,3.41-6.43c.65-.5,1-.86,1-1.11s-.5-.54-1.51-.54c-3.23,0-7.33,3.41-9.74,9.45l0,.07c-.29,1.19-1.08,2.77-2.16,2.77-.43,0-.72-.32-.72-1a5.5,5.5,0,0,1,.65-2.23c1.69-3.49,3.16-7.73,3.34-10a8.54,8.54,0,0,1-4.06,1.44c-.29,0-3.59-.11-3.59-2.37,0-.54.18-.68.36-.68a2.07,2.07,0,0,1,.86.4A5.13,5.13,0,0,0,42.12,9a7.47,7.47,0,0,0,3.7-1.19,5.73,5.73,0,0,0-1.15-3.05,1.62,1.62,0,0,1-.29-.86c0-.4.29-.61.72-.61A2.11,2.11,0,0,1,46.57,4c.4.5.54,1.73,1.19,1.73,0,0,.07,0,.14,0a3,3,0,0,1,.86-.14c.54,0,.72.22.72.5,0,.61-1,1.58-2.52,2.73-.5,2.12-1,5.17-1.58,7.83,2.34-4.13,6.07-7.91,11.46-7.91,2.12,0,4.67,1.11,4.67,1.9,0,.47-.93.75-2.08.75H59c-1.8,0-6.25,1.11-6.25,5.53,0,2.23,1,4.6,1.37,6.36a3.93,3.93,0,0,1,0,.65,5.75,5.75,0,0,1-.18,1.4c.9.22,8.88,2.3,8.88,4.92a.86.86,0,0,1-.93.9,3.22,3.22,0,0,1-1.87-.86,29.83,29.83,0,0,0-6.58-3.77,5.86,5.86,0,0,1-5,2.88c-1.58,0-4.42-1.08-4.42-2.66,0-1.37,1.65-2.23,4.46-2.23a19,19,0,0,1,3.38.36,3.27,3.27,0,0,0,.18-1.11Zm-4,1.73c-1.87,0-3,.65-3,1.29,0,.9,1.47,1.29,2.7,1.29a4.17,4.17,0,0,0,3.74-2A12.15,12.15,0,0,0,48.08,25.23Z"/><path class="cls-1" d="M82.19,17.18c2.62-3.85,7.4-7.69,10.49-7.69a24.08,24.08,0,0,1,4.82,1c1.33.29,1.9.83,1.9,1.26s-.68.93-1.83.93c-.14,0-.29,0-.47,0s-.32,0-.5,0c-3.34,0-7.29,2.16-7.29,5.43,0,3.05,3.49,6.43,8.23,8.95A2.44,2.44,0,0,1,99,29a.94.94,0,0,1-1,1c-1.72,0-9.56-5.28-9.56-11,0-2.26,1.19-4.35,3.81-5.86,1.11-.65,1.69-1.08,1.69-1.4s-.75-.72-1.62-.72C89,10.92,82.8,16,81.22,20.34c-1.15,3.16-1.94,6.15-2.41,7.29a2.47,2.47,0,0,1-1.94,1.69c-.43,0-.75-.29-.75-.9a4.88,4.88,0,0,1,.75-2.19C78.7,23,82.76,12.61,83.09,10.49a5.64,5.64,0,0,1-2.59.79c-1.19,0-3.88-1-3.88-2.84,0-.07,0-.68.29-.68s.47.18.86.47A5.59,5.59,0,0,0,81,9.7,4.26,4.26,0,0,0,83.19,9c0-.18.07-.5.07-.9,0-.65-.14-1.4-.9-1.47s-1-.5-1-.93a1.08,1.08,0,0,1,1.11-1,2.18,2.18,0,0,1,1.19.43c.86.61.79,2.08,1.58,2.08a.46.46,0,0,0,.22,0A2.65,2.65,0,0,1,86.25,7c.43,0,.61.22.61.47s-.07.86-2.48,2.48Z"/><path class="cls-1" d="M120.25,29.39a4.4,4.4,0,0,1-.65,0c-.36,0-.57,0-.57-.14s.4-.32,1.37-.54c10.85-2.48,15-7.58,15-11.93,0-4.85-5.39-8.44-9.52-8.44s-7.62,2.84-9.63,5.89a5.57,5.57,0,0,0-.83,3.05c0,2.08.9,4.6,2,4.6,1.87,0,7.83-6,7.83-10.56,0-1.08-.4-1.51-.68-1.58-.47-.11-.65-.29-.65-.43s.36-.4.75-.4c1.37,0,2,1.19,2,2.84,0,6.11-8,13.12-10.42,13.12-.75,0-1.37-.4-1.4-1.51a9.12,9.12,0,0,0-.5-2.55,9,9,0,0,1-.54-2.77,7.63,7.63,0,0,1,1.62-4.6c2.91-3.88,6.83-6.15,10.92-6.15,5.32,0,11.35,4.31,11.35,9.88C137.75,22.42,132.43,27.92,120.25,29.39Z"/><path class="cls-1" d="M157.51.83a.85.85,0,0,1,.9-.79c1.8,0,3.13.07,4.42.07s2.52,0,4-.11c.07,0,.25,0,.29.18a1.5,1.5,0,0,1,.07.61c0,.18,0,.83-.4.83-.93,0-3-.11-5-.11-.79,0-1.58,0-2.26,0-.32,0-.4.14-.4.47,0,1.9,0,5.75,0,10.17,0,6.25,0,13.69.11,18.54,0,.32,0,.54-.9.54-.57,0-.9,0-.9-.5.22-3.92.32-10.74.32-17,0-5.5-.07-10.56-.29-12.86Z"/><path class="cls-1" d="M183.13,23.9c1.73,0,2.62,1.69,3.45,3.74a1.37,1.37,0,0,0,1.33,1,7,7,0,0,0,2.73-.93c2.73-1.33,5.61-3.2,8.59-3.2,1.94,0,3.52.79,3.52,1.58,0,.54-.68,1-1.94,1A7,7,0,0,1,200,27a6.14,6.14,0,0,0-.83,0c-2.55,0-5.71,1.37-8.09,2.37a9.74,9.74,0,0,1-3.38,1c-1,0-1.8-.54-2.19-2-.75-2.73-1.51-3.67-2.55-3.67-.54,0-1.29.36-2.19,2.41-.32.75-.83,1.11-1.22,1.11s-.75-.36-.75-.93a3,3,0,0,1,.79-1.8,12.87,12.87,0,0,1,1.73-1.58c3.13-2.84,7.33-5.68,10.78-8.44a1.62,1.62,0,0,0,.75-1.15c0-.58-.72-1-1.58-1a3,3,0,0,0-1.37.32c-1.62.75-3.27,2.77-4.78,3.92a3.67,3.67,0,0,1-2.23.79c-1.26,0-2.23-.72-2.23-1.51,0-.43.32-.9,1.11-1.22a5.51,5.51,0,0,0,1.65-1.33,48,48,0,0,1,6.22-5.53c.43-.32.86-.75.86-1.11a.38.38,0,0,0-.22-.32,3,3,0,0,1-2.16-2.7c0-.72.25-1.62.54-1.62s.29.22.29.5V3.7c0,2.73,5.32,1.94,5.32,4.38v.14c-.07.83-1.19.72-2.19.9-3.67.68-8.77,5.79-8.77,6.65,0,.22.22.29.5.29H184c1.51-.14,3.23-2.34,5.5-3.38a5.3,5.3,0,0,1,2.16-.47c2.3,0,4.24,1.44,4.24,2.73,0,.54-.4,1.08-1.33,1.44-2.55,1.08-8.84,4.49-11.68,7.51Z"/><path class="cls-1" d="M217.56,19c-1.44,0-3.27-1-3.27-2.55,0-.86.36-1.15.47-1.15s.32.22.47.5a1.56,1.56,0,0,0,1.54.72c1.11,0,1.8-.36,4.42-2.7a4.64,4.64,0,0,1,3.09-1.37,5,5,0,0,1,2.34.61c2.48,1.22,8,8.55,14.66,9.74,1.37.25,2.08,1,2.08,1.58s-.61,1.08-1.8,1.08a7.55,7.55,0,0,1-.86-.07c-6.15-1-11.5-9.7-14.66-11.43a3.52,3.52,0,0,0-1.73-.5,2.63,2.63,0,0,0-2,1c-1.37,1.62-2.66,4.49-4.64,4.53Zm16.64-4.92a36.92,36.92,0,0,0-3.31-2.66c-.32-.29-.47-.5-.47-.65s.11-.14.25-.14,4,1,4.89,2a1.78,1.78,0,0,1,.5,1.15.82.82,0,0,1-.75.9A1.53,1.53,0,0,1,234.2,14.05Zm2.66-2.19c-1.29-1.26-2.59-1.62-3.41-2.3-.32-.29-.5-.47-.5-.61s.11-.14.29-.14,3.88.68,4.89,1.62a1.54,1.54,0,0,1,.61,1.15.78.78,0,0,1-.79.83A1.6,1.6,0,0,1,236.86,11.86Z"/><path class="cls-1" d="M255,21.35a7.89,7.89,0,0,0,.9,0,4.67,4.67,0,0,0,3.13-1c3.16-2.37,6.4-4.2,9.34-4.2,2.23,0,5.32,1.26,5.32,4.13,0,3.34-4.81,8.37-13.62,8.37-1.08,0-1.62-.22-1.62-.32s.58-.4,1.73-.5c8.95-.86,11.54-5.82,11.54-7.62,0-2.23-2.7-2.91-3.88-2.91-2.08,0-4.64,1.22-7.51,4.46a3.8,3.8,0,0,1-2.91,1.33c-1.19,0-3.16-.65-3.16-1.33v0c0-.29.32-.4.61-.4Z"/><path class="cls-1" d="M298.49,20c3.23,0,10,2.3,10.56,2.44a7.88,7.88,0,0,0,1.19.25c.32,0,.47-.18.47-.68,0-2.73-3.77-7.55-6.94-10.67a16.32,16.32,0,0,1-4.67.93,5.28,5.28,0,0,1-4.67-2.66,11.12,11.12,0,0,1-1.37-2.3.19.19,0,0,1,.21-.22A7.27,7.27,0,0,1,296,8.66c1.22,1,1.94,2,3.88,2A7,7,0,0,0,302.7,10a6.34,6.34,0,0,1-1.37-2.73c-.07-.83,0-2.3,1-2.3a1.68,1.68,0,0,1,1.47,1.51.73.73,0,0,1-.11.4,1.92,1.92,0,0,0-.18.75.92.92,0,0,0,1,1A3.65,3.65,0,0,0,306,8.19a2.25,2.25,0,0,1,1-.29c.36,0,.61.18.61.5a2.13,2.13,0,0,1-.47,1.08A8.2,8.2,0,0,1,304.64,11c2.37,2.73,8.16,8.23,8.16,11.61a5.13,5.13,0,0,1-.29,1.76c-.4,1-1,1.47-1.72,1.47a5.51,5.51,0,0,1-2.26-1.19c-2.8-2.08-7.73-3.88-10-3.88-1.08,0-2,.36-2,1.4,0,1.83,2.88,5.39,6.83,5.39.32,0,.68,0,1-.07a3.32,3.32,0,0,1,.58,0c1.22,0,2,.61,2,1.22S306.36,30,304,30c-4.42,0-8.59-4.31-8.59-7.58,0-1.37.83-2.41,3.09-2.41Z"/><path class="cls-1" d="M335.33,26.05a5.34,5.34,0,0,1,.36-1.87,3.68,3.68,0,0,0,.25-1.22.86.86,0,0,0-.93-1,3.66,3.66,0,0,0-2.55,1.29c-.58.9-.86,2-1.22,2.66a.94.94,0,0,1-.72.5c-.54,0-1-.65-1-1.8a5.78,5.78,0,0,1,.72-2.62c1.69-3.31,7.29-9.31,10.6-13.3a2.43,2.43,0,0,0,.72-1.54c0-.68-.5-1.15-.58-1.76,0-.14,0-.29,0-.43,0-1,.4-1.58.72-1.58s.4.22.47.65C342.3,5.39,345,6.43,345,7.83c0,.61-.47,1.26-1.9,2-4.85,2.66-10.49,10-10.49,11.14,0,.36.36.58.86.58a6.29,6.29,0,0,0,2.62-.47,3.43,3.43,0,0,1,1.69-.47c1.37,0,2.44.83,2.44,1.47a.32.32,0,0,1,0,.18c-.39,1-2.19-.07-3.23,2.3s.18,4.17,3.59,4.17c5.35,0,14.23-4.92,14.23-16a21.45,21.45,0,0,0-.25-3.31,5.67,5.67,0,0,1-.07-.68c0-.43.11-.68.21-.68s.36.36.58,1.22c3.74,14.95-7.19,20.91-13.76,20.91C338,30.29,335.33,28.82,335.33,26.05Z"/><path class="cls-1" d="M373.21,31.3a.85.85,0,0,1-.9.79c-1.76,0-3.13-.07-4.42-.07s-2.52,0-4,.11c-.07,0-.25,0-.29-.18a2.58,2.58,0,0,1-.07-.61c0-.18,0-.83.39-.83.93,0,3,.11,5,.11.79,0,1.58,0,2.26,0,.32,0,.39-.14.39-.47,0-1.9,0-5.75,0-10.17,0-6.25,0-13.69-.11-18.54,0-.32,0-.54.93-.54.54,0,.86,0,.86.5-.22,3.92-.32,10.74-.32,17,0,5.5.07,10.56.29,12.86Z"/><path class="cls-1" d="M418,27.74c-5.79,0-11.86-6.65-11.86-10.92a3.45,3.45,0,0,1,2.55-3.38c.79-.25,1.19-.5,1.19-.68s-1-.65-2.41-.65c-4.74,0-7.76,5.82-7.76,11.5a16.82,16.82,0,0,0,.29,2.88,2.6,2.6,0,0,1,0,.5c0,.68-.32,1-.86,1-1.11,0-4-1.55-4-7.15a28.94,28.94,0,0,1,.9-6.5,14,14,0,0,0,.5-3.13,6.41,6.41,0,0,0-1.33-3.74,2,2,0,0,1-.4-.9.35.35,0,0,1,.4-.36c.25,0,3.38.72,3.38,3.7a13.48,13.48,0,0,1-1.19,4.6,16.71,16.71,0,0,0-1,5.57c0,3,1.08,4,1.37,4s.4-.22.54-.79c2.3-9.59,6.68-12.47,9.88-12.47a6.32,6.32,0,0,1,.83,0c.65.07,1.8.25,2.52.32a4.55,4.55,0,0,0,.72,0c1.51,0,2.55.18,2.55,1,0,.54-.65,1-1.76,1.22-.75.11-2.87.25-4.06.5a2.26,2.26,0,0,0-2,2.3c0,3.27,5.32,8.3,10.6,8.95,1.54.18,2.37.93,2.37,1.55S419.27,27.74,418,27.74Z"/><path class="cls-1" d="M446,23.5a51.42,51.42,0,0,1-.61-5.21,7.55,7.55,0,0,1,3.41-6.43c.65-.5,1-.86,1-1.11s-.5-.54-1.51-.54c-3.23,0-7.33,3.41-9.74,9.45l0,.07c-.29,1.19-1.08,2.77-2.16,2.77-.43,0-.72-.32-.72-1a5.49,5.49,0,0,1,.65-2.23c1.69-3.49,3.16-7.73,3.34-10a8.54,8.54,0,0,1-4.06,1.44c-.29,0-3.59-.11-3.59-2.37,0-.54.18-.68.36-.68a2.07,2.07,0,0,1,.86.4A5.13,5.13,0,0,0,436,9a7.47,7.47,0,0,0,3.7-1.19,5.74,5.74,0,0,0-1.15-3.05,1.61,1.61,0,0,1-.29-.86c0-.4.29-.61.72-.61a2.11,2.11,0,0,1,1.47.75c.4.5.54,1.73,1.19,1.73,0,0,.07,0,.14,0a3.05,3.05,0,0,1,.86-.14c.54,0,.72.22.72.5,0,.61-1,1.58-2.52,2.73-.5,2.12-1,5.17-1.58,7.83,2.34-4.13,6.07-7.91,11.46-7.91,2.12,0,4.67,1.11,4.67,1.9,0,.47-.93.75-2.08.75h-.4c-1.8,0-6.25,1.11-6.25,5.53,0,2.23,1,4.6,1.37,6.36a3.88,3.88,0,0,1,0,.65,5.72,5.72,0,0,1-.18,1.4c.9.22,8.88,2.3,8.88,4.92a.86.86,0,0,1-.93.9,3.22,3.22,0,0,1-1.87-.86,29.83,29.83,0,0,0-6.58-3.77,5.86,5.86,0,0,1-5,2.88c-1.58,0-4.42-1.08-4.42-2.66,0-1.37,1.65-2.23,4.46-2.23a19,19,0,0,1,3.38.36,3.27,3.27,0,0,0,.18-1.11Zm-4,1.73c-1.87,0-3,.65-3,1.29,0,.9,1.47,1.29,2.69,1.29a4.17,4.17,0,0,0,3.74-2A12.15,12.15,0,0,0,442,25.23Z"/><path class="cls-1" d="M473.61,32.31c0-.11.25-.32.79-.58,8.08-3.77,10.53-9.81,10.53-15.24,0-3.85-1.72-10.17-3.59-10.17-2.33,0-3.49,7.73-3.49,8.84a2,2,0,0,0,.9,1.8c.32.22.79.32,1.11.58a1.1,1.1,0,0,1,.47.83c0,.5-.43.93-1.15.93-1.11,0-3.52-1.08-3.52-5.46,0-2.7.75-5.68.86-7.47,0-.4,0-.75,0-1.08,0-.75-.11-1.26-.5-1.54-.21-.14-.43-.32-.43-.58a1.15,1.15,0,0,1,1.11-.79c.83,0,1.73.79,1.73,2.55a7.15,7.15,0,0,1-.25,1.8c-.32,1.37-1.08,4.56-1.08,4.92s0,.29.11.29.21-.14.29-.4c1.76-6.18,3.05-6.83,4.13-6.83,2.84,0,5.43,6.83,5.43,11.68,0,12.94-12.65,16-13.26,16C473.68,32.41,473.61,32.38,473.61,32.31Z"/><path class="cls-1" d="M514.15,17.18c2.62-3.85,7.4-7.69,10.49-7.69a24.08,24.08,0,0,1,4.82,1c1.33.29,1.9.83,1.9,1.26s-.68.93-1.83.93c-.14,0-.29,0-.47,0s-.32,0-.5,0c-3.34,0-7.29,2.16-7.29,5.43,0,3.05,3.49,6.43,8.23,8.95A2.44,2.44,0,0,1,531,29a.94.94,0,0,1-1,1c-1.72,0-9.56-5.28-9.56-11,0-2.26,1.19-4.35,3.81-5.86,1.11-.65,1.69-1.08,1.69-1.4s-.75-.72-1.62-.72c-3.31,0-9.49,5.07-11.07,9.42-1.15,3.16-1.94,6.15-2.41,7.29a2.47,2.47,0,0,1-1.94,1.69c-.43,0-.75-.29-.75-.9a4.88,4.88,0,0,1,.75-2.19c1.83-3.23,5.89-13.62,6.22-15.74a5.64,5.64,0,0,1-2.59.79c-1.19,0-3.88-1-3.88-2.84,0-.07,0-.68.29-.68s.47.18.86.47A5.59,5.59,0,0,0,513,9.7,4.26,4.26,0,0,0,515.15,9c0-.18.07-.5.07-.9,0-.65-.14-1.4-.9-1.47s-1-.5-1-.93a1.08,1.08,0,0,1,1.11-1,2.18,2.18,0,0,1,1.19.43c.86.61.79,2.08,1.58,2.08a.46.46,0,0,0,.22,0,2.66,2.66,0,0,1,.83-.14c.43,0,.61.22.61.47s-.07.86-2.48,2.48Z"/><path class="cls-1" d="M565.43,20.27c-.72-.14-1.87-.25-1.87-.5s.29-.32,1.11-.58c2-.65,2.7-1.58,2.7-2.69a4.56,4.56,0,0,0-4.6-4.31c-.5,0-6,.11-6,9.16a7.68,7.68,0,0,0,.9,4.06,1.63,1.63,0,0,1,.29.83c0,.58-.5,1-1.65,1s-8.34-.5-10.35-9.31c-.61-2.69-.86-4.53-1.29-5.68a3.39,3.39,0,0,1-.25-1c0-.14,0-.22.14-.22s.32.11.68.43c2.37,2.12,2.48,4,2.73,6.18.5,4.38,3.74,7.08,6,7.08.93,0,1-.75,1.11-1.69.68-8.44,4.38-11.86,8.16-11.86a6.34,6.34,0,0,1,6.4,6,3.28,3.28,0,0,1-3,3.45C566,20.66,565.82,20.34,565.43,20.27Z"/></g></g></svg>