<svg xmlns="http://www.w3.org/2000/svg" viewBox="0 0 102.99 221.39"><defs><style>.cls-1{fill:#fff;}</style></defs><title>concept-text-jp1</title><g id="レイヤー_2" data-name="レイヤー 2"><g id="ナビ"><path class="cls-1" d="M83.38,22.52a3.68,3.68,0,0,1,3.28,1.93,50.89,50.89,0,0,1,2,4.83c.67,1.43,1.26,1.93,3.4,1.93a20.74,20.74,0,0,0,4-.46,8.15,8.15,0,0,1,1.81-.25,3.59,3.59,0,0,1,2.14.63,1.74,1.74,0,0,1,.8,1.39c0,.76-.55,1.26-2.27,1.43-1.18.13-3,.17-4.28.17a18.57,18.57,0,0,1-4.5-.42c-2-.46-2.94-1.76-3.53-3.78A38.32,38.32,0,0,0,84.72,25a2,2,0,0,0-2-1.22c-1.47,0-2.86,1.51-4.49,3.23s-3.32,3.78-5.17,6.13a1.6,1.6,0,0,1-1.34.63c-1,0-1.39-.8-1.39-1.76a2.35,2.35,0,0,1,1-1.68c2.48-2.39,5.59-5.59,8.65-8.86,2.65-2.86,5.25-5.67,7.18-8.23.17-.25,0-.46-.25-.38a60.88,60.88,0,0,0-8.49,3.78,8.23,8.23,0,0,0-1.22.76,1.74,1.74,0,0,1-1.18.42c-.59,0-1.13-.42-1.89-1.22a4,4,0,0,1-1.26-2.35A3.83,3.83,0,0,1,73,13.11c.08-.25.21-.42.38-.42s.21.08.5.59a3.94,3.94,0,0,0,.76,1,1.77,1.77,0,0,0,1.3.55,5.08,5.08,0,0,0,1.64-.34c2.35-.84,5.33-1.93,7.9-2.9a3.06,3.06,0,0,0,1.39-.76,1.36,1.36,0,0,1,1-.59,5.1,5.1,0,0,1,2.39,1.18c1,.8,1.6,1.26,1.6,2s-.5.8-1.09.88a2.33,2.33,0,0,0-1.51.71c-2.69,2.73-5,5-8.15,8.23A4.65,4.65,0,0,1,83.38,22.52ZM79.76,2.35a3.29,3.29,0,0,1-.92-2A.41.41,0,0,1,79.17,0a.65.65,0,0,1,.5.29c1.3,1.64,3.23,2.31,6,2.48a6.12,6.12,0,0,1,2.86.63,1.61,1.61,0,0,1,.84,1.51c0,.84-.59,1.05-1.26,1.05-.46,0-1.22-.08-1.64-.08a5.87,5.87,0,0,0-2.23.46c-1.6.67-2.77,1.22-4.33,2a2,2,0,0,1-.84.21.37.37,0,0,1-.38-.34A.68.68,0,0,1,79,7.6c1.34-.88,2.44-1.6,4.2-2.81A8.72,8.72,0,0,1,79.76,2.35Z"/><path class="cls-1" d="M84.64,60.15c2.6,1.68,5.29,3.53,8,5.08a72,72,0,0,0,8.78,4.16,2.21,2.21,0,0,1,1.6,1.89,1.7,1.7,0,0,1-1.51,1.81,5.73,5.73,0,0,1-2.73-.84,50.78,50.78,0,0,1-7.39-4.45c-2.56-1.76-5.17-3.82-7.81-6a4.06,4.06,0,0,0-2.69-1.26c-.76,0-1.3.34-2.39,1.22a47.79,47.79,0,0,0-4.92,4.87,6.38,6.38,0,0,0-1,1.47,1.47,1.47,0,0,1-1.34.84c-1,0-2.14-1.09-2.9-2a4,4,0,0,1-1.13-2.65c0-.55.13-.88.38-.88s.34.21.55.46c.71.8,1.34,1.34,1.89,1.34.25,0,.63-.17,1.43-.71l6.22-4.41a5.7,5.7,0,0,1,3.61-1.34A6.2,6.2,0,0,1,84.64,60.15Zm6.47-7.27a9.23,9.23,0,0,1,3.74,1.89c1.09.8,1.72,1.51,1.76,2.39a1.17,1.17,0,0,1-1.09,1.34c-.55,0-1.05-.34-1.47-1.05a14.68,14.68,0,0,0-3.74-3.82c-.21-.13-.34-.25-.34-.38a.43.43,0,0,1,.42-.46A3.33,3.33,0,0,1,91.1,52.88Zm3.44-3A10.06,10.06,0,0,1,98,51.28c1,.67,2,1.55,2.06,2.52A1.22,1.22,0,0,1,99,55.23c-.55,0-.88-.17-1.39-.92a13.08,13.08,0,0,0-4.12-3.74.4.4,0,0,1-.29-.38.42.42,0,0,1,.38-.46A4.71,4.71,0,0,1,94.55,49.85Z"/><path class="cls-1" d="M101.9,110.84c0,3.61-2.23,5.84-5,7.44-3.23,1.89-7.69,2.81-11.17,3.19a9.86,9.86,0,0,1-1.09,0c-.46,0-.71-.25-.71-.5a.74.74,0,0,1,.67-.71A29.26,29.26,0,0,0,94.25,117c2.81-1.68,4.54-3.82,4.54-6.68,0-3.57-2.44-5.63-6-5.63a12.25,12.25,0,0,0-5.59,1.55A55.27,55.27,0,0,0,82,109.58a9.18,9.18,0,0,0-1.81,1.68,1.44,1.44,0,0,1-1.18.63,4.56,4.56,0,0,1-2.9-1.85,3.66,3.66,0,0,1-1.05-2.23c0-.59.17-.84.38-.84s.34.17.59.42c.76.67,1.26,1.13,1.81,1.13a3.18,3.18,0,0,0,1.39-.34c2.31-1.13,4.58-2.35,6.81-3.32a16.78,16.78,0,0,1,6.81-1.72C97.91,103.15,101.9,106,101.9,110.84Z"/><path class="cls-1" d="M91,148.39a8.37,8.37,0,0,0,1.6-1,3.34,3.34,0,0,1,1.85-.59c1.26,0,1.76.63,1.76,1.39,0,.55-.29.84-1.34,1.34a66.09,66.09,0,0,1-7.1,2.86,40.13,40.13,0,0,0,4.07,7.31,21.15,21.15,0,0,0,1.76,2.18,3.93,3.93,0,0,1,.88,2.48c0,1.34-.59,1.76-1.39,1.76-.42,0-.88-.29-1.6-1.05a6.49,6.49,0,0,0-3.32-1.76,19.22,19.22,0,0,0-5.33-.8,9.94,9.94,0,0,0-5.54,1.43,3.62,3.62,0,0,0-1.64,2.9c0,1.72,1.09,2.9,2.9,3.74A18.52,18.52,0,0,0,86.32,172a12.65,12.65,0,0,0,1.47-.08,9,9,0,0,1,1.43-.13,3.86,3.86,0,0,1,1.72.42,1.5,1.5,0,0,1,1,1.47c0,1-.71,1.64-3.53,1.64-3.82,0-8.28-.8-11-2.31s-3.74-3.28-3.74-5.5a5.69,5.69,0,0,1,3.23-5,12.66,12.66,0,0,1,6.43-1.55,41.76,41.76,0,0,1,6.81.63A73.67,73.67,0,0,1,85.77,153a26.22,26.22,0,0,1-7.23,1.3,8.82,8.82,0,0,1-3.78-.67,5.47,5.47,0,0,1-2.56-2,1.23,1.23,0,0,1-.29-.71.42.42,0,0,1,.38-.42.9.9,0,0,1,.55.21,6.25,6.25,0,0,0,2.1,1.09,10.18,10.18,0,0,0,3.15.38,24.39,24.39,0,0,0,6.81-1.34c-.59-1.81-1.13-3.57-1.81-5.55-.29-.88-.55-1.3-.92-1.51a2.31,2.31,0,0,0-1.09-.21c-.46,0-1.05.08-1.26.08s-.42-.13-.42-.29.25-.59.71-.92a3.72,3.72,0,0,1,2.06-.8,6.48,6.48,0,0,1,3.28.92c.67.38.92.8.92,1.26a1.69,1.69,0,0,1-.29.84,2.48,2.48,0,0,0-.17,1.13,21.71,21.71,0,0,0,1.05,4.37A37.52,37.52,0,0,0,91,148.39Z"/><path class="cls-1" d="M75.23,209.33a7.15,7.15,0,0,1,5.21-2.65,4.52,4.52,0,0,1,3.74,1.68,8.94,8.94,0,0,1,1.51,4.75,10.38,10.38,0,0,0,.88,4.12A2.55,2.55,0,0,0,89,218.45c2.14,0,4.91-1.43,7.1-4A25.69,25.69,0,0,0,100.6,206c.13-.38.25-.59.59-.59a.49.49,0,0,1,.46.55c0,.13,0,.38-.08.67a23,23,0,0,1-4.33,10.29,10.65,10.65,0,0,1-8.4,4.45,4.88,4.88,0,0,1-4.24-1.93c-.84-1.13-1.26-2.73-1.39-5.63a10.69,10.69,0,0,0-.8-4.49,2.24,2.24,0,0,0-2.23-1.3c-1.6,0-3.23.84-4.7,2.86a41.9,41.9,0,0,0-4.07,8.19,2,2,0,0,1-1.89,1.51c-.71,0-1.34-.46-1.34-1.6a2.69,2.69,0,0,1,.42-1.43c2.6-5.08,5.59-10.5,8-15.12,2-3.78,3.57-6.93,4.24-8.57a5.69,5.69,0,0,0,.55-1.93c0-.71-.42-1.3-1.68-2.06-.34-.21-.5-.29-.5-.5s.59-.5,1.34-.5a5.6,5.6,0,0,1,3.36,1.72c1.18,1.05,1.51,1.68,1.51,2.27a1.3,1.3,0,0,1-.8,1.26A4.22,4.22,0,0,0,83,196c-2,3.36-4.37,7.48-7.81,13.27Z"/><path class="cls-1" d="M33.9,16.76c0,3.61-2.23,5.84-5,7.44-3.23,1.89-7.69,2.81-11.17,3.19a9.86,9.86,0,0,1-1.09,0c-.46,0-.71-.25-.71-.5a.74.74,0,0,1,.67-.71,29.26,29.26,0,0,0,9.62-3.28c2.81-1.68,4.54-3.82,4.54-6.68,0-3.57-2.44-5.63-6-5.63a12.25,12.25,0,0,0-5.59,1.55A55.27,55.27,0,0,0,14,15.5a9.18,9.18,0,0,0-1.81,1.68,1.44,1.44,0,0,1-1.18.63A4.56,4.56,0,0,1,8.15,16,3.66,3.66,0,0,1,7.1,13.74c0-.59.17-.84.38-.84s.34.17.59.42c.76.67,1.26,1.13,1.81,1.13a3.18,3.18,0,0,0,1.39-.34c2.31-1.13,4.58-2.35,6.81-3.32a16.78,16.78,0,0,1,6.81-1.72C29.91,9.07,33.9,11.93,33.9,16.76Z"/><path class="cls-1" d="M19.62,54.81C15,56.24,10.25,57.84,7,59a5.82,5.82,0,0,0-1.81,1,1.55,1.55,0,0,1-1.13.42c-.71,0-1.72-.5-2.81-1.76A4.5,4.5,0,0,1,0,56.24c0-.59.17-1.05.38-1.05a.86.86,0,0,1,.55.34A3.72,3.72,0,0,0,4.07,57a14.91,14.91,0,0,0,2.52-.46C12.69,55,19,53.34,25.16,51.74a5,5,0,0,0,1.64-.63,2.87,2.87,0,0,1,1.43-.42,6.77,6.77,0,0,1,2.73.71c.59.25,1.13.67,1.13,1.3,0,.88-.42,1.26-1.47,1.3a27,27,0,0,0-7.39.92,13.51,13.51,0,0,0-6,3.91A12.11,12.11,0,0,0,13.86,67a7.92,7.92,0,0,0,2.9,6.3,14.3,14.3,0,0,0,7.69,2.56,5.6,5.6,0,0,1,2.9.71,1.91,1.91,0,0,1,1.13,1.81c0,.71-.46,1.22-2.23,1.22a18.7,18.7,0,0,1-9.83-3.11,10.13,10.13,0,0,1-4.49-8.32A13.41,13.41,0,0,1,13.82,61a18,18,0,0,1,5.84-6Z"/><path class="cls-1" d="M26,101.94c0,4.71-3.74,7.1-6.43,9.37-2.35,2-3.11,3.7-2.86,7.06,0,.46-.38.76-1.26.76q-.38,0-.38-.5c0-3.82.63-5.92,2.65-8.61,1.93-2.44,4.33-4.62,4.33-8.23s-1.68-6.34-5.38-6.34a4.69,4.69,0,0,0-4.37,2.31,6.81,6.81,0,0,0-.67,3.61c0,1.22-1.6,2.1-3,2.1-.84,0-1.43-.34-1.43-1.68,0-2.9,3.61-7.69,9.62-7.69S26,97.48,26,101.94ZM18.4,125.88a2.63,2.63,0,1,1-2.6-2.69A2.61,2.61,0,0,1,18.4,125.88Z"/></g></g></svg>