<svg xmlns="http://www.w3.org/2000/svg" viewBox="0 0 261.52 87.58"><defs><style>.cls-1{fill:#333;}</style></defs><title>message_bg_zen</title><g id="レイヤー_2" data-name="レイヤー 2"><g id="ナビ"><path class="cls-1" d="M72.69,74.26c.67-.22,5.6-1.68,6.27-2.13a19.72,19.72,0,0,1,2.69-1.23c1.23-.56,1.9-.78,3.14-1.46,2.24-1.34,2.69-1.57,3.58-1.68a1,1,0,0,1,.78.34.83.83,0,0,1,.34.78,1.6,1.6,0,0,1-.9,1.12c-1.34.78-2.46,1.12-3.47,1.79a51.83,51.83,0,0,0-4.82,2.69c-.9.56-3.25,1.46-3.92,1.79a52.58,52.58,0,0,1-18.26,5.38c-1.23.11-2.35.22-3.25.22a33.2,33.2,0,0,1-5.94-.67c-2.8-.78-6.94-.9-8.62-1.9-2.13-1.46-4.37-1.12-6-1.68-.67-.22-2-.67-3.7-1.34A14.13,14.13,0,0,0,28.34,78c-2.91,2.58-4.26,4.14-9.41,6.38-4.59,2-8.62,3.25-10.86,3.25a2.18,2.18,0,0,1-.9-.11A9.65,9.65,0,0,1,.78,82.21,8.11,8.11,0,0,1,0,79.3c0-1.79,1.12-3.58,3.25-5.71a14.48,14.48,0,0,1,8.74-4c1.9-.11,3.92-.34,6.38-.34a32.54,32.54,0,0,1,4.48.34c2.69.45,5.49.45,8.29.78l1.68-1.9c9-10.86,11-13.44,13.22-15.34s3-1.34,4.14-3.81v-.22a43.39,43.39,0,0,0-5.6,1.57,2.28,2.28,0,0,1-1,.22c-.22,0-.34,0-.34-.22,0-.45.9-1.68,1.12-2.91.22-1.79,2.13-3,4.37-3.14.78-.11,2.8-.11,5-.22L55,42.9c2.8-3.7,4.37-4.82,7.28-8.29a74.22,74.22,0,0,1,8.06-7.84c1.34-1.23,3-3,4.82-5-4.14.11-9,0-12.21,0a50.71,50.71,0,0,1-5.15-.45L53.09,24c-3,1.57-8.29,4.82-12,6.16-3.7,1.12-9.07,2.69-11.42,3.25a33.25,33.25,0,0,1-6,.67,14,14,0,0,1-2.35-.22c-2.13-.45-6.83-2.58-7.17-4.7A4.22,4.22,0,0,1,14,27.89c0-2.24.67-5.94,2.91-7.28,2.8-1.68,6-4,9.3-4.48,2.8-.45,5.38-1.46,9.52-1.46a17.36,17.36,0,0,1,2.35.11c5.38.45,9.63,0,13.55,1a40.74,40.74,0,0,0,4.93,1.12l1-.9c2.13-1.79,4.82-5.6,6.5-8.62S65.3,0,66.19,0c.67,0,4.48,2.58,4.48,6.38,0,3.47-.78,5.38-6.94,10.64l-1,.9,3.47.34c3.81.45,5.15.34,9.3,1a7.78,7.78,0,0,0,1.79.22A28.36,28.36,0,0,1,82.77,15,47.22,47.22,0,0,1,94,10.08a17.79,17.79,0,0,1,5.15-.78,6.31,6.31,0,0,1,3.92,1,2.53,2.53,0,0,1,1,2.24c0,1.79-1.23,4.14-4.7,5.6C95.09,20,87.81,21.06,82.77,21.5c-1,.9-2,2-3,3-6.61,7.39-10.86,12.32-12.43,13.22-1.57.67-1.46,2.46-3,4.14-.9,1-1.23,1.68-2,2.69a10,10,0,0,1,2,.22c.22,0,1.12.11,1.34.11,3.47.56,5.71,1,7.17,2.58a2.08,2.08,0,0,1,.45,1.23,2.37,2.37,0,0,1-2.13,2.13c-.67,0-.45-1.12-2.69-1.46a4.86,4.86,0,0,0-.56-.11c-1.9-.22-5.38-.9-8.74-1.12a27.07,27.07,0,0,1-4.59,5.49c-3.14,2.8-10.42,11.42-14.67,15l-3.58,2.8c.11,0,.34.11.45.11,4.82,1.46,5.38.67,10,1.9a72.05,72.05,0,0,0,15.46,2A56.21,56.21,0,0,0,72.69,74.26Zm-46.14.67a34.51,34.51,0,0,0-4.37-1.34c-2-.34-3.58-1.46-6.72-1.46a17.69,17.69,0,0,0-3.14.34c-5,1.34-5.94,2.35-7.73,4.82a5,5,0,0,0-1,2.69,3.19,3.19,0,0,0,2,2.91,5.32,5.32,0,0,0,2.69.67,23.51,23.51,0,0,0,4.26-.67C15,82.43,20.16,80.53,26.54,74.93ZM52,20.38A51.9,51.9,0,0,0,45,19.71a15.79,15.79,0,0,0-2.35.11c-5.71.9-9.63.78-13,1.46s-8.29,3.36-9.52,6.27a2.87,2.87,0,0,0-.22.78c0,2,3.92,2.46,6.5,2.46a32.21,32.21,0,0,0,12-2.46C41.78,27.1,47.26,23.74,52,20.38ZM85.34,19c2.35-.22,4.48-.56,5.94-.78.34,0,.67-.11.9-.11,3.14-.34,8.18-2.35,9.18-4.26a2.07,2.07,0,0,0,.22-.78c0-.9-1.12-1.46-2.91-1.46a7.94,7.94,0,0,0-1.57.11C95,12.32,90.38,14.78,85.34,19Z"/><path class="cls-1" d="M122.53,81c-.45,0-.9.11-1.34.11a30.47,30.47,0,0,1-6.72-.9,8.67,8.67,0,0,1-4.14-2.8c-.9-1.23-2.69-3.14-2.69-4.59s-.45-3.36-.45-4.59c0-.78.56-1.23.67-3,0-1.46,1.34-3.7,3-5.82-2.58,1.46-7.06,3.25-8.18,4s-3.92,1.9-4.7,2.24c-1.23.56-3.47,1.34-4.93,2.13-.9.45-2,.78-2.8,1.23a11.68,11.68,0,0,1-1.79.67c-.78,0-1.57-.45-1.57-1s.78-.67,1.57-1.12c.34-.45.78-.45,1.23-.67a5.52,5.52,0,0,0,2.69-1.12c.34-.45,2.46-1.23,4.26-2.13A17.82,17.82,0,0,0,100,62a32.16,32.16,0,0,1,3.36-1.57c1.34-.67,1.68-.34,3-1.12,1.68-1,8.51-4.7,11.31-6a79.18,79.18,0,0,1,8-3.58,11.28,11.28,0,0,1,3.47-.56,11,11,0,0,1,2.91.34c1.34.56,1.9,2.35,1.9,3.7a6.48,6.48,0,0,1-1.9,4,26.2,26.2,0,0,1-5.49,5,59.14,59.14,0,0,1-6.27,3.92,19.1,19.1,0,0,1-4.59,1.9c0,.67.22,1.34.22,2.13A14.39,14.39,0,0,0,118,75a10.91,10.91,0,0,0,2.69,1.46,14.51,14.51,0,0,0,3.81.34c4,0,5.71-.22,6.5-.56A25.69,25.69,0,0,0,135.29,75c1.34-.56,2.69-.22,3.92-1,.56-.56,3.92-1.46,4.7-1.9a16.28,16.28,0,0,1,2.8-1c.67-.34.22-.22,1.68-1a12,12,0,0,0,1.68-.78,10.37,10.37,0,0,0,1.46-1,3.64,3.64,0,0,1,1.57-.45,1.81,1.81,0,0,1,1,.34,1.49,1.49,0,0,1,.34.78,1,1,0,0,1-.45.78c-.67.34-2.35,1.12-2.35,1.12-.45.45-1.34.78-1.68,1.23-1.57,1-3.14.9-4.93,2a10.4,10.4,0,0,1-2.91,1.12c-1.46.56-2.69.67-2.91.9-.56,1-4.26,1.9-5.71,2.35C132.38,79.18,127.9,80.42,122.53,81Zm-6.38-15.23A21.5,21.5,0,0,0,120.06,64c1.79-1.34,3.7-2.58,4.14-2.91.56-.56,3.36-3.58,3.81-4.26a5,5,0,0,0,1-2.8,1.16,1.16,0,0,0-1.23-.9,3.26,3.26,0,0,0-1.68.67A39.51,39.51,0,0,0,122.19,57c-1.57,1.46-4.37,4.26-5.6,7.39A4.62,4.62,0,0,0,116.14,65.74Z"/><path class="cls-1" d="M172.48,60.82a35.49,35.49,0,0,0-5,2.58,27.82,27.82,0,0,1-4.93,2.24c-.67.22-3.7,1.9-4.7,2.35l-2.91,1.34a6.66,6.66,0,0,1-1.79.67c-.67,0-1.46-.45-1.46-.9s.56-.9,1.46-1.23a2.45,2.45,0,0,1,1.12-.67,5.59,5.59,0,0,0,2.8-1.12,24.07,24.07,0,0,1,4.37-2,24.56,24.56,0,0,1,4.14-2.24c.9-.34,1.23-.9,2.35-1.57a9.28,9.28,0,0,0,2.8-1.34,22.45,22.45,0,0,1,5-2.91,11.16,11.16,0,0,1,1.57-.9,7.13,7.13,0,0,0,2.46-2c.34-.11,1.46-.78,6.94-4.14,1.23-.78,2.35-1.9,3.36-2.69a11.56,11.56,0,0,1,5.49-1.57,5.59,5.59,0,0,1,5,2.91,6.29,6.29,0,0,1,.56,3.47A10,10,0,0,1,200,56c-.78,1.34-.45,3-1.46,4.37a9.32,9.32,0,0,0-1,3.36c0,.34,0,.56.22.56,1,0,.78-.22,2.35-1.34,2.46-1.9,4-3.58,5.15-3.7s1.23-1,1.9-1.46a18.94,18.94,0,0,1,3.36-2.35,29,29,0,0,1,5.6-2.69,10.94,10.94,0,0,1,3.7-.78,5.67,5.67,0,0,1,1.46.22c1.9.45,3.25,1.23,3.92,2.69.34,1.34,1.9,3.92,2,5.6s2.35,4,2.69,5.94a16.84,16.84,0,0,0,3.14,5.49A11,11,0,0,0,239.79,74c3.92,0,4.93-.11,6-.45a48.52,48.52,0,0,0,4.7-1.46,24.79,24.79,0,0,0,4.48-1.9,3.9,3.9,0,0,0,1.68-.78c1.23,0,2.13-1.34,3.7-1.46a1,1,0,0,1,1.12,1c0,.45-.34.67-.34.78l-4.59,2.35c-1.68,1-3.25,1-5.26,2.13a10.28,10.28,0,0,1-2.91.78c-1.68.45-2.91,1.12-3.92,1.12a20.71,20.71,0,0,1-4.93.67,62.86,62.86,0,0,1-9.07-.67c-1.57,0-1.57-.67-3.58-1.23-1.79-.67-1.68-1.34-3.47-2.35-1.57-.9-1.34-.9-2.69-3.14-1.46-2.46-1.9-3.36-2.24-4.93-.45-2-.56-3.14-.78-4.37-.34-1.79-.45-3.58-2.13-3.58a8.56,8.56,0,0,0-2.35.56,11.3,11.3,0,0,0-2.8,1.9,19.7,19.7,0,0,1-4.37,2.8,6.13,6.13,0,0,0-2.8,2.24c-.67.9-3.25,2-4.93,3.36a10.92,10.92,0,0,0-3.25,3.14c-1.23,1.9-2.8,4-3.81,5.26-.67.9-2.13,3.36-3.81,3.36-1,0-1.68-.45-2.58-1.9a3.92,3.92,0,0,1-.67-2,6.49,6.49,0,0,1,.34-1.57,38.32,38.32,0,0,1,2-4.93c.9-1.57.67-2.24,1.23-3.7a17.79,17.79,0,0,1,1.9-4.14,41.09,41.09,0,0,0,1.9-5.49,4.25,4.25,0,0,0,.11-1.34,4.64,4.64,0,0,0-.11-1.34,2,2,0,0,0-2-1.12,7,7,0,0,0-2.58,1c-.9.9-8,4.48-10.19,5.6A33.49,33.49,0,0,0,172.48,60.82Z"/></g></g></svg>