<svg xmlns="http://www.w3.org/2000/svg" viewBox="0 0 513.07 176.35"><defs><style>.cls-1{fill:#333;}</style></defs><title>message_bg_theomorosa</title><g id="レイヤー_2" data-name="レイヤー 2"><g id="ナビ"><path class="cls-1" d="M50.51,11.09c0,1.46,0,2.8-.11,4h1c5,0,8.85.22,10.42.9a8,8,0,0,0,2.91.34h1.34a.35.35,0,0,1,.11-.22c1.23-2,1.79-3.58,3.58-5.71S78.85,4,81.42,2.69A32.93,32.93,0,0,1,88.14,0c.67,0,2.58.45,2.58,1.34s-1.46.67-3.36.9c-1.9.45-1.46.9-3.81,2a13.61,13.61,0,0,0-5,4.59c-.78,1.46-.56,1.34-1.68,2.24-.9.9-1.9,3.47-2.91,6a30.32,30.32,0,0,0,3.25.11c.9,0,1.79.11,2.58.11,3.25,0,5.38-.34,7.06-.34a31.68,31.68,0,0,0,3.36.11c5.82,0,7.62-.56,8.74-1.12s2.46-2.35,3.7-2.35c1.46,0,3.81,3.47,3.81,4.82s-2.91,2.69-6.27,3.47a26.27,26.27,0,0,1-5.49.67c-2.69,0-5.82-.22-7.73-.34-3.58-.11-9.41-.9-12.1-1a20.06,20.06,0,0,1-2.46-.22A44.49,44.49,0,0,1,70,26.66c-1,2.35-1.79,4.82-3.36,8.29-3.47,7.28-6.5,12.77-7.28,15.46a17.59,17.59,0,0,1-3.7,6.5c-1.46,1.57-2,3.14-3.47,5.6a87.33,87.33,0,0,1-5.94,8.74c-2.58,3.36-4.26,4.59-5.49,6.38s-2,1.34-3.36,2.58c-1.57,1.23-1.34,2.58-3.7,3.7s-5.82,3.58-9.63,4.82a37.83,37.83,0,0,1-11.31,1.57,13.86,13.86,0,0,1-9.3-3.81c-1.9-2.24-3-3.58-3.14-4.82A20.15,20.15,0,0,1,0,78.18c0-2.58.22-3.47,1.34-4.59.9-1.12,3-2.58,4.14-2.58a.76.76,0,0,1,.67.45A6.74,6.74,0,0,1,6.5,73.7c0,.56-.11,1.12-.11,1.9a33.69,33.69,0,0,0,.34,4.82c.22,1.9,1.23,3.14,2.13,4.48C10,86.46,11.2,86.8,14,87.47a11.13,11.13,0,0,0,1.79.22c1.68,0,2.8-.56,3.92-.56,3.14,0,3.7-.34,6.38-2,3.81-2.46,4.93-4.93,6.5-6.5,1.57-1.34,2.13-2.91,3.47-3.58s1.46-2.46,2.13-3.92a142.34,142.34,0,0,1,8-12.88,22.68,22.68,0,0,0,3.58-6c1-2.13,1.46-2.58,2.91-5.49,1.23-2.69,2.58-3.36,3-5.71S59,32.37,60,30.69s2.35-6.5,3.58-8.85l.9-1.9c-2.69-.56-4.48-1.34-6.94-1.46-1.34-.11-4.48-.11-7.84-.11l-.56,1.12C47.94,21.84,48,21.17,47,23.3A16.21,16.21,0,0,1,44,28c-1.46,1.68-1.12,2.35-5.15,5.82s-7.17,6.38-10.19,8.06-3,2.13-4.7,2.8c-1.46.9-9.18,4.7-12.54,4.7S6.5,48.27,5.49,47,1.68,42.78,1.68,40.1a14.78,14.78,0,0,1,1.79-6.83c1-1.9,1.9-3.25,4.93-5.94a27.64,27.64,0,0,1,8-5.15c1.46-.56,6.72-3.25,9-3.92s4-1.68,6.16-1.9c.22,0,.34-.11.56-.11,1.9-.22,3.7-.34,7.28-.45.22,0,.45-.11.67-.11l4.26-.34A19.88,19.88,0,0,0,45,10.86a8.72,8.72,0,0,0-1-4.14c-.78-1.23-1.46-2.13-1.46-2.91S42.78,3,43,3s.56.11.78.11C45,3.14,50.51,8.06,50.51,11.09Zm-7.28,7.28c-1.79,0-3.58.11-4.48.11-3.7.34-9,.22-12.43,1.34S19.15,23.07,17,24s-1.79-.67-5.49,3.25C8.06,31,7.06,31.36,6.27,33.82a22.65,22.65,0,0,0-.78,4.93C5.49,41.33,6.72,44,8.06,45c.67.67,2.13,1,3.92,1a14.26,14.26,0,0,0,3.58-.45A27.11,27.11,0,0,0,25,41.22c2.69-1.9,4.93-5.38,6.27-5.6s3-2.46,4.26-4,1.34-2.69,3.58-5.94c2.46-3.47,3.58-5.15,3.92-6.5A2.86,2.86,0,0,1,43.23,18.37Z"/><path class="cls-1" d="M138.32,74a14.59,14.59,0,0,1-8.06-2c-1.12-.45-3.25-3-3.25-4.14a7.43,7.43,0,0,1-.45-2.46,6.22,6.22,0,0,1,.34-1.9c.34-1.34.11-2.69.56-4.14,0-1.34,1.79-2.69,1.79-4.37-.11-.56-.67-.9-1.46-.9a3,3,0,0,0-1.34.34c-1.23.67-3.25,2.8-4.7,4a47,47,0,0,1-4.14,3.92c-1.46,1-2.8,2.58-4,3.36s-2.69,1.9-3,2.91-3.81,4.59-4.82,5.6-3.58,2.24-4.82,3.36S97.89,80,96.77,80a2.69,2.69,0,0,1-2.91-2.58,9.12,9.12,0,0,1,1.68-5c1.12-2.13.34-5,2.24-6.94,2.13-1.9,1.57-2.91,2.69-6.94-1.79.78-4.26,1.9-5,2.35-1.34.67-3.92,1.79-4.82,2.13-1.46.56-4.14,1.79-4.93,2.13s-1.79.9-2.8,1.34a6.65,6.65,0,0,1-1.79.67c-.56,0-1.46-.45-1.57-1s.78-.67,1.57-1.12c.45-.45.9-.45,1.34-.67A4.61,4.61,0,0,0,85,63.17c.34-.56,2.58-1.46,4.26-2.13A62.7,62.7,0,0,0,96,57.9c1.46-.67,1.68-.45,2.91-1.12L102,55.22a16.49,16.49,0,0,1,1.46-2.13,39.16,39.16,0,0,0,2.24-4.37,45.73,45.73,0,0,1,3.47-6.27c2-3,4-6.83,5.15-7.84a19.46,19.46,0,0,0,3.36-5.26c.78-2.13,4.82-6.94,5.6-8a25.29,25.29,0,0,1,4.14-3.25c1-1.12.9-1.68,2.24-2.91a16.16,16.16,0,0,0,4.37-3.47,10.27,10.27,0,0,1,7.5-3.47c2.58,0,4.37,1.9,4.48,3.36,0,.67.11,1.12.11,1.68a3.35,3.35,0,0,1-.56,1.9c-.78,1.46-.56,1.9-.9,3.25a8.94,8.94,0,0,1-2.24,4.14,5.76,5.76,0,0,0-1.9,2.58c-.34,1.12-2.24,3-2.91,4s-5,5.82-5.82,6.83c-1,1.12-2.24,2.24-4.14,4.14s-6.61,5.49-7.28,6.16-1.79.67-2.69,1.23c-.67.56-.22.78-.78,1.46-.45.45-3.81,2.8-4.93,4.48-.67.9-1,.45-1.79,1.9a51.13,51.13,0,0,0-2.13,5.49c-.45,1.23-1.57,3.14-1.57,4.26-.56,1.12-2.91,5.6-2.91,6.61.56,0,3.25-2.58,3.81-3.14,2.58-2.69,4.82-5.15,5.26-5.15s1.68-1.46,3.14-3c1.68-1.9,4.93-4.26,6.27-6a14.9,14.9,0,0,1,5.38-4.26,5.71,5.71,0,0,1,3.25-.9,10.49,10.49,0,0,1,3.81.78c1.34.45,1.57,1.79,1.57,3.14,0,.9-.11,1.68-.11,2.24a15.38,15.38,0,0,1-.67,4.37A15.9,15.9,0,0,0,135,64c0,.9-.11,1.79-.11,2.58,0,2,1,3.92,2,4.37a14.06,14.06,0,0,0,4.26.67,22.37,22.37,0,0,0,5-.45,55.86,55.86,0,0,0,6.61-1.57,42.11,42.11,0,0,1,4.59-2.13,6.69,6.69,0,0,0,1.79-.67c.34-.34,1.23-.9,1.34-1a4.14,4.14,0,0,1,1.68-.45,1.24,1.24,0,0,1,1.34,1.12,1,1,0,0,1-.45.78l-4,1.9c-1.68.78-3.25,1.34-5.15,2.24-.9.34-2.24.67-2.91.9-1.68.45-3.92,1-5.94,1.34C144,73.7,139.89,74,138.32,74ZM114,47.71c1-.78,5.94-3.81,7.17-5.26,1.34-1.12,3.58-2.24,4.59-3.36a19.61,19.61,0,0,1,2.24-2c.45-.56,3.81-5.82,5.26-6.94s2.13-2.24,3.47-3.36,1.23-2.8,2-3.7a29,29,0,0,0,2.46-4.93,5,5,0,0,0,.22-1.9,18.5,18.5,0,0,0-.22-3c0-.34-.45-.67-1.12-.67a2.18,2.18,0,0,0-1.46.56c-.9,1-2.91,2.35-3.81,3.58s-2.35,1.57-3.25,3.7c-1.23,2-3.14,3.81-3.81,4.93s-2.13,2.91-3.47,4.59a6.53,6.53,0,0,0-1.12,2.24c0,.11-.11.22-.11.34-.11,1-1.9,2.8-2.58,3.92C119.84,37.74,114.91,46.37,114,47.71Z"/><path class="cls-1" d="M196.33,78.4c-.45,0-.9.11-1.34.11a30.53,30.53,0,0,1-6.72-.9,8.67,8.67,0,0,1-4.14-2.8c-.9-1.23-2.69-3.14-2.69-4.59s-.45-3.36-.45-4.59c0-.78.56-1.23.67-3,0-1.46,1.34-3.7,3-5.82-2.58,1.46-7.06,3.25-8.18,4s-3.92,1.9-4.7,2.24c-1.23.56-3.47,1.34-4.93,2.13-.9.45-2,.78-2.8,1.23a11.63,11.63,0,0,1-1.79.67c-.78,0-1.57-.45-1.57-1s.78-.67,1.57-1.12c.34-.45.78-.45,1.23-.67a5.52,5.52,0,0,0,2.69-1.12c.34-.45,2.46-1.23,4.26-2.13a17.85,17.85,0,0,0,3.36-1.57,32.06,32.06,0,0,1,3.36-1.57c1.34-.67,1.68-.34,3-1.12,1.68-1,8.51-4.7,11.31-6a79,79,0,0,1,8-3.58,11.28,11.28,0,0,1,3.47-.56,11,11,0,0,1,2.91.34c1.34.56,1.9,2.35,1.9,3.7a6.48,6.48,0,0,1-1.9,4,26.22,26.22,0,0,1-5.49,5,59.22,59.22,0,0,1-6.27,3.92,19.12,19.12,0,0,1-4.59,1.9c0,.67.22,1.34.22,2.13a14.39,14.39,0,0,0,2.13,4.82,10.93,10.93,0,0,0,2.69,1.46,14.53,14.53,0,0,0,3.81.34c4,0,5.71-.22,6.5-.56a25.73,25.73,0,0,0,4.26-1.23c1.34-.56,2.69-.22,3.92-1,.56-.56,3.92-1.46,4.7-1.9a16.24,16.24,0,0,1,2.8-1c.67-.34.22-.22,1.68-1a12.16,12.16,0,0,0,1.68-.78,10.37,10.37,0,0,0,1.46-1,3.64,3.64,0,0,1,1.57-.45,1.81,1.81,0,0,1,1,.34,1.49,1.49,0,0,1,.34.78,1,1,0,0,1-.45.78c-.67.34-2.35,1.12-2.35,1.12-.45.45-1.34.78-1.68,1.23-1.57,1-3.14.9-4.93,2a10.4,10.4,0,0,1-2.91,1.12c-1.46.56-2.69.67-2.91.9-.56,1-4.26,1.9-5.71,2.35C206.19,76.61,201.71,77.84,196.33,78.4ZM190,63.17a21.53,21.53,0,0,0,3.92-1.79c1.79-1.34,3.7-2.58,4.14-2.91.56-.56,3.36-3.58,3.81-4.26a5,5,0,0,0,1-2.8,1.16,1.16,0,0,0-1.23-.9,3.27,3.27,0,0,0-1.68.67A39.79,39.79,0,0,0,196,54.43c-1.57,1.46-4.37,4.26-5.6,7.39A4.61,4.61,0,0,0,190,63.17Z"/><path class="cls-1" d="M62.27,158.1c1.12-.56,1.9-.56,3.14-1.23.22-.22,1.46-.78,1.9-1.12a3.14,3.14,0,0,1,1.23-.56,2,2,0,0,1,1.34.34,1.07,1.07,0,0,1,.22.78,2.62,2.62,0,0,1-.9,1.12c-1.23.78-2.35,1.12-3.58,1.79-1.68.9-3.36,1.34-5,2.24-2,.78-3.7,2-5.94,2.35s-1.79.67-3.14,1.34c-1.34.45-5.71,1.46-7.73,1.79a42.82,42.82,0,0,1-7.62.78,6,6,0,0,1-1.46-.11c-2.8,2-5.6,4-7.17,4.93-3.81,2-8.51,3.81-12.77,3.81-6.27,0-10.86-4.7-11.31-5.71-.9-1.34-1-.78-2-2.91S.22,163.92.22,158.32a48.34,48.34,0,0,1,3.36-17c2.35-6.16,7.28-11.87,8.85-13.66a55.27,55.27,0,0,1,7.62-8c2.58-1.9,2.91-1.79,4.59-3.81s3-2,4-2.58,3.81-3.25,9.18-6.16,13-3.36,14.56-3.92a18.6,18.6,0,0,1,3-.22,41.19,41.19,0,0,1,4.82.22,11,11,0,0,1,3.92,1.68,6.81,6.81,0,0,1,3.14,4.26c0,1.57-3,3.7-4.37,3.7-.56,0-.78-.9-.78-1.57A5.63,5.63,0,0,0,60,107.7a7.85,7.85,0,0,0-3.25-1.57c-1.12,0-2.24-.22-3.92-.22a24.79,24.79,0,0,0-10.53,2.46c-7.73,3.47-7.62,5.38-8.85,5.94s-2.58,2-3.7,3.14-7.06,9.07-9,11-3.36,5.94-3.7,6.27a13.73,13.73,0,0,0-3,5.26A30.38,30.38,0,0,0,11,150.82a54.8,54.8,0,0,0-.34,6,38.09,38.09,0,0,0,.45,6.38c.78,3.58.9,4.82,2.24,6.61a6.89,6.89,0,0,0,5.26,2.91c2,0,3.36,0,7.06-1.68A26.75,26.75,0,0,0,32,167.28a36.57,36.57,0,0,1-5.6-1.79c-1.79-1-2.35-1.12-3.7-2.91-.34-.56-.11-1.34-.34-2-.34-.34-1.12-.67-1.34-1a14.91,14.91,0,0,1-1.12-6.27c0-3.7.22-4.48,1.46-8.18,1.79-5.49,6.72-12.54,9.07-15s4.7-4.37,6.94-6.5a60.1,60.1,0,0,1,7.28-5.15c3.14-2.13,8.85-5.26,12.66-5.26,6,0,8.29,5.71,8.29,7.62a14.08,14.08,0,0,1-.56,4.93c-.78,2-.56,3.14-1.57,5.71s-5.38,10.08-6.94,12.66c-1.79,2.35-3.92,4.93-5,6.72s-2.58,2.69-4.14,4.7S45.7,158,44.24,159a4.18,4.18,0,0,0-2.13,2.58,20.84,20.84,0,0,1-3.36,3c4.93,0,6.94-.56,9.18-1.34.11,0,.22-.11.34-.11,2.58-.9,3.81-.78,5.82-1.57,1.9-1,3.14-1.12,4.93-2C59.81,159.1,61.6,158.43,62.27,158.1Zm-26.66,6.38a9.51,9.51,0,0,0,2.58-1.9,17.47,17.47,0,0,0,2.58-3.14c1.34-1.79,4.37-4.93,6.83-8a54.75,54.75,0,0,1,5-5.71c1.12-1,1.23-2.35,2.13-4.26.9-1.57,1.57-2.58,2.8-5.15a54.55,54.55,0,0,0,3-6.83,26.22,26.22,0,0,0,1.12-7.28c0-2-.45-4-1.57-5a4.2,4.2,0,0,0-3.36-1.46,12.92,12.92,0,0,0-1.9.11c-3.36.22-10.75,4.82-13.78,7.84-2.8,2.8-3.36,4.26-4.48,4.93s-.9.78-3,4.26-2.69,3.81-3.81,6.16a25.18,25.18,0,0,0-2.91,8.06c-.11,1.23-.22,2.8-.22,4.37a18.29,18.29,0,0,0,1,6.83,10.94,10.94,0,0,0,3.14,4A9.66,9.66,0,0,0,35.62,164.48Z"/><path class="cls-1" d="M177.63,157.54a6,6,0,0,0,1.68-.78,4.27,4.27,0,0,0,1.46-.9,3.73,3.73,0,0,1,1.68-.56,1.81,1.81,0,0,1,1,.34,1.49,1.49,0,0,1,.34.78,1,1,0,0,1-.45.78c-.67.34-2.35,1.12-5,2.69-2.46,1.34-6.27,2.24-7.06,2.58a26.81,26.81,0,0,1-11,1.79,15.37,15.37,0,0,1-2.91-.45,19.39,19.39,0,0,1-5.71-2.13,10.9,10.9,0,0,1-4-3.7,14.21,14.21,0,0,1-.9-5.15c0-.78.11-1.9.11-3a5.57,5.57,0,0,0-.22-2,1.19,1.19,0,0,0-1-1.12c-.9,0-1.46.67-2.35,1.12a22.78,22.78,0,0,0-3,2.13,29.11,29.11,0,0,1-3.14,2.58c-1,.67-2.35,2.24-3.58,2.91s-.78.67-2.35,2.13c-1.23,1.23-1.34,2.58-2.58,3.81a7.12,7.12,0,0,1-3.92,1.9c-.9,0-3.36,0-3.36-2,0-1.68.9-3,1.23-4.59a21.27,21.27,0,0,1,1.9-4.26c.56-1.34,1.57-5.71,2.46-6.94a2.08,2.08,0,0,0,.45-1.23,2.22,2.22,0,0,0-.67-1.46.41.41,0,0,0-.34-.11,4.28,4.28,0,0,0-1.9.78,13.58,13.58,0,0,0-2.69,1.9c-1.34,1.12-2.46,1.23-3.58,2.46a8.18,8.18,0,0,1-2,1.9,7.93,7.93,0,0,0-2.8,2.69c-1.12,1.12-2.35,1.46-3.47,2.69-1.34,1.12-2.46,2-3.81,3.25s-3.92,2.69-4.82,3.81c-.56,1.12-2.46,2.24-3.36,3s-1.68,1.79-2.46,1.79-3.25-.11-3.7-1a3.17,3.17,0,0,1-1-2,1.42,1.42,0,0,1,.11-.67c.67-1.12.78-2.24,2-3.47,1.46-1.23,1.9-3.7,2.58-4.48s2-2,2.13-3.14,3.25-3.7,3.25-6.94c0-.78-.67-1.34-2.13-1.34S95.42,145,94,145.66c-2.46,1.46-3.58,1.79-4.14,2.13-1.34.78-5.6,2.24-6.72,3-1.34.67-3.92,1.9-4.82,2.24-1.34.45-3.47,1.57-4.82,2.13a25.34,25.34,0,0,0-2.91,1.23,3.52,3.52,0,0,1-1.79.67,1.6,1.6,0,0,1-1.46-1c0-.45.56-.56,1.46-1.12a4.58,4.58,0,0,1,1.23-.67,6.28,6.28,0,0,0,2.69-1.12c.45-.22,2.58-1.46,4.26-2.13,1-.34,2.8-1.34,3.36-1.57a23.51,23.51,0,0,0,3.36-1.57c1.46-.78,1.79-.34,3-1.12.67-.45,6.5-3.81,9.18-5,1.9-.9,5.38-2.91,8.06-2.91a6.44,6.44,0,0,1,3.47.9,4.19,4.19,0,0,1,2,3.7,21.29,21.29,0,0,1-2,7.39,10.23,10.23,0,0,0-1.12,2.69c0,.22.11.22.22.22a3.13,3.13,0,0,0,2-1,31.72,31.72,0,0,1,3.36-3.36c.78-.67,1.9-2.24,2.58-2.35a9.71,9.71,0,0,0,3-1.79c.78-.78,3.14-2.24,3.81-2.91.78-1,3.14-2.46,3.92-3.25a8.6,8.6,0,0,1,4-1.34,6.63,6.63,0,0,1,4.82,3A7.34,7.34,0,0,1,135,144a6,6,0,0,1-.56,2.24c-1.12,2.13-.56,2.46-1.9,4.26a7.68,7.68,0,0,0-.67,2.24c.34-.22,2.13-1.12,2.35-1.34a24.27,24.27,0,0,1,3.36-2.58c1.34-1.12,2.24-2.13,3-2.13.45,0,.78-.67,1.57-1.23,1.57-1.12,3.81-2.69,5.82-2.69,1.57,0,3.7.45,4.7,1.68,1.79,2.13,2.35,3.92,2.35,4.82s.56,3.92.78,5.26.9,3,1.68,3.47,1.79,1.57,2.69,1.9A11.56,11.56,0,0,0,164.3,161a20.73,20.73,0,0,0,6.72-1c.78-.34,1.79-.45,2.58-.78S176.29,158.32,177.63,157.54Z"/><path class="cls-1" d="M240.8,157.31a14.8,14.8,0,0,1,1.68-.56,7.32,7.32,0,0,0,1.46-.9,3.73,3.73,0,0,1,1.68-.56,1.3,1.3,0,0,1,1.23,1.12c0,.45-.45.67-.56.78a21.16,21.16,0,0,1-2.13,1.12c-.56.45-2,.67-2.46,1a14.62,14.62,0,0,1-2.58.78,8.35,8.35,0,0,0-1.46.67,23.57,23.57,0,0,1-5.82,1.34,64.84,64.84,0,0,1-9,.45,25.49,25.49,0,0,1-6-.9,17,17,0,0,1-4.48,4.48c-1.57.78-1.23,1.34-2.46,1.9a25.5,25.5,0,0,1-11.76,2.58c-.78,0-5-1.12-6-3.7a12.3,12.3,0,0,1-1.46-5,3.87,3.87,0,0,1,.56-2c1.23-1.57.34-2.58,1.23-3.81.9-1,2-3.7,2.46-4.14a.87.87,0,0,1,.11-.34c-.9.9-2.24,1-2.91,1.46a32.86,32.86,0,0,1-4.93,2c-.45.11-2.8,1.34-2.8,1.34a11.63,11.63,0,0,1-1.79.67c-.78,0-1.57-.45-1.57-1s.78-.67,1.57-1.12c.34-.45.78-.45,1.23-.67a5.52,5.52,0,0,0,2.69-1.12,14.31,14.31,0,0,1,4.26-2.13c4.59-2,5.94-3.25,7.28-3.25a8.9,8.9,0,0,0,2.8-1.23c-.11-.78-.45-1.57-.45-2.13,0-.22,0-.34.11-.45.45-1.9,0-3.25,1.23-4.7a11.22,11.22,0,0,1,4.14-3,26.39,26.39,0,0,1,5.15-1.9,27.76,27.76,0,0,1,4-.45,10.32,10.32,0,0,1,5.38,2.13c1,.9,1.57,2.58,2.24,3.7a13.49,13.49,0,0,1,.9,5.26,11.26,11.26,0,0,1-.22,2.13c-.22,2.24-.22,4.37-1,5.49s-1.23,2.35-1.9,3.58c0,.11-.11.22-.11.34a12.91,12.91,0,0,1-2,3,24.07,24.07,0,0,0,5.6,1c1.79,0,3-.22,4.14-.22.9,0,1.23.11,1.57.11a16.34,16.34,0,0,0,4.7-.9,25.12,25.12,0,0,0,3.92-1.34A24.12,24.12,0,0,0,240.8,157.31Zm-27.1,3.25a17.24,17.24,0,0,1-3.81-1.9c-.78-.67-2.35-1.57-3.47-2.58a34.56,34.56,0,0,1-3.7-4.59l-1.46,2.58a27.87,27.87,0,0,0-1.79,6.16,33.1,33.1,0,0,0-.34,3.47c0,2.8,1,3.58,1.79,3.92a3.25,3.25,0,0,0,1.57.34,9.87,9.87,0,0,0,2.24-.34c1-.34,2.13-1.34,3.47-1.79,1.34-.67,2-1.9,3.14-2.58C211.79,162.91,212.69,161.68,213.7,160.56Zm1.68-2.69,1.12-1.79a25.22,25.22,0,0,0,1.34-4.48c.34-1.12.34-3.14.56-4.48a4.62,4.62,0,0,0,.11-1.23,8.2,8.2,0,0,0-.45-2.58c-.34-1,.11-2.58-1.12-3.25-1.46-.78-1.57-1.9-3.14-3a3.86,3.86,0,0,0-1.79-.56c-.34,0-.67.11-1.23.11-1.23.22-1.68,1.34-2.24,2.35a4.23,4.23,0,0,0-.45,2.35c0,.56.11,1,.11,3.36a6.18,6.18,0,0,0,.22,2,41.68,41.68,0,0,1,1.34,4.59,8.18,8.18,0,0,0,2.35,4.14C212.91,156.08,214.25,157.09,215.38,157.87Z"/><path class="cls-1" d="M280.33,166.61c-1.68,0-5.82-.78-6.72-1.46a9.26,9.26,0,0,1-2.8-5.49c0-1.12.45-3.25,1.12-3.58s.11-1.57,1-3.25,2.46-2.8,2.69-3.47c0-.22,2.91-3.7,2.91-4.26-.67-.67-1.9-1-3.58-2.13-3.25,2-6.83,3.92-8.06,4.48-1.12.78-5.6,2.58-6.83,3.36s-3.92,1.9-4.7,2.24l-4.93,2.24a24.17,24.17,0,0,1-2.8,1.12,9.51,9.51,0,0,1-1.9.67c-.67,0-1.34-.45-1.34-1s.56-.56,1.34-1a2.81,2.81,0,0,1,1.23-.56,7.38,7.38,0,0,0,2.8-1.23,21.93,21.93,0,0,1,4.26-2l3.36-1.79a29.5,29.5,0,0,0,3.36-1.57,7.39,7.39,0,0,0,3-1.34c.67-.45,6.16-3.14,9.3-4.82a5,5,0,0,1-1.12-1.34,8,8,0,0,1-2-4.48,15.41,15.41,0,0,1,.67-5.6,13.24,13.24,0,0,1,3.14-4.59c1.34-1.23,5.15-2.46,7.84-2.46a6.9,6.9,0,0,1,3.47.67c1,.67,2.13.9,2.13,2.35,0,.67.67,1.12.67,2a7.07,7.07,0,0,1-1.34,4.37c-1.34,1.9-2.13,2-2.8,3.7s-2.69,2.13-4.14,3.81c-.45.34-.67.78-1.23,1,1.68,2,3.7,2.24,5,3.25a6.8,6.8,0,0,1,2.35,4.59.84.84,0,0,1-.11.56c-.34.9-1.79,2-2.46,3.14a27.93,27.93,0,0,0-2.13,3.36,6.48,6.48,0,0,0-1,3.36,3.62,3.62,0,0,0,2.69,3.58,11.73,11.73,0,0,0,2.69.34,5.51,5.51,0,0,0,1.46-.11c1.46-.67,3.25-.34,4.14-.78,1.12-.56,2.58-.22,3.81-1,.56-.56,3.81-1.23,4.37-1.79.78-.45,2.35-.78,3-1.12s.22-.22,1.9-1c2-1,2.35-1.12,2.91-1.68a2.75,2.75,0,0,1,1.34-.45c.22,0,.34-.11.45-.11a.86.86,0,0,1,.56.22c.34.34.67.56.67.9,0,.78-1.9,1.34-2.8,1.9-.56.34-1,.45-1.68.78-1.34,1.12-3.25,1.34-5,2.46-.34.22-2.8,1-2.8,1.12-1.57.56-2.35.45-2.58.78-.67.9-4.82,1.57-6,2.13A85.64,85.64,0,0,1,280.33,166.61Zm-3.7-30.24a11.06,11.06,0,0,0,.34,2.69c3.81-2.46,4.7-3.58,5.71-5,.78-1.57.45-2,1.34-3.58a2.36,2.36,0,0,0,.45-1.23c0-.56-.34-1.12-.45-1.9a2.08,2.08,0,0,0-2-2,4.16,4.16,0,0,0-3,1.9c-.56,1-1,1.12-1.57,2.13s-.56,2.69-.56,4A18.48,18.48,0,0,0,276.64,136.37Z"/><path class="cls-1" d="M367,157.31a14.8,14.8,0,0,1,1.68-.56,7.32,7.32,0,0,0,1.46-.9,3.73,3.73,0,0,1,1.68-.56,1.3,1.3,0,0,1,1.23,1.12c0,.45-.45.67-.56.78a21.16,21.16,0,0,1-2.13,1.12c-.56.45-2,.67-2.46,1a14.62,14.62,0,0,1-2.58.78,8.35,8.35,0,0,0-1.46.67,23.57,23.57,0,0,1-5.82,1.34,64.84,64.84,0,0,1-9,.45,25.49,25.49,0,0,1-6-.9,17,17,0,0,1-4.48,4.48c-1.57.78-1.23,1.34-2.46,1.9a25.5,25.5,0,0,1-11.76,2.58c-.78,0-5-1.12-6-3.7a12.3,12.3,0,0,1-1.46-5,3.87,3.87,0,0,1,.56-2c1.23-1.57.34-2.58,1.23-3.81.9-1,2-3.7,2.46-4.14a.87.87,0,0,1,.11-.34c-.9.9-2.24,1-2.91,1.46a32.86,32.86,0,0,1-4.93,2c-.45.11-2.8,1.34-2.8,1.34a11.63,11.63,0,0,1-1.79.67c-.78,0-1.57-.45-1.57-1s.78-.67,1.57-1.12c.34-.45.78-.45,1.23-.67a5.52,5.52,0,0,0,2.69-1.12A14.31,14.31,0,0,1,317,151c4.59-2,5.94-3.25,7.28-3.25a8.9,8.9,0,0,0,2.8-1.23c-.11-.78-.45-1.57-.45-2.13,0-.22,0-.34.11-.45.45-1.9,0-3.25,1.23-4.7a11.22,11.22,0,0,1,4.14-3,26.39,26.39,0,0,1,5.15-1.9,27.76,27.76,0,0,1,4-.45,10.32,10.32,0,0,1,5.38,2.13c1,.9,1.57,2.58,2.24,3.7a13.49,13.49,0,0,1,.9,5.26,11.26,11.26,0,0,1-.22,2.13c-.22,2.24-.22,4.37-1,5.49s-1.23,2.35-1.9,3.58c0,.11-.11.22-.11.34a12.91,12.91,0,0,1-2,3,24.07,24.07,0,0,0,5.6,1c1.79,0,3-.22,4.14-.22.9,0,1.23.11,1.57.11a16.34,16.34,0,0,0,4.7-.9,25.12,25.12,0,0,0,3.92-1.34A24.12,24.12,0,0,0,367,157.31Zm-27.1,3.25a17.24,17.24,0,0,1-3.81-1.9c-.78-.67-2.35-1.57-3.47-2.58a34.56,34.56,0,0,1-3.7-4.59l-1.46,2.58a27.87,27.87,0,0,0-1.79,6.16,33.1,33.1,0,0,0-.34,3.47c0,2.8,1,3.58,1.79,3.92a3.25,3.25,0,0,0,1.57.34,9.87,9.87,0,0,0,2.24-.34c1-.34,2.13-1.34,3.47-1.79,1.34-.67,2-1.9,3.14-2.58C338,162.91,338.91,161.68,339.92,160.56Zm1.68-2.69,1.12-1.79a25.22,25.22,0,0,0,1.34-4.48c.34-1.12.34-3.14.56-4.48a4.62,4.62,0,0,0,.11-1.23,8.2,8.2,0,0,0-.45-2.58c-.34-1,.11-2.58-1.12-3.25-1.46-.78-1.57-1.9-3.14-3a3.86,3.86,0,0,0-1.79-.56c-.34,0-.67.11-1.23.11-1.23.22-1.68,1.34-2.24,2.35a4.23,4.23,0,0,0-.45,2.35c0,.56.11,1,.11,3.36a6.18,6.18,0,0,0,.22,2,41.68,41.68,0,0,1,1.34,4.59,8.18,8.18,0,0,0,2.35,4.14C339.13,156.08,340.48,157.09,341.6,157.87Z"/><path class="cls-1" d="M403.31,166.83c-1.23,2-3.7,3.36-4.59,4.14a7.52,7.52,0,0,1-3.58,2,15.69,15.69,0,0,1-5,.67,9.87,9.87,0,0,1-4.37-1c-2-1-2.46-.9-3-2.69a9.61,9.61,0,0,1-.45-2,1.75,1.75,0,0,1,.67-1.34,11.65,11.65,0,0,1,3.92-1.9c1.12-.22,4-1,5.38-1.12a22.21,22.21,0,0,0,3.81-.34,9.85,9.85,0,0,1,1.68-.22,24.12,24.12,0,0,1-.45-5.15,8,8,0,0,0-.34-2.91c-.67-1.34-.34-4.48-.9-6.83a23.24,23.24,0,0,0-.34-2.35,10.66,10.66,0,0,1-2.46,1.68c-1.23.78-5.71,2.58-6.83,3.36-1.34.67-3.92,1.9-4.82,2.24l-7.73,3.36a4.61,4.61,0,0,1-1.79.67,1.6,1.6,0,0,1-1.46-1c0-.45.56-.67,1.46-1.12a4.54,4.54,0,0,1,1.23-.67,4.65,4.65,0,0,0,2.69-1.12,18.11,18.11,0,0,1,4.26-2.13l3.36-1.57A29.42,29.42,0,0,0,387,147.9c1.46-.67,1.9-.22,3-1.12.67-.34,3.14-1.9,5.49-3.36-.11-1.12-.22-2.35-.22-3.36a8,8,0,0,1,.22-2.13c.34-1.34,1.46-3,1.46-3.58,0-2,1-3,3-5,1.57-1.68,6.72-3,8.18-3,1.23,0,2.35,1.46,2.69,2a5.86,5.86,0,0,1,.9,2.58,4.17,4.17,0,0,1-.45,1.79,7.12,7.12,0,0,1-1.57,2.46c-.78.9-1.23,2.13-1.9,2.69a19.06,19.06,0,0,0-3.36,2.58,5.93,5.93,0,0,1-1.23,1,23,23,0,0,0,1.23,8.18c.56,1.12.67,2.24.67,8.06a21,21,0,0,1-.45,4.48,10.36,10.36,0,0,0,2.24-.11,29.75,29.75,0,0,0,3.92-.67c1.34-.45,2.58.11,3.92-.78.56-.34,4.14-.67,4.82-1a30.72,30.72,0,0,1,3-.9,17.86,17.86,0,0,0,2.58-.9c.45-.22,2.58-.9,2.91-1s1.23-.45,1.57-.9a4.27,4.27,0,0,1,1.68-.56,1.27,1.27,0,0,1,.9.34c.34.34.45.56.45.78,0,.45-.45.67-.56.78-.67.34-2.35,1.12-2.35,1.12-.45.45-2,.45-2.46.78a18,18,0,0,1-6.72,2.46l-3.36.56a6.57,6.57,0,0,0-2.91.78c-.9.78-5.94,1.12-10.19,1.68A12.59,12.59,0,0,1,403.31,166.83ZM397,165.6c-4.7.78-9.3.78-11.09,2.13a1.55,1.55,0,0,0-.56,1c0,.34.22.56.56.9.9.56,3.47.78,5,.78a5.92,5.92,0,0,0,4.37-1.79A10,10,0,0,0,397,165.6Zm6-27.55c1.68-1.46,3.14-2.91,3.58-3.36a7.43,7.43,0,0,0,1.9-4.37c0-.34-.34-.45-.67-.45a3.29,3.29,0,0,0-1.9.67c-1.34,1-2.24,3.14-2.69,4.26A16.59,16.59,0,0,0,403.09,138Z"/><path class="cls-1" d="M433.21,156.42a11.63,11.63,0,0,1-1.79.67c-.78,0-1.57-.45-1.57-1s.78-.67,1.57-1.12c.34-.45.78-.45,1.23-.67a5.52,5.52,0,0,0,2.69-1.12c.34-.45,2.13-1.34,4.7-2.35a45.41,45.41,0,0,0,6.27-2.91c1.34-.67,1.79-.22,3-1.12a29.79,29.79,0,0,0,3.47-1.34c2.35-1,2.69-1.23,3.36-1.57,5.15-2.35,7.84-3.25,10.3-4.14,1.68,0,3.36-2,5.38-2,1.23,0,2.35-1.12,3.81-1.12.45,0,1.23.11,1.79.11a.8.8,0,0,0,.67-.34c.22-.34,1.9-.45,3.36-.45a7.1,7.1,0,0,1,6.61,6.61c0,1.9,0,2.58-.9,3.81-.67,1.12-1.79,2.35-2.91,2.35a1.32,1.32,0,0,1-1.12-1.46,8.09,8.09,0,0,1,1.9-3.36,1.89,1.89,0,0,0,.22-1c0-1-.34-2.35-1.12-2.8a4.6,4.6,0,0,0-3.25-1.12c-.34,0-.78.11-1.12.11a26.94,26.94,0,0,0-5.6,2.13c-2.8,1.34-4.48,3-6.83,4a26.64,26.64,0,0,0-6.94,5.71,23.1,23.1,0,0,0-3.47,4.82c-2.13,3.58-2.24,3.92-2.58,5.82,0,.34-.11.56-.11.78,0,1.46.78,1.9,1.79,1.9s4.37-2.24,5.38-3c1.34-1.23,3.36-2.58,5.15-4.26a40.48,40.48,0,0,0,2.46-3.47,7.94,7.94,0,0,1,5-3,8.6,8.6,0,0,1,3-1,1.53,1.53,0,0,1,1.57,1.57,1.42,1.42,0,0,1-.11.67,5.05,5.05,0,0,0-.11,1.23c0,.78.11,1.34.11,2.13,0,1,1,4.93,1.9,5.82a14.52,14.52,0,0,0,3.14,1.68c.34.34,3.36.56,5.26.56,2.46,0,4.26-.22,4.93-.67,1.34-.78,2.69-.34,3.92-1.12.56-.56,3.92-1.46,4.59-1.79a16.21,16.21,0,0,1,2.91-1.23c1-.56,1.9-.78,3-1.46a12.18,12.18,0,0,1,1.9-1.12,3,3,0,0,1,1.57-.56,1.27,1.27,0,0,1,.9.34.75.75,0,0,1,.45.78c-.11.34-.67.78-1,1.12-1.23.78-2.46,1.12-3.7,1.79-1.57.9-3.14,1.12-5,2.35a6.08,6.08,0,0,1-2.69,1c-1.57.67-2.58.67-2.91,1-.67.9-4.48,1.46-5.71,2s-5.94.9-8.06,1a9,9,0,0,1-1.79.11,21.18,21.18,0,0,1-6.27-.9,7.13,7.13,0,0,1-4.26-2.58c-1.46-1.79-2.69-3.47-2.8-3.47-.45,0-2,1.34-3.7,1.9-2,.9-4.48,2.91-6,3.92a30.15,30.15,0,0,1-6,2.46,9.92,9.92,0,0,1-2.13.34,8.21,8.21,0,0,1-2.46-.45,4,4,0,0,1-3.7-4.14,14.93,14.93,0,0,1,1.57-6,38.66,38.66,0,0,1,3.47-4.26,8.37,8.37,0,0,0,2.58-3,18.42,18.42,0,0,1,4.48-4.26c-5.26,2-9.86,3.7-11.2,4.48s-3.7,1.79-5,2.46C439.48,153.73,434.89,155.74,433.21,156.42Z"/></g></g></svg>